<svg width="104" height="104" viewBox="0 0 104 104" fill="none" xmlns="http://www.w3.org/2000/svg">
<path d="M40.7254 35H62.6V53.4514M54.1979 55.6671H22M54.1979 48.2938H27.9779M54.1979 40.9207H33.7722M62.6 40.1732H72.0159C74.289 40.3681 75.8969 41.5248 77.0114 43.3948L80.9971 52.7387V61.9975C81.0467 63.56 80.4537 64.2835 79.2956 64.2695H72.7229M72.7229 64.2695C72.7229 66.882 70.6475 69 68.0875 69C65.5272 69 63.4518 66.882 63.4518 64.2695M72.7229 64.2695C72.7229 62.9444 72.189 61.7469 71.3287 60.888C70.4929 60.0533 69.3492 59.5387 68.0875 59.5387C65.5272 59.5387 63.4518 61.6568 63.4518 64.2695M63.4518 64.2695H44.7649M44.7649 64.2695C44.7649 66.882 42.6893 69 40.1292 69C37.5692 69 35.4936 66.882 35.4936 64.2695M44.7649 64.2695C44.7649 61.6568 42.6893 59.5387 40.1292 59.5387C37.5692 59.5387 35.4936 61.6568 35.4936 64.2695M35.4936 64.2695H26.0947" stroke="black" stroke-width="2" stroke-linecap="round" stroke-linejoin="round"/>
</svg>
