<?xml version="1.0" encoding="UTF-8"?>
<!DOCTYPE svg PUBLIC "-//W3C//DTD SVG 1.1//EN" "http://www.w3.org/Graphics/SVG/1.1/DTD/svg11.dtd">
<!-- Creator: CorelDRAW X8 -->
<svg xmlns="http://www.w3.org/2000/svg" xml:space="preserve" width="4.9106mm" height="4.9106mm" version="1.1" style="shape-rendering:geometricPrecision; text-rendering:geometricPrecision; image-rendering:optimizeQuality; fill-rule:evenodd; clip-rule:evenodd"
viewBox="0 0 4911 4911"
 xmlns:xlink="http://www.w3.org/1999/xlink">
 <g>

	<path d="M2455 1140c327,0 623,133 838,347 214,215 346,511 346,838 0,327 -132,623 -346,837 -24,23 -48,46 -74,67 59,21 108,44 146,69 66,42 103,93 103,150 0,100 -122,185 -319,240 -178,51 -424,82 -694,82 -270,0 -515,-31 -694,-82 -197,-55 -319,-140 -319,-240 0,-57 37,-108 103,-150 38,-25 88,-48 146,-69 -25,-21 -50,-44 -73,-67 -215,-214 -347,-510 -347,-837 0,-327 132,-623 347,-838 214,-214 510,-347 837,-347zm666 2164c-167,114 -365,186 -579,202l-5 0 -11 1 -1 0 -6 0 -6 0 -5 1 -6 0 -1 0 -5 0 -6 0 -4 1 -2 0 -11 0 -3 0 0 0 -15 0 -15 0 0 0 -2 0 -12 0 -1 0 -5 -1 -6 0 -5 0 -1 0 -5 0 -6 -1 -6 0 -6 0 -1 0 -10 -1 -6 0c-214,-16 -411,-88 -579,-202 -80,23 -145,49 -189,78 -36,23 -57,46 -57,66 0,50 94,101 245,143 170,48 406,78 667,78 261,0 497,-30 667,-77 151,-43 245,-94 245,-144 0,-20 -20,-43 -56,-66 -45,-29 -110,-55 -190,-78zm-666 -1417c121,0 230,49 309,128 79,80 128,189 128,310 0,120 -49,230 -128,309 -79,79 -188,128 -309,128 -121,0 -230,-49 -309,-128 -79,-79 -128,-189 -128,-309 0,-121 49,-230 128,-310 79,-79 188,-128 309,-128zm238 200c-61,-61 -145,-99 -238,-99 -93,0 -177,38 -238,99 -60,61 -98,145 -98,238 0,92 38,177 98,237 61,61 145,99 238,99 93,0 177,-38 238,-99 61,-60 98,-145 98,-237 0,-93 -37,-177 -98,-238zm-238 -428c184,0 351,74 471,195 121,120 195,287 195,471 0,183 -74,350 -195,471 -120,120 -287,195 -471,195 -184,0 -350,-75 -471,-195 -120,-121 -195,-288 -195,-471 0,-184 75,-351 195,-471 121,-121 287,-195 471,-195zm400 266c-102,-102 -244,-166 -400,-166 -156,0 -297,64 -399,166 -103,102 -166,244 -166,400 0,156 63,297 166,399 102,102 243,166 399,166 156,0 298,-64 400,-166 102,-102 165,-243 165,-399 0,-156 -63,-298 -165,-400zm366 -366c-196,-196 -467,-318 -766,-318 -299,0 -570,122 -766,318 -196,196 -317,466 -317,766 0,299 121,570 317,766 187,186 441,305 723,316l1 0 1 0 13 1 1 0 11 0 2 0 14 0 14 0 2 0 11 0 1 0 13 -1 1 0 1 0c282,-11 537,-130 723,-316 196,-196 317,-467 317,-766 0,-300 -121,-570 -317,-766z"/>
 </g>
</svg>
