<svg xmlns="http://www.w3.org/2000/svg" xml:space="preserve" version="1.1" style="shape-rendering:geometricPrecision; text-rendering:geometricPrecision; image-rendering:optimizeQuality; fill-rule:evenodd; clip-rule:evenodd" viewBox="0 0 4741 4741">
	<g>
			<path style="transform: translate(15%, 21%);" class="fil4" d="M1693 318c-206,0 -394,85 -530,221 -128,128 -210,301 -219,493l1499 0c-10,-192 -92,-365 -220,-493 -136,-136 -323,-221 -530,-221zm-467 1673l344 0 246 0 345 0 67 0 68 0c41,0 78,-16 104,-43 27,-27 44,-64 44,-104l0 -105 0 -633 -1501 0 0 134 0 499 0 105c0,40 16,77 43,104 27,27 64,43 105,43l135 0zm898 74l-271 0 0 181c0,37 15,71 40,96l0 0c24,24 58,39 95,39 38,0 72,-15 96,-39 25,-25 40,-59 40,-96l0 -181zm-591 0l-270 0 0 181c0,37 15,71 39,96l0 0c25,24 59,39 96,39 37,0 71,-15 96,-39 24,-25 39,-59 39,-96l0 -181zm406 -1421c0,-20 17,-37 37,-37 21,0 37,17 37,37l0 172c0,21 -16,37 -37,37 -20,0 -37,-16 -37,-37l0 -172zm-566 0c0,-20 17,-37 37,-37 21,0 37,17 37,37l0 172c0,21 -16,37 -37,37 -20,0 -37,-16 -37,-37l0 -172zm725 -293l141 -248c11,-18 33,-24 51,-14 17,11 24,33 13,51l-143 250c41,29 80,61 115,96 142,142 233,335 242,549l101 0c5,-1 9,-2 15,-2l0 0c8,-1 14,-1 20,-1 57,0 110,23 147,61l1 0c37,38 61,90 61,148l0 498c0,58 -24,110 -61,148 -38,38 -91,61 -148,61 -54,0 -104,-21 -141,-55 -10,41 -31,78 -59,107 -41,40 -96,65 -157,65l-68 0 -30 0 0 181c0,58 -24,110 -62,148 -38,38 -90,61 -147,61 -58,0 -110,-23 -148,-61l0 0c-38,-38 -62,-91 -62,-148l0 -181 -172 0 0 181c0,58 -23,110 -61,148 -38,38 -90,61 -148,61 -57,0 -110,-23 -148,-61l0 0c-38,-38 -61,-91 -61,-148l0 -181 -98 0c-61,0 -117,-25 -157,-65l0 0c-29,-29 -50,-66 -59,-107 -38,34 -87,55 -141,55 -58,0 -110,-23 -148,-61l0 0c-38,-38 -61,-90 -61,-148l0 -498c0,-58 23,-110 61,-148 38,-38 90,-61 148,-61l136 0c9,-212 100,-404 241,-546 36,-35 74,-67 115,-96l-143 -250c-10,-18 -4,-40 14,-51 17,-10 40,-4 50,14l142 248c120,-68 258,-107 404,-107 147,0 285,39 405,107zm555 1524c37,0 71,-16 95,-40 25,-25 40,-59 40,-96l0 -498c0,-37 -15,-71 -40,-96 -24,-24 -58,-39 -95,-39 -5,0 -10,0 -13,0l0 0c-4,0 -8,1 -13,2 -2,0 -4,1 -6,1l-103 0 0 630c0,37 15,71 39,96l0 0c25,24 59,40 96,40zm-1919 0c37,0 71,-16 95,-40 25,-25 40,-59 40,-96l0 -500c0,-4 0,-8 0,-11 -1,-4 -1,-8 -2,-12 -1,-2 -1,-4 -1,-7l0 -103 -132 0c-37,0 -71,15 -96,39 -24,25 -40,59 -40,96l0 498c0,37 16,71 40,96l0 0c25,24 58,40 96,40z"></path>
			<!-- <rect class="fil1" width="3387" height="2540"/> -->
	</g>
</svg>
