<svg viewBox="0 0 22 22" id="rotale-left" xmlns="http://www.w3.org/2000/svg">
  <path d="M8.453 7.542a.835.835 0 0 1-.649.989l-3.883.813-.836-3.642a.834.834 0 0 1 .635-.998.84.84 0 0 1 1.008.628l.276 1.204c.02-.035.029-.075.055-.108a7.564 7.564 0 0 1 5.972-2.881c4.179 0 7.579 3.365 7.579 7.5s-3.4 7.5-7.579 7.5c-4.18 0-7.579-3.365-7.579-7.5 0-.46.377-.834.842-.834.465 0 .842.374.842.834 0 3.215 2.645 5.833 5.895 5.833 3.25 0 5.895-2.618 5.895-5.833 0-3.217-2.645-5.834-5.895-5.834a5.876 5.876 0 0 0-4.284 1.835l.708-.148a.843.843 0 0 1 .999.642z" fill-rule="evenodd" clip-rule="evenodd"></path>
</svg>
