<?xml version="1.0" encoding="UTF-8"?>
<!DOCTYPE svg PUBLIC "-//W3C//DTD SVG 1.1//EN" "http://www.w3.org/Graphics/SVG/1.1/DTD/svg11.dtd">
<!-- Creator: CorelDRAW X8 -->
<svg xmlns="http://www.w3.org/2000/svg" xml:space="preserve" width="4.7412mm" height="4.7412mm" version="1.1" style="shape-rendering:geometricPrecision; text-rendering:geometricPrecision; image-rendering:optimizeQuality; fill-rule:evenodd; clip-rule:evenodd" viewBox="0 0 4741 4741" xmlns:xlink="http://www.w3.org/1999/xlink">

 <path fill="#000000" d="M1219 2456l1248 -760c18,-11 41,-6 52,12l479 786c10,18 5,41 -13,52l-1249 761c-48,28 -103,35 -154,23 -50,-12 -96,-44 -126,-92l-305 -502c-30,-48 -37,-103 -24,-154 12,-51 44,-97 92,-126zm2030 -961l-513 312 282 463 513 -312 -282 -463zm-584 268l577 -352c18,-11 41,-5 52,12l321 528c11,17 5,41 -13,51l-577 352c-18,11 -41,5 -52,-12l-321 -528c-11,-17 -5,-41 13,-51zm206 42l314 -191c17,-11 41,-6 51,12l54 88c11,18 5,41 -13,52l-313 191c-18,11 -41,5 -52,-13l-54 -88c-10,-17 -5,-40 13,-51zm321 -108l-250 152 15 24 249 -152 -14 -24zm-203 302l314 -191c18,-11 41,-5 52,13l53 88c11,17 6,40 -12,51l-314 191c-18,11 -41,6 -52,-12l-53 -88c-11,-18 -5,-41 12,-52zm321 -107l-249 152 14 24 250 -152 -15 -24zm-836 -112l-1216 740c-30,19 -50,48 -58,80 -8,32 -4,67 15,97l307 504c18,29 47,48 78,56 32,8 66,4 95,-14l1219 -742 -440 -721z"/>
</svg>
