<?xml version="1.0" encoding="UTF-8"?>
<!DOCTYPE svg PUBLIC "-//W3C//DTD SVG 1.1//EN" "http://www.w3.org/Graphics/SVG/1.1/DTD/svg11.dtd">
<!-- Creator: CorelDRAW X8 -->
<svg xmlns="http://www.w3.org/2000/svg" xml:space="preserve" width="4.7412mm" height="4.7412mm" version="1.1" style="shape-rendering:geometricPrecision; text-rendering:geometricPrecision; image-rendering:optimizeQuality; fill-rule:evenodd; clip-rule:evenodd"
viewBox="0 0 4741 4741"
 xmlns:xlink="http://www.w3.org/1999/xlink">

  <path fill="#000000" d="M1707 1990c0,-20 16,-37 37,-37 21,0 38,17 38,37l0 1155c0,21 -17,38 -38,38 -21,0 -37,-17 -37,-38l0 -1155zm1384 -332l-619 -323c-18,-10 -25,-33 -16,-51 10,-19 32,-26 51,-16l746 390 66 0c101,0 192,41 258,107 66,66 107,157 107,258l0 1090c0,100 -41,191 -107,257 -66,66 -157,108 -258,108l-1897 0c-100,0 -191,-42 -258,-108 -66,-66 -107,-157 -107,-257l0 -1090c0,-101 41,-192 107,-258l3 -2c66,-65 156,-105 255,-105l1669 0zm228 75l-1897 0c-79,0 -150,32 -203,84l-1 1c-53,53 -85,125 -85,205l0 1090c0,79 32,152 85,204 52,52 124,85 204,85l1897 0c80,0 152,-33 205,-85 52,-52 85,-125 85,-204l0 -1090c0,-80 -33,-152 -85,-205 -53,-52 -125,-85 -205,-85zm-303 439c109,0 208,44 280,116l0 0c72,72 116,171 116,280 0,109 -44,208 -116,280 -72,71 -171,116 -280,116 -109,0 -209,-45 -280,-116 -72,-72 -116,-171 -116,-280 0,-110 44,-209 116,-280l0 0c71,-72 171,-116 280,-116zm227 169c-58,-58 -139,-94 -227,-94 -89,0 -169,36 -227,94 -58,58 -94,138 -94,227 0,88 36,168 94,226 58,58 138,94 227,94 88,0 169,-36 227,-94 58,-58 93,-138 93,-226 0,-89 -35,-169 -93,-227l0 0zm-971 -134c0,-20 17,-37 38,-37 21,0 38,17 38,37l0 721c0,21 -17,38 -38,38 -21,0 -38,-17 -38,-38l0 -721zm-188 -120c0,-21 17,-38 37,-38 21,0 38,17 38,38l0 961c0,21 -17,38 -38,38 -20,0 -37,-17 -37,-38l0 -961zm-189 -97c0,-20 17,-37 38,-37 21,0 38,17 38,37l0 1155c0,21 -17,38 -38,38 -21,0 -38,-17 -38,-38l0 -1155zm-566 217c0,-20 17,-37 38,-37 21,0 38,17 38,37l0 721c0,21 -17,38 -38,38 -21,0 -38,-17 -38,-38l0 -721zm189 -120c0,-21 17,-38 38,-38 21,0 37,17 37,38l0 961c0,21 -16,38 -37,38 -21,0 -38,-17 -38,-38l0 -961z"/>
</svg>
