<svg viewBox="0 0 37 37" id="close-cross" xmlns="http://www.w3.org/2000/svg">
  <path fill-rule="evenodd" clip-rule="evenodd" d="M0 18.5C0 8.283 8.283 0 18.5 0S37 8.283 37 18.5C37 28.718 28.717 37 18.5 37S0 28.719 0 18.5z"></path>
  <path fill-rule="evenodd" clip-rule="evenodd" d="M20.913 18.5l5.227-5.227a1.707 1.707 0 0 0-2.411-2.413l-5.23 5.227-5.227-5.227a1.705 1.705 0 1 0-2.411 2.413l5.227 5.228-5.227 5.227a1.704 1.704 0 0 0 1.206 2.913 1.7 1.7 0 0 0 1.205-.5l5.228-5.227 5.229 5.227c.333.333.768.5 1.205.5a1.707 1.707 0 0 0 1.207-2.913l-5.228-5.227z" fill="#fff"></path>
</svg>
