<?xml version="1.0" encoding="UTF-8"?>
<!DOCTYPE svg PUBLIC "-//W3C//DTD SVG 1.1//EN" "http://www.w3.org/Graphics/SVG/1.1/DTD/svg11.dtd">
<!-- Creator: CorelDRAW X8 -->
<svg xmlns="http://www.w3.org/2000/svg" xml:space="preserve" width="4.7412mm" height="4.7412mm" version="1.1" style="shape-rendering:geometricPrecision; text-rendering:geometricPrecision; image-rendering:optimizeQuality; fill-rule:evenodd; clip-rule:evenodd"
viewBox="0 0 4741 4741"
 xmlns:xlink="http://www.w3.org/1999/xlink">
 <g>
	<path d="M1332 2269c-21,0 -38,-17 -38,-38 0,-20 17,-37 38,-37l503 0c21,0 38,17 38,37 0,21 -17,38 -38,38l-503 0zm1574 1114c-21,0 -38,-17 -38,-38 0,-20 17,-37 38,-37l503 0c21,0 38,17 38,37 0,21 -17,38 -38,38l-503 0zm0 -278c-21,0 -38,-17 -38,-38 0,-21 17,-38 38,-38l503 0c21,0 38,17 38,38 0,21 -17,38 -38,38l-503 0zm0 -279c-21,0 -38,-17 -38,-38 0,-20 17,-37 38,-37l503 0c21,0 38,17 38,37 0,21 -17,38 -38,38l-503 0zm0 -278c-21,0 -38,-17 -38,-38 0,-21 17,-38 38,-38l503 0c21,0 38,17 38,38 0,21 -17,38 -38,38l-503 0zm0 -279c-21,0 -38,-17 -38,-38 0,-20 17,-37 38,-37l503 0c21,0 38,17 38,37 0,21 -17,38 -38,38l-503 0zm-787 1114c-21,0 -38,-17 -38,-38 0,-20 17,-37 38,-37l503 0c21,0 38,17 38,37 0,21 -17,38 -38,38l-503 0zm0 -278c-21,0 -38,-17 -38,-38 0,-21 17,-38 38,-38l503 0c21,0 38,17 38,38 0,21 -17,38 -38,38l-503 0zm0 -279c-21,0 -38,-17 -38,-38 0,-20 17,-37 38,-37l503 0c21,0 38,17 38,37 0,21 -17,38 -38,38l-503 0zm0 -278c-21,0 -38,-17 -38,-38 0,-21 17,-38 38,-38l503 0c21,0 38,17 38,38 0,21 -17,38 -38,38l-503 0zm0 -279c-21,0 -38,-17 -38,-38 0,-20 17,-37 38,-37l503 0c21,0 38,17 38,37 0,21 -17,38 -38,38l-503 0zm-787 -278c-21,0 -38,-17 -38,-38 0,-21 17,-38 38,-38l503 0c21,0 38,17 38,38 0,21 -17,38 -38,38l-503 0zm0 -279c-21,0 -38,-17 -38,-38 0,-20 17,-37 38,-37l503 0c21,0 38,17 38,37 0,21 -17,38 -38,38l-503 0zm0 -278c-21,0 -38,-17 -38,-38 0,-21 17,-38 38,-38l503 0c21,0 38,17 38,38 0,21 -17,38 -38,38l-503 0zm0 1949c-21,0 -38,-17 -38,-38 0,-20 17,-37 38,-37l503 0c21,0 38,17 38,37 0,21 -17,38 -38,38l-503 0zm0 -278c-21,0 -38,-17 -38,-38 0,-21 17,-38 38,-38l503 0c21,0 38,17 38,38 0,21 -17,38 -38,38l-503 0zm0 -279c-21,0 -38,-17 -38,-38 0,-20 17,-37 38,-37l503 0c21,0 38,17 38,37 0,21 -17,38 -38,38l-503 0zm0 -278c-21,0 -38,-17 -38,-38 0,-21 17,-38 38,-38l503 0c21,0 38,17 38,38 0,21 -17,38 -38,38l-503 0z"/>
 </g>
</svg>
