<?xml version="1.0" encoding="UTF-8" standalone="no"?>
<svg xmlns:dc="http://purl.org/dc/elements/1.1/"
   xmlns:cc="http://creativecommons.org/ns#"
   xmlns:rdf="http://www.w3.org/1999/02/22-rdf-syntax-ns#"
   xmlns:svg="http://www.w3.org/2000/svg"
   xmlns="http://www.w3.org/2000/svg"
   version="1.1"
   viewBox="-11 -15 60 60">


  <path fill="#000000" d="m 0.55265,0 h 37.69624 v 26.65908 c 0,0.8367 -0.3345,1.5854 -0.8726,2.1433 -0.5381,0.5431 -1.2798,0.8808 -2.1088,0.8808 H 2.99593 c -0.82897,0 -1.57068,-0.3377 -2.10878,-0.8808 L 0.8726,28.78768 C 0.3345,28.24448 0,27.49578 0,26.65908 V 0 Z m 19.83704,16.57378 c -0.5381,-0.2348 -1.0762,-0.4844 -1.6143,-0.7486 -0.5235,-0.2496 -1.0471,-0.4992 -1.5416,-0.7194 l -0.9453,-0.4404 -0.16,-0.0587 c -0.4799,-0.2055 -1.0034,-0.4404 -1.527,-0.1615 -0.2182,0.1175 -0.3636,0.2789 -0.4654,0.4845 -0.1309,0.2495 -0.1891,0.5725 -0.1891,0.8955 v 6.0188 c 0,0.1762 0.0146,0.323 0.0291,0.4551 0.0291,0.1321 0.0582,0.2349 0.1018,0.3523 0.0582,0.1615 0.1309,0.2642 0.2182,0.367 0.0872,0.0881 0.2036,0.1615 0.349,0.2349 0.0437,0.0147 0.0727,0.0293 0.1018,0.044 0.0437,0 0.1018,0.0147 0.1891,0.0294 0.5963,0.0881 1.1635,-0.1762 1.7306,-0.4551 2.2688,-1.057 4.5521,-2.1139 6.8209,-3.1856 0.1454,-0.0734 0.2908,-0.1615 0.4072,-0.2495 0.1745,-0.1322 0.2908,-0.279 0.349,-0.4258 0.0436,-0.1027 0.0291,-0.2348 -0.0436,-0.3816 -0.0291,-0.0588 -0.0727,-0.1175 -0.1164,-0.1909 -0.189,-0.2349 -0.7562,-0.4991 -1.2071,-0.7046 l -0.3054,-0.1615 z m -1.1489,-1.7469 c 0.5381,0.2496 1.0762,0.5138 1.5852,0.7193 0.8145,0.4258 1.6725,0.7781 2.516,1.1744 0.5527,0.2643 1.2653,0.6019 1.6143,1.0423 0.0873,0.1321 0.1745,0.2643 0.2327,0.3817 0.2182,0.4404 0.2182,0.8661 0.0873,1.2478 -0.1309,0.3523 -0.3781,0.6606 -0.6981,0.9102 -0.1891,0.1468 -0.3927,0.2642 -0.5963,0.3817 -2.2542,0.9395 -4.6247,2.1433 -6.8499,3.1855 -0.7271,0.3524 -1.4398,0.69 -2.356,0.5432 -0.1018,-0.0147 -0.189,-0.0294 -0.2909,-0.0587 -0.1163,-0.0147 -0.2181,-0.0587 -0.3199,-0.1028 -0.2472,-0.1321 -0.4654,-0.2789 -0.6545,-0.4697 -0.189,-0.1909 -0.3344,-0.4258 -0.4508,-0.734 -0.0727,-0.1762 -0.1309,-0.367 -0.16,-0.5579 -0.0291,-0.2055 -0.0581,-0.411 -0.0581,-0.6459 v -6.0188 c 0,-0.4845 0.1018,-0.9689 0.3199,-1.4093 0.2036,-0.3964 0.509,-0.734 0.9453,-0.9542 0.9744,-0.5138 1.7452,-0.1762 2.4433,0.1321 0.3781,0.1468 0.7562,0.3376 1.1198,0.5138 0.5236,0.2202 1.0471,0.4697 1.5707,0.7193 z M 15.51769,1.101 11.53289,8.08868 h 7.068 L 22.58579,1.101 Z M 10.26759,8.08868 14.25249,1.101 H 1.1053 V 8.08868 Z M 23.85099,1.101 19.86619,8.08868 h 7.1698 L 31.02089,1.101 Z m 8.4352,0 -3.9995,6.98768 h 8.8715 V 1.101 Z m 4.872,8.08878 H 1.1053 v 17.4693 c 0,0.5284 0.2036,1.0129 0.55264,1.3505 0.3345,0.3523 0.81443,0.5579 1.33799,0.5579 h 32.27156 c 0.5236,0 0.989,-0.2056 1.338,-0.5579 0.3345,-0.3376 0.5527,-0.8221 0.5527,-1.3505 z" />
</svg>
