<?xml version="1.0" encoding="UTF-8"?>
<!DOCTYPE svg PUBLIC "-//W3C//DTD SVG 1.1//EN" "http://www.w3.org/Graphics/SVG/1.1/DTD/svg11.dtd">
<!-- Creator: CorelDRAW X8 -->
<svg xmlns="http://www.w3.org/2000/svg" xml:space="preserve" width="4.7412mm" height="4.7412mm" version="1.1" style="shape-rendering:geometricPrecision; text-rendering:geometricPrecision; image-rendering:optimizeQuality; fill-rule:evenodd; clip-rule:evenodd"
viewBox="0 0 4741 4741"
 xmlns:xlink="http://www.w3.org/1999/xlink">
  <g id="Слой_x0020_1">
  <metadata id="CorelCorpID_0Corel-Layer"/>
  <g id="_1980719882720">
   <circle fill="none" cx="2371" cy="2371" r="2371"/>
   <path fill="#000000" d="M1662 1832c-17,-12 -21,-36 -9,-52 13,-17 36,-21 53,-9l734 527 0 -996c0,-21 17,-38 38,-38 12,0 22,6 29,14l579 635c14,15 13,39 -3,53 -2,2 -3,3 -5,4l-546 394 542 390c17,12 21,35 9,52l-2 3 -575 655c-14,16 -37,17 -53,3 -9,-7 -13,-17 -13,-28l0 -1009 -735 530c-17,12 -40,8 -52,-8 -12,-17 -8,-41 8,-53l742 -535 -741 -532zm1335 959l-482 -346 0 894 482 -548zm-482 -1391l0 883 487 -350 -487 -533z"/>
  </g>
 </g>
</svg>
