<?xml version="1.0" encoding="UTF-8" standalone="no"?>
<svg
   xmlns:dc="http://purl.org/dc/elements/1.1/"
   xmlns:cc="http://creativecommons.org/ns#"
   xmlns:rdf="http://www.w3.org/1999/02/22-rdf-syntax-ns#"
   xmlns:svg="http://www.w3.org/2000/svg"
   xmlns="http://www.w3.org/2000/svg"
   style="fill:none"
   id="svg4"
   version="1.1"
   viewBox="0 0 37.4636 29.330799"
   height="29.330799"
   width="37.4636">

  <path fill="#000000" d="m 3.6649,0 h 30.1483 c 1.0035,0 1.9197,0.41105 2.5742,1.08633 0.6689,0.67529 1.0762,1.58545 1.0762,2.61306 V 25.6314 c 0,1.013 -0.4073,1.9378 -1.0762,2.6131 -0.6545,0.6606 -1.5707,1.0863 -2.5742,1.0863 H 3.6649 c -1.00347,0 -1.9197,-0.4257 -2.58869,-1.0863 C 0.42176,27.5692 0,26.6444 0,25.6314 V 3.69939 C 0,2.67178 0.42176,1.76162 1.07621,1.08633 1.7452,0.41105 2.66143,0 3.6649,0 Z m 26.018,4.88848 c -0.7853,0 -1.5125,0.32296 -2.0361,0.85144 -0.5235,0.52848 -0.8435,1.26248 -0.8435,2.06988 0,0.7927 0.32,1.5267 0.8435,2.0552 0.5236,0.5285 1.2508,0.8515 2.0361,0.8515 0.7999,0 1.527,-0.323 2.0506,-0.8515 C 32.2571,9.3365 32.577,8.6025 32.577,7.8098 32.577,7.0024 32.2571,6.2684 31.7335,5.73992 31.2099,5.21144 30.4828,4.88848 29.6829,4.88848 Z M 26.876,4.97656 c 0.7272,-0.73401 1.7161,-1.17441 2.8069,-1.17441 1.1053,0 2.0942,0.4404 2.8068,1.17441 0.7272,0.71932 1.1635,1.71754 1.1635,2.83324 0,1.101 -0.4363,2.0993 -1.1635,2.8333 -0.7126,0.7193 -1.7015,1.1744 -2.8068,1.1744 -1.0908,0 -2.0797,-0.4551 -2.8069,-1.1744 -0.7126,-0.734 -1.1489,-1.7323 -1.1489,-2.8333 0,-1.1157 0.4363,-2.11392 1.1489,-2.83324 z m -7.2134,13.97544 5.061,-7.8392 10.9366,16.3243 c 0.4508,-0.4698 0.7272,-1.101 0.7272,-1.8057 V 3.69939 c 0,-0.71933 -0.2909,-1.36525 -0.7563,-1.83501 C 35.1657,1.39461 34.5113,1.10101 33.8132,1.10101 H 3.6649 c -0.71261,0 -1.35251,0.2936 -1.8179,0.76337 C 1.38162,2.33414 1.09075,2.98006 1.09075,3.69939 V 20.4347 L 11.402,5.27016 Z m 15.0959,9.087 -10.0203,-14.959 -4.4503,6.9143 4.9738,8.2355 h 8.5515 c 0.3345,0 0.6544,-0.0587 0.9453,-0.1908 z M 23.9965,28.2298 11.3438,7.2667 1.09075,22.3578 v 3.2736 c 0,0.7194 0.29087,1.3653 0.75625,1.8351 0.46539,0.4697 1.10529,0.7633 1.8179,0.7633 z" />
</svg>
