<?xml version="1.0" encoding="UTF-8"?>
<!DOCTYPE svg PUBLIC "-//W3C//DTD SVG 1.1//EN" "http://www.w3.org/Graphics/SVG/1.1/DTD/svg11.dtd">
<!-- Creator: CorelDRAW X8 -->
<svg xmlns="http://www.w3.org/2000/svg" xml:space="preserve" width="4.7412mm" height="4.7412mm" version="1.1" style="shape-rendering:geometricPrecision; text-rendering:geometricPrecision; image-rendering:optimizeQuality; fill-rule:evenodd; clip-rule:evenodd"
viewBox="0 0 4741 4741"
 xmlns:xlink="http://www.w3.org/1999/xlink">
 <g>
	<path d="M2316 3368c-34,112 -87,64 -87,30 0,-11 27,-77 32,-90 7,-16 21,-91 70,-57 34,24 -2,72 -15,117zm-958 -644c-49,-137 -59,-238 -59,-382 0,-50 22,-238 46,-272 17,-24 43,-21 55,-8 3,3 10,14 10,19 0,18 -27,128 -31,161l-9 129c-1,12 3,22 3,40 0,164 57,292 57,310 0,19 -54,54 -72,3zm145 -88c-12,-115 -28,-132 -28,-278 0,-116 41,-295 99,-393 25,-41 22,-45 55,-92l13 -20c50,-70 72,-90 132,-149 9,-10 6,-7 17,-16l38 -31c63,-50 78,-2 78,4 0,36 -6,30 -32,50 -12,11 -22,20 -35,30 -51,40 -90,90 -129,140 -24,29 -57,87 -76,123 -24,44 -40,94 -55,141 -99,291 54,479 -23,809 -15,67 -72,36 -73,4 -1,-18 36,-148 19,-322zm173 204c27,-199 -30,-320 -30,-474 0,-136 45,-270 114,-383 5,-7 5,-6 10,-14l48 -62c53,-65 125,-123 198,-165 93,-54 234,-93 355,-93 33,0 174,13 200,33 5,3 12,12 12,20 0,61 -44,41 -89,32 -35,-7 -76,-12 -118,-12 -191,0 -297,56 -429,155 -38,29 -84,86 -112,124 -102,141 -132,323 -105,494 5,35 14,72 17,104 15,151 7,286 -39,433 -7,24 -21,73 -33,89 -23,33 -66,13 -66,-17 0,-16 21,-65 27,-83 21,-61 31,-116 40,-181zm162 -303c-13,-74 -21,-97 -21,-183 0,-74 27,-166 54,-215 50,-95 35,-70 99,-146l2 -2c15,-19 63,-58 81,-70 39,-26 89,-55 135,-68 16,-5 32,-11 49,-16 163,-47 357,4 482,105l63 59c66,64 1,103 -33,73 -25,-22 -38,-59 -130,-114 -149,-88 -347,-91 -491,0 -41,25 -34,18 -77,54 -43,36 -91,99 -114,150 -17,39 -19,42 -32,87 -19,72 -19,170 -2,246 23,104 20,178 20,285 0,36 1,82 -37,82 -40,0 -37,-26 -36,-70l4 -85c0,-17 -3,-7 -3,-21 -2,-78 2,-60 -13,-151zm167 -276c12,-37 56,-141 93,-146l25 2c29,14 22,40 5,62 -18,23 -35,49 -46,77 -27,66 -27,136 -13,205 5,26 10,41 14,68 21,153 24,256 -2,411 -18,108 -42,186 -82,285 -11,29 -37,111 -72,111 -15,0 -28,-5 -36,-21 -5,-10 -1,-20 3,-32l29 -61c18,-45 35,-85 50,-134l35 -147c17,-101 29,-317 0,-419 -12,-45 -20,-105 -20,-160 0,-38 8,-72 17,-101zm302 -192c-42,8 -17,12 -62,12 -22,0 -49,-51 3,-71 104,-39 254,-15 336,46 28,21 48,37 72,63 10,10 22,26 30,39 26,38 49,93 59,141 4,23 7,34 11,57 39,236 38,361 19,593 -4,47 -71,457 -126,457 -72,0 -32,-80 -12,-138 27,-82 70,-304 73,-400l5 -113c5,-54 -6,-250 -19,-322 -20,-108 -21,-194 -107,-280 -5,-5 -10,-10 -15,-14l-71 -47c-66,-31 -125,-35 -196,-23zm-563 1145c0,-8 25,-60 30,-75 10,-27 18,-51 26,-76 5,-14 9,-28 12,-41 18,-61 74,-40 74,1 0,22 -40,130 -51,156 -6,15 -9,24 -15,38 -30,66 -76,30 -76,-3zm342 184c-23,0 -43,-19 -29,-58 9,-25 23,-49 33,-73 40,-106 74,-223 89,-335 18,-127 17,-156 17,-280 0,-35 -2,-54 -4,-86 -4,-81 -29,-153 -20,-228 16,-125 166,-210 291,-148 27,13 53,38 72,62 36,45 58,185 64,241 11,115 13,129 13,240 0,30 -30,45 -55,27 -24,-17 -11,-49 -17,-86 -4,-26 -3,-71 -5,-96 -6,-72 -13,-105 -24,-175 -11,-66 -14,-104 -66,-139 -61,-40 -129,-29 -175,25 -3,4 -4,5 -7,10 -3,4 -9,16 -11,19l-6 20c-15,52 11,124 15,188 20,277 0,482 -93,734 -10,27 -20,51 -31,78 -10,24 -20,60 -51,60zm326 0c0,-13 20,-54 24,-66 20,-53 48,-146 60,-201 6,-27 12,-48 16,-73 5,-27 17,-137 27,-149 13,-18 37,-21 55,-3 16,18 6,50 3,73 -22,167 -52,255 -108,414 -28,79 -77,40 -77,5zm-81 -334c30,-150 36,-231 36,-388 0,-117 -11,-180 -29,-292 -5,-28 20,-55 49,-42 24,11 26,49 30,81 13,92 24,197 24,294l-6 120c-14,94 -7,110 -30,223 -7,35 -7,81 -46,81 -51,0 -31,-60 -28,-77zm536 -2c21,-134 26,-219 26,-361 0,-121 -19,-294 -46,-407l-14 -60c-5,-46 51,-59 68,-22l7 25c38,136 58,355 58,504l-3 119c0,92 -43,325 -68,413 -22,76 -81,40 -73,-3 11,-63 32,-126 45,-208zm185 -64c3,-59 12,-136 12,-212 0,-169 -15,-386 -55,-543 -3,-12 -7,-22 -9,-33 -11,-55 -45,-127 -73,-175 -43,-71 -63,-86 -114,-138 -15,-15 -27,-25 -44,-38 -9,-8 -14,-11 -23,-18 -10,-6 -16,-11 -24,-16 -17,-11 -37,-18 -37,-46 0,-19 17,-32 37,-32 22,0 89,52 107,68 47,42 93,84 129,136 96,142 107,213 142,384 5,25 7,47 11,74l19 157c1,56 8,103 8,163 0,129 -7,243 -26,374 -3,24 -6,70 -40,70 -66,0 -25,-77 -20,-175zm224 -90c-57,0 -36,-64 -36,-114 -1,-57 -13,-122 32,-122 39,0 37,31 37,49 1,44 6,-3 0,69 -4,44 13,118 -33,118zm-1267 -1332c0,-31 34,-40 58,-48 86,-29 172,-50 268,-50 178,0 270,15 426,87 72,34 167,100 225,154 56,54 97,107 139,171 49,73 93,174 115,260 8,35 13,68 21,105 17,82 23,136 34,219 3,22 16,76 -35,76 -35,0 -33,-47 -39,-80l-13 -104c-14,-116 -48,-269 -102,-367 -53,-95 -108,-177 -193,-248l-83 -64c-12,-8 -23,-14 -35,-22l-161 -74c-13,-5 -33,-11 -44,-14 -55,-15 -136,-30 -202,-30 -94,0 -219,17 -301,50 -11,4 -20,11 -33,11 -21,0 -45,-4 -45,-32zm1068 89c-5,-5 -10,-8 -16,-13 -7,-6 -9,-10 -16,-17l-119 -93c-45,-33 -104,-62 -155,-85 -28,-12 -56,-24 -88,-34 -87,-29 -169,-23 -169,-71 0,-7 6,-18 10,-23 33,-39 240,46 296,71 119,53 221,130 313,222l62 67 2 3c38,44 76,101 104,152 1,2 4,8 6,11 72,120 134,325 132,462 0,18 14,90 -24,90 -63,0 -38,-32 -46,-88 -5,-34 -6,-75 -13,-110 -44,-216 -124,-389 -279,-544zm-1671 249c0,-9 9,-28 13,-35 51,-84 52,-97 116,-178l67 -75c18,-18 31,-32 50,-48 19,-17 33,-30 53,-45 72,-57 176,-122 262,-152l10 -4c11,-5 21,-9 32,-13 83,-31 212,-62 326,-62 28,0 34,-3 47,11 19,21 11,47 -12,57 -28,12 -153,-5 -329,59 -108,40 -214,94 -303,169l-5 4c-60,52 -119,111 -166,176 -3,4 -3,3 -5,7l-52 79c-17,29 -41,83 -60,83 -20,0 -44,-5 -44,-33z"/>
 </g>
</svg>
