<?xml version="1.0" encoding="UTF-8" standalone="no"?>
<svg xmlns:dc="http://purl.org/dc/elements/1.1/"
   xmlns:cc="http://creativecommons.org/ns#"
   xmlns:rdf="http://www.w3.org/1999/02/22-rdf-syntax-ns#"
   xmlns:svg="http://www.w3.org/2000/svg"
   xmlns="http://www.w3.org/2000/svg"
   style="fill:none"
   id="svg4"
   version="1.1"
   viewBox="-20 -14 60 60">


  <path fill="#000000" d="m 7.7952,28.05367 c 0,-0.7927 0.32,-1.424 0.7854,-1.8644 0.3199,-0.3083 0.7271,-0.5138 1.1489,-0.6019 0.4217,-0.1027 0.8726,-0.088 1.2943,0.0441 0.6109,0.1908 1.178,0.6165 1.5125,1.3359 0.3491,0.7193 0.3054,1.468 0.0146,2.0845 -0.1309,0.2643 -0.3054,0.5138 -0.509,0.7194 -0.2036,0.2202 -0.4509,0.3963 -0.7127,0.5284 -0.6108,0.2936 -1.3379,0.3377 -2.036,0.0147 -0.1455,-0.0734 -0.2763,-0.1321 -0.3781,-0.2055 -0.1309,-0.0881 -0.2473,-0.1762 -0.3636,-0.2936 -0.2327,-0.2202 -0.4218,-0.4991 -0.5527,-0.8074 -0.1309,-0.2936 -0.2036,-0.6313 -0.2036,-0.9542 z m 1.5271,-1.057 c -0.2618,0.2496 -0.4218,0.6019 -0.4218,1.057 0,0.1761 0.0291,0.3523 0.1018,0.5138 0.0727,0.1762 0.1891,0.3376 0.32,0.4698 0.0436,0.044 0.1163,0.088 0.1745,0.1321 0.0872,0.0587 0.16,0.1027 0.2618,0.1468 0.3635,0.1761 0.7562,0.1468 1.0907,-0.0147 0.16,-0.0734 0.2909,-0.1762 0.4218,-0.3083 0.1163,-0.1174 0.2181,-0.2642 0.2908,-0.411 0.16,-0.3377 0.1746,-0.7487 -0.0145,-1.1451 -0.1891,-0.3963 -0.4945,-0.6459 -0.8435,-0.7487 -0.2327,-0.0734 -0.4945,-0.088 -0.7272,-0.0293 -0.2472,0.0587 -0.4799,0.1761 -0.6544,0.3376 z m -6.37,-3.5966 V 4.21319 C 2.9523,3.77279 3.1268,3.4645 3.4177,3.2443 3.694,3.0241 4.0576,2.93602 4.4357,2.93602 h 11.7074 c 0.349,0 0.7271,0.08808 1.0035,0.2936 0.2908,0.20552 0.4799,0.5138 0.4799,0.93953 v 19.23092 c 0,0.323 -0.1454,0.6312 -0.3636,0.8661 -0.2327,0.2202 -0.5381,0.367 -0.8726,0.367 H 4.1739 c -0.3199,0 -0.6399,-0.1468 -0.858,-0.367 -0.2182,-0.2349 -0.3636,-0.5431 -0.3636,-0.8661 z M 4.043,4.21319 v 19.18688 c 0,0.0147 0.0146,0.0587 0.0437,0.0734 v 0.0147 c 0.0291,0.0147 0.0582,0.044 0.0872,0.044 h 12.2164 c 0.0291,0 0.0582,-0.0293 0.0873,-0.044 0.0291,-0.0294 0.0436,-0.0587 0.0436,-0.0881 V 4.16915 c 0,-0.01468 0,-0.02936 -0.0145,-0.04404 C 16.4339,4.06639 16.2885,4.03703 16.1431,4.03703 H 4.4357 c -0.16,0 -0.2908,0.02936 -0.3636,0.08808 C 4.0576,4.13979 4.043,4.16915 4.043,4.21319 Z M 1.1053,3.55258 v 25.39659 c 0,0.1908 0.0145,0.367 0.0582,0.5285 0.0291,0.1614 0.0872,0.3082 0.1309,0.455 0.1599,0.4111 0.4653,0.7781 0.858,1.0423 0.3636,0.2643 0.7854,0.4111 1.2217,0.4111 h 13.8597 c 0.2036,0 0.4072,-0.0441 0.6108,-0.1175 0.2327,-0.0734 0.4509,-0.1908 0.6254,-0.3229 0.0582,-0.0441 0.1018,-0.0734 0.16,-0.1175 0.1454,-0.1468 0.2618,-0.2642 0.3636,-0.3963 0.1018,-0.1175 0.189,-0.2643 0.2617,-0.4404 0.0582,-0.1322 0.1164,-0.3083 0.16,-0.4845 0.0291,-0.1468 0.0582,-0.3083 0.0582,-0.4697 V 3.49386 C 19.4735,3.3177 19.4444,3.15622 19.4153,2.99474 19.3717,2.83326 19.3135,2.67178 19.2553,2.5103 19.2263,2.45158 19.2117,2.39286 19.1681,2.33414 19.139,2.27542 19.0954,2.2167 19.0663,2.15797 18.8627,1.86437 18.5573,1.58545 18.2228,1.39461 17.9028,1.21845 17.5683,1.10101 17.2338,1.10101 H 3.4031 c -0.1599,0 -0.3199,0.02936 -0.4799,0.05872 C 2.7487,1.20377 2.6033,1.26249 2.4724,1.32121 2.2833,1.42397 2.0942,1.55609 1.9197,1.70289 1.7597,1.83501 1.6143,1.99649 1.5125,2.15797 1.3816,2.34882 1.2798,2.56902 1.2071,2.8039 1.1344,3.03878 1.1053,3.28834 1.1053,3.55258 Z M 0,28.94917 V 3.55258 C 0,3.18558 0.0582,2.83326 0.16,2.49562 0.2618,2.14329 0.4072,1.82033 0.6108,1.52673 0.7708,1.29185 0.989,1.05697 1.2071,0.86613 1.4543,0.66061 1.7161,0.46976 1.9779,0.33764 2.1815,0.23488 2.4142,0.1468 2.676,0.08808 2.9087,0.02936 3.1559,0 3.4031,0 h 13.8307 c 0.5236,0 1.0617,0.16148 1.5271,0.42572 0.4799,0.27893 0.9162,0.67529 1.2071,1.10101 0.0581,0.08808 0.1163,0.17616 0.1599,0.27892 0.0582,0.08808 0.1018,0.19084 0.1455,0.2936 0.0872,0.22021 0.16,0.42573 0.2036,0.64593 0.0582,0.23488 0.0872,0.48444 0.0872,0.74868 v 25.54341 c 0,0.2348 -0.029,0.4697 -0.0872,0.7046 -0.0582,0.2642 -0.1309,0.5138 -0.2182,0.69 -0.1163,0.2642 -0.2472,0.4844 -0.4072,0.6899 -0.1454,0.1909 -0.3054,0.3523 -0.4945,0.5285 l -0.1163,0.1028 -0.1309,0.0881 c -0.2472,0.1761 -0.5672,0.3523 -0.9017,0.4697 -0.3199,0.1175 -0.6544,0.1909 -0.9744,0.1909 H 3.3741 c -0.669,0 -1.3089,-0.2349 -1.847,-0.6166 -0.5527,-0.3817 -1.0035,-0.9395 -1.2508,-1.5414 -0.0727,-0.2055 -0.1454,-0.4111 -0.189,-0.6459 C 0.0291,29.46297 0,29.21337 0,28.94917 Z" />
</svg>
