<?xml version="1.0" encoding="UTF-8"?>
<!DOCTYPE svg PUBLIC "-//W3C//DTD SVG 1.1//EN" "http://www.w3.org/Graphics/SVG/1.1/DTD/svg11.dtd">
<!-- Creator: CorelDRAW X8 -->
<svg xmlns="http://www.w3.org/2000/svg" xml:space="preserve" width="4.7412mm" height="4.7412mm" version="1.1" style="shape-rendering:geometricPrecision; text-rendering:geometricPrecision; image-rendering:optimizeQuality; fill-rule:evenodd; clip-rule:evenodd"
viewBox="0 0 4741 4741"
 xmlns:xlink="http://www.w3.org/1999/xlink">
 <g>
	<path d="M1444 1430l2150 0 0 527 0 827 0 527 -2150 0c-82,0 -156,-33 -210,-87l0 0c-54,-54 -87,-128 -87,-210l0 -1287c0,-82 33,-156 87,-210l0 0c54,-54 128,-87 210,-87zm778 824c-31,0 -59,12 -79,32 -21,21 -33,49 -33,80 0,31 12,59 33,79 20,20 48,33 79,33 31,0 59,-13 79,-33 20,-20 33,-48 33,-79 0,-31 -13,-59 -33,-80 -20,-20 -48,-32 -79,-32zm-129 -17c33,-33 79,-54 129,-54 50,0 96,21 129,54 33,33 53,78 53,129 0,50 -20,96 -53,129 -33,33 -79,53 -129,53 -50,0 -96,-20 -129,-53 -33,-33 -54,-79 -54,-129 0,-51 21,-96 54,-129zm1431 -210l-1297 0c-95,0 -180,39 -243,101 -62,62 -100,148 -100,243 0,94 38,180 100,242 63,62 148,101 243,101l1297 0 0 -687zm-1297 -70l1297 0 0 -457 -2080 0c-62,0 -119,26 -160,67 -41,41 -67,98 -67,160l0 1287c0,63 26,119 67,161 41,41 98,66 160,66l2080 0 0 -457 -1297 0c-114,0 -217,-46 -292,-121 -75,-75 -122,-179 -122,-292 0,-114 47,-217 122,-292 75,-75 178,-122 292,-122z"/>
 </g>
</svg>
