<?xml version="1.0" encoding="UTF-8"?>
<!DOCTYPE svg PUBLIC "-//W3C//DTD SVG 1.1//EN" "http://www.w3.org/Graphics/SVG/1.1/DTD/svg11.dtd">
<!-- Creator: CorelDRAW X8 -->
<svg xmlns="http://www.w3.org/2000/svg" xml:space="preserve" width="4.9106mm" height="4.9106mm" version="1.1" style="shape-rendering:geometricPrecision; text-rendering:geometricPrecision; image-rendering:optimizeQuality; fill-rule:evenodd; clip-rule:evenodd" viewBox="0 0 4911 4911" xmlns:xlink="http://www.w3.org/1999/xlink">

 <path  fill="#000000" d="M1638 1582l408 -244c2,-1 4,-3 6,-4 41,-23 87,-28 129,-17 42,11 80,37 105,76 2,2 3,4 4,7l143 240 46 -182c3,-10 9,-19 18,-24l988 -590c19,-12 44,-6 55,13l355 594c11,19 5,44 -14,55l-986 589c-9,6 -21,9 -32,6l-182 -46 145 243c25,41 31,89 20,132 -11,43 -39,83 -80,107l-408 244c-2,1 -4,3 -7,4 -40,23 -86,28 -128,17 -42,-11 -81,-37 -106,-76 -1,-2 -2,-4 -3,-7l-144 -240 -45 182c-3,11 -11,20 -21,26l-986 588c-19,12 -43,6 -55,-13l-354 -594c-12,-19 -5,-44 14,-55l988 -590c9,-6 20,-7 30,-5l181 46 -145 -243c-24,-41 -30,-89 -19,-132 11,-43 38,-83 80,-107zm2226 1232c3,-22 23,-37 45,-34 22,3 38,24 34,46 -29,208 -105,409 -223,586 -113,170 -266,319 -453,431 -188,112 -391,175 -595,194 -212,20 -424,-8 -622,-81 -21,-7 -31,-31 -24,-51 8,-21 31,-32 52,-24 186,68 387,95 587,77 192,-18 384,-78 561,-184 176,-106 320,-246 427,-406 111,-168 183,-357 211,-554zm-390 -55c3,-22 24,-37 46,-34 22,3 37,23 34,45 -22,151 -77,296 -162,424 -82,123 -192,230 -327,311 -135,81 -282,127 -430,140 -153,15 -306,-6 -449,-58 -21,-8 -31,-31 -24,-52 8,-21 31,-31 52,-24 132,49 273,68 414,55 136,-13 271,-55 396,-130 125,-74 226,-173 301,-287 79,-118 129,-251 149,-390zm-434 -62c3,-22 24,-37 46,-34 21,3 37,23 34,45 -13,86 -44,169 -93,242 -47,71 -109,132 -187,178 -77,47 -161,73 -246,81 -87,8 -175,-4 -256,-34 -21,-7 -32,-31 -24,-51 7,-21 30,-32 51,-24 71,26 147,36 222,29 73,-7 145,-30 212,-69 67,-40 121,-93 161,-154 42,-63 69,-135 80,-209zm-1128 -315l0 0 -131 -220 -244 -62 -939 561 314 525 939 -561 61 -243zm-72 -278c0,1 1,3 2,4l147 247 1 1 0 0 194 325c13,22 35,37 58,43 24,6 49,3 71,-10l412 -246c22,-13 37,-34 43,-58 6,-23 3,-49 -10,-71l-195 -325 0 -1 0 0 -148 -247 0 0c-1,-2 -1,-3 -2,-4l-194 -324c-13,-22 -34,-37 -58,-43 -23,-6 -49,-3 -71,10l0 0 -411 246c-22,13 -37,34 -43,58 -6,23 -3,49 10,71l194 324zm651 -367l132 220 243 62 939 -561 -313 -525 -939 561 -62 243z"/>
</svg>
