<svg width="143" height="22" viewBox="0 0 143 22" fill="none" xmlns="http://www.w3.org/2000/svg">
<path d="M141.793 19L133.091 10.0072L128 4.72863C126.035 2.69105 122.772 2.6897 120.805 4.72565L115.703 10.0072L110.595 15.2863C108.63 17.3172 105.374 17.3172 103.409 15.2863L98.3008 10.0072L93.1956 4.72255C91.23 2.68778 87.9691 2.68778 86.0034 4.72254L80.8983 10.0072L75.7903 15.2863C73.8252 17.3172 70.5688 17.3172 68.6037 15.2863L63.4958 10.0072L58.3936 4.72564C56.4268 2.6897 53.1636 2.69105 51.1985 4.72863L46.1077 10.0072L40.9998 15.2863C39.0347 17.3172 35.7783 17.3172 33.8132 15.2863L28.7052 10.0072L23.6001 4.72255C21.6344 2.68778 18.3735 2.68779 16.4079 4.72256L11.3027 10.0072L3 18.5933" stroke="#FFE1ED" stroke-width="5" stroke-linecap="round" stroke-linejoin="round"/>
</svg>
