<svg width="105" height="104" viewBox="0 0 105 104" fill="none" xmlns="http://www.w3.org/2000/svg">
<circle cx="52.3626" cy="51.7875" r="51.7875" fill="#96CDC8"/>
<path fill-rule="evenodd" clip-rule="evenodd" d="M38.5751 32.3198C38.5751 30.4938 40.0689 29 41.8949 29H63.449C65.275 29 66.7688 30.4938 66.7688 32.3198V70.0454C66.7688 71.8714 65.275 73.3652 63.449 73.3652H41.8949C40.0689 73.3652 38.5751 71.8714 38.5751 70.0454V32.3198ZM52.6688 62.737C51.1448 62.737 49.9094 63.9725 49.9094 65.4965C49.9094 67.0205 51.1448 68.256 52.6688 68.256C54.1928 68.256 55.4283 67.0205 55.4283 65.4965C55.4283 63.9725 54.1928 62.737 52.6688 62.737Z" stroke="white" stroke-width="2"/>
</svg>
