<svg width="100" height="100" viewBox="0 0 100 100" fill="none" xmlns="http://www.w3.org/2000/svg">
<circle cx="50" cy="50" r="50" fill="#FFD8B1"/>
<path d="M64.0622 60.9749V74.7314C64.0622 77.3967 61.8972 79.5798 59.2532 79.5798H30.8762C28.2321 79.5798 26.0681 77.3976 26.0681 74.7314V46.1163C26.0681 43.4491 28.2321 41.2669 30.8762 41.2669H43.0417M71.477 25.931L63.3278 40.3374M61.2278 44.0479L58.8831 48.1953M56.6913 52.065L52.852 58.8526M56.6827 61.055L43.6518 68.9168M43.7331 53.6069L43.6528 68.9177M43.7331 53.6069L56.6818 61.0559L75.3078 28.1353L62.3581 20.6853M43.7331 53.6069L58.3591 27.7545" stroke="white" stroke-width="2" stroke-linecap="round" stroke-linejoin="round"/>
</svg>
