<svg width="100" height="100" viewBox="0 0 100 100" fill="none" xmlns="http://www.w3.org/2000/svg">
<circle cx="50" cy="50" r="50" fill="#FFD8B1"/>
<path d="M69.1339 57.493C69.1339 63.9153 63.8824 69.1245 57.4066 69.1245M36.9406 39.459C36.9406 42.7032 34.2862 45.3356 31.0127 45.3356M29.5582 27.2784C30.2405 26.4825 30.8678 25.7479 31.3772 25.1025C34.1893 28.663 40.5471 34.8929 40.5471 39.8541C40.5471 44.8756 36.4406 48.9482 31.3772 48.9482C26.3127 48.9482 22.2062 44.8756 22.2062 39.8541C22.2062 37.589 23.5345 35.0586 25.2402 32.6394M54.5268 33.3937C55.8773 31.8156 57.1192 30.3639 58.1263 29.0847C63.6897 36.1338 76.2733 48.4592 76.2733 58.2763C76.2733 68.2149 68.1478 76.2732 58.1263 76.2732C48.1047 76.2732 39.9793 68.2149 39.9793 58.2763C39.9793 53.5213 42.9351 48.1789 46.6093 43.1319M27.0324 30.2793C27.2403 30.0186 27.3677 29.868 27.6457 29.532L27.0324 30.2793ZM49.134 39.831C49.8291 38.9469 50.0394 38.7025 50.7427 37.852L49.134 39.831Z" stroke="white" stroke-width="2" stroke-linecap="round" stroke-linejoin="round"/>
</svg>
