<svg width="195" height="76" viewBox="0 0 195 76" fill="none" xmlns="http://www.w3.org/2000/svg">
<path d="M190.86 3L182.165 12.0072L177.065 17.2823C175.1 19.315 171.841 19.315 169.876 17.2823L164.776 12.0072L159.678 6.7266C157.712 4.69008 154.449 4.69008 152.483 6.7266L147.386 12.0072L142.285 17.2823C140.32 19.315 137.062 19.315 135.096 17.2823L129.996 12.0072L124.913 6.73267C122.948 4.69335 119.682 4.69199 117.715 6.72969L112.621 12.0072L107.52 17.2823C105.555 19.315 102.297 19.315 100.331 17.2823L95.231 12.0072L90.1335 6.72659C88.1676 4.69007 84.9046 4.69007 82.9387 6.7266L77.8412 12.0072L72.7409 17.2823C70.7756 19.315 67.5171 19.315 65.5518 17.2823L60.4515 12.0072L55.357 6.72969C53.3899 4.69199 50.1247 4.69335 48.1594 6.73268L43.0762 12.0072L37.9759 17.2823C36.0105 19.315 32.7521 19.315 30.7867 17.2823L25.6864 12.0072L20.5889 6.7266C18.623 4.69007 15.3601 4.69007 13.3942 6.7266L8.29667 12.0072L0 20.5933" stroke="#FFD8B1" stroke-width="5" stroke-linecap="round" stroke-linejoin="round"/>
<path d="M191.86 30L183.165 39.0072L178.065 44.2823C176.1 46.315 172.841 46.315 170.876 44.2823L165.776 39.0072L160.678 33.7266C158.712 31.6901 155.449 31.6901 153.483 33.7266L148.386 39.0072L143.285 44.2823C141.32 46.315 138.062 46.315 136.096 44.2823L130.996 39.0072L125.913 33.7327C123.948 31.6933 120.682 31.692 118.715 33.7297L113.621 39.0072L108.52 44.2823C106.555 46.315 103.297 46.315 101.331 44.2823L96.231 39.0072L91.1335 33.7266C89.1676 31.6901 85.9046 31.6901 83.9387 33.7266L78.8412 39.0072L73.7409 44.2823C71.7756 46.315 68.5171 46.315 66.5518 44.2823L61.4515 39.0072L56.357 33.7297C54.3899 31.692 51.1247 31.6933 49.1594 33.7327L44.0762 39.0072L38.9759 44.2823C37.0105 46.315 33.7521 46.315 31.7867 44.2823L26.6864 39.0072L21.5889 33.7266C19.623 31.6901 16.3601 31.6901 14.3942 33.7266L9.29667 39.0072L1 47.5933" stroke="#FFD8B1" stroke-width="5" stroke-linecap="round" stroke-linejoin="round"/>
<path d="M191.86 55L183.165 64.0072L178.065 69.2823C176.1 71.315 172.841 71.315 170.876 69.2823L165.776 64.0072L160.678 58.7266C158.712 56.6901 155.449 56.6901 153.483 58.7266L148.386 64.0072L143.285 69.2823C141.32 71.315 138.062 71.315 136.096 69.2823L130.996 64.0072L125.913 58.7327C123.948 56.6933 120.682 56.692 118.715 58.7297L113.621 64.0072L108.52 69.2823C106.555 71.315 103.297 71.315 101.331 69.2823L96.231 64.0072L91.1335 58.7266C89.1676 56.6901 85.9046 56.6901 83.9387 58.7266L78.8412 64.0072L73.7409 69.2823C71.7756 71.315 68.5171 71.315 66.5518 69.2823L61.4515 64.0072L56.357 58.7297C54.3899 56.692 51.1247 56.6933 49.1594 58.7327L44.0762 64.0072L38.9759 69.2823C37.0105 71.315 33.7521 71.315 31.7867 69.2823L26.6864 64.0072L21.5889 58.7266C19.623 56.6901 16.3601 56.6901 14.3942 58.7266L9.29667 64.0072L1 72.5933" stroke="#FFD8B1" stroke-width="5" stroke-linecap="round" stroke-linejoin="round"/>
</svg>
