<svg width="100" height="101" viewBox="0 0 100 101" fill="none" xmlns="http://www.w3.org/2000/svg">
<circle cx="50" cy="50.4248" r="50" fill="#FFD8B1"/>
<path d="M27.9549 52.9858V68.9831C27.9549 70.572 29.2307 71.8705 30.7899 71.8705H67.8422C69.4022 71.8705 70.6771 70.572 70.6771 68.9831V40.107C70.6771 38.5182 69.4022 37.2197 67.8422 37.2197H30.7899C29.2299 37.2197 27.9549 38.5182 27.9549 40.107V45.6205V52.9858ZM27.9549 52.9858L64.7448 52.871M16.4132 35.0424C20.9823 20.5517 33.3759 33.8081 49.316 37.2197C49.316 37.2197 71.9428 35.0638 72.4113 23.5238M48.9645 37.2188V71.8705M48.9645 37.2188L41.7825 32.6415C27.6976 23.6651 42.0516 9.73972 47.3288 30.7169L48.9645 37.2188ZM48.9645 37.2188C55.0205 8.17142 72.3978 31.8021 48.9645 37.2188Z" stroke="white" stroke-width="2" stroke-linecap="round" stroke-linejoin="round"/>
</svg>
