<svg width="104" height="104" viewBox="0 0 104 104" fill="none" xmlns="http://www.w3.org/2000/svg">
<circle cx="51.9377" cy="52.2123" r="51.7875" fill="#96CDC8"/>
<path d="M38.577 33H63.6073V53.6894M53.9931 56.1738H17.1501M53.9931 47.9062H23.9904M53.9931 39.6388H30.6206M63.6073 38.8006H74.3817C76.9827 39.0192 78.8226 40.3162 80.0979 42.413L84.6586 52.8902V63.2721C84.7153 65.0241 84.0368 65.8353 82.7116 65.8196H75.1907M75.1907 65.8196C75.1907 68.749 72.8159 71.1239 69.8865 71.1239C66.9569 71.1239 64.5821 68.749 64.5821 65.8196M75.1907 65.8196C75.1907 64.3338 74.5797 62.991 73.5954 62.0279C72.6389 61.092 71.3303 60.515 69.8865 60.515C66.9569 60.515 64.5821 62.8901 64.5821 65.8196M64.5821 65.8196H43.1992M43.1992 65.8196C43.1992 68.749 40.8242 71.1239 37.8948 71.1239C34.9654 71.1239 32.5904 68.749 32.5904 65.8196M43.1992 65.8196C43.1992 62.8901 40.8242 60.515 37.8948 60.515C34.9654 60.515 32.5904 62.8901 32.5904 65.8196M32.5904 65.8196H21.8355" stroke="white" stroke-width="2" stroke-linecap="round" stroke-linejoin="round"/>
</svg>
