<svg width="1223" height="790" viewBox="0 0 1223 790" fill="none" xmlns="http://www.w3.org/2000/svg">
<path fill-rule="evenodd" clip-rule="evenodd" d="M0.302124 -0.000244141V775.859L3.97454 782.225L6.92417 787.034C8.87613 790.217 13.5008 790.215 15.4504 787.031L18.3932 782.225L21.3484 777.415C23.3001 774.238 27.9171 774.238 29.8689 777.415L32.824 782.225L35.7772 787.04C37.7283 790.221 42.3503 790.221 44.3014 787.04L47.2547 782.225L50.2098 777.415C52.1616 774.238 56.7786 774.238 58.7303 777.415L61.6855 782.225L64.6386 787.04C66.5897 790.221 71.2117 790.221 73.1629 787.04L76.1161 782.225L79.0712 777.415C81.0229 774.238 85.64 774.238 87.5917 777.415L90.5469 782.225L93.4897 787.031C95.4393 790.215 100.064 790.217 102.016 787.034L104.966 782.225L107.921 777.415C109.873 774.238 114.489 774.238 116.441 777.415L119.396 782.225L122.35 787.04C124.301 790.221 128.923 790.221 130.874 787.04L133.827 782.225L136.782 777.415C138.734 774.238 143.351 774.238 145.303 777.415L148.258 782.225L151.207 787.034C153.159 790.217 157.784 790.215 159.734 787.031L162.676 782.225L165.632 777.415C167.583 774.238 172.2 774.238 174.152 777.415L177.107 782.225L180.06 787.04C182.012 790.221 186.634 790.221 188.585 787.04L191.538 782.225L194.493 777.415C196.445 774.238 201.062 774.238 203.014 777.415L205.969 782.225L208.922 787.04C210.873 790.221 215.495 790.221 217.446 787.04L220.399 782.225L223.344 777.424C225.294 774.244 229.914 774.243 231.867 777.421L234.818 782.225L237.771 787.04C239.722 790.221 244.345 790.221 246.296 787.04L249.249 782.225L252.204 777.415C254.156 774.238 258.773 774.238 260.725 777.415L263.68 782.225L266.633 787.04C268.584 790.221 273.206 790.221 275.157 787.04L278.11 782.225L281.065 777.415C283.017 774.238 287.634 774.238 289.586 777.415L292.541 782.225L295.484 787.031C297.434 790.215 302.058 790.217 304.01 787.034L306.96 782.225L309.915 777.415C311.867 774.238 316.484 774.238 318.435 777.415L321.39 782.225L324.344 787.04C326.295 790.221 330.917 790.221 332.868 787.04L335.821 782.225L338.776 777.415C340.728 774.238 345.345 774.238 347.297 777.415L350.252 782.225L353.202 787.034C355.154 790.217 359.778 790.215 361.728 787.031L364.671 782.225L367.626 777.415C369.578 774.238 374.195 774.238 376.146 777.415L379.101 782.225L382.055 787.04C384.006 790.221 388.628 790.221 390.579 787.04L393.532 782.225L396.487 777.415C398.439 774.238 403.056 774.238 405.008 777.415L407.963 782.225L410.916 787.04C412.867 790.221 417.489 790.221 419.44 787.04L422.394 782.225L425.345 777.421C427.298 774.243 431.917 774.244 433.868 777.424L436.812 782.225L439.766 787.04C441.717 790.221 446.339 790.221 448.29 787.04L451.243 782.225L454.198 777.415C456.15 774.238 460.767 774.238 462.719 777.415L465.674 782.225L468.627 787.04C470.578 790.221 475.2 790.221 477.151 787.04L480.105 782.225L483.06 777.415C485.011 774.238 489.628 774.238 491.58 777.415L494.535 782.225L497.485 787.034C499.437 790.217 504.062 790.215 506.011 787.031L508.954 782.225L511.909 777.415C513.861 774.238 518.478 774.238 520.43 777.415L523.385 782.225L526.338 787.04C528.289 790.221 532.911 790.221 534.862 787.04L537.815 782.225L540.771 777.415C542.722 774.238 547.339 774.238 549.291 777.415L552.246 782.225L555.199 787.04C557.151 790.221 561.773 790.221 563.724 787.04L566.677 782.225L569.622 777.424C571.572 774.244 576.191 774.243 578.144 777.421L581.096 782.225L584.049 787.04C586 790.221 590.622 790.221 592.573 787.04L595.526 782.225L598.481 777.415C600.433 774.238 605.05 774.238 607.002 777.415L609.957 782.225L612.91 787.04C614.861 790.221 619.483 790.221 621.435 787.04L624.388 782.225L627.343 777.415C629.295 774.238 633.912 774.238 635.863 777.415L638.819 782.225L641.761 787.031C643.711 790.215 648.336 790.217 650.288 787.034L653.237 782.225L656.192 777.415C658.144 774.238 662.761 774.238 664.713 777.415L667.668 782.225L670.621 787.04C672.572 790.221 677.194 790.221 679.145 787.04L682.099 782.225L685.054 777.415C687.006 774.238 691.623 774.238 693.574 777.415L696.53 782.225L699.479 787.034C701.431 790.217 706.056 790.215 708.005 787.031L710.948 782.225L713.903 777.415C715.855 774.238 720.472 774.238 722.424 777.415L725.379 782.225L728.332 787.04C730.283 790.221 734.905 790.221 736.856 787.04L739.81 782.225L742.765 777.415C744.717 774.238 749.334 774.238 751.285 777.415L754.241 782.225L757.194 787.04C759.145 790.221 763.767 790.221 765.718 787.04L768.671 782.225L771.623 777.421C773.575 774.243 778.195 774.244 780.145 777.424L783.09 782.225L786.043 787.04C787.994 790.221 792.616 790.221 794.567 787.04L797.521 782.225L800.476 777.415C802.428 774.238 807.044 774.238 808.996 777.415L811.951 782.225L814.905 787.04C816.856 790.221 821.478 790.221 823.429 787.04L826.382 782.225L829.337 777.415C831.289 774.238 835.906 774.238 837.858 777.415L840.813 782.225L843.756 787.031C845.705 790.215 850.33 790.217 852.282 787.034L855.232 782.225L858.187 777.415C860.138 774.238 864.755 774.238 866.707 777.415L869.662 782.225L872.616 787.04C874.567 790.221 879.189 790.221 881.14 787.04L884.093 782.225L887.048 777.415C889 774.238 893.617 774.238 895.569 777.415L898.524 782.225L901.473 787.034C903.425 790.217 908.05 790.215 910 787.031L912.943 782.225L915.898 777.415C917.849 774.238 922.466 774.238 924.418 777.415L927.373 782.225L930.326 787.04C932.278 790.221 936.9 790.221 938.851 787.04L941.804 782.225L944.759 777.415C946.711 774.238 951.328 774.238 953.28 777.415L956.235 782.225L959.188 787.04C961.139 790.221 965.761 790.221 967.712 787.04L970.665 782.225L973.62 777.415C975.572 774.238 980.189 774.238 982.141 777.415L985.096 782.225L988.039 787.031C989.989 790.215 994.613 790.217 996.565 787.034L999.515 782.225L1002.47 777.415C1004.42 774.238 1009.04 774.238 1010.99 777.415L1013.95 782.225L1016.9 787.04C1018.85 790.221 1023.47 790.221 1025.42 787.04L1028.38 782.225L1031.33 777.415C1033.28 774.238 1037.9 774.238 1039.85 777.415L1042.81 782.225L1045.76 787.034C1047.71 790.217 1052.33 790.215 1054.28 787.031L1057.23 782.225L1060.18 777.415C1062.13 774.238 1066.75 774.238 1068.7 777.415L1071.66 782.225L1074.61 787.04C1076.56 790.221 1081.18 790.221 1083.13 787.04L1086.09 782.225L1089.04 777.415C1090.99 774.238 1095.61 774.238 1097.56 777.415L1100.52 782.225L1103.47 787.04C1105.42 790.221 1110.04 790.221 1112 787.04L1114.95 782.225L1117.89 777.424C1119.84 774.244 1124.46 774.243 1126.42 777.421L1129.37 782.225L1132.32 787.04C1134.27 790.221 1138.89 790.221 1140.84 787.04L1143.8 782.225L1146.75 777.415C1148.7 774.238 1153.32 774.238 1155.27 777.415L1158.23 782.225L1161.18 787.04C1163.13 790.221 1167.76 790.221 1169.71 787.04L1172.66 782.225L1175.61 777.415C1177.57 774.238 1182.18 774.238 1184.14 777.415L1187.09 782.225L1190.03 787.031C1191.98 790.215 1196.61 790.217 1198.56 787.034L1201.51 782.225L1204.46 777.415C1206.42 774.238 1211.03 774.238 1212.98 777.415L1215.94 782.225L1218.89 787.04C1219.76 788.461 1221.17 789.247 1222.63 789.399V-0.000244141H0.302124Z" fill="white"/>
</svg>
