<svg width="1229" height="1369" viewBox="0 0 1229 1369" fill="none" xmlns="http://www.w3.org/2000/svg">
<path d="M3.25389 1366.17L3.11056 12.1501C3.11047 11.3388 3.3078 10.5397 3.68553 9.8217L5.87887 5.6525C7.7527 2.09064 12.8524 2.08956 14.7279 5.65064L17.4987 10.9119L20.2709 16.1675C22.1473 19.7247 27.2421 19.7236 29.1169 16.1656L31.8868 10.9089L34.6516 5.6535C36.5261 2.09025 41.6285 2.09093 43.5022 5.65469L46.2631 10.9058L49.0354 16.1615C50.9118 19.7187 56.0065 19.7176 57.8813 16.1596L60.6513 10.9028L63.4197 5.64035C65.2936 2.07851 70.3933 2.07741 72.2687 5.63845L75.0397 10.8998L77.812 16.1555C79.6883 19.7126 84.7831 19.7116 86.6579 16.1536L89.4279 10.8968L92.1963 5.63442C94.0701 2.07256 99.1699 2.07149 101.045 5.63257L103.816 10.8938L106.585 16.1425C108.462 19.701 113.559 19.6982 115.432 16.1376L118.192 10.8908L120.961 5.62844C122.835 2.06657 127.934 2.0655 129.81 5.6266L132.581 10.8878L135.353 16.1435C137.229 19.7006 142.324 19.6996 144.199 16.1416L146.969 10.8848L149.737 5.62243C151.611 2.06055 156.711 2.05946 158.586 5.62055L161.357 10.8817L164.129 16.1374C166.006 19.6946 171.1 19.6935 172.975 16.1355L175.745 10.8787L178.504 5.62634C180.376 2.06182 185.478 2.05902 187.354 5.62149L190.121 10.8757L192.894 16.1314C194.77 19.6885 199.865 19.6875 201.74 16.1295L204.51 10.8727L207.278 5.61032C209.152 2.04845 214.252 2.04738 216.127 5.60846L218.898 10.8697L221.67 16.1253C223.547 19.6825 228.641 19.6814 230.516 16.1235L233.286 10.8667L236.051 5.61133C237.925 2.04807 243.028 2.04873 244.901 5.61248L247.662 10.8637L250.435 16.1194C252.311 19.6765 257.406 19.6754 259.281 16.1175L262.051 10.8606L264.819 5.5983C266.693 2.03643 271.793 2.03537 273.668 5.59646L276.439 10.8576L279.211 16.1133C281.087 19.6705 286.182 19.6694 288.057 16.1115L290.827 10.8546L293.595 5.59229C295.469 2.03041 300.569 2.02933 302.444 5.59041L305.215 10.8516L307.987 16.1072C309.864 19.6644 314.959 19.6634 316.833 16.1054L319.603 10.8486L322.362 5.59626C324.234 2.03172 329.336 2.02892 331.213 5.59139L333.98 10.8456L336.752 16.1013C338.628 19.6584 343.723 19.6574 345.598 16.0994L348.368 10.8426L351.136 5.58018C353.01 2.01831 358.11 2.01724 359.985 5.57832L362.756 10.8395L365.528 16.0952C367.405 19.6524 372.5 19.6513 374.374 16.0933L377.144 10.8365L379.909 5.58119C381.784 2.01793 386.886 2.0186 388.76 5.58234L391.521 10.8335L394.293 16.0892C396.169 19.6463 401.264 19.6453 403.139 16.0873L405.909 10.8305L408.677 5.56816C410.551 2.00629 415.651 2.00523 417.526 5.56632L420.297 10.8275L423.069 16.0832C424.946 19.6404 430.04 19.6393 431.915 16.0814L434.685 10.8245L437.454 5.56215C439.327 2.00027 444.427 1.99919 446.303 5.56028L449.073 10.8215L451.836 16.0671C453.71 19.627 458.808 19.6276 460.683 16.0683L463.45 10.8185L466.218 5.55611C468.092 1.99424 473.192 1.99317 475.067 5.55427L477.838 10.8154L480.61 16.0711C482.486 19.6282 487.581 19.6271 489.456 16.0692L492.226 10.8124L494.995 5.54986C496.868 1.98805 501.968 1.98702 503.844 5.54809L506.614 10.8094L509.387 16.065C511.263 19.6222 516.358 19.6211 518.233 16.0631L521.002 10.8064L523.761 5.55401C525.633 1.98949 530.736 1.98669 532.612 5.54916L535.379 10.8034L538.151 16.0591C540.028 19.6162 545.122 19.6152 546.997 16.0572L549.767 10.8004L552.534 5.53909C554.408 1.97693 559.508 1.97569 561.384 5.53693L564.154 10.7974L566.926 16.053C568.803 19.6101 573.897 19.6091 575.772 16.0511L578.542 10.7943L581.307 5.53893C583.181 1.97569 588.284 1.97638 590.157 5.54013L592.918 10.7913L595.691 16.047C597.567 19.6042 602.662 19.6031 604.537 16.0452L607.307 10.7883L610.075 5.52595C611.949 1.96408 617.049 1.96299 618.924 5.52406L621.695 10.7853L624.467 16.0409C626.344 19.5981 631.438 19.597 633.313 16.039L636.083 10.7823L638.851 5.51989C640.725 1.95803 645.825 1.95698 647.7 5.51806L650.471 10.7793L653.24 16.028C655.117 19.5865 660.214 19.5837 662.087 16.0231L664.848 10.7763L667.616 5.51397C669.49 1.95209 674.59 1.95101 676.465 5.51212L679.236 10.7732L682.008 16.0289C683.884 19.5861 688.979 19.585 690.854 16.0271L693.624 10.7702L696.392 5.50787C698.266 1.94599 703.366 1.9449 705.241 5.50598L708.012 10.7672L710.784 16.0228C712.661 19.58 717.756 19.5789 719.63 16.021L722.4 10.7642L725.159 5.51182C727.031 1.9473 732.133 1.9445 734.01 5.50696L736.777 10.7612L739.549 16.0169C741.425 19.574 746.52 19.573 748.395 16.015L751.165 10.7582L753.933 5.49581C755.807 1.93394 760.907 1.93285 762.782 5.49392L765.553 10.7552L768.325 16.0107C770.202 19.5679 775.296 19.5669 777.171 16.0089L779.941 10.7521L782.71 5.48978C784.583 1.92791 789.683 1.92682 791.559 5.48789L794.329 10.7491L797.092 15.9948C798.967 19.5547 804.064 19.5553 805.939 15.996L808.706 10.7461L811.474 5.48384C813.348 1.92195 818.448 1.92088 820.323 5.48198L823.094 10.7431L825.866 15.9988C827.743 19.556 832.837 19.5549 834.712 15.997L837.482 10.7401L840.251 5.47773C842.124 1.91586 847.224 1.91477 849.1 5.47584L851.87 10.7371L854.643 15.9926C856.519 19.5498 861.614 19.5488 863.489 15.9909L866.258 10.7341L869.017 5.48168C870.889 1.91716 875.992 1.91436 877.868 5.47683L880.635 10.7311L883.407 15.9867C885.283 19.5439 890.378 19.5429 892.253 15.9849L895.023 10.728L897.791 5.46567C899.665 1.9038 904.765 1.90271 906.64 5.46378L909.411 10.725L912.183 15.9806C914.06 19.5378 919.155 19.5368 921.029 15.9788L923.799 10.722L926.564 5.46671C928.439 1.90344 933.541 1.90412 935.415 5.46788L938.176 10.719L940.948 15.9747C942.824 19.5319 947.919 19.5308 949.794 15.9728L952.564 10.716L955.332 5.45359C957.206 1.89173 962.306 1.89068 964.181 5.45176L966.952 10.713L969.724 15.9686C971.601 19.5258 976.696 19.5248 978.57 15.9668L981.34 10.71L984.109 5.44759C985.983 1.88572 991.082 1.88463 992.958 5.4457L995.729 10.7069L998.497 15.9555C1000.37 19.5141 1005.47 19.5113 1007.34 15.9507L1010.1 10.7039L1012.87 5.44161C1014.75 1.87974 1019.85 1.8787 1021.72 5.43982L1024.49 10.7009L1027.27 15.9567C1029.14 19.5138 1034.24 19.5128 1036.11 15.9548L1038.88 10.6979L1041.65 5.43554C1043.52 1.87367 1048.62 1.87257 1050.5 5.43365L1053.27 10.6949L1056.04 15.9505C1057.92 19.5077 1063.01 19.5066 1064.89 15.9487L1067.66 10.6919L1070.42 5.4396C1072.29 1.87505 1077.39 1.87223 1079.27 5.43471L1082.03 10.6889L1084.81 15.9446C1086.68 19.5017 1091.78 19.5006 1093.65 15.9427L1096.42 10.6858L1099.19 5.42135C1101.07 1.86001 1106.17 1.85906 1108.04 5.41971L1110.81 10.6828L1113.59 15.9386C1115.46 19.4958 1120.56 19.4947 1122.43 15.9368L1125.2 10.6798L1127.97 5.42451C1129.84 1.86125 1134.94 1.86192 1136.82 5.42569L1139.58 10.6768L1142.35 15.9325C1144.23 19.4897 1149.32 19.4886 1151.2 15.9306L1153.97 10.6738L1156.73 5.41147C1158.61 1.8496 1163.71 1.84857 1165.58 5.40968L1168.35 10.6708L1171.13 15.9265C1173 19.4836 1178.1 19.4826 1179.97 15.9246L1182.74 10.6678L1185.51 5.40537C1187.38 1.84351 1192.48 1.84246 1194.36 5.40354L1197.13 10.6647L1199.9 15.9204C1201.78 19.4776 1206.87 19.4766 1208.75 15.9186L1211.52 10.6617L1214.28 5.40946C1216.15 1.84491 1221.25 1.8421 1223.13 5.40457L1225.32 9.56523C1225.7 10.2834 1225.9 11.0829 1225.9 11.8946L1226.04 1364.25" stroke="#96CDC8" stroke-width="5" stroke-linecap="round" stroke-linejoin="round"/>
</svg>
