<svg width="716" height="830" viewBox="0 0 716 830" fill="none" xmlns="http://www.w3.org/2000/svg">
<path fill-rule="evenodd" clip-rule="evenodd" d="M0 829.406H707.165L709.826 826.854C711.866 824.898 711.881 821.641 709.859 819.667L706.677 816.561L703.492 813.441C701.476 811.467 701.492 808.217 703.527 806.263L706.743 803.174L709.96 800.089C711.999 798.134 712.015 794.88 709.996 792.905L706.808 789.788L703.623 786.668C701.608 784.694 701.623 781.444 703.658 779.49L706.874 776.401L710.091 773.315C712.13 771.361 712.146 768.107 710.127 766.132L706.939 763.015L703.754 759.895C701.739 757.92 701.755 754.671 703.789 752.717L707.005 749.628L710.216 746.553C712.258 744.599 712.275 741.342 710.255 739.367L707.07 736.252L703.885 733.132C701.87 731.158 701.885 727.909 703.92 725.954L707.136 722.866L710.354 719.78C712.392 717.825 712.408 714.571 710.389 712.596L707.201 709.479L704.016 706.359C702.001 704.385 702.017 701.135 704.051 699.181L707.267 696.092L710.482 693.01C712.521 691.054 712.536 687.797 710.514 685.823L707.332 682.717L704.147 679.597C702.132 677.623 702.148 674.373 704.182 672.419L707.398 669.33L710.616 666.244C712.654 664.29 712.67 661.036 710.651 659.061L707.463 655.944L704.278 652.824C702.263 650.849 702.279 647.6 704.313 645.646L707.529 642.557L710.747 639.471C712.785 637.516 712.801 634.262 710.782 632.288L707.594 629.17L704.415 626.061C702.397 624.088 702.412 620.836 704.447 618.88L707.66 615.795L710.878 612.709C712.916 610.754 712.932 607.5 710.913 605.525L707.725 602.408L704.54 599.288C702.525 597.314 702.541 594.064 704.575 592.11L707.791 589.022L711.009 585.936C713.047 583.981 713.063 580.727 711.044 578.752L707.856 575.635L704.671 572.515C702.656 570.541 702.672 567.291 704.706 565.337L707.922 562.248L711.134 559.173C713.175 557.219 713.192 553.963 711.172 551.987L707.987 548.873L704.802 545.753C702.787 543.779 702.803 540.529 704.837 538.575L708.053 535.486L711.271 532.4C713.309 530.445 713.325 527.191 711.306 525.217L708.118 522.099L704.933 518.979C702.918 517.005 702.934 513.756 704.968 511.801L708.184 508.713L711.399 505.63C713.438 503.674 713.453 500.418 711.431 498.443L708.25 495.337L705.064 492.217C703.049 490.243 703.065 486.993 705.099 485.039L708.315 481.951L711.533 478.865C713.571 476.91 713.587 473.656 711.568 471.681L708.381 468.564L705.195 465.444C703.18 463.47 703.196 460.22 705.23 458.266L708.446 455.177L711.664 452.091C713.702 450.137 713.718 446.883 711.699 444.908L708.512 441.791L705.329 438.674C703.313 436.698 703.33 433.447 705.368 431.493L708.577 428.415L711.795 425.329C713.833 423.374 713.849 420.12 711.83 418.146L708.643 415.028L705.457 411.908C703.442 409.934 703.458 406.685 705.493 404.73L708.708 401.642L711.926 398.556C713.964 396.601 713.98 393.347 711.961 391.372L708.774 388.255L705.588 385.135C703.573 383.161 703.589 379.911 705.624 377.957L708.839 374.869L712.054 371.786C714.094 369.83 714.108 366.573 712.086 364.599L708.905 361.493L705.719 358.373C703.704 356.399 703.72 353.149 705.755 351.195L708.97 348.106L712.188 345.02C714.227 343.066 714.242 339.812 712.223 337.837L709.036 334.72L705.85 331.6C703.835 329.626 703.851 326.376 705.886 324.422L709.101 321.333L712.319 318.247C714.358 316.292 714.373 313.038 712.354 311.064L709.167 307.947L705.988 304.838C703.969 302.864 703.984 299.612 706.02 297.657L709.232 294.571L712.45 291.485C714.489 289.53 714.505 286.276 712.485 284.302L709.298 281.184L706.113 278.064C704.097 276.09 704.113 272.841 706.148 270.886L709.363 267.798L712.581 264.712C714.62 262.757 714.636 259.503 712.616 257.528L709.429 254.411L706.244 251.291C704.228 249.317 704.244 246.067 706.279 244.113L709.494 241.024L712.706 237.949C714.747 235.995 714.765 232.739 712.744 230.763L709.56 227.649L706.375 224.529C704.359 222.555 704.375 219.305 706.41 217.351L709.625 214.262L712.843 211.176C714.882 209.222 714.898 205.968 712.878 203.993L709.691 200.876L706.506 197.755C704.49 195.781 704.506 192.532 706.541 190.578L709.756 187.489L712.971 184.406C715.011 182.45 715.025 179.194 713.003 177.22L709.822 174.113L706.637 170.993C704.621 169.019 704.637 165.77 706.672 163.815L709.887 160.727L713.105 157.641C715.144 155.686 715.16 152.432 713.141 150.457L709.953 147.34L706.768 144.22C704.752 142.246 704.768 138.996 706.803 137.042L710.019 133.953L713.236 130.868C715.275 128.913 715.291 125.659 713.272 123.684L710.084 120.567L706.902 117.45C704.885 115.475 704.903 112.223 706.94 110.269L710.15 107.191L713.367 104.105C715.406 102.151 715.422 98.8966 713.403 96.9219L710.215 93.8047L707.03 90.6845C705.014 88.7105 705.03 85.461 707.065 83.5067L710.281 80.4179L713.498 77.3321C715.537 75.3772 715.553 72.1233 713.534 70.1486L710.346 67.0313L707.161 63.9113C705.146 61.9372 705.161 58.6877 707.196 56.7334L710.412 53.6447L713.623 50.5697C715.665 48.6155 715.682 45.3592 713.662 43.3834L710.477 40.2692L707.292 37.1491C705.277 35.175 705.292 31.9255 707.327 29.9712L710.543 26.8825L713.761 23.7966C715.799 21.8418 715.815 18.5878 713.796 16.6131L710.608 13.4959L707.423 10.3758C705.408 8.40175 705.424 5.15227 707.458 3.19798L710.56 0.21813L666 0V0.40556H0V829.406Z" fill="#96CDC8"/>
</svg>
