<svg width="1231" height="756" viewBox="0 0 1231 756" fill="none" xmlns="http://www.w3.org/2000/svg">
<path fill-rule="evenodd" clip-rule="evenodd" d="M10.7484 0C10.6219 0.0948672 10.4995 0.196045 10.3817 0.303345L4.72437 5.45557L1.52475 8.5542C-0.505266 10.52 -0.503915 13.7764 1.52773 15.7406L4.72437 18.8312L7.92487 21.9357C9.94983 23.8999 9.94982 27.1494 7.92484 29.1136L4.72437 32.218L1.52163 35.3196C-0.507196 37.2844 -0.507213 40.5383 1.5216 42.5032L4.72437 45.6049L7.92484 48.7092C9.94981 50.6735 9.94983 53.923 7.92487 55.8872L4.72437 58.9917L1.5217 62.0931C-0.507161 64.058 -0.507192 67.312 1.52163 69.2767L4.72437 72.3784L7.92484 75.4828C9.94981 77.447 9.94983 80.6965 7.92487 82.6608L4.72437 85.7653L1.52773 88.8558C-0.503915 90.8201 -0.505266 94.0764 1.52475 96.0422L4.72437 99.1409L7.92491 102.245C9.94985 104.21 9.94985 107.459 7.92491 109.423L4.72437 112.528L1.5217 115.629C-0.507161 117.594 -0.507192 120.848 1.52163 122.813L4.72437 125.915L7.92484 129.019C9.94981 130.983 9.94983 134.233 7.92487 136.197L4.72437 139.301L1.52475 142.4C-0.505266 144.366 -0.503915 147.622 1.52773 149.586L4.72437 152.677L7.92484 155.781C9.94981 157.746 9.94978 160.995 7.92478 162.959L4.72437 166.064L1.5216 169.165C-0.507212 171.13 -0.507196 174.384 1.52163 176.349L4.72437 179.451L7.92491 182.555C9.94985 184.519 9.94985 187.769 7.92491 189.733L4.72437 192.838L1.5217 195.939C-0.507161 197.904 -0.507192 201.158 1.52163 203.123L4.72437 206.224L7.91878 209.318C9.94656 211.281 9.94788 214.533 7.9217 216.499L4.72437 219.6L1.5216 222.702C-0.507212 224.666 -0.507196 227.92 1.52163 229.885L4.72437 232.987L7.92487 236.091C9.94983 238.055 9.94982 241.305 7.92484 243.269L4.72437 246.374L1.52163 249.475C-0.507196 251.44 -0.507213 254.694 1.5216 256.659L4.72437 259.76L7.92484 262.865C9.94981 264.829 9.94983 268.078 7.92487 270.043L4.72437 273.147L1.52773 276.238C-0.503915 278.202 -0.505266 281.458 1.52475 283.424L4.72437 286.523L7.92484 289.627C9.94981 291.592 9.94978 294.841 7.92478 296.805L4.72437 299.91L1.5216 303.011C-0.507212 304.976 -0.507196 308.23 1.52163 310.195L4.72437 313.296L7.92487 316.401C9.94983 318.365 9.94982 321.615 7.92484 323.579L4.72437 326.683L1.52471 329.782C-0.505287 331.748 -0.50395 335.004 1.52766 336.968L4.72437 340.059L7.92484 343.163C9.94981 345.128 9.94978 348.377 7.92478 350.341L4.72437 353.446L1.5216 356.547C-0.507212 358.512 -0.507196 361.766 1.52163 363.731L4.72437 366.833L7.92487 369.937C9.94983 371.901 9.94982 375.151 7.92484 377.115L4.72437 380.219L1.52166 383.321C-0.507175 385.286 -0.507175 388.54 1.52166 390.505L4.72437 393.606L7.9218 396.708C9.94793 398.673 9.94656 401.925 7.91879 403.888L4.72437 406.982L1.5216 410.083C-0.507212 412.048 -0.507196 415.302 1.52163 417.267L4.72437 420.369L7.92484 423.473C9.94981 425.437 9.94978 428.687 7.92478 430.651L4.72437 433.755L1.5216 436.857C-0.507212 438.822 -0.507196 442.076 1.52163 444.041L4.72437 447.142L7.92487 450.247C9.94983 452.211 9.94982 455.46 7.92484 457.425L4.72437 460.529L1.52471 463.628C-0.505287 465.594 -0.50395 468.85 1.52766 470.814L4.72437 473.905L7.92481 477.009C9.94979 478.973 9.9498 482.223 7.92481 484.187L4.72437 487.292L1.5216 490.393C-0.507212 492.358 -0.507196 495.612 1.52163 497.577L4.72437 500.678L7.92487 503.783C9.94983 505.747 9.94982 508.997 7.92484 510.961L4.72437 514.065L1.52166 517.167C-0.507175 519.132 -0.507175 522.385 1.52166 524.35L4.72437 527.452L7.91879 530.545C9.94656 532.509 9.94793 535.761 7.9218 537.726L4.72437 540.828L1.52163 543.929C-0.507196 545.894 -0.507213 549.148 1.5216 551.113L4.72437 554.214L7.92481 557.319C9.94979 559.283 9.9498 562.533 7.92481 564.497L4.72437 567.601L1.5216 570.703C-0.507212 572.668 -0.507196 575.922 1.52163 577.886L4.72437 580.988L7.92487 584.093C9.94983 586.057 9.94982 589.306 7.92484 591.271L4.72437 594.375L1.52769 597.465C-0.503936 599.43 -0.505304 602.686 1.52468 604.652L4.72437 607.751L7.92481 610.855C9.94979 612.819 9.9498 616.069 7.92481 618.033L4.72437 621.137L1.52163 624.239C-0.507196 626.204 -0.507213 629.458 1.5216 631.422L4.72437 634.524L7.92484 637.629C9.94981 639.593 9.94983 642.842 7.92487 644.807L4.72437 647.911L1.52471 651.01C-0.505287 652.976 -0.50395 656.232 1.52766 658.196L4.72437 661.287L7.92477 664.391C9.94978 666.355 9.94981 669.605 7.92484 671.569L4.72437 674.673L1.52163 677.775C-0.507196 679.74 -0.507213 682.994 1.5216 684.959L4.72437 688.06L7.92482 691.165C9.94981 693.129 9.94981 696.378 7.92484 698.343L4.72437 701.447L1.52165 704.549C-0.507185 706.513 -0.507192 709.767 1.52163 711.732L4.72437 714.834L7.92176 717.935C9.94791 719.901 9.94655 723.153 7.91877 725.116L4.72437 728.21L1.52163 731.311C-0.507194 733.276 -0.507185 736.53 1.52165 738.495L4.72437 741.596L7.92487 744.701C9.94983 746.665 9.94984 749.914 7.92489 751.879L4.72437 754.983L3.67442 756H1230.65L1231.31 0H10.7484Z" fill="white"/>
</svg>
