<svg width="70" height="64" viewBox="0 0 70 64" fill="none" xmlns="http://www.w3.org/2000/svg">
<path fill-rule="evenodd" clip-rule="evenodd" d="M9.89799 25.8839C9.89799 23.7429 13.126 23.4759 13.126 26.0029C13.126 27.2269 11.433 27.9739 10.457 26.9989C10.201 26.7429 9.89799 26.3399 9.89799 25.8839ZM6.54999 27.4379C6.08199 27.4379 5.75399 27.2579 5.45099 26.9829C4.53899 26.1569 5.05799 24.2099 6.31099 24.2099C9.09499 24.2099 8.58099 27.4379 6.54999 27.4379ZM16.713 27.4379C15.009 27.4379 14.474 25.6969 15.326 24.7359C16.269 23.6719 18.197 24.2869 18.231 25.7789C18.247 26.5139 17.539 27.4379 16.713 27.4379ZM28.072 23.4919C28.448 23.2929 28.81 23.0849 29.217 22.8429C29.811 22.4909 32.504 20.9009 32.974 20.8619L36.584 27.5339C36.795 27.8759 37 28.1579 37.039 28.6339C36.581 28.7399 32.854 30.9479 32.257 31.2639C32.134 30.7379 28.586 24.4629 28.072 23.4919ZM45.289 2.68793C45.289 3.27793 45.37 3.50093 45.19 4.01793C43.844 7.89593 41.237 11.2069 38.385 14.0769L35.527 16.5989C35.215 16.8489 35.428 16.8039 35.007 16.9159C34.827 16.5769 34.624 16.2509 34.528 15.8399C33.641 15.8599 28.382 18.9799 27.234 19.5459C26.028 20.1409 24.811 20.7969 24.372 22.1839C23.867 23.7829 24.604 25.1699 25.322 26.2419C23.805 27.2579 23.422 27.4869 24.434 29.1619C24.719 29.6339 24.85 30.0229 25.133 30.4959C25.797 31.6049 25.812 32.6989 27.355 32.6989C28.07 32.6989 27.867 32.2869 28.67 32.2199C28.763 32.6199 28.973 32.8669 29.186 33.2579C29.84 34.4549 31.034 34.9699 32.496 34.9699C33.181 34.9699 34.057 34.5019 34.528 34.2529C35.073 34.6179 36.845 36.4759 37.278 37.1229C35.807 37.9009 35.223 38.5339 34.313 39.8959C31.397 44.2619 33.979 45.8439 31.747 47.7329C30.856 48.4869 12.199 58.3289 11.491 58.6829C9.19399 59.8299 10.231 59.4809 7.02899 59.4809C5.41299 59.4809 4.15899 58.3529 4.15899 56.7309V31.5029H22.213C21.771 29.6049 19.927 29.2479 21.479 25.7429C21.604 25.4589 21.595 25.7839 21.548 25.3539C21.404 24.0279 20.917 23.5119 21.569 21.4129C21.76 20.7989 22.075 20.5009 22.213 19.9049C17.55 19.9049 12.887 19.9049 8.22399 19.9049C5.48299 19.9049 4.14199 19.9199 2.51699 21.1329C1.28799 22.0509 0.0939941 23.6829 0.0939941 25.7639V57.8069C0.0939941 61.0809 2.97599 63.5459 6.19199 63.5459L28.08 63.4339C28.868 63.4199 30.623 62.3109 31.339 61.9109L48.878 52.6679C50.836 51.7999 54.615 49.6869 54.615 47.2859C54.615 45.9059 54.547 45.8029 53.778 44.6549C54.062 43.4379 54.386 42.5949 53.703 41.3829C53.421 40.8849 53.02 40.5239 52.583 40.2309C52.958 38.6209 52.269 36.4389 50.431 36.2859C50.431 34.3299 49.329 33.2969 47.441 33.2969C45.313 33.2969 43.339 35.2349 42.539 35.4489C42.161 35.1959 41.95 34.9289 41.652 34.5429C41.36 34.1639 41.104 33.9519 40.775 33.6259L39.072 31.7419C39.679 31.6009 40.071 31.2749 40.588 30.9869C41.103 30.6989 41.75 30.4929 42.061 30.0679C41.964 29.6519 41.654 29.1129 41.463 28.7529C42.342 28.6799 43.134 28.2179 44.023 27.9649C47.94 26.8529 52.426 26.2509 56.564 26.9239C57.04 27.0019 57.888 27.1209 58.24 27.2809C58.722 27.5009 59.027 28.0359 59.637 28.0359C60.912 28.0359 61.191 27.1159 61.191 26.1229C61.191 25.5529 59.038 21.8179 58.556 20.9869C58.01 20.0469 57.493 18.8959 56.887 17.9919C59.12 15.4229 57.912 11.0079 54.784 9.93193C53.928 9.63693 53.441 9.62293 52.344 9.62293C52.094 9.24993 51.952 8.96193 51.747 8.54593L48.688 2.87693C48.246 2.13493 48.014 1.25293 46.844 1.25293C46.338 1.25293 46.056 1.36893 45.788 1.63193C45.565 1.84993 45.289 2.27693 45.289 2.68793Z" fill="#FEFEFE"/>
<path fill-rule="evenodd" clip-rule="evenodd" d="M60.952 15.1233C60.952 17.2463 63.062 16.6323 64.335 16.4733L68.814 15.9303C69.918 15.6753 70.203 14.3563 69.588 13.5413C68.9 12.6303 67.743 13.0413 66.55 13.1883L62.058 13.7173C61.461 13.8313 60.952 14.3833 60.952 15.1233Z" fill="#FEFEFE"/>
<path fill-rule="evenodd" clip-rule="evenodd" d="M56.17 6.51439C56.17 7.41439 56.794 8.06839 57.724 8.06839C58.697 8.06839 58.92 7.51839 59.37 6.96539L62.537 3.07739C63.74 1.63439 62.384 0.032386 60.98 0.555386C60.356 0.788386 59.686 1.81839 59.228 2.39839L56.798 5.34839C56.568 5.60039 56.17 6.10039 56.17 6.51439Z" fill="#FEFEFE"/>
<path fill-rule="evenodd" clip-rule="evenodd" d="M59.278 10.4603C59.278 11.2703 59.891 12.0143 60.713 12.0143C61.498 12.0143 65.204 9.78527 66.1 9.27027C66.972 8.76927 67.409 8.73227 67.409 7.59027C67.409 6.66627 66.898 6.15527 65.974 6.15527C65.195 6.15527 63.245 7.44327 62.267 7.94827L59.699 9.44527C59.47 9.67327 59.278 10.0583 59.278 10.4603Z" fill="#FEFEFE"/>
</svg>
