<svg width="58" height="58" viewBox="0 0 58 58" fill="none" xmlns="http://www.w3.org/2000/svg">
<path fill-rule="evenodd" clip-rule="evenodd" d="M50.641 40.6104L42.431 45.5464L47.449 53.6404L41.823 57.1284L36.757 48.9564L28.618 53.8504L29 29.0264L50.641 40.6104Z" fill="#FEFEFE"/>
<path d="M50.659 40.6413L42.48 45.5573L47.48 53.6213C47.49 53.6383 47.485 53.6593 47.468 53.6703L41.842 57.1583C41.825 57.1683 41.803 57.1633 41.793 57.1463L36.746 49.0053L28.636 53.8803C28.619 53.8903 28.598 53.8853 28.588 53.8683C28.584 53.8623 28.582 53.8553 28.583 53.8493L28.964 29.0263C28.965 29.0063 28.981 28.9903 29 28.9913C29.006 28.9913 29.012 28.9923 29.017 28.9953L50.658 40.5793C50.675 40.5883 50.682 40.6103 50.672 40.6273C50.669 40.6333 50.665 40.6373 50.659 40.6413ZM42.413 45.5153L50.569 40.6123L29.034 29.0853L28.654 53.7863L36.739 48.9263C36.756 48.9163 36.777 48.9213 36.788 48.9383L41.835 57.0793L47.401 53.6283L42.401 45.5643C42.391 45.5473 42.396 45.5253 42.413 45.5153Z" fill="#FEFEFE"/>
<path d="M22.566 43.425C19.771 42.174 17.409 40.136 15.761 37.594C14.156 35.117 13.223 32.174 13.223 29.026C13.223 24.67 14.989 20.725 17.844 17.87C20.699 15.015 24.644 13.249 29 13.249C33.356 13.249 37.3 15.015 40.155 17.87C43.011 20.725 44.777 24.67 44.777 29.026C44.777 29.135 44.769 29.365 44.754 29.71C44.739 30.043 44.727 30.263 44.717 30.377L39.408 29.94C39.43 29.681 39.443 29.525 39.445 29.481C39.446 29.448 39.447 29.299 39.447 29.026C39.447 26.141 38.278 23.529 36.387 21.639C34.497 19.748 31.885 18.579 29 18.579C26.115 18.579 23.503 19.748 21.612 21.639C19.722 23.529 18.553 26.141 18.553 29.026C18.553 31.129 19.164 33.077 20.216 34.701C21.312 36.391 22.88 37.745 24.731 38.574L22.566 43.425Z" fill="#FEFEFE"/>
<path d="M22.877 56.5349C16.501 55.1209 10.94 51.5549 7.00201 46.6409C3.128 41.8089 0.811005 35.6839 0.811005 29.0259C0.811005 21.2419 3.967 14.1949 9.068 9.09391C14.169 3.99291 21.216 0.836914 29 0.836914C36.783 0.836914 43.831 3.99291 48.932 9.09391C54.033 14.1949 57.188 21.2419 57.188 29.0259C57.188 30.3769 57.088 31.7259 56.895 33.0659C56.701 34.4109 56.41 35.7309 56.029 37.0189L50.929 35.5199C51.234 34.4869 51.469 33.4169 51.628 32.3159C51.78 31.2619 51.859 30.1639 51.859 29.0259C51.859 22.7129 49.3 16.9989 45.164 12.8619C41.027 8.72591 35.312 6.16691 29 6.16691C22.687 6.16691 16.972 8.72591 12.836 12.8619C8.69901 16.9989 6.14101 22.7129 6.14101 29.0259C6.14101 34.4379 8.01401 39.4049 11.145 43.3099C14.349 47.3079 18.86 50.2059 24.022 51.3509L22.877 56.5349Z" fill="#FEFEFE"/>
</svg>
