<svg width="52" height="60" viewBox="0 0 52 60" fill="none" xmlns="http://www.w3.org/2000/svg">
<path fill-rule="evenodd" clip-rule="evenodd" d="M20.115 59.0274H42.388L42.391 58.0184C42.391 57.3214 42.441 56.8074 42.441 56.1284V50.4104C42.441 48.8054 42.596 48.4064 42.786 46.9764C42.865 46.3814 43.029 45.9404 43.141 45.3924C43.439 43.9364 44.097 42.5704 44.679 41.2134L45.032 40.5214C49.886 31.6034 51.637 24.6754 51.367 19.3134C51.057 13.1164 48.129 8.27336 43.652 5.12236C35.734 -0.451638 20.317 -0.680638 13.02 6.09736C12.064 6.98536 11.212 7.99636 10.467 9.13836L9.49 10.7974C9.037 11.7074 8.651 12.6544 8.321 13.6104L8.309 13.6424L7.628 15.8464C7.379 16.7614 7.045 18.5214 6.903 19.4474C6.821 19.9764 6.793 20.4604 6.718 21.0024C6.642 21.5524 6.685 21.6244 6.441 22.0684L5.973 22.8934C5.912 22.9974 5.864 23.0764 5.801 23.1684L4.84 24.8424C4.416 25.6144 3.772 26.5654 3.392 27.3224C3.015 28.0704 1.739 30.1684 1.168 31.1654C1.067 31.3424 0.930003 31.5314 0.836003 31.7224L0.725003 31.9624C0.377003 32.6124 0.847003 32.9464 1.403 33.2234L3.934 34.4704C4.555 34.8474 5.944 35.3874 6.442 35.7414C6.633 35.8774 6.589 36.0804 6.633 36.3464C6.742 37.0004 6.756 37.5444 6.874 38.2434C6.95 38.6984 7.018 39.1424 7.079 39.5794C7.142 40.0214 7.177 40.4664 7.24 40.9104C7.366 41.8074 7.515 42.5734 7.589 43.4944C7.652 44.2804 7.915 45.2834 7.959 46.0464C7.993 46.6554 8.151 47.4704 8.328 48.0714L8.428 48.3704C8.604 48.7344 8.753 49.0354 8.991 49.3524C9.673 50.2614 10.53 50.8904 11.655 51.2134C12.795 51.5414 18.447 51.2164 20.007 51.3214C20.128 51.3294 20.107 51.2824 20.119 51.4954C20.132 51.7224 20.115 52.0154 20.115 52.2504V59.0274ZM29.564 7.88336C31.995 8.06936 34.083 9.34536 35.384 11.1964C36.074 10.8554 36.862 10.6894 37.685 10.7524C40.024 10.9324 41.801 12.8914 41.79 15.2014C45.074 15.7234 47.459 18.6884 47.201 22.0614C46.929 25.6124 43.829 28.2714 40.278 27.9984C38.345 27.8504 36.676 26.8644 35.601 25.4234C33.845 28.4034 30.498 30.2914 26.817 30.0094C24.021 29.7954 21.606 28.3734 20.045 26.2944C19.113 26.7764 18.04 27.0154 16.917 26.9284C13.702 26.6824 11.295 23.8764 11.542 20.6614C11.732 18.1744 13.454 16.1724 15.711 15.5054C15.71 15.3804 15.714 15.2534 15.724 15.1254C15.912 12.6784 18.048 10.8464 20.495 11.0334C21.149 11.0844 21.758 11.2734 22.298 11.5704C23.793 9.16336 26.544 7.65136 29.564 7.88336Z" fill="#FEFEFE"/>
</svg>
