<svg width="64" height="63" viewBox="0 0 64 63" fill="none" xmlns="http://www.w3.org/2000/svg">
<path d="M50.2691 57.4893C64.6228 47.6623 68.2918 28.06 58.465 13.7064C48.6379 -0.647102 29.0356 -4.31654 14.6821 5.51053C0.328542 15.3376 -3.34089 34.9399 6.48618 49.2934C16.3132 63.6471 35.9155 67.3167 50.2691 57.4893Z" fill="#F94343"/>
<path d="M60.3535 16.7598C60.5607 22.5729 59.1578 28.5103 55.973 33.8853C47.1112 48.8561 27.7954 53.805 12.8246 44.9432C7.62712 41.865 3.6373 37.5259 1.01489 32.5475C1.38191 42.9187 6.85759 52.8933 16.4533 58.5762C31.4241 67.4379 50.7459 62.489 59.6076 47.5183C65.3853 37.7449 65.2846 26.1187 60.3535 16.7598Z" fill="#E53939"/>
<path d="M7.36078 20.4953C15.595 6.59591 33.5316 1.99636 47.4309 10.2247C55.5527 15.0314 60.5015 23.1591 61.5611 31.861C61.6795 21.7443 56.5413 11.8407 47.2119 6.31769C33.3125 -1.91061 15.376 2.68896 7.14767 16.5883C3.7261 22.3599 2.52441 28.836 3.28212 35.0162C3.34132 30.0673 4.6614 25.0593 7.36078 20.4953Z" fill="#F76363"/>
<path d="M50.2961 37.7864C50.3138 37.7628 50.3257 37.7391 50.3434 37.7095C53.1671 32.9442 52.3028 26.5391 47.1172 23.4668C42.9971 21.0279 38.8593 22.5729 36.4026 24.8638C37.2255 21.608 36.5921 17.2393 32.472 14.8004C27.2864 11.734 21.2602 14.0545 18.4365 18.8199C18.4187 18.8435 18.4069 18.8731 18.3951 18.8968C17.7557 19.915 11.5342 30.4816 22.3849 48.5247C22.3849 48.5247 22.3849 48.5247 22.3908 48.5247C22.3908 48.5247 22.3908 48.5247 22.3967 48.5247C43.4352 49.3771 49.71 38.8401 50.2961 37.7864Z" fill="white"/>
</svg>
