<svg width="81" height="81" viewBox="0 0 81 81" fill="none" xmlns="http://www.w3.org/2000/svg">
<path d="M63.3461 73.8785C81.7919 61.25 86.5069 36.0594 73.8785 17.6139C61.25 -0.83158 36.0594 -5.54711 17.6139 7.08149C-0.831584 19.7101 -5.54711 44.9006 7.08149 63.3461C19.7101 81.7917 44.9006 86.5075 63.3461 73.8785Z" fill="#F94343"/>
<path d="M76.3055 21.5381C76.5718 29.0084 74.7689 36.6385 70.6762 43.5458C59.2881 62.7846 34.4656 69.1442 15.2269 57.7562C8.54773 53.8004 3.42049 48.2243 0.0504761 41.8266C0.522125 55.1545 7.55883 67.9727 19.8901 75.2757C39.1289 86.6636 63.9589 80.304 75.347 61.0653C82.7717 48.5058 82.6424 33.5651 76.3055 21.5381Z" fill="#E53939"/>
<path d="M8.20546 26.3378C18.7871 8.47603 41.8371 2.56523 59.6989 13.1393C70.136 19.3164 76.4957 29.7611 77.8574 40.9437C78.0095 27.943 71.4065 15.216 59.4174 8.11849C41.5556 -2.45555 18.5057 3.45528 7.9316 21.3171C3.5346 28.7341 1.99033 37.0564 2.96406 44.9984C3.04013 38.6388 4.73655 32.203 8.20546 26.3378Z" fill="#F76363"/>
<path d="M63.3808 48.5588C63.4037 48.5284 63.4189 48.4979 63.4417 48.4599C67.0703 42.3361 65.9597 34.105 59.2957 30.1569C54.0011 27.0227 48.6836 29.0082 45.5266 31.9522C46.584 27.7682 45.7701 22.154 40.4754 19.0199C33.8115 15.0793 26.0673 18.0614 22.4386 24.1852C22.4158 24.2156 22.4006 24.2536 22.3854 24.2841C21.5638 25.5925 13.5686 39.1715 27.5127 62.3583C27.5127 62.3583 27.5127 62.3583 27.5203 62.3583C27.5203 62.3583 27.5203 62.3583 27.5279 62.3583C54.564 63.4538 62.6277 49.9129 63.3808 48.5588Z" fill="white"/>
</svg>
