<svg width="148" height="56" viewBox="0 0 148 56" fill="none" xmlns="http://www.w3.org/2000/svg">
<path fill-rule="evenodd" clip-rule="evenodd" d="M17.4167 11.617C16.989 13.6306 16.7193 15.6964 16.4793 17.7721C18.1848 12.1766 19.9467 7.313 21.9953 6.09499C24.2697 4.73991 25.9653 7.72278 27.1555 11.6326C29.293 18.6524 29.8111 25.9125 29.2901 33.1415C29.0586 36.3589 27.7357 50.3873 22.8861 49.507C20.6018 49.0916 18.7128 44.1065 16.9424 37.7818C17.0398 41.1208 17.397 44.0881 18.0422 46.6428C18.6987 49.2442 21.079 55.5052 24.449 55.3173C31.7269 54.9146 33.2249 32.6794 33.1204 27.2563C33.0286 22.4379 31.0168 0.154677 24.5111 0.000658756C20.8037 -0.0869481 18.0577 8.58754 17.4167 11.617Z" fill="#FFEE00"/>
<path fill-rule="evenodd" clip-rule="evenodd" d="M35.2833 13.4482C34.1058 13.8042 32.9241 14.2267 31.7622 14.6718L31.8385 15.1113C36.5497 14.2055 40.5649 13.7647 42.3268 14.799C44.6069 16.14 42.8153 19.0663 39.9663 21.9955C34.8527 27.2533 28.748 31.2097 22.1703 34.2392C19.2422 35.5873 6.32409 41.1927 4.75697 36.5156C4.01859 34.3127 7.4719 30.2531 12.1535 25.6495C9.27761 27.3452 6.85211 29.0888 4.9278 30.8862C2.9682 32.7174 -1.36608 37.8227 0.424105 40.6882C4.28684 46.8744 24.4716 37.4652 29.1673 34.7592C33.3406 32.3557 51.8764 19.8449 48.8734 14.0671C47.1623 10.7733 38.2453 12.5495 35.2833 13.4482Z" fill="#FF0483"/>
<path fill-rule="evenodd" clip-rule="evenodd" d="M13.9168 13.4487C14.9531 13.7624 15.8835 14.086 16.9071 14.4703C16.8901 14.4971 16.8633 14.9112 16.8294 15.0101C12.3314 14.1693 8.57452 13.8005 6.87469 14.7995C4.59319 16.1419 6.38479 19.0668 9.23384 21.996C14.3474 27.2552 20.4521 31.2103 27.0312 34.2398C29.9593 35.5878 42.876 41.1932 44.4432 36.5161C45.0658 34.6608 42.7137 31.4872 39.1587 27.7809L39.7319 27.3358C41.46 28.4959 42.9805 29.6814 44.2723 30.8867C46.2333 32.7165 50.5662 37.8232 48.776 40.6888C44.9133 46.8749 24.7285 37.4657 20.0328 34.7598C15.8595 32.3562 -2.67484 19.8454 0.328092 14.0676C2.0378 10.7739 10.9548 12.5514 13.9168 13.4487ZM17.4591 14.6808C18.2441 14.9804 18.9754 15.2757 19.7561 15.5951C18.926 15.4213 18.117 15.2559 17.3207 15.1033L17.4591 14.6808Z" fill="#6A91CC"/>
<path fill-rule="evenodd" clip-rule="evenodd" d="M85.0202 11.9834C85.0202 19.0781 85.0202 26.1715 85.0202 33.2662H85.3054H91.9537V27.0193H103.972V33.2662H110.621C110.806 32.7194 110.906 32.1358 110.906 31.5282V29.9061C110.906 27.1917 108.891 24.9266 106.284 24.5338C106.028 24.4942 105.768 24.4744 105.503 24.473C105.768 24.4716 106.028 24.4518 106.284 24.4123C108.891 24.0194 110.906 21.7544 110.906 19.0386V17.4178C110.906 14.4293 108.463 11.9834 105.477 11.9834C98.6584 11.9834 91.8393 11.9834 85.0202 11.9834ZM91.9537 22.2193V16.7834H101.256C102.751 16.7834 103.972 18.0057 103.972 19.502C103.972 20.997 102.751 22.2193 101.256 22.2193H91.9537Z" fill="black"/>
<path fill-rule="evenodd" clip-rule="evenodd" d="M131.187 26.2732L130.486 24.7175L128.192 19.6264L127.451 17.9802L124.749 11.9834H121.307H119.227H114.373V33.2662H121.307V17.9802L128.192 33.2662H131.187H134.181L141.067 17.9802V33.2662H148V11.9834H143.146H141.067H137.623L134.922 17.9802L134.181 19.6264L131.887 24.7175L131.187 26.2732Z" fill="black"/>
<path d="M98.7954 52.1134L97.6165 48.4396H98.3083L98.9309 50.5605L99.1511 51.349C99.161 51.3108 99.2288 51.0579 99.353 50.5916L99.9714 48.4396H100.649L101.238 50.5732L101.43 51.2727L101.654 50.5633L102.328 48.4396H102.972L101.746 52.1134H101.063L100.443 49.9162L100.286 49.2874L99.497 52.1134H98.7954ZM104.227 52.1134L103.048 48.4396H103.74L104.362 50.5605L104.584 51.349C104.592 51.3108 104.66 51.0579 104.786 50.5916L105.403 48.4396H106.082L106.669 50.5732L106.861 51.2727L107.086 50.5633L107.76 48.4396H108.403L107.179 52.1134H106.494L105.874 49.9162L105.717 49.2874L104.928 52.1134H104.227ZM109.659 52.1134L108.479 48.4396H109.171L109.795 50.5605L110.015 51.349C110.024 51.3108 110.091 51.0579 110.217 50.5916L110.835 48.4396H111.513L112.1 50.5732L112.292 51.2727L112.517 50.5633L113.192 48.4396H113.834L112.61 52.1134H111.925L111.307 49.9162L111.149 49.2874L110.36 52.1134H109.659ZM114.162 52.1134V51.4055H114.914V52.1134H114.162ZM116.048 52.1134V47.0449H116.71V52.1134H116.048ZM117.735 53.5222V48.4396H118.336V48.9228C118.478 48.7363 118.638 48.5964 118.818 48.5032C118.996 48.4099 119.212 48.3619 119.467 48.3619C119.8 48.3619 120.094 48.4424 120.348 48.6035C120.602 48.7646 120.794 48.9921 120.924 49.2845C121.054 49.5785 121.119 49.8992 121.119 50.2496C121.119 50.6241 121.047 50.9618 120.904 51.2628C120.762 51.5623 120.554 51.7912 120.28 51.9523C120.008 52.112 119.721 52.1925 119.421 52.1925C119.2 52.1925 119.001 52.1487 118.828 52.0611C118.653 51.9735 118.509 51.8633 118.396 51.7305V53.5222H117.735ZM118.336 50.2991C118.336 50.7696 118.438 51.1186 118.64 51.3433C118.843 51.5694 119.089 51.6824 119.377 51.6824C119.67 51.6824 119.92 51.5652 120.129 51.332C120.338 51.0989 120.441 50.7371 120.441 50.2482C120.441 49.7805 120.341 49.4315 120.136 49.1984C119.932 48.9666 119.689 48.8508 119.405 48.8508C119.124 48.8508 118.876 48.9751 118.661 49.221C118.444 49.4682 118.336 49.8271 118.336 50.2991ZM121.654 50.5916V49.9684H123.7V50.5916H121.654ZM126.972 50.7696L127.619 50.8544C127.547 51.2727 127.366 51.5991 127.074 51.8364C126.782 52.0738 126.423 52.1925 125.998 52.1925C125.465 52.1925 125.037 52.0272 124.714 51.6994C124.389 51.3716 124.226 50.9024 124.226 50.2906C124.226 49.895 124.297 49.5488 124.435 49.252C124.575 48.9553 124.787 48.7321 125.072 48.5851C125.357 48.4367 125.666 48.3619 126.002 48.3619C126.425 48.3619 126.772 48.4622 127.04 48.6642C127.31 48.8663 127.483 49.1531 127.558 49.5233L126.919 49.6152C126.858 49.3679 126.749 49.1828 126.593 49.0585C126.437 48.9341 126.25 48.8719 126.029 48.8719C125.696 48.8719 125.425 48.9836 125.216 49.2082C125.007 49.4329 124.904 49.7876 124.904 50.2737C124.904 50.7668 125.004 51.1243 125.205 51.3475C125.407 51.5708 125.668 51.6824 125.99 51.6824C126.251 51.6824 126.468 51.6075 126.641 51.4578C126.816 51.3094 126.926 51.0791 126.972 50.7696ZM128.175 52.1134V48.4396H128.77V49.0034C128.921 48.742 129.062 48.5696 129.19 48.4876C129.32 48.4028 129.461 48.3619 129.615 48.3619C129.838 48.3619 130.066 48.4283 130.296 48.5597L130.06 49.1334C129.901 49.0486 129.74 49.0062 129.579 49.0062C129.435 49.0062 129.306 49.0472 129.192 49.1291C129.077 49.2111 128.997 49.3241 128.948 49.4682C128.874 49.6901 128.837 49.9317 128.837 50.1945V52.1134H128.175ZM130.687 52.1134V48.4396H131.281V48.9596C131.403 48.7801 131.566 48.6346 131.77 48.5258C131.972 48.417 132.203 48.3619 132.463 48.3619C132.751 48.3619 132.988 48.4184 133.172 48.5314C133.357 48.6445 133.487 48.8013 133.561 49.0034C133.872 48.5752 134.276 48.3619 134.771 48.3619C135.16 48.3619 135.46 48.4622 135.668 48.6642C135.877 48.8663 135.983 49.1757 135.983 49.5954V52.1134H135.32V49.8017C135.32 49.5544 135.298 49.375 135.256 49.2648C135.213 49.1546 135.136 49.0684 135.021 49.0005C134.908 48.9327 134.776 48.9002 134.623 48.9002C134.348 48.9002 134.119 48.9864 133.938 49.1574C133.756 49.3298 133.666 49.6039 133.666 49.9826V52.1134H133.004V49.7296C133.004 49.4541 132.95 49.2464 132.843 49.1079C132.734 48.9694 132.558 48.9002 132.313 48.9002C132.128 48.9002 131.956 48.9468 131.798 49.0387C131.64 49.1305 131.526 49.2648 131.455 49.4428C131.384 49.6194 131.349 49.8752 131.349 50.2101V52.1134H130.687ZM137.14 52.1134V51.4055H137.893V52.1134H137.14ZM139.652 52.1134H139.035V47.0449H139.697V48.8536C139.977 48.5258 140.332 48.3619 140.766 48.3619C141.006 48.3619 141.233 48.4071 141.448 48.4975C141.662 48.5893 141.837 48.7179 141.977 48.8818C142.114 49.0457 142.224 49.245 142.302 49.4767C142.381 49.7085 142.419 49.9571 142.419 50.2214C142.419 50.8488 142.254 51.3348 141.925 51.6782C141.593 52.0201 141.198 52.1925 140.735 52.1925C140.275 52.1925 139.913 52.0117 139.652 51.6513V52.1134ZM139.643 50.2496C139.643 50.6891 139.708 51.0056 139.834 51.202C140.043 51.5213 140.324 51.6824 140.678 51.6824C140.968 51.6824 141.218 51.5637 141.427 51.3278C141.637 51.0918 141.743 50.7414 141.743 50.2737C141.743 49.7946 141.643 49.4414 141.441 49.2139C141.239 48.9864 140.995 48.8719 140.708 48.8719C140.419 48.8719 140.169 48.9892 139.96 49.2252C139.749 49.4612 139.643 49.8031 139.643 50.2496ZM143.225 47.7528V47.0449H143.887V47.7528H143.225ZM143.225 52.1134V48.4396H143.887V52.1134H143.225ZM144.547 52.1134V51.6061L147.019 48.9214C146.738 48.9355 146.491 48.9426 146.278 48.9426H144.696V48.4396H147.879V48.8493L145.762 51.178L145.357 51.6118C145.655 51.5878 145.933 51.5765 146.193 51.5765H147.999V52.1134H144.547Z" fill="black"/>
<path fill-rule="evenodd" clip-rule="evenodd" d="M61.4443 11.9834H60.576C57.6761 11.9834 55.2337 14.0492 54.6464 16.7834C54.5574 17.1932 54.5108 17.6185 54.5108 18.0551V27.1945C54.5108 27.6311 54.5574 28.0564 54.6464 28.4662C55.2337 31.2004 57.6761 33.2662 60.576 33.2662C65.8548 33.2662 71.1336 33.2662 76.4124 33.2662C79.7485 33.2662 82.4775 30.5334 82.4775 27.1945V25.0241H75.5441V25.8069C75.5441 27.2694 74.3483 28.4662 72.8856 28.4662H64.1027C62.6401 28.4662 61.4443 27.2694 61.4443 25.8069C61.4443 23.8315 61.4443 21.4181 61.4443 19.4427C61.4443 17.9802 62.6401 16.7834 64.1027 16.7834H72.8856C74.3483 16.7834 75.5441 17.9802 75.5441 19.4427V20.2255H82.4775V18.0551C82.4775 14.7162 79.7485 11.9834 76.4124 11.9834C71.423 11.9834 66.4336 11.9834 61.4443 11.9834Z" fill="black"/>
<path fill-rule="evenodd" clip-rule="evenodd" d="M58.2663 35.8203H144.245C146.31 35.8203 148 37.5131 148 39.5803C148 41.6476 146.31 43.339 144.245 43.339H58.2663C56.2008 43.339 54.5108 41.6476 54.5108 39.5803C54.5108 37.5131 56.2008 35.8203 58.2663 35.8203Z" fill="#FFEE00"/>
<path d="M58.7675 41.5583V38.0654H59.4804V40.9635H61.2452V41.5583H58.7675ZM69.7486 41.5583H68.9806L68.677 40.7558H67.2652L66.973 41.5583H66.219L67.5857 38.0357H68.3382L69.7486 41.5583ZM68.4455 40.1609L67.957 38.8567L67.4812 40.1609H68.4455ZM74.954 41.5583V38.0357H75.6443L77.0929 40.3968V38.0357H77.7522V41.5583H77.0392L75.6133 39.2424V41.5583H74.954ZM83.3317 38.0357H84.6277C84.92 38.0357 85.1431 38.0569 85.2969 38.1021C85.5017 38.1629 85.6795 38.2717 85.8264 38.4271C85.9732 38.5825 86.0847 38.7719 86.1624 38.998C86.2386 39.2226 86.2767 39.501 86.2767 39.8302C86.2767 40.1213 86.24 40.37 86.168 40.5805C86.0805 40.8363 85.9548 41.044 85.7925 41.2023C85.6697 41.3224 85.5031 41.4156 85.2941 41.4835C85.1374 41.5329 84.9285 41.5583 84.6659 41.5583H83.3317V38.0357ZM84.0447 38.6306V40.9635H84.5727C84.7703 40.9635 84.9129 40.9507 85.0005 40.9296C85.1162 40.8999 85.2108 40.8518 85.2871 40.7826C85.3633 40.7134 85.424 40.6003 85.472 40.4435C85.52 40.2852 85.544 40.0704 85.544 39.7977C85.544 39.525 85.52 39.3173 85.472 39.1704C85.424 39.0248 85.3576 38.9118 85.2715 38.8298C85.1854 38.7493 85.0767 38.6928 84.944 38.6645C84.8452 38.6419 84.6503 38.6306 84.3623 38.6306H84.0447ZM91.684 41.5583V38.0357H92.397V41.5583H91.684ZM97.9016 41.5583V38.0357H98.592L100.041 40.3968V38.0357H100.7V41.5583H99.9869L98.561 39.2424V41.5583H97.9016ZM107.917 40.264V39.6691H109.446V41.0737C109.298 41.2192 109.082 41.3464 108.799 41.4566C108.517 41.5668 108.231 41.6219 107.941 41.6219C107.573 41.6219 107.254 41.5456 106.98 41.3902C106.706 41.2348 106.501 41.0129 106.363 40.7247C106.226 40.4378 106.157 40.1227 106.157 39.785C106.157 39.4176 106.234 39.0912 106.387 38.8044C106.541 38.519 106.765 38.2999 107.062 38.1473C107.287 38.03 107.567 37.9707 107.903 37.9707C108.341 37.9707 108.682 38.0625 108.928 38.2462C109.172 38.4313 109.33 38.6843 109.401 39.0093L108.694 39.1421C108.644 38.9697 108.551 38.8326 108.414 38.7309C108.279 38.632 108.108 38.5811 107.903 38.5811C107.592 38.5811 107.347 38.68 107.163 38.8779C106.981 39.0757 106.889 39.3682 106.889 39.7553C106.889 40.175 106.981 40.4887 107.167 40.6978C107.352 40.9069 107.595 41.0115 107.896 41.0115C108.044 41.0115 108.194 40.9818 108.342 40.9239C108.493 40.866 108.62 40.7953 108.727 40.7105V40.264H107.917ZM116.296 41.5583V38.0357H117.436C117.868 38.0357 118.149 38.0527 118.28 38.088C118.482 38.1417 118.65 38.2561 118.787 38.4328C118.922 38.6108 118.99 38.8383 118.99 39.1195C118.99 39.3357 118.95 39.5165 118.873 39.6649C118.794 39.8119 118.695 39.9277 118.575 40.0125C118.455 40.0959 118.332 40.1524 118.206 40.1792C118.037 40.2132 117.793 40.2301 117.471 40.2301H117.009V41.5583H116.296ZM117.009 38.6306V39.6338H117.396C117.676 39.6338 117.862 39.6154 117.957 39.5787C118.051 39.542 118.125 39.484 118.177 39.4049C118.23 39.3258 118.257 39.2353 118.257 39.1294C118.257 39.0008 118.221 38.8962 118.146 38.8114C118.069 38.7281 117.976 38.6758 117.861 38.6546C117.776 38.6391 117.606 38.6306 117.351 38.6306H117.009ZM127.208 41.5583H126.44L126.137 40.7558H124.725L124.433 41.5583H123.679L125.045 38.0357H125.798L127.208 41.5583ZM125.905 40.1609L125.417 38.8567L124.941 40.1609H125.905ZM134.053 40.264V39.6691H135.58V41.0737C135.432 41.2192 135.217 41.3464 134.935 41.4566C134.653 41.5668 134.366 41.6219 134.077 41.6219C133.708 41.6219 133.388 41.5456 133.115 41.3902C132.841 41.2348 132.637 41.0129 132.498 40.7247C132.361 40.4378 132.292 40.1227 132.292 39.785C132.292 39.4176 132.37 39.0912 132.522 38.8044C132.676 38.519 132.901 38.2999 133.197 38.1473C133.423 38.03 133.703 37.9707 134.039 37.9707C134.476 37.9707 134.818 38.0625 135.064 38.2462C135.308 38.4313 135.466 38.6843 135.536 39.0093L134.829 39.1421C134.78 38.9697 134.687 38.8326 134.55 38.7309C134.413 38.632 134.243 38.5811 134.039 38.5811C133.728 38.5811 133.482 38.68 133.299 38.8779C133.117 39.0757 133.025 39.3682 133.025 39.7553C133.025 40.175 133.117 40.4887 133.303 40.6978C133.488 40.9069 133.731 41.0115 134.031 41.0115C134.18 41.0115 134.329 40.9818 134.478 40.9239C134.629 40.866 134.756 40.7953 134.863 40.7105V40.264H134.053ZM141.067 41.5583V38.0357H143.671V38.6306H141.778V39.4134H143.539V40.0083H141.778V40.9635H143.741V41.5583H141.067Z" fill="black"/>
</svg>
