<svg width="55" height="55" viewBox="0 0 55 55" fill="none" xmlns="http://www.w3.org/2000/svg">
<path d="M54.6064 32.0017C57.0868 17.0256 46.9572 2.87448 31.9812 0.394148C17.0051 -2.08618 2.85398 8.0436 0.373638 23.0196C-2.10668 37.9957 8.0231 52.1471 22.9992 54.627C37.9752 57.1074 52.1266 46.9777 54.6064 32.0017Z" fill="#4A85D3"/>
<path d="M25.5306 0.0673873C30.2414 1.94757 34.4925 5.15526 37.664 9.58712C46.5019 21.9323 43.6558 39.1019 31.3107 47.9345C27.0234 51.0027 22.1525 52.6608 17.2557 53.0017C25.6649 56.3592 35.5617 55.4966 43.4699 49.8302C55.8152 40.9924 58.6561 23.828 49.8234 11.4828C44.0536 3.43003 34.7404 -0.578281 25.5306 0.0673873Z" fill="#407EC1"/>
<path d="M9.86924 43.6942C1.6615 32.2375 4.30616 16.292 15.7629 8.08947C22.4624 3.29602 30.6908 2.20614 38.0101 4.41691C29.9728 0.759828 20.2619 1.37968 12.5656 6.88594C1.10881 15.0937 -1.53067 31.0339 6.67189 42.4959C10.081 47.2583 14.8228 50.4969 20.0295 52.0671C16.0935 50.2748 12.5604 47.4598 9.86924 43.6942Z" fill="#5B9ADD"/>
<path d="M36.5896 13.0113L33.0255 15.563L31.5792 16.596L28.8261 18.564C28.6298 18.7035 28.3457 18.626 28.263 18.3988C27.7775 17.0506 26.9356 15.8161 26.1143 14.6694C25.6597 14.034 25.1742 13.2954 24.6111 12.6497C24.0326 11.9937 23.3715 11.441 22.576 11.2034C21.6876 10.94 20.6855 10.9865 19.921 11.534C18.1493 12.8047 19.11 14.7417 19.952 16.2655C20.9334 18.0423 22.075 19.7986 22.4314 21.8285C22.6793 23.249 22.6122 24.6747 21.8012 25.9298C21.1762 26.8958 20.732 27.6189 19.9417 28.4505C19.8177 28.5797 19.8022 28.7759 19.9055 28.9206L28.1184 40.3928C28.2372 40.5581 28.4697 40.5994 28.6349 40.4806L31.8116 38.2079C31.9098 38.1407 32.0286 38.1252 32.1422 38.1614C33.3716 38.5539 34.7611 38.3783 35.8871 37.5725L40.8252 34.0394L44.4099 31.4722L45.8304 30.4547C47.2819 29.4164 47.6177 27.3761 46.5794 25.9247C46.3108 25.5476 45.9647 25.2583 45.5825 25.0569C45.4275 24.9794 45.3552 24.8038 45.4017 24.6385C45.6341 23.8224 45.2777 22.5982 44.7508 21.8595L44.5339 21.5599C44.2653 21.1829 43.9192 20.8936 43.537 20.6922C43.382 20.6147 43.3097 20.4391 43.3562 20.2738C43.5886 19.4576 43.4647 18.5537 42.9326 17.8151L42.7157 17.5155C42.4471 17.1384 42.101 16.8491 41.7188 16.6477C41.5638 16.5702 41.4915 16.3946 41.538 16.2293C41.7704 15.4132 41.6465 14.5092 41.1144 13.7706C40.0762 12.3088 38.0411 11.9731 36.5896 13.0113Z" fill="white"/>
<path d="M26.4087 43.8542L22.5915 46.5866C21.9561 47.0412 21.0677 46.8965 20.6132 46.2612L11.8579 34.0245C11.4033 33.3892 11.548 32.5007 12.1833 32.0462L16.0005 29.3137C16.6358 28.8591 17.5243 29.0038 17.9788 29.6391L26.7341 41.8707C27.1886 42.5112 27.044 43.3944 26.4087 43.8542Z" fill="white"/>
</svg>
