<svg width="88" height="90" viewBox="0 0 88 90" fill="none" xmlns="http://www.w3.org/2000/svg">
<path d="M87.4019 52.2177C91.372 28.2473 75.1588 5.5973 51.1884 1.62734C27.218 -2.34262 4.56802 13.8709 0.598037 37.8412C-3.37191 61.8116 12.8416 84.462 36.812 88.4313C60.7823 92.4014 83.4327 76.188 87.4019 52.2177Z" fill="#4A85D3"/>
<path d="M40.8637 1.10591C48.4037 4.11529 55.2079 9.24944 60.2842 16.343C74.4299 36.1024 69.8745 63.5838 50.1151 77.721C43.253 82.632 35.4567 85.2858 27.6191 85.8315C41.0786 91.2054 56.9193 89.8247 69.5769 80.7552C89.3365 66.6097 93.8837 39.1366 79.7461 19.3772C70.5111 6.48808 55.6047 0.072462 40.8637 1.10591Z" fill="#407EC1"/>
<path d="M15.7965 70.934C2.65934 52.5966 6.89232 27.0747 25.2297 13.9458C35.9528 6.27354 49.123 4.52909 60.8381 8.0676C47.9738 2.21416 32.4308 3.20628 20.1121 12.0195C1.77471 25.1566 -2.44998 50.6703 10.6789 69.016C16.1354 76.6386 23.725 81.8222 32.0587 84.3356C25.7589 81.4667 20.1039 76.9611 15.7965 70.934Z" fill="#5B9ADD"/>
<path d="M58.5646 21.8243L52.86 25.9085L50.545 27.562L46.1384 30.7119C45.8243 30.9351 45.3696 30.8111 45.2373 30.4473C44.4601 28.2895 43.1125 26.3136 41.798 24.4782C41.0704 23.4613 40.2933 22.279 39.3921 21.2456C38.4662 20.1956 37.4079 19.3109 36.1347 18.9306C34.7127 18.509 33.1088 18.5834 31.8852 19.4598C29.0494 21.4936 30.5872 24.5939 31.9348 27.0328C33.5056 29.8769 35.3328 32.6878 35.9032 35.937C36.3001 38.2106 36.1926 40.4924 34.8946 42.5014C33.8942 44.0475 33.1832 45.2049 31.9183 46.536C31.7198 46.7427 31.695 47.0568 31.8604 47.2883L45.0058 65.6506C45.1959 65.9151 45.568 65.9813 45.8325 65.7911L50.9171 62.1534C51.0742 62.0459 51.2643 62.0211 51.4462 62.079C53.4139 62.7073 55.6379 62.4262 57.4402 61.1365L65.344 55.4815L71.0816 51.3725L73.3552 49.7438C75.6784 48.082 76.216 44.8163 74.554 42.4932C74.1241 41.8896 73.5702 41.4266 72.9584 41.1042C72.7103 40.9802 72.5946 40.6991 72.669 40.4345C73.041 39.1283 72.4706 37.1689 71.6273 35.9866L71.2801 35.5071C70.8501 34.9035 70.2962 34.4406 69.6844 34.1181C69.4364 33.9941 69.3206 33.713 69.3951 33.4485C69.7671 32.1422 69.5687 30.6954 68.7171 29.5131L68.3699 29.0336C67.94 28.4301 67.386 27.9671 66.7742 27.6446C66.5262 27.5206 66.4105 27.2395 66.4849 26.975C66.8569 25.6687 66.6585 24.2219 65.8069 23.0396C64.1452 20.6999 60.8878 20.1625 58.5646 21.8243Z" fill="white"/>
<path d="M42.2692 71.1903L36.1595 75.5638C35.1425 76.2913 33.7205 76.0599 32.993 75.0429L18.9795 55.4571C18.2519 54.4402 18.4834 53.0182 19.5003 52.2906L25.6101 47.9171C26.627 47.1896 28.049 47.4211 28.7765 48.438L42.79 68.0155C43.5176 69.0407 43.2861 70.4545 42.2692 71.1903Z" fill="white"/>
</svg>
