<svg width="321" height="187" viewBox="0 0 321 187" fill="none" xmlns="http://www.w3.org/2000/svg">
<path fill-rule="evenodd" clip-rule="evenodd" d="M234.368 67.7769H219.632C206.184 67.7769 203 70.9585 203 84.3956V99.119C203 112.556 206.184 115.738 219.632 115.738H234.368C247.816 115.738 251 112.556 251 99.119V84.3956C251 70.9585 247.782 67.7769 234.368 67.7769ZM241.752 101.996H238.263C236.942 101.996 236.536 100.947 234.164 98.5436C232.098 96.5466 231.183 96.2759 230.675 96.2759C229.964 96.2759 229.761 96.479 229.761 97.4605V100.608C229.761 101.454 229.49 101.962 227.254 101.962C223.562 101.962 219.463 99.7282 216.584 95.5651C212.248 89.4727 211.062 84.9033 211.062 83.9556C211.062 83.4479 211.265 82.9741 212.248 82.9741H215.737C216.618 82.9741 216.956 83.3802 217.295 84.3279C219.023 89.3034 221.902 93.6697 223.088 93.6697C223.528 93.6697 223.731 93.4666 223.731 92.3496V87.2049C223.596 84.8356 222.342 84.6326 222.342 83.7864C222.342 83.3802 222.681 82.9741 223.223 82.9741H228.711C229.456 82.9741 229.727 83.3802 229.727 84.2603V91.1989C229.727 91.9435 230.066 92.2143 230.269 92.2143C230.709 92.2143 231.082 91.9435 231.895 91.1312C234.402 88.3219 236.197 83.9895 236.197 83.9895C236.434 83.4818 236.841 83.0079 237.721 83.0079H241.21C242.26 83.0079 242.498 83.5495 242.26 84.2941C241.82 86.3249 237.552 92.3496 237.552 92.3496C237.179 92.9589 237.044 93.2297 237.552 93.9066C237.924 94.4143 239.144 95.4635 239.957 96.4113C241.447 98.1036 242.599 99.5252 242.904 100.507C243.243 101.488 242.735 101.996 241.752 101.996Z" fill="black"/>
<circle cx="93.0049" cy="93.0049" r="92.5049" stroke="black"/>
<path d="M107.316 85.329C103.206 86.8052 98.0309 86.4998 93.9212 87.5178C91.8409 87.976 88.0864 88.5359 87.1731 91.1828C87.4268 92.0991 86.7165 94.4915 87.5283 95.4587C89.71 99.9381 93.7182 95.5605 97.0161 96.3749C97.7265 95.5605 100.213 96.1204 101.583 95.3569C102.141 95.2551 102.597 96.1713 102.496 96.6295C102.496 97.6475 101.329 97.5457 101.126 98.462C94.4793 101.465 88.543 100.753 82.2008 98.2074C80.5772 98.1056 80.5772 95.2042 80.4758 94.6442C83.317 87.3142 89.2026 81.5622 95.9507 76.7264C101.329 72.1452 100.213 81.5622 104.88 80.6459C107.062 79.3734 106.961 78.1008 107.265 75.912C106.352 73.265 105.794 69.1419 102.09 68.582C101.075 68.1238 99.4515 67.3094 98.0816 68.1238C96.6103 67.2076 95.8999 69.3964 94.2763 69.4982C90.9784 70.669 88.6445 74.6903 84.9914 76.1665C84.1796 78.1008 81.8964 78.8134 81.1861 80.9005C79.5625 82.3766 79.0044 83.5474 77.9896 85.1763C77.7359 85.5326 76.8227 85.1763 77.2793 86.0926C76.7212 86.3471 76.7212 87.1106 76.0109 87.1106C76.1123 88.1287 74.8439 89.6558 74.8439 90.6738C72.9159 94.237 74.7424 98.2584 75.8587 101.72C77.9389 103.909 78.1418 104.825 81.1353 105.741C86.0569 107.574 92.7035 108.49 97.7265 106.454C98.8934 106.454 99.8067 104.825 101.177 105.639C101.43 108.184 100.01 111.748 101.43 114.496C103.612 115.311 105.794 116.329 107.975 115.311C109.142 114.496 109.142 112.766 109.447 111.289C108.889 106.352 110.157 100.854 112.187 95.7641C114.115 92.3027 112.288 88.2814 110.106 85.6344L107.316 85.329Z" fill="black"/>
<circle cx="227.005" cy="93.0049" r="92.5049" stroke="black"/>
</svg>
