<svg width="22" height="22" viewBox="0 0 22 22" fill="none" xmlns="http://www.w3.org/2000/svg">
<path opacity="0.8" fill-rule="evenodd" clip-rule="evenodd" d="M14.3778 0H7.62412C1.4604 0 0.000976562 1.45942 0.000976562 7.62315V14.3769C0.000976562 20.5406 1.4604 22 7.62412 22H14.3778C20.5416 22 22.001 20.5406 22.001 14.3769V7.62315C22.001 1.45942 20.526 0 14.3778 0ZM17.7624 15.6965H16.1633C15.5578 15.6965 15.3715 15.2152 14.2847 14.1129C13.3376 13.1969 12.9184 13.0727 12.6855 13.0727C12.3595 13.0727 12.2663 13.1658 12.2663 13.6161V15.06C12.2663 15.4481 12.1421 15.681 11.1174 15.681C9.42511 15.681 7.54649 14.6563 6.2268 12.7466C4.23951 9.95201 3.69611 7.85603 3.69611 7.42131C3.69611 7.18842 3.78926 6.97107 4.23951 6.97107H5.83866C6.24233 6.97107 6.39759 7.15737 6.55285 7.5921C7.34466 9.87438 8.66435 11.8772 9.20775 11.8772C9.40958 11.8772 9.50274 11.784 9.50274 11.2717V8.91178C9.44064 7.82498 8.86618 7.73183 8.86618 7.34368C8.86618 7.15737 9.02144 6.97107 9.26985 6.97107H11.785C12.1266 6.97107 12.2508 7.15737 12.2508 7.56104V10.7438C12.2508 11.0854 12.4061 11.2096 12.4992 11.2096C12.701 11.2096 12.8718 11.0854 13.2444 10.7128C14.3934 9.42413 15.2162 7.43684 15.2162 7.43684C15.3249 7.20395 15.5112 6.98659 15.9149 6.98659H17.514C17.9953 6.98659 18.104 7.235 17.9953 7.57657C17.7935 8.50811 15.8372 11.2717 15.8372 11.2717C15.6665 11.5512 15.6044 11.6754 15.8372 11.9859C16.008 12.2188 16.567 12.7001 16.9396 13.1348C17.6227 13.9111 18.1506 14.5632 18.2903 15.0134C18.4456 15.4637 18.2127 15.6965 17.7624 15.6965Z" fill="black"/>
</svg>
