<svg width="88" height="20" viewBox="0 0 88 20" fill="none" xmlns="http://www.w3.org/2000/svg">
<g opacity="0.8">
<path fill-rule="evenodd" clip-rule="evenodd" d="M12.9568 7.1724C12.9568 5.81448 11.8561 5.23926 10.6203 5.23926H0.577051L0.575979 7.15155H8.2087C8.79765 7.15155 9.27825 7.37768 9.27825 8.07805L9.28146 8.43373H2.00919C0.740111 8.43373 0.000976562 9.3745 0.000976562 10.4097V12.7007C0.000976562 13.6272 0.69291 14.7381 2.00919 14.7381H12.9503L12.9568 7.1724ZM3.66769 11.3296C3.66769 10.8224 3.94124 10.3877 4.7308 10.3877H9.28146V12.6787H4.75225C3.86078 12.6787 3.66769 12.1222 3.66769 11.8302V11.3296Z" fill="black"/>
<path fill-rule="evenodd" clip-rule="evenodd" d="M87.1937 7.1724C87.1937 5.81448 86.0919 5.23926 84.8572 5.23926H74.8129V7.15155H82.4456C83.0346 7.15155 83.5141 7.37768 83.5141 8.07805L83.5184 8.43373H76.2461C74.976 8.43373 74.2368 9.3745 74.2368 10.4097V12.7007C74.2368 13.6272 74.9298 14.7381 76.2461 14.7381H87.1872L87.1937 7.1724ZM77.9057 11.3296C77.9057 10.8224 78.1782 10.3877 78.9677 10.3877H83.5184V12.6787H78.9892C78.0966 12.6787 77.9057 12.1222 77.9057 11.8302V11.3296Z" fill="black"/>
<path fill-rule="evenodd" clip-rule="evenodd" d="M46.4182 9.9323V14.7405L50.2404 14.7372V5.26465H46.4182L40.932 11.4527C40.932 11.4527 40.9492 10.9587 40.9492 10.3451V5.26465H37.1312V14.7405H40.9492L46.445 8.48327C46.445 8.48327 46.4182 9.43722 46.4182 9.9323Z" fill="black"/>
<path fill-rule="evenodd" clip-rule="evenodd" d="M72.506 5.26465H68.6966V12.6789H64.2403V5.26465H60.4202V12.6789H55.9661V5.26465H52.1299V14.7405H72.506V5.26465Z" fill="black"/>
<path fill-rule="evenodd" clip-rule="evenodd" d="M31.7076 11.7163C31.7076 12.4189 31.227 12.7329 30.6359 12.7329H26.9724V7.13321H30.6359C31.227 7.13321 31.7076 7.44607 31.7076 8.14864V11.7163ZM23.1641 12.7329H19.4995C18.9084 12.7329 18.4289 12.4189 18.4289 11.7163V8.14864C18.4289 7.44607 18.9084 7.13321 19.4995 7.13321H23.1641V12.7329ZM33.0485 5.21873H26.9756V0H23.1608V5.21873H17.0879C15.8521 5.21873 14.7504 5.79395 14.7504 7.15297V12.7109C14.7504 14.071 15.8521 14.7813 17.0879 14.7813H23.1608V20H26.9756V14.7813H33.0485C34.2833 14.7813 35.3861 14.071 35.3861 12.7109V7.15297C35.3861 5.79395 34.2833 5.21873 33.0485 5.21873Z" fill="black"/>
</g>
</svg>
