<svg width="54" height="54" viewBox="0 0 54 54" fill="none" xmlns="http://www.w3.org/2000/svg">
<path fill-rule="evenodd" clip-rule="evenodd" d="M27.7255 19.3537L27.372 19.0001L27.0184 19.3537L22.667 23.7051L23.3741 24.4122L26.8721 20.9142L26.8721 35.0405L27.8721 35.0405L27.8721 20.9144L31.3698 24.4122L32.0769 23.7051L27.7255 19.3537Z" fill="black"/>
<rect x="7.9082" y="7.9082" width="1" height="4" fill="black"/>
<rect x="4.55005" y="11.9998" width="1" height="4" transform="rotate(-11.25 4.55005 11.9998)" fill="black"/>
<rect x="2.05469" y="16.6675" width="1" height="4" transform="rotate(-22.5 2.05469 16.6675)" fill="black"/>
<rect x="0.518311" y="21.7327" width="1" height="4" transform="rotate(-33.75 0.518311 21.7327)" fill="black"/>
<rect y="27" width="1" height="4" transform="rotate(-45 0 27)" fill="black"/>
<rect x="0.518311" y="32.2676" width="1" height="4" transform="rotate(-56.25 0.518311 32.2676)" fill="black"/>
<rect x="2.05469" y="37.3325" width="1" height="4" transform="rotate(-67.5 2.05469 37.3325)" fill="black"/>
<rect x="4.55005" y="42.0005" width="1" height="4" transform="rotate(-78.75 4.55005 42.0005)" fill="black"/>
<rect x="7.9082" y="46.0918" width="1" height="4" transform="rotate(-90 7.9082 46.0918)" fill="black"/>
<rect x="11.9995" y="49.4497" width="1" height="4" transform="rotate(-101.25 11.9995 49.4497)" fill="black"/>
<rect x="16.667" y="51.9448" width="1" height="4" transform="rotate(-112.5 16.667 51.9448)" fill="black"/>
<rect x="21.7324" y="53.4812" width="1" height="4" transform="rotate(-123.75 21.7324 53.4812)" fill="black"/>
<rect x="27" y="54" width="1" height="4" transform="rotate(-135 27 54)" fill="black"/>
<rect x="32.2676" y="53.4812" width="1" height="4" transform="rotate(-146.25 32.2676 53.4812)" fill="black"/>
<rect x="37.333" y="51.9448" width="1" height="4" transform="rotate(-157.5 37.333 51.9448)" fill="black"/>
<rect x="41.9995" y="49.4497" width="1" height="4" transform="rotate(-168.75 41.9995 49.4497)" fill="black"/>
<rect x="46.0918" y="46.0918" width="1" height="4" transform="rotate(-180 46.0918 46.0918)" fill="black"/>
<rect x="49.45" y="42.0005" width="1" height="4" transform="rotate(168.75 49.45 42.0005)" fill="black"/>
<rect x="51.9443" y="37.3325" width="1" height="4" transform="rotate(157.5 51.9443 37.3325)" fill="black"/>
<rect x="53.4817" y="32.2676" width="1" height="4" transform="rotate(146.25 53.4817 32.2676)" fill="black"/>
<rect x="54" y="27" width="1" height="4" transform="rotate(135 54 27)" fill="black"/>
<rect x="53.4817" y="21.7327" width="1" height="4" transform="rotate(123.75 53.4817 21.7327)" fill="black"/>
<rect x="51.9443" y="16.6675" width="1" height="4" transform="rotate(112.5 51.9443 16.6675)" fill="black"/>
<rect x="49.45" y="11.9998" width="1" height="4" transform="rotate(101.25 49.45 11.9998)" fill="black"/>
<rect x="46.0918" y="7.9082" width="1" height="4" transform="rotate(90 46.0918 7.9082)" fill="black"/>
<rect x="41.9995" y="4.55029" width="1" height="4" transform="rotate(78.75 41.9995 4.55029)" fill="black"/>
<rect x="37.333" y="2.05518" width="1" height="4" transform="rotate(67.5 37.333 2.05518)" fill="black"/>
<rect x="32.2676" y="0.518799" width="1" height="4" transform="rotate(56.25 32.2676 0.518799)" fill="black"/>
<rect x="27" width="1" height="4" transform="rotate(45 27 0)" fill="black"/>
<rect x="21.7324" y="0.518799" width="1" height="4" transform="rotate(33.75 21.7324 0.518799)" fill="black"/>
<rect x="16.667" y="2.05518" width="1" height="4" transform="rotate(22.5 16.667 2.05518)" fill="black"/>
<rect x="11.9995" y="4.55029" width="1" height="4" transform="rotate(11.25 11.9995 4.55029)" fill="black"/>
</svg>
