<svg width="99" height="99" viewBox="0 0 99 99" fill="none" xmlns="http://www.w3.org/2000/svg">
<g opacity="0.6">
<rect x="14.4984" y="14.4984" width="1.83333" height="7.33333" fill="white"/>
<rect x="8.3407" y="21.9994" width="1.83333" height="7.33333" transform="rotate(-11.25 8.3407 21.9994)" fill="white"/>
<rect x="3.76697" y="30.5571" width="1.83333" height="7.33333" transform="rotate(-22.5 3.76697 30.5571)" fill="white"/>
<rect x="0.950073" y="39.8434" width="1.83333" height="7.33333" transform="rotate(-33.75 0.950073 39.8434)" fill="white"/>
<rect y="49.5" width="1.83333" height="7.33333" transform="rotate(-45 0 49.5)" fill="white"/>
<rect x="0.950073" y="59.1572" width="1.83333" height="7.33333" transform="rotate(-56.25 0.950073 59.1572)" fill="white"/>
<rect x="3.76697" y="68.4429" width="1.83333" height="7.33333" transform="rotate(-67.5 3.76697 68.4429)" fill="white"/>
<rect x="8.3407" y="77.0009" width="1.83333" height="7.33333" transform="rotate(-78.75 8.3407 77.0009)" fill="white"/>
<rect x="14.4984" y="84.5016" width="1.83333" height="7.33333" transform="rotate(-90 14.4984 84.5016)" fill="white"/>
<rect x="22" y="90.6578" width="1.83333" height="7.33333" transform="rotate(-101.25 22 90.6578)" fill="white"/>
<rect x="30.5555" y="95.2322" width="1.83333" height="7.33333" transform="rotate(-112.5 30.5555 95.2322)" fill="white"/>
<rect x="39.8428" y="98.0487" width="1.83333" height="7.33333" transform="rotate(-123.75 39.8428 98.0487)" fill="white"/>
<rect x="49.5" y="99" width="1.83333" height="7.33333" transform="rotate(-135 49.5 99)" fill="white"/>
<rect x="59.1572" y="98.0487" width="1.83333" height="7.33333" transform="rotate(-146.25 59.1572 98.0487)" fill="white"/>
<rect x="68.4445" y="95.2322" width="1.83333" height="7.33333" transform="rotate(-157.5 68.4445 95.2322)" fill="white"/>
<rect x="76.9976" y="90.6578" width="1.83333" height="7.33333" transform="rotate(-168.75 76.9976 90.6578)" fill="white"/>
<rect x="84.5016" y="84.5016" width="1.83333" height="7.33333" transform="rotate(-180 84.5016 84.5016)" fill="white"/>
<rect x="90.6593" y="77.0009" width="1.83333" height="7.33333" transform="rotate(168.75 90.6593 77.0009)" fill="white"/>
<rect x="95.2307" y="68.4429" width="1.83333" height="7.33333" transform="rotate(157.5 95.2307 68.4429)" fill="white"/>
<rect x="98.0499" y="59.1572" width="1.83333" height="7.33333" transform="rotate(146.25 98.0499 59.1572)" fill="white"/>
<rect x="99" y="49.5" width="1.83333" height="7.33333" transform="rotate(135 99 49.5)" fill="white"/>
<rect x="98.0499" y="39.8434" width="1.83333" height="7.33333" transform="rotate(123.75 98.0499 39.8434)" fill="white"/>
<rect x="95.2307" y="30.5571" width="1.83333" height="7.33333" transform="rotate(112.5 95.2307 30.5571)" fill="white"/>
<rect x="90.6593" y="21.9994" width="1.83333" height="7.33333" transform="rotate(101.25 90.6593 21.9994)" fill="white"/>
<rect x="84.5016" y="14.4984" width="1.83333" height="7.33333" transform="rotate(90 84.5016 14.4984)" fill="white"/>
<rect x="76.9976" y="8.34222" width="1.83333" height="7.33333" transform="rotate(78.75 76.9976 8.34222)" fill="white"/>
<rect x="68.4445" y="3.76782" width="1.83333" height="7.33333" transform="rotate(67.5 68.4445 3.76782)" fill="white"/>
<rect x="59.1572" y="0.951294" width="1.83333" height="7.33333" transform="rotate(56.25 59.1572 0.951294)" fill="white"/>
<rect x="49.5" width="1.83333" height="7.33333" transform="rotate(45 49.5 0)" fill="white"/>
<rect x="39.8428" y="0.951294" width="1.83333" height="7.33333" transform="rotate(33.75 39.8428 0.951294)" fill="white"/>
<rect x="30.5555" y="3.76782" width="1.83333" height="7.33333" transform="rotate(22.5 30.5555 3.76782)" fill="white"/>
<rect x="22" y="8.34222" width="1.83333" height="7.33333" transform="rotate(11.25 22 8.34222)" fill="white"/>
</g>
<path d="M56.1421 49.071L49.0711 42V56.1421L56.1421 49.071Z" fill="white"/>
</svg>
