<svg width="49" height="49" viewBox="0 0 49 49" fill="none" xmlns="http://www.w3.org/2000/svg">
<path fill-rule="evenodd" clip-rule="evenodd" d="M24.5 49C38.031 49 49 38.031 49 24.5C49 10.969 38.031 0 24.5 0C10.969 0 0 10.969 0 24.5C0 38.031 10.969 49 24.5 49ZM14.3022 31V19.624H16.8223V21.28C17.2782 20.056 18.2383 19.384 19.5823 19.384C20.5182 19.384 21.3102 19.696 21.9342 20.32C22.5583 20.92 22.8703 21.688 22.8703 22.6C22.8703 23.104 22.8223 23.584 22.7023 24.04H20.2062C20.2782 23.728 20.3022 23.392 20.3022 23.08C20.3022 22.192 19.5823 21.544 18.6222 21.544C17.5422 21.544 16.8223 22.264 16.8223 23.44V31H14.3022ZM32.1841 25.6V19.624H34.7041V31H32.1841V29.2C31.3681 30.568 30.1921 31.24 28.6561 31.24C26.1601 31.24 24.5041 29.8 24.5041 26.92V19.624H27.0241V26.32C27.0241 28.12 27.8641 29.08 29.3041 29.08C31.0081 29.08 32.1841 27.736 32.1841 25.6Z" fill="black"/>
</svg>
