<svg width="192" height="192" viewBox="0 0 192 192" fill="none" xmlns="http://www.w3.org/2000/svg">
<rect x="95.5" y="96" width="1" height="96" fill="black"/>
<rect x="95.5039" y="96.0654" width="1" height="96" transform="rotate(-7.5 95.5039 96.0654)" fill="black"/>
<rect x="95.5166" y="96.1294" width="1" height="96" transform="rotate(-15 95.5166 96.1294)" fill="black"/>
<rect x="95.5381" y="96.1914" width="1" height="96" transform="rotate(-22.5 95.5381 96.1914)" fill="black"/>
<rect x="95.5674" y="96.25" width="1" height="96" transform="rotate(-30 95.5674 96.25)" fill="black"/>
<rect x="95.6035" y="96.3042" width="1" height="96" transform="rotate(-37.5 95.6035 96.3042)" fill="black"/>
<rect x="95.6465" y="96.3535" width="1" height="96" transform="rotate(-45 95.6465 96.3535)" fill="black"/>
<rect x="95.6953" y="96.3967" width="1" height="96" transform="rotate(-52.5 95.6953 96.3967)" fill="black"/>
<rect x="95.75" y="96.4331" width="1" height="96" transform="rotate(-60 95.75 96.4331)" fill="black"/>
<rect x="95.8086" y="96.4619" width="1" height="96" transform="rotate(-67.5 95.8086 96.4619)" fill="black"/>
<rect x="95.8711" y="96.4829" width="1" height="96" transform="rotate(-75 95.8711 96.4829)" fill="black"/>
<rect x="95.9346" y="96.4956" width="1" height="96" transform="rotate(-82.5 95.9346 96.4956)" fill="black"/>
<rect x="96" y="96.5" width="1" height="96" transform="rotate(-90 96 96.5)" fill="black"/>
<rect x="96.0654" y="96.4956" width="1" height="96" transform="rotate(-97.5 96.0654 96.4956)" fill="black"/>
<rect x="96.1289" y="96.4829" width="1" height="96" transform="rotate(-105 96.1289 96.4829)" fill="black"/>
<rect x="96.1914" y="96.4619" width="1" height="96" transform="rotate(-112.5 96.1914 96.4619)" fill="black"/>
<rect x="96.25" y="96.4331" width="1" height="96" transform="rotate(-120 96.25 96.4331)" fill="black"/>
<rect x="96.3047" y="96.3967" width="1" height="96" transform="rotate(-127.5 96.3047 96.3967)" fill="black"/>
<rect x="96.3535" y="96.3535" width="1" height="96" transform="rotate(-135 96.3535 96.3535)" fill="black"/>
<rect x="96.3965" y="96.3042" width="1" height="96" transform="rotate(-142.5 96.3965 96.3042)" fill="black"/>
<rect x="96.4326" y="96.25" width="1" height="96" transform="rotate(-150 96.4326 96.25)" fill="black"/>
<rect x="96.4619" y="96.1914" width="1" height="96" transform="rotate(-157.5 96.4619 96.1914)" fill="black"/>
<rect x="96.4834" y="96.1294" width="1" height="96" transform="rotate(-165 96.4834 96.1294)" fill="black"/>
<rect x="96.4961" y="96.0654" width="1" height="96" transform="rotate(-172.5 96.4961 96.0654)" fill="black"/>
<rect x="96.5" y="96" width="1" height="96" transform="rotate(-180 96.5 96)" fill="black"/>
<rect x="96.4961" y="95.9346" width="1" height="96" transform="rotate(172.5 96.4961 95.9346)" fill="black"/>
<rect x="96.4834" y="95.8706" width="1" height="96" transform="rotate(165 96.4834 95.8706)" fill="black"/>
<rect x="96.4619" y="95.8086" width="1" height="96" transform="rotate(157.5 96.4619 95.8086)" fill="black"/>
<rect x="96.4326" y="95.75" width="1" height="96" transform="rotate(150 96.4326 95.75)" fill="black"/>
<rect x="96.3965" y="95.6958" width="1" height="96" transform="rotate(142.5 96.3965 95.6958)" fill="black"/>
<rect x="96.3535" y="95.6465" width="1" height="96" transform="rotate(135 96.3535 95.6465)" fill="black"/>
<rect x="96.3047" y="95.6033" width="1" height="96" transform="rotate(127.5 96.3047 95.6033)" fill="black"/>
<rect x="96.25" y="95.5669" width="1" height="96" transform="rotate(120 96.25 95.5669)" fill="black"/>
<rect x="96.1914" y="95.5381" width="1" height="96" transform="rotate(112.5 96.1914 95.5381)" fill="black"/>
<rect x="96.1289" y="95.5171" width="1" height="96" transform="rotate(105 96.1289 95.5171)" fill="black"/>
<rect x="96.0654" y="95.5044" width="1" height="96" transform="rotate(97.5 96.0654 95.5044)" fill="black"/>
<rect x="96" y="95.5" width="1" height="96" transform="rotate(90 96 95.5)" fill="black"/>
<rect x="95.9346" y="95.5044" width="1" height="96" transform="rotate(82.5 95.9346 95.5044)" fill="black"/>
<rect x="95.8711" y="95.5171" width="1" height="96" transform="rotate(75 95.8711 95.5171)" fill="black"/>
<rect x="95.8086" y="95.5381" width="1" height="96" transform="rotate(67.5 95.8086 95.5381)" fill="black"/>
<rect x="95.75" y="95.5669" width="1" height="96" transform="rotate(60 95.75 95.5669)" fill="black"/>
<rect x="95.6953" y="95.6033" width="1" height="96" transform="rotate(52.5 95.6953 95.6033)" fill="black"/>
<rect x="95.6465" y="95.6465" width="1" height="96" transform="rotate(45 95.6465 95.6465)" fill="black"/>
<rect x="95.6035" y="95.6958" width="1" height="96" transform="rotate(37.5 95.6035 95.6958)" fill="black"/>
<rect x="95.5674" y="95.75" width="1" height="96" transform="rotate(30 95.5674 95.75)" fill="black"/>
<rect x="95.5381" y="95.8086" width="1" height="96" transform="rotate(22.5 95.5381 95.8086)" fill="black"/>
<rect x="95.5166" y="95.8706" width="1" height="96" transform="rotate(15 95.5166 95.8706)" fill="black"/>
<rect x="95.5039" y="95.9346" width="1" height="96" transform="rotate(7.5 95.5039 95.9346)" fill="black"/>
</svg>
