<svg width="49" height="49" viewBox="0 0 49 49" fill="none" xmlns="http://www.w3.org/2000/svg">
<path fill-rule="evenodd" clip-rule="evenodd" d="M24.5 49C38.031 49 49 38.031 49 24.5C49 10.969 38.031 0 24.5 0C10.969 0 0 10.969 0 24.5C0 38.031 10.969 49 24.5 49ZM35.8016 25.465C32.1296 25.762 29.8616 28.057 29.7266 31.945L26.6216 31.27C26.8916 28.597 28.9166 26.113 31.0766 25.465H14.2016V22.9H31.0766C28.9166 22.252 26.8916 19.768 26.6216 17.095L29.7266 16.42C29.8616 20.308 32.1296 22.603 35.8016 22.9V25.465Z" fill="black"/>
</svg>
