<svg width="49" height="49" viewBox="0 0 49 49" fill="none" xmlns="http://www.w3.org/2000/svg">
<path fill-rule="evenodd" clip-rule="evenodd" d="M24.5 49C38.031 49 49 38.031 49 24.5C49 10.969 38.031 0 24.5 0C10.969 0 0 10.969 0 24.5C0 38.031 10.969 49 24.5 49ZM18.7028 29.08C20.3348 29.08 21.4148 28.24 21.7748 26.68L23.9348 27.52C23.1428 29.896 21.3668 31.24 18.6788 31.24C15.1748 31.24 12.7748 28.912 12.7748 25.24C12.7748 21.976 14.9828 19.384 18.3188 19.384C21.2948 19.384 23.4548 21.304 23.4548 24.4C23.4548 24.856 23.4068 25.288 23.3348 25.72H15.2948C15.2948 26.824 15.6308 27.664 16.3028 28.24C16.9988 28.792 17.7908 29.08 18.7028 29.08ZM18.2948 21.544C16.7348 21.544 15.5108 22.504 15.2948 24.04H20.9348L20.9588 23.824C20.9588 22.408 19.8308 21.544 18.2948 21.544ZM27.9968 24.664V31H25.4768V19.624H27.9968V21.28C28.7888 19.96 30.0608 19.384 31.5728 19.384C33.9488 19.384 35.5568 20.968 35.5568 23.56V31H33.0368V24.424C33.0368 22.6 32.1248 21.544 30.6848 21.544C29.1488 21.544 27.9968 22.72 27.9968 24.664Z" fill="black"/>
</svg>
