<svg width="82" height="12" viewBox="0 0 82 12" fill="none" xmlns="http://www.w3.org/2000/svg">
<path d="M8.96973 4.39161C7.86325 4.76096 6.46991 4.68454 5.36344 4.93926C4.80337 5.05389 3.79252 5.19399 3.54663 5.85626C3.61493 6.08551 3.42369 6.68411 3.64225 6.92609C4.22964 8.04687 5.3088 6.95157 6.19671 7.15535C6.38795 6.95157 7.0573 7.09167 7.42613 6.90062C7.57639 6.87515 7.69933 7.1044 7.67201 7.21903C7.67201 7.47375 7.35783 7.44827 7.30318 7.67752C5.5137 8.42895 3.91546 8.25065 2.20793 7.61384C1.77081 7.58837 1.77081 6.86241 1.74349 6.72232C2.50846 4.88832 4.09304 3.44914 5.90985 2.23921C7.35783 1.09297 7.0573 3.44914 8.31404 3.21989C8.90143 2.90149 8.87411 2.58309 8.95607 2.03544C8.71019 1.37316 8.55992 0.341538 7.56273 0.201441C7.28953 0.0868158 6.8524 -0.116961 6.48357 0.0868166C6.08743 -0.142433 5.89619 0.405217 5.45906 0.430689C4.57115 0.723619 3.94278 1.72977 2.95924 2.09912C2.74068 2.58309 2.12597 2.76139 1.93473 3.28357C1.4976 3.65292 1.34734 3.94585 1.07414 4.35341C1.00584 4.44256 0.759954 4.3534 0.882896 4.58265C0.732634 4.64634 0.732634 4.83738 0.541391 4.83738C0.568712 5.0921 0.227207 5.47418 0.227207 5.7289C-0.29188 6.62043 0.199886 7.62658 0.500411 8.49264C1.06048 9.04029 1.11512 9.26954 1.92107 9.49879C3.24611 9.95728 5.03559 10.1865 6.38795 9.67709C6.70214 9.67709 6.94802 9.26953 7.31685 9.47331C7.38515 10.1101 7.00266 11.0016 7.38515 11.6894C7.97254 11.8932 8.55992 12.1479 9.14731 11.8932C9.46149 11.6894 9.46149 11.2564 9.54346 10.887C9.39319 9.65162 9.7347 8.27612 10.2811 7.00251C10.8002 6.13646 10.3084 5.13031 9.72104 4.46803L8.96973 4.39161Z" fill="black" fill-opacity="0.5"/>
<path d="M54.3338 7.6773C53.3502 7.44805 52.6672 8.16128 51.7383 8.19949C51.2466 8.28864 50.9324 7.94477 50.5909 7.71552C50.5636 7.51174 50.6182 7.34617 50.7821 7.23154C51.0553 7.20607 51.4242 6.91314 51.7657 7.11692C52.4487 6.79851 53.159 7.02777 54.0196 6.77304C54.607 6.56926 55.6178 6.88767 55.8637 5.99614C55.891 5.33386 55.932 4.50601 55.249 4.16214C54.1972 4.76074 53.0224 4.91357 51.793 4.82441C51.7247 4.41686 52.1891 4.04751 52.3531 3.79279L54.1152 3.38523C55.1397 3.0923 56.5877 3.0923 57.6669 2.58286C57.981 2.14983 57.7352 1.62765 57.6669 1.14368C57.6669 0.914425 57.3527 0.850744 57.4483 0.621494C57.2297 0.392243 57.0112 -0.0662571 56.5877 0.048368C55.1124 0.596021 53.2819 0.965369 51.6564 1.19462L51.1919 1.48755C50.9187 2.20077 50.5089 2.90126 50.263 3.58901C49.9489 4.22582 49.4298 4.77347 49.2385 5.37207C48.5965 6.32728 48.4736 7.6391 48.7741 8.75988C49.2112 9.76603 50.3723 10.4538 51.4515 10.5175C52.435 10.8359 53.5142 10.3392 54.3748 9.71508C54.4704 9.46036 54.6889 9.05281 54.5933 8.84903C54.7982 8.416 54.484 7.99571 54.3338 7.6773Z" fill="black" fill-opacity="0.5"/>
<path d="M22.9433 4.42954C22.3832 4.51869 21.8915 4.77342 21.3041 4.51869C21.1812 4.31492 21.3997 4.08566 21.4953 3.88188C22.9433 3.19413 24.6099 3.28328 26.0578 2.73563C26.3037 2.39175 25.9349 1.98419 25.9349 1.64031C25.8393 1.20728 25.6207 0.837936 25.3202 0.519531C23.5307 0.659629 21.8642 1.18181 20.143 1.52569C19.4327 1.50022 18.9682 2.18797 18.695 2.621C18.695 3.30876 18.7633 3.71632 19.2824 4.08566C19.3507 4.5187 19.2551 5.04088 18.8862 5.38475C18.5721 6.33997 18.2442 7.10414 18.4901 8.14851C18.9272 9.61317 20.6211 10.1354 22.2193 10.3901C22.9297 10.4156 23.6127 10.0462 23.8859 9.49855C23.9815 8.67069 23.8176 8.19945 23.1755 7.57538C22.834 7.46075 22.5882 7.77916 22.3149 7.89378C21.6319 7.95747 21.1129 7.89379 20.5938 7.52444C20.5938 7.38434 20.5938 7.0914 20.744 6.92583C22.0691 6.4928 23.4624 6.78573 24.8148 6.40365C25.2519 5.69042 25.006 4.96446 24.4733 4.32765C23.9542 3.99651 23.4351 4.31491 22.9433 4.42954Z" fill="black" fill-opacity="0.5"/>
<path d="M33.1204 2.9013C33.5166 2.92678 33.7078 2.49375 33.7078 2.32818C33.8307 1.75505 33.2434 1.41117 33.1477 0.863516C32.5057 0.201235 31.4539 0.799837 30.6479 0.774365C29.5414 1.14371 28.0252 1.20739 26.9733 2.03525C26.7821 2.46827 26.8504 2.9013 26.7821 3.35981C26.1401 4.50606 25.7986 5.91978 25.4844 7.21887C25.4844 8.04672 26.0035 8.77268 26.4406 9.4859C26.5908 10.059 27.4651 9.77884 27.7656 10.1482C28.7492 10.2119 30.6343 10.6067 31.249 9.51138C31.249 9.10382 31.4949 8.36512 31.0987 7.93209C30.9758 7.63916 30.7026 7.35897 30.3611 7.26981C29.9922 7.792 29.3092 7.81747 28.6945 7.86841C28.2301 7.6901 27.4651 7.89389 27.3968 7.26981C27.6427 6.90046 28.3803 6.90046 28.6945 6.83678C28.9404 6.65848 29.6234 6.90046 29.801 6.633C30.6889 6.60753 31.3173 6.42922 32.1096 6.14903C32.6286 5.94525 32.3281 5.39759 32.3828 5.07919C32.0139 4.59521 32.1096 3.84378 31.208 3.86925C30.8392 4.18766 30.1288 4.2386 29.6644 4.41691C29.2956 4.41691 28.8311 4.55701 28.5852 4.41691C29.2546 2.53196 31.6315 3.27065 33.1204 2.9013Z" fill="black" fill-opacity="0.5"/>
<path d="M16.0591 6.46798C15.8132 5.9458 16.7694 5.86938 16.7694 5.32173C17.6573 4.06087 17.3568 2.46886 16.4552 1.18253C15.9908 0.4311 15.0345 0.0362837 14.0783 0.1127C13.7368 -0.142021 13.2724 0.545726 12.7533 0.252797C12.5621 0.341949 12.1659 0.456574 12.1659 0.774975C11.6058 1.0679 11.6741 1.80659 11.6741 2.23962C11.7971 2.78727 12.6304 2.78727 12.1932 3.38586C11.9473 3.70426 12.043 4.30285 11.6332 4.68493C11.1687 4.68493 10.9911 4.93965 10.7999 5.32173C10.6496 5.84391 10.9502 6.53166 11.2643 6.87553C11.1414 7.58875 11.196 7.90715 11.0731 8.59489L11.1004 8.62037C11.0048 8.9133 11.1687 9.39726 11.2234 9.65198C11.4692 9.99586 11.8107 10.4798 12.3298 10.4289C12.6713 10.4544 12.8899 10.3652 13.0128 10.1105C13.1085 9.67746 13.2314 9.24443 12.9445 8.81141C13.1358 8.51848 12.8216 8.00904 13.0402 7.66517C13.0675 7.41045 13.1085 7.41044 13.3817 7.32129C13.8188 7.69064 14.3106 8.00904 14.8023 8.39112C15.7585 8.84961 16.1 10.085 17.3295 9.94491C17.6983 9.53736 18.2857 9.07886 18.2857 8.56942C18.2174 7.27035 16.7694 7.3595 16.0591 6.46798ZM14.2423 4.48116C14.2149 4.59578 14.0237 4.50663 13.9691 4.59578L13.8734 4.50663C14.0237 3.81888 14.1876 3.09293 14.1876 2.37971C14.7067 2.29056 14.8979 2.40518 15.2668 2.78727C15.5673 3.58964 14.7613 4.04813 14.2423 4.48116Z" fill="black" fill-opacity="0.5"/>
<path d="M49.9232 3.10576C49.8002 2.07414 49.3085 0.838747 48.0381 0.494874C46.3988 0.125529 44.2132 0.201944 42.8199 0.864218C42.1778 0.685914 41.6178 1.18262 41.249 1.068C40.9074 1.2463 41.0304 1.61564 40.6889 1.7048C40.6616 1.15715 40.2518 0.698651 39.76 0.38025C39.1726 0.469403 39.0223 0.469403 38.7355 0.953372C38.8584 1.36092 38.7628 2.07414 38.8038 2.44349C38.6808 3.22039 38.7082 4.08644 38.6125 4.77418C38.4213 5.00343 38.7355 5.3473 38.2984 5.3473C37.711 4.68503 37.2465 4.04823 36.7001 3.36048C36.4269 2.46896 36.6318 1.60291 36.4542 0.775068C36.2083 0.252891 35.5253 0.291097 35.0336 0.112793C34.6647 0.252889 34.3232 0.482137 34.2959 0.864218C33.8998 1.29724 34.1047 1.84489 33.9817 2.39254C34.0091 2.71094 34.2549 3.22038 34.1047 3.42416C33.9544 3.65341 34.0364 4.02276 34.0364 4.29021C33.9407 5.32183 33.5992 6.41713 33.3943 7.42327C33.0802 7.83083 33.2987 8.34027 33.1758 8.74782C33.2714 9.18085 33.2714 9.43557 33.5719 9.70303C33.9681 9.93228 34.6784 10.2252 35.1428 9.93227C35.2385 9.35915 35.6073 8.92613 35.4161 8.32753C35.5663 7.57611 35.6619 6.77374 36.0308 6.06052C36.1537 5.99684 36.222 6.14967 36.304 6.20062C36.946 7.20676 37.8202 8.16197 38.0251 9.16811C37.8339 9.57567 38.4623 10.2379 38.6399 10.4927C39.2272 10.4035 39.5687 10.6964 40.0878 10.3526C40.6069 8.56952 40.1561 6.78648 40.484 4.86334C40.5113 4.29021 40.7982 3.67888 40.4157 3.30954C40.3474 3.10576 40.484 2.99114 40.7299 2.90198C41.5905 3.90813 42.451 2.46896 43.3799 2.69821C43.7761 2.92746 43.5712 3.58973 43.5712 4.0737L42.7652 4.27748C42.1505 4.5322 42.3008 5.23268 42.1505 5.74212C42.2461 6.2643 42.7652 6.56996 43.2024 6.86289C43.3253 8.00913 42.5876 9.28274 43.5712 10.3398C43.6941 10.3398 43.8854 10.3398 43.9673 10.4799C44.3362 10.6582 44.582 10.4799 44.8552 10.3653C45.4973 9.49925 44.8552 9.01528 45.2514 8.06008L45.1831 7.97093C45.4016 7.33412 45.1558 6.85015 45.5519 6.30251C46.5081 5.9841 47.396 5.86948 48.0517 5.15626C49.0353 4.7105 49.6773 3.9336 49.9232 3.10576ZM46.754 3.65341C46.5081 3.62794 45.7705 4.22653 45.4563 3.65341C45.4836 3.24586 45.1831 2.62179 45.5519 2.41802C46.2896 2.44349 46.9043 2.48169 47.6556 2.78736C47.7375 3.30954 46.9999 3.44964 46.754 3.65341Z" fill="black" fill-opacity="0.5"/>
<path d="M81.9976 2.6726C81.7244 2.37966 82.0933 1.78106 81.9703 1.52634C81.6561 1.06784 81.4786 0.380088 80.7682 0.341879C79.9623 0.520185 79.17 0.571128 78.4187 0.825852C77.3395 0.825852 75.7686 1.16973 74.5938 1.3735C74.1021 1.28435 73.2005 1.51361 72.7497 1.80654C72.4082 2.03579 72.3536 2.58344 72.2579 2.90184C72.2853 4.08631 71.2334 4.79953 71.2334 5.83116C70.9192 6.40429 71.2334 6.78638 70.9602 7.32129L70.8919 7.25761C70.4001 6.22598 69.5942 7.62696 68.9248 7.51234C67.7227 7.65243 66.6982 7.14299 65.6874 6.48071C65.0454 6.18777 65.4142 5.7038 65.4688 5.29625C66.1518 4.08631 67.231 3.19478 68.556 3.05468C68.8975 3.28393 68.4604 3.74243 68.556 3.88253C68.5287 4.29009 68.6243 4.71038 68.8702 4.95237C69.2117 5.06699 69.7308 5.29625 70.045 5.2453C70.4138 5.15615 70.687 4.72312 70.9056 4.46839C71.1788 3.78064 71.2471 3.39856 71.0968 2.74901C70.9739 1.99758 70.5367 1.44992 69.922 1.14426C69.6762 1.20794 69.1161 1.00416 68.8429 1.16973C67.2993 1.34804 65.8786 1.94664 64.5536 2.88911C64.5809 3.20752 64.2121 3.23299 64.0345 3.52592C63.8842 3.89527 63.6384 4.32829 63.2695 4.62123C63.0783 3.47497 62.928 2.35419 62.4089 1.30982C62.1904 0.736697 61.603 0.303671 61.0156 0.278198C60.797 0.341879 60.5238 0.392823 60.4965 0.647546L60.3736 0.622072C59.6086 1.22067 59.1442 2.20136 58.6524 3.00374C58.4338 3.37308 58.0923 3.83159 58.065 4.09905C57.7235 5.01605 56.9585 5.1052 56.7946 5.99673C56.9449 7.20667 55.0324 8.07273 55.5652 9.33361C55.7837 9.90673 56.2755 9.97042 56.8356 10.1997C57.4503 9.67748 57.7235 8.82416 58.065 8.18735C58.1879 7.43592 59.2944 7.70338 59.7042 7.4996C59.9501 7.3595 60.3463 7.47413 60.5648 7.38497C60.6604 7.38497 61.0566 7.52507 61.0566 7.75432C60.8653 8.32745 60.961 8.90058 61.0839 9.58833C61.4527 10.1615 61.9172 10.2761 62.5592 10.3016C62.8734 9.894 63.0236 9.72843 63.051 9.2954C63.2968 8.86237 62.8324 8.3784 63.0236 7.91989C63.0919 7.74159 62.9553 7.14299 63.2695 6.96468C63.611 7.39771 64.0345 7.99631 64.4989 8.34019C64.8131 8.42934 64.8678 8.82416 65.2366 8.86237C66.1655 9.69022 67.7364 10.1615 68.9658 10.327C70.1679 10.3525 70.7826 9.34634 71.1924 8.45481C71.6296 8.97699 72.176 9.55012 72.859 9.77937C74.1294 10.2633 75.3315 9.71569 76.5336 9.66475C76.8751 9.46097 77.5581 9.11709 77.5171 8.59491C77.6127 8.22556 77.5854 7.70338 77.121 7.47413C76.5062 7.21941 76.0145 7.44865 75.4271 7.6779C75.0583 7.44865 74.5392 7.79253 74.1294 7.76706C73.7332 7.70338 73.1732 7.70338 73.0775 7.24488C73.2688 6.87553 73.7196 6.83732 74.1567 6.87553C74.8397 6.53165 75.55 6.73543 76.4106 6.6208C76.9707 6.55712 77.4898 6.73543 78.0089 6.53165C77.9815 6.27693 78.5006 5.75475 78.1045 5.61465C78.2547 5.2453 77.763 4.83774 77.5171 4.49386L74.3343 4.58302L74.0611 4.44292C74.0611 4.03536 74.3343 3.69149 74.6211 3.46224C75.9189 3.16931 77.1756 3.14383 78.446 3.02921V3.05468L78.8148 2.991C79.5525 3.19478 80.3857 2.78722 81.0687 2.87637C81.26 3.08015 81.5332 3.08015 81.7108 3.05468C81.8474 3.04194 82.025 2.87637 81.9976 2.6726ZM60.879 4.85048C60.6058 4.76133 59.9228 5.21983 59.7998 4.73585C60.1413 4.16273 60.5648 3.61507 60.7834 3.01647C61.0566 2.991 61.0293 3.3094 61.1522 3.4495C61.0566 3.908 61.3298 4.48113 60.879 4.85048Z" fill="black" fill-opacity="0.5"/>
</svg>
