<svg width="138" height="15" viewBox="0 0 138 15" fill="none" xmlns="http://www.w3.org/2000/svg">
<path d="M42.2422 1.32617V12.3187H55.2961V10.0416H46.0328V7.84315H54.3485V5.56613H46.0328V3.60319H55.0592V1.32617H42.2422Z" fill="black"/>
<path d="M36.868 12.3187V8.81705H40.4327C42.3403 8.81705 43.8565 8.37839 44.9141 7.65073C45.9771 6.91938 46.5815 5.88592 46.5815 4.76525C46.5815 3.6204 45.9956 2.59042 44.9278 1.86912C43.8727 1.15643 42.3557 0.74486 40.4327 0.74486H32.4961H31.9148V1.32617V12.3187V12.9H32.4961H36.2867H36.868V12.3187ZM36.868 5.37741V4.1845H40.1958C40.7582 4.1845 41.148 4.28335 41.3756 4.41379C41.5769 4.52908 41.6282 4.64743 41.6282 4.78096C41.6282 4.91448 41.5769 5.03283 41.3756 5.14812C41.148 5.27856 40.7582 5.37741 40.1958 5.37741H36.868Z" fill="black" stroke="#FFEFE7" stroke-width="1.16262"/>
<path d="M27.12 12.3187V8.81705H30.6846C32.5922 8.81705 34.1084 8.37839 35.166 7.65073C36.229 6.91938 36.8334 5.88592 36.8334 4.76525C36.8334 3.6204 36.2475 2.59042 35.1797 1.86912C34.1247 1.15643 32.6077 0.74486 30.6846 0.74486H22.748H22.1667V1.32617V12.3187V12.9H22.748H26.5387H27.12V12.3187ZM27.12 5.37741V4.1845H30.4477C31.0101 4.1845 31.3999 4.28335 31.6276 4.41379C31.8288 4.52908 31.8802 4.64743 31.8802 4.78096C31.8802 4.91448 31.8288 5.03283 31.6276 5.14812C31.3999 5.27856 31.0101 5.37741 30.4477 5.37741H27.12Z" fill="black" stroke="#FFEFE7" stroke-width="1.16262"/>
<path d="M2 10.0419H3.50937L3.09566 12.2097L2.96392 12.9H3.66667H5.72727H6.20813L6.29828 12.4276L6.75359 10.0419H6.84271L6.42899 12.2097L6.29725 12.9H7H9.06061H9.54147L9.63161 12.4276L10.0869 10.0419H12.5455H13.1268V9.46062V7.40345V6.8227H13.5813V6.24139V4.18422V3.60291H13H11.3276L11.7523 1.43806L11.8882 0.74486H11.1818H9.12121H8.64285L8.55077 1.21428L8.08224 3.60291H7.99429L8.41893 1.43806L8.5549 0.74486H7.84849H5.78788H5.30951L5.21744 1.21428L4.74891 3.60291H2.45455H1.87323V4.18422V6.24139V6.82214H1.41869V7.40345V9.46062V10.0419H2ZM7.51908 6.91636H7.27842L7.31425 6.72848H7.55491L7.51908 6.91636Z" fill="black" stroke="#FFEFE7" stroke-width="1.16262"/>
<path d="M17.3719 12.3187V8.81705H20.9366C22.8442 8.81705 24.3604 8.37839 25.418 7.65073C26.481 6.91938 27.0854 5.88592 27.0854 4.76525C27.0854 3.6204 26.4995 2.59042 25.4317 1.86912C24.3766 1.15643 22.8596 0.74486 20.9366 0.74486H13H12.4187V1.32617V12.3187V12.9H13H16.7906H17.3719V12.3187ZM17.3719 5.37741V4.1845H20.6997C21.2621 4.1845 21.6519 4.28335 21.8796 4.41379C22.0808 4.52908 22.1321 4.64743 22.1321 4.78096C22.1321 4.91448 22.0808 5.03283 21.8796 5.14812C21.6519 5.27856 21.2621 5.37741 20.6997 5.37741H17.3719Z" fill="black" stroke="#FFEFE7" stroke-width="1.16262"/>
<path d="M55.7598 12.3187H59.9057L61.1851 10.0416H68.8137L70.093 12.3187H74.239L67.7239 1.32617H62.2749L55.7598 12.3187ZM62.4644 7.76463L64.9994 3.27341L67.5344 7.76463H62.4644Z" fill="black"/>
<path d="M74.8418 12.3187H78.6324V8.0787L84.4605 12.3187H89.6726L81.4991 6.57116L89.2698 1.32617H84.3657L78.6324 5.22066V1.32617H74.8418V12.3187Z" fill="black"/>
<path d="M102.111 14.2556H105.546V10.1852H103.533V1.32617H99.742V10.1852H93.8902V1.32617H90.0996V12.3187H102.111V14.2556Z" fill="black"/>
<path d="M118.068 5.2685V12.3187H121.859V1.32617H118.068L110.302 8.37517V1.32617H106.512V12.3187H110.302L118.068 5.2685Z" fill="black"/>
<path d="M123.139 12.3187H127.261L132.331 8.15722H133.515V12.3187H137.306V1.32617H129.014C125.674 1.32617 123.447 2.72379 123.447 4.70244C123.447 6.86953 125.958 8.03159 128.043 8.15722L123.139 12.0674V12.3187ZM129.133 5.8802C127.806 5.8802 127.119 5.37769 127.119 4.70244C127.119 4.02718 127.782 3.60319 129.133 3.60319H133.515V5.8802H129.133Z" fill="black"/>
</svg>
