<svg width="382" height="558" viewBox="0 0 382 558" fill="none" xmlns="http://www.w3.org/2000/svg">
<g clip-path="url(#clip0)">
<path d="M357.955 51.6774C372.233 50.6458 382.97 38.2562 381.937 24.0046C380.903 9.75292 368.49 -0.964027 354.212 0.0676075C339.934 1.09924 329.197 13.4888 330.231 27.7405C331.264 41.9921 343.677 52.7091 357.955 51.6774Z" fill="#020203"/>
<path d="M326.254 86.4072L326.454 99.8927" stroke="#020203" stroke-miterlimit="10" stroke-linecap="round"/>
<path d="M292.629 39.3584C292.629 39.3584 287.625 51.9449 287.225 62.6334C287.225 63.0329 287.025 63.4325 286.825 63.8321L282.221 69.8256C281.721 70.425 282.021 71.324 282.822 71.6237L285.724 72.5227C286.525 72.8224 287.125 73.6216 286.925 74.5206C286.224 78.7161 283.923 93.2005 297.133 97.0963C298.334 97.4959 299.034 98.7945 299.034 100.093C299.034 100.093 299.535 105.587 299.535 111.781" stroke="#020203" stroke-miterlimit="10"/>
<path d="M290.129 66.4292C290.129 67.8277 291.33 69.0264 292.731 69.0264C294.132 69.0264 295.333 67.8277 295.333 66.4292C295.333 65.0307 294.132 63.832 292.731 63.832C291.33 63.832 290.129 65.0307 290.129 66.4292Z" fill="#020203"/>
<path d="M326.554 90.3039L326.654 90.0039C328.654 90.4039 326.454 90.1039 326.554 90.3039Z" fill="#020203"/>
<path d="M291.027 41.156C294.03 29.069 305.138 20.4782 317.548 21.1775C333.261 21.9766 344.369 36.1614 341.867 51.2452C341.667 52.344 341.467 53.3429 341.167 54.4417L326.755 90.0035C326.255 89.9036 321.952 89.0046 321.351 74.0207C321.251 71.9229 320.25 69.9251 318.449 68.9261C315.146 66.9283 312.544 69.6254 311.043 72.0228C310.142 73.3214 308.341 73.5212 307.24 72.4224C301.135 66.229 307.04 35.6619 291.027 41.156Z" fill="#020203"/>
<path d="M62.9453 108.384L63.846 53.9424" stroke="#020203" stroke-miterlimit="10" stroke-linecap="round"/>
<path d="M99.6732 109.982L98.9727 61.334" stroke="#020203" stroke-miterlimit="10" stroke-linecap="round"/>
<path d="M103.079 43.353C103.68 44.8514 105.281 45.5506 106.782 45.0512C108.284 44.4518 108.984 42.8535 108.484 41.3551C107.883 39.8568 106.282 39.1575 104.781 39.657C103.28 40.2563 102.479 41.8546 103.079 43.353Z" fill="#020203"/>
<path d="M62.4458 63.7314C62.4458 63.7314 40.5286 19.8785 74.2551 11.4876C99.8752 5.09444 108.982 22.6755 108.982 22.6755C84.9635 19.0794 85.9643 36.5606 85.9643 36.5606L89.5671 57.7378C89.8674 59.3361 91.2685 60.5348 92.9698 60.5348L112.485 59.7357L111.284 65.929C110.884 67.6272 111.284 69.3254 112.485 70.5241C114.787 72.9215 117.889 77.7164 114.987 84.7088C110.684 94.8979 81.1605 104.587 79.5593 75.3189C80.1597 46.8495 80.1597 46.8495 80.1597 46.8495C80.1597 46.8495 80.9604 38.7582 73.5546 38.6584C66.1487 38.5585 66.449 46.8495 67.1495 49.5466C70.6523 66.3286 62.4458 63.7314 62.4458 63.7314Z" fill="#020203"/>
<path d="M107.082 21.7764C107.082 21.7764 112.987 30.3671 113.487 43.2533C113.487 43.7527 113.687 44.2522 114.088 44.6518L119.992 51.4445C120.693 52.3435 120.192 53.6421 118.991 53.6421L115.589 53.742C114.688 53.742 113.987 54.3414 113.587 55.1405L111.085 61.5336" stroke="#020203" stroke-miterlimit="10"/>
<path d="M347.174 552.806C347.274 555.104 345.373 556.902 343.171 556.902H284.425C282.223 556.902 280.422 555.104 280.422 552.906C280.422 545.914 284.125 539.321 295.634 538.422C297.435 538.322 299.036 537.323 300.137 535.924L318.051 510.352C319.853 508.554 322.255 507.455 324.857 507.455L342.471 513.948C345.073 513.848 347.174 515.946 347.174 518.543V552.806Z" stroke="#020203" stroke-miterlimit="10"/>
<path d="M347.273 547.812H280.32" stroke="#020203" stroke-miterlimit="10"/>
<path d="M281.52 547.712C283.121 542.917 287.324 539.021 295.931 538.422C297.732 538.322 299.334 537.323 300.434 535.924L318.348 510.352C320.15 508.554 322.552 507.455 325.154 507.455L342.768 513.948C345.37 513.848 347.471 515.946 347.471 518.543L347.571 547.712H281.52Z" fill="#020203"/>
<path d="M300.233 556.902C285.821 556.902 246.691 556.902 246.691 556.902C244.489 556.902 242.688 555.104 242.688 552.906C242.688 545.914 246.39 539.321 257.899 538.422C259.701 538.322 261.302 537.323 262.403 535.924L280.317 510.352C282.118 508.554 284.52 507.455 287.122 507.455L304.736 513.948C307.338 513.848 309.44 515.946 309.44 518.543C309.44 518.543 309.44 534.826 309.54 544.915" stroke="#020203" stroke-miterlimit="10"/>
<path d="M309.54 547.812H242.688" stroke="#020203" stroke-miterlimit="10"/>
<path d="M243.887 547.712C245.488 542.917 249.691 539.021 258.298 538.422C260.099 538.322 261.701 537.323 262.802 535.924L280.716 510.352C282.517 508.554 284.919 507.455 287.521 507.455L305.135 513.948C307.737 513.848 309.839 515.946 309.839 518.543L309.939 547.712H243.887Z" fill="#020203"/>
<path d="M343.267 229.953C352.174 209.475 366.585 152.836 366.585 152.836C368.887 142.547 360.881 131.959 348.671 129.261C336.462 126.564 324.753 132.758 322.451 143.047C322.451 143.047 313.444 192.294 309.641 212.372" stroke="#020203" stroke-miterlimit="10"/>
<path d="M280.82 323.652L283.922 321.954C285.423 321.155 287.425 322.254 287.225 323.952L284.723 345.129C284.222 348.725 286.824 352.022 290.527 352.421C292.529 352.621 294.531 351.922 295.832 350.523L308.041 337.937C309.742 336.139 310.843 333.941 311.244 331.544L313.746 316.36C314.646 311.066 310.843 306.171 305.539 305.672L299.234 304.972C291.828 304.273 280.72 313.463 277.317 318.258C276.016 320.056 276.616 322.454 278.318 323.552C279.118 324.052 280.019 324.052 280.82 323.652Z" stroke="#020203" stroke-miterlimit="10"/>
<path d="M304.636 227.256C299.032 244.837 284.521 287.691 284.521 287.691C283.92 293.784 289.024 299.378 296.23 300.377L302.535 301.276C309.64 302.275 316.045 298.379 317.246 292.486C317.246 292.486 332.258 259.721 338.363 244.837" stroke="#020203" stroke-miterlimit="10"/>
<path d="M284.625 360.613C284.625 360.613 286.627 356.417 288.928 351.522" stroke="#020203" stroke-miterlimit="10"/>
<path d="M287.225 325.95C283.823 325.35 280.42 325.051 276.917 325.051C247.294 325.75 223.875 352.821 229.28 383.088C232.983 404.166 250.296 420.648 271.513 423.445C300.636 427.241 325.756 405.165 327.457 377.494C327.557 375.297 325.755 373.399 323.554 373.399L292.83 374.098" stroke="#020203" stroke-miterlimit="10"/>
<path d="M267.708 391.579C264.206 396.774 259.702 403.566 259.702 403.566C257.3 407.163 258.701 412.057 262.704 413.756C266.307 415.254 270.01 416.253 273.913 416.652C299.033 419.649 322.051 399.571 321.25 373.299C321.25 372.899 321.25 372.5 321.15 372.2" stroke="#020203" stroke-miterlimit="10"/>
<path d="M288.014 387.924C295.049 380.902 295.049 369.518 288.014 362.496C280.979 355.474 269.573 355.474 262.539 362.496C255.504 369.518 255.504 380.902 262.539 387.924C269.573 394.946 280.979 394.946 288.014 387.924Z" stroke="#020203" stroke-miterlimit="10"/>
<path d="M282.32 375.097C282.22 371.201 279.017 368.204 275.214 368.304C271.311 368.404 268.309 371.601 268.409 375.397C268.509 379.292 271.711 382.289 275.514 382.189C279.317 382.089 282.42 378.893 282.32 375.097Z" fill="#020203"/>
<path d="M361.884 168.719C367.288 163.924 374.094 154.234 374.194 146.543C374.394 131.759 363.685 120.471 348.874 120.471H314.046C304.039 120.471 294.731 125.765 289.727 134.456C283.522 145.144 264.307 185.201 285.124 213.67C288.626 218.465 286.425 223.86 283.823 229.154C269.111 259.521 264.808 293.285 266.409 326.249" stroke="#020203" stroke-miterlimit="10"/>
<path d="M285.621 423.445C297.03 458.507 310.14 485.278 314.744 494.668C315.645 496.466 317.146 497.765 319.047 498.364L339.263 504.658C343.266 505.956 347.47 503.359 348.17 499.263C359.779 430.637 341.165 374.198 335.36 358.814C334.359 356.217 334.56 353.42 335.861 350.923C342.666 338.536 360.58 297.78 335.961 251.729" stroke="#020203" stroke-miterlimit="10"/>
<path d="M289.725 134.056L286.123 127.263C283.821 123.068 285.922 118.073 290.926 115.876L322.151 101.691C335.661 93.9991 338.063 119.971 346.07 120.371" stroke="#020203" stroke-miterlimit="10"/>
<path d="M288.924 174.113H311.141C312.943 174.113 314.444 172.615 314.444 170.817C314.444 169.019 312.943 167.521 311.141 167.521H288.924C287.122 167.521 285.621 169.019 285.621 170.817C285.621 172.615 287.122 174.113 288.924 174.113Z" fill="#020203"/>
<path d="M306.038 227.656L335.261 243.638C339.164 245.736 344.068 244.338 346.27 240.442C348.371 236.546 346.97 231.651 343.067 229.454L313.844 213.471C309.941 211.373 305.037 212.772 302.835 216.667C300.634 220.663 302.135 225.558 306.038 227.656Z" stroke="#020203" stroke-miterlimit="10"/>
<path d="M287.726 129.062C280.621 130.46 275.016 135.255 273.615 141.748C273.615 141.748 265.809 186.5 262.406 204.78" stroke="#020203" stroke-miterlimit="10"/>
<path d="M203.96 293.684C203.16 292.785 201.759 292.685 200.858 293.385L185.846 305.871C183.344 308.069 179.541 307.669 177.439 305.072C176.339 303.674 175.838 301.776 176.238 299.977L179.841 284.394C180.342 282.197 181.443 280.299 183.144 278.8L193.552 269.311C197.155 266.014 202.759 266.414 205.862 270.21L209.565 274.705C213.768 279.999 211.866 287.591 209.865 292.585C208.764 295.083 205.662 295.582 203.96 293.684Z" stroke="#020203" stroke-miterlimit="10"/>
<path d="M256.398 216.667C243.088 226.956 208.861 252.429 208.861 252.429C205.258 256.624 206.259 263.517 211.062 268.012L215.366 271.908C220.169 276.303 227.075 276.702 230.978 272.807C230.978 272.807 266.606 249.132 278.916 241.041" stroke="#020203" stroke-miterlimit="10"/>
<path d="M286.725 218.066C279.219 213.971 265.708 205.979 265.708 205.979C262.106 203.981 257.602 205.38 255.701 208.876C253.699 212.472 255.1 216.967 258.603 218.865C258.603 218.865 277.017 228.954 283.222 232.351" stroke="#020203" stroke-miterlimit="10"/>
<path d="M77.7572 533.626L90.5673 534.326V533.427C90.5673 530.23 93.2694 527.633 96.4719 527.633H104.879C108.181 527.633 110.783 530.23 110.783 533.427C110.783 535.424 112.284 537.023 114.286 537.222L130.399 538.321C138.605 539.021 144.81 544.714 144.81 551.507C144.81 553.505 143.109 555.103 141.107 555.103H75.9558C72.6532 555.103 70.0512 552.406 70.1512 549.21L70.4515 539.92C70.5515 536.124 73.8541 533.227 77.7572 533.626Z" stroke="#020203" stroke-miterlimit="10"/>
<path d="M144.912 549.31H69.9531" stroke="#020203" stroke-miterlimit="10"/>
<path d="M131.402 290.488C131.402 290.488 119.693 401.169 114.389 438.629C109.085 476.488 101.379 508.154 101.379 508.154C100.878 512.05 97.4754 514.947 93.5724 514.947H75.1579C70.5543 514.947 66.8514 510.951 67.3518 506.356L79.8616 331.644C79.9617 328.447 75.3581 327.748 74.6575 330.944C74.6575 330.944 66.9515 391.979 59.8459 430.238C48.9373 489.474 40.6308 508.054 40.6308 508.054C40.1304 511.95 36.7277 514.847 32.8247 514.847H12.3086C7.70495 514.847 4.00204 510.851 4.50243 506.256C6.30385 486.877 22.2163 324.451 25.2187 287.491" stroke="#020203" stroke-miterlimit="10"/>
<path d="M62.2472 104.089C49.0368 106.686 1.19922 112.78 1.19922 167.121C1.19922 167.121 1.49945 172.815 1.99985 181.306L2.30008 185.701C3.30087 198.387 4.00142 227.556 4.40173 242.54C4.60189 250.731 10.6066 257.524 18.713 258.823L111.586 267.713L136.706 258.223C139.007 257.324 140.909 255.526 141.81 253.229L145.212 242.34C146.113 239.943 146.013 237.246 144.812 235.048L138.807 223.76" stroke="#020203" stroke-miterlimit="10" stroke-linecap="round"/>
<path d="M55.3414 235.447L38.0278 229.853C35.826 229.054 34.3249 227.056 34.2248 224.659C33.9245 214.07 33.224 185.102 32.5234 176.511" stroke="#020203" stroke-miterlimit="10" stroke-linecap="round"/>
<path d="M107.583 107.385C103.78 118.873 93.1717 127.064 80.7619 127.064C67.9519 127.064 57.1434 118.273 53.6406 106.286" stroke="#020203" stroke-miterlimit="10"/>
<path d="M1.19922 189.497H33.5246" stroke="#020203" stroke-miterlimit="10"/>
<path d="M76.5602 515.646L74.5586 533.726" stroke="#020203" stroke-miterlimit="10"/>
<path d="M94.8711 513.648V528.133" stroke="#020203" stroke-miterlimit="10"/>
<path d="M16.0089 535.125C19.0113 535.624 22.1137 534.225 23.5148 531.528C24.6157 529.53 26.0168 527.732 27.518 527.732H35.9246C39.2272 527.732 41.8292 530.33 41.8292 533.526C41.8292 535.524 43.3304 537.122 45.332 537.322L51.0364 537.422C59.2429 538.121 59.9434 544.714 59.9434 551.507C59.9434 553.505 58.2421 555.103 56.2405 555.103H13.0066C9.70398 555.103 7.10193 552.406 7.20201 549.209L7.50225 539.919C7.50225 534.425 11.9057 534.325 16.0089 535.125Z" stroke="#020203" stroke-miterlimit="10"/>
<path d="M59.9455 549.31H7.00391" stroke="#020203" stroke-miterlimit="10"/>
<path d="M12.409 515.246L11.4082 533.726" stroke="#020203" stroke-miterlimit="10"/>
<path d="M33.226 515.347L32.9258 528.333" stroke="#020203" stroke-miterlimit="10"/>
<path d="M18.7148 258.523V278.901C18.7148 283.796 22.718 287.691 27.5218 287.691C27.5218 287.691 54.7431 297.181 81.8644 297.181C102.28 297.181 125.098 291.787 135.106 289.19C138.109 288.391 140.21 285.594 140.01 282.497L138.809 258.423" stroke="#020203" stroke-miterlimit="10"/>
<path d="M120.793 249.632C123.295 248.333 125.497 247.235 125.497 247.235C129.2 245.337 131.702 241.641 132.002 237.545L132.402 233.35" stroke="#020203" stroke-miterlimit="10" stroke-linecap="round"/>
<path d="M99.2773 104.987C111.587 109.782 142.011 115.476 145.514 153.235L151.218 216.967C151.819 227.855 166.03 247.434 170.333 253.028C171.034 254.027 172.135 254.527 173.336 254.626C176.838 254.826 180.241 255.825 182.943 256.824C185.745 257.823 186.446 261.419 184.244 263.417C183.243 264.316 183.043 265.914 183.944 266.913C183.944 266.913 186.446 269.81 189.448 273.206" stroke="#020203" stroke-miterlimit="10"/>
<path d="M177.839 292.186C175.837 291.786 174.436 291.486 174.436 291.486C171.934 290.987 169.632 289.688 167.931 287.89L156.822 276.303C155.021 274.405 154.82 271.208 154.82 268.911C154.921 267.013 154.22 265.215 153.019 263.816L142.711 251.13" stroke="#020203" stroke-miterlimit="10"/>
<path d="M304.139 341.434L295.332 350.524C293.931 351.922 291.929 352.721 290.028 352.422C289.628 352.422 289.227 352.322 288.827 352.222L285.324 359.514C289.928 362.711 293.03 367.805 293.731 373.599L320.652 373C320.051 360.513 313.847 349.025 304.139 341.434Z" fill="#020203"/>
<path d="M291.626 440.227L285.721 494.568C285.321 498.064 287.622 501.261 291.025 502.06C295.529 503.159 301.734 504.657 305.937 505.756C308.739 506.455 311.641 505.057 312.642 502.36L315.144 496.067" stroke="#020203" stroke-miterlimit="10"/>
<path d="M111.187 218.865C110.186 217.866 108.785 217.267 107.484 216.767C105.883 216.168 104.382 215.469 102.88 214.769C102.48 214.57 102.18 214.17 101.98 213.77C101.579 213.071 101.279 212.372 100.779 211.673C99.7779 210.174 98.577 209.775 96.8757 210.274C95.8749 210.574 94.5739 209.975 93.9734 209.175C93.7732 208.776 93.473 208.376 93.1728 208.077C91.6716 206.878 89.3698 206.978 87.8686 208.176C87.4683 208.576 87.068 208.576 86.5676 208.276C84.9663 207.377 83.6653 206.079 82.4643 204.78C81.7638 204.081 81.7638 203.881 82.4643 203.182C83.3651 202.383 82.7646 201.384 83.1649 200.585C81.8639 200.185 80.9632 200.585 79.9624 201.184C78.8615 201.783 77.6606 202.283 76.7599 203.082C75.659 204.181 74.5581 205.38 74.9585 207.178C75.0585 207.577 75.0585 207.977 75.1586 208.276C75.2587 208.976 75.0585 209.475 74.5581 209.975C73.8576 210.574 73.4573 211.473 73.2571 212.372C73.157 212.971 73.157 213.571 72.4565 213.97C72.2563 214.07 72.1562 214.57 72.1562 214.769C72.2563 215.269 72.3564 215.868 72.6566 216.368C73.057 217.167 73.5574 217.866 73.8576 218.765C74.358 220.264 74.7583 221.862 75.1586 223.36C75.3588 224.159 75.659 224.859 76.4596 225.358C78.261 226.457 79.9624 227.656 81.8639 228.555C82.5644 228.954 83.265 229.454 83.4651 230.453C83.8654 231.751 83.8654 232.95 83.9655 234.248C84.0656 235.447 83.8654 236.846 84.566 237.944C84.6661 238.044 84.566 238.244 84.566 238.444C84.4659 240.042 84.2658 241.74 84.1657 243.339C84.1657 243.638 84.1657 243.938 84.3658 244.238C84.8662 245.037 85.3666 245.836 85.867 246.635C85.9671 246.835 86.0672 246.935 86.0672 247.135C86.2673 247.834 86.4675 248.533 86.6676 249.132C86.9679 249.932 87.7685 250.231 88.4691 249.832C88.7693 249.632 89.1696 249.232 89.2697 248.933C89.4698 248.233 89.67 247.434 89.67 246.635C89.67 244.438 90.8709 243.039 93.0727 243.039C93.8733 243.039 94.774 243.339 95.5746 243.339C96.7756 243.439 97.0758 243.139 97.1759 242.04C97.276 241.141 97.6763 240.542 98.577 240.342C98.8772 240.242 99.2776 240.142 99.4777 239.842C100.679 238.644 102.08 237.645 102.88 236.047C103.281 235.247 103.981 234.848 104.782 234.448C105.282 234.149 105.783 233.749 106.283 233.449C106.583 233.25 106.984 232.95 107.284 232.95C107.884 232.85 108.185 232.55 108.385 232.051C108.485 231.651 108.485 231.152 108.585 230.752C108.685 230.253 108.785 229.753 109.085 229.354C109.786 228.255 110.486 227.356 111.187 226.257C111.387 226.057 111.487 225.658 111.487 225.458C111.387 224.759 111.687 224.159 111.988 223.56C112.388 222.761 112.888 221.862 112.388 220.963C112.288 220.264 111.787 219.464 111.187 218.865Z" fill="black"/>
<path d="M126.999 166.221C126.599 165.722 126.098 165.222 125.598 164.723C125.097 165.622 124.797 166.421 124.397 167.02C123.596 166.621 122.896 166.221 122.195 166.021C121.595 165.821 121.395 166.021 121.395 166.621C121.495 167.819 121.995 168.718 122.996 169.418C123.596 169.717 123.896 170.117 123.496 170.816C123.196 171.415 123.296 172.015 123.696 172.514C124.097 173.114 124.397 173.813 124.797 174.412C124.897 174.612 125.097 175.012 125.298 175.112C125.798 175.311 125.898 175.711 125.898 176.21C125.898 177.109 126.398 177.309 127.099 177.509C127.699 177.709 128.3 177.509 128.6 177.009C129.201 176.011 129.301 175.012 128.7 174.013C128.4 173.513 128.3 173.014 128 172.514C127.8 172.115 128 171.915 128.3 171.815C128.8 171.715 129.301 171.615 129.701 171.515C130.001 171.415 130.302 171.415 130.402 171.216C130.502 171.016 130.302 170.616 130.101 170.516C129.401 168.918 128.2 167.62 126.999 166.221Z" fill="black"/>
<path d="M73.9578 194.991C73.8577 194.491 73.7576 194.191 73.7576 193.792C73.7576 193.392 73.8577 192.993 74.0578 192.593C74.4582 191.594 75.0586 190.595 75.459 189.496C75.8593 188.597 76.2596 187.698 77.1603 187.099C77.6607 186.699 78.1611 186.1 78.4613 185.501C79.9625 183.203 81.1634 180.706 83.7655 179.307C83.8655 179.208 84.0657 179.108 84.0657 179.008C84.8663 177.509 86.2674 177.509 87.6685 177.509C88.0689 177.509 88.4692 177.509 88.7694 177.509C89.1697 177.509 89.57 177.509 89.9703 177.509C90.2706 177.409 90.771 177.31 90.8711 177.11C91.4715 176.311 91.9719 175.512 91.8718 174.413C91.8718 174.013 91.8718 173.713 91.8718 173.314C91.9719 172.415 92.2722 172.115 93.1729 172.115C93.6733 172.115 94.2737 172.215 94.7741 172.215C95.0743 172.215 95.3746 172.015 95.6748 171.815C96.0751 171.416 96.4755 170.916 96.9758 170.517C97.2761 170.217 97.4762 170.017 97.3762 169.618C97.176 168.719 97.3762 167.92 97.7765 167.021C97.8765 166.821 97.9766 166.521 98.0767 166.321C98.477 165.422 98.477 164.623 97.7765 163.924C97.6764 163.824 97.5763 163.724 97.5763 163.624C97.2761 162.525 95.9751 162.226 94.9743 162.326C92.6725 162.625 90.771 163.724 88.8695 164.923C88.4692 165.123 88.1689 165.223 87.7686 165.123C87.4684 165.023 87.1681 165.023 86.968 164.923C85.767 164.423 84.8663 164.423 83.7655 165.522C82.9648 166.421 82.3644 167.22 82.5645 168.419C82.5645 168.619 82.4644 168.919 82.2643 169.018C81.4637 169.218 80.663 169.618 79.8624 169.518C78.2612 169.318 76.5598 168.919 74.9586 168.519C74.1579 168.319 73.9578 167.42 74.6583 166.821C74.8585 166.621 75.1587 166.421 75.459 166.421C76.1595 166.321 76.8601 166.321 77.5606 166.421C79.1619 166.521 79.1619 166.521 79.1619 164.923C79.1619 164.523 79.362 164.324 79.7623 164.324C80.563 164.324 81.2635 164.324 82.0641 164.324C82.3644 164.324 82.6646 164.124 82.8648 164.024C83.5653 163.524 84.1658 162.825 84.9664 162.326C85.8671 161.726 86.7678 161.227 87.7686 160.827C88.8695 160.328 89.3699 159.329 90.0704 158.53C90.4707 158.03 91.0712 157.631 91.5716 157.231C91.8718 157.031 92.2722 157.031 92.6725 156.832C91.3714 155.933 89.9703 155.333 88.4692 154.834C86.968 154.334 85.8671 154.634 84.6662 155.733C84.1658 156.232 83.3652 156.632 82.6646 156.931C81.7639 157.231 81.1634 157.631 80.663 158.43C80.2627 159.229 79.8624 160.028 79.362 160.827C78.1611 160.827 78.061 160.927 77.7608 162.725C77.0602 162.725 76.3597 162.326 76.1595 161.626C75.9593 161.027 75.6591 160.927 75.1587 161.227C74.8585 161.427 74.4582 161.726 74.258 162.026C73.7576 162.725 73.0571 162.825 72.3565 162.625C71.8561 162.525 71.756 162.326 71.8561 161.826C71.9562 161.027 71.4558 160.628 70.6552 160.927C70.455 161.027 70.1548 161.127 69.9546 161.227C69.154 161.626 68.3534 162.026 67.5527 162.426C67.1524 162.625 66.7521 162.625 66.4519 162.026C66.3518 161.726 65.9515 161.427 65.6512 161.327C64.3502 161.027 63.1493 161.227 62.0484 161.826C61.3479 162.226 60.7474 162.725 60.0468 162.925C58.3455 163.524 57.0445 164.623 55.6434 165.822C54.7427 166.621 54.0421 167.52 54.7427 168.819C54.8428 168.919 54.8428 169.118 54.7427 169.218C54.1422 170.017 54.4424 171.016 54.3424 171.915C54.3424 172.215 54.2423 172.515 54.1422 172.715C53.6418 173.913 53.1414 175.012 52.641 176.211C52.4409 176.61 52.4409 177.11 52.1406 177.409C50.8396 179.108 50.039 181.006 49.2384 182.904C48.6379 184.202 48.838 185.501 49.5386 186.699C50.039 187.499 50.7395 188.198 51.4401 188.897C52.641 190.096 53.5417 191.494 53.842 193.292C53.9421 194.191 54.1422 195.09 54.4424 195.989C55.2431 197.987 56.3439 199.885 58.6457 200.385C59.8467 200.684 60.4472 201.683 61.2478 202.383C61.8483 202.882 62.3487 203.581 63.0492 203.781C64.4503 204.181 65.5512 205.18 66.8522 205.679C67.6528 205.979 68.4535 206.278 69.4542 206.578C69.2541 205.979 69.154 205.379 68.8538 205.08C68.3534 204.38 67.6528 203.781 66.9523 203.082C66.7521 202.882 66.4519 202.782 66.2517 202.682C65.351 201.883 64.2501 201.084 63.5496 200.085C62.3487 198.387 61.6481 196.489 60.9476 194.491C60.5472 193.392 61.2478 191.095 62.2486 190.595C63.2494 189.996 64.3502 189.596 65.4511 189.197C66.2517 188.997 67.0524 188.997 67.853 188.997C68.4535 188.997 68.9538 189.297 69.154 189.796C69.3542 190.096 69.4542 190.495 69.7545 190.695C70.455 191.295 70.7553 192.094 70.8553 193.093C70.8553 193.892 71.3557 194.391 72.1564 194.591C72.8569 194.791 73.3573 194.891 73.9578 194.991Z" fill="black"/>
<path d="M141.209 193.792C140.809 191.794 140.509 189.696 139.508 187.798C138.707 186.3 137.406 186.1 136.205 187.099C135.905 187.398 135.405 187.498 135.105 187.798C134.304 188.297 133.403 188.597 132.803 189.196C131.902 189.996 132.002 190.795 132.703 191.594C133.003 191.894 133.203 192.293 133.503 192.693C133.804 193.192 133.403 194.091 132.703 194.491C131.802 194.99 131.602 195.49 131.802 196.489C131.902 196.888 131.802 197.388 131.802 197.887C131.702 199.186 130.601 200.185 131.001 201.583C131.202 202.183 131.202 202.882 131.802 203.181C133.003 203.881 134.204 204.38 135.405 204.979C135.605 205.079 136.005 205.079 136.306 205.079C136.506 205.079 136.706 205.079 136.806 204.88C137.807 203.781 138.207 204.18 138.707 205.379C138.707 205.479 138.807 205.579 138.807 205.679C139.008 206.278 139.408 206.578 140.109 206.578C140.809 206.578 141.41 206.478 142.21 206.378C142.21 205.978 142.21 205.779 142.21 205.579C142.21 201.783 141.91 197.787 141.209 193.792Z" fill="black"/>
<path d="M92.3732 252.328C120.23 252.328 142.813 229.788 142.813 201.983C142.813 174.177 120.23 151.637 92.3732 151.637C64.5162 151.637 41.9336 174.177 41.9336 201.983C41.9336 229.788 64.5162 252.328 92.3732 252.328Z" stroke="#020203" stroke-miterlimit="10" stroke-linecap="round"/>
</g>
<defs>
<clipPath id="clip0">
<rect width="382" height="558" fill="white"/>
</clipPath>
</defs>
</svg>
