<svg width="592" height="558" viewBox="0 0 592 558" fill="none" xmlns="http://www.w3.org/2000/svg">
<path d="M429.371 93.0571V97.6028C429.371 100.262 429.371 115.957 429.371 118.101V126.077C429.371 130.623 433.487 134.311 438.545 134.311H581.301C586.36 134.311 590.475 130.623 590.475 126.077V93.0571C590.475 88.5115 586.36 84.8235 581.301 84.8235H438.545C433.487 84.8235 429.371 88.5115 429.371 93.0571Z" stroke="#020203" stroke-miterlimit="10"/>
<path d="M385.474 277.113C384.359 277.113 383.416 278.057 383.33 279.172L382.902 297.526C382.902 300.614 380.244 303.187 377.157 303.015C375.442 302.929 373.899 302.072 372.87 300.699L364.039 288.52C362.839 286.805 362.153 284.832 362.067 282.688L361.724 269.48C361.638 264.935 365.411 261.161 369.955 261.332L375.442 261.504C381.787 261.847 386.074 267.851 388.303 272.31C389.504 274.54 387.96 277.113 385.474 277.113Z" stroke="#020203" stroke-miterlimit="10"/>
<path d="M412.909 459.625C412.824 461.598 414.453 463.142 416.339 463.142H466.668C468.554 463.142 470.098 461.598 470.098 459.711C470.098 453.707 466.925 448.047 457.065 447.275C455.522 447.189 454.15 446.331 453.207 445.131L437.86 423.174C436.316 421.63 434.259 420.687 432.029 420.687L416.939 426.262C414.71 426.176 412.909 427.977 412.909 430.207V459.625Z" stroke="#020203" stroke-miterlimit="10"/>
<path d="M412.824 455.337H470.098" stroke="#020203" stroke-miterlimit="10"/>
<path d="M469.068 455.251C467.696 451.134 464.095 447.789 456.722 447.275C455.179 447.189 453.807 446.331 452.864 445.131L437.516 423.174C435.973 421.63 433.915 420.687 431.686 420.687L416.596 426.262C414.367 426.176 412.566 427.977 412.566 430.207L412.48 455.251H469.068Z" fill="#020203"/>
<path d="M244.603 385.523C242.974 386.552 242.46 388.696 243.489 390.325L270.325 432.952C271.354 434.581 273.497 435.01 275.041 434.067C280.099 430.893 283.272 425.147 278.642 416.399C277.956 415.026 277.87 413.483 278.384 412.025L285.415 393.156C285.929 391.012 285.587 388.782 284.386 386.895L274.955 371.199C273.84 369.313 271.354 368.712 269.468 369.913L244.603 385.523Z" stroke="#020203" stroke-miterlimit="10"/>
<path d="M248.203 383.207L278.726 431.665" stroke="#020203" stroke-miterlimit="10"/>
<path d="M278.211 430.807C280.955 427.463 281.812 422.66 278.383 416.141C277.697 414.769 277.611 413.225 278.125 411.767L285.156 392.898C285.671 390.754 285.328 388.524 284.127 386.637L274.696 370.942C273.581 369.055 271.095 368.455 269.209 369.656L247.945 382.949L278.211 430.807Z" fill="#020203"/>
<path d="M414.453 56.8635L423.542 74.8746C425.342 78.4768 423.542 82.9367 419.598 83.9659C416.082 84.9093 412.481 85.4239 408.88 85.4239C385.13 85.4239 365.925 64.068 369.612 39.6244C372.184 22.6425 385.731 9.09133 402.793 6.43255C426.028 2.91611 446.52 20.1553 448.406 42.2832C448.577 44.0843 447.12 45.6281 445.319 45.6281H420.712" stroke="#020203" stroke-miterlimit="10"/>
<path d="M400.392 32.2485C397.562 28.1317 393.79 22.7283 393.79 22.7283C391.818 19.898 392.847 15.9528 396.019 14.4947C398.848 13.2082 401.849 12.3505 404.936 11.9217C424.999 9.00562 443.861 24.7868 443.604 45.8854C443.519 58.8362 435.802 70.5863 424.313 76.0754" stroke="#020203" stroke-miterlimit="10"/>
<path d="M345.688 179.767C344.831 160.47 342.602 112.183 342.602 112.183C342.602 103.092 351.261 95.7158 361.979 95.7158C372.696 95.7158 381.356 103.092 381.356 112.183C381.356 112.183 379.898 161.07 379.298 178.653" stroke="#020203" stroke-miterlimit="10"/>
<path d="M380.072 190.488C382.73 206.098 390.018 248.638 390.018 248.638C389.846 253.87 384.788 258.073 378.614 258.073H373.127C367.04 258.073 361.981 253.956 361.724 248.81C361.724 248.81 350.492 204.726 347.062 191.346" stroke="#020203" stroke-miterlimit="10"/>
<path d="M421.314 45.9712C421.228 50.7741 415.055 57.7212 415.055 57.7212L421.142 70.6721C423.543 68.7852 424.657 66.8983 424.657 66.8983L426.715 67.1556C427.658 67.2414 428.516 66.5552 428.601 65.6118L428.944 59.0935C428.944 58.4931 429.116 57.9785 429.459 57.4639L436.747 45.7139L421.314 45.9712ZM424.572 54.9767C423.114 54.9767 422 53.8617 422 52.4037C422 50.9457 423.114 49.8307 424.572 49.8307C426.029 49.8307 427.144 50.9457 427.144 52.4037C427.144 53.8617 426.029 54.9767 424.572 54.9767Z" fill="#020203"/>
<path d="M420.884 48.6044C422.723 40.8138 417.901 33.0069 410.113 31.1673C402.325 29.3278 394.52 34.152 392.681 41.9427C390.842 49.7333 395.665 57.5401 403.453 59.3797C411.241 61.2193 419.045 56.395 420.884 48.6044Z" stroke="#020203" stroke-miterlimit="10"/>
<path d="M412.31 45.2849C412.31 48.3726 409.824 50.8598 406.737 50.8598C403.651 50.8598 401.164 48.3726 401.164 45.2849C401.164 42.1973 403.651 39.7101 406.737 39.7101C409.824 39.6243 412.31 42.1973 412.31 45.2849Z" fill="#020203"/>
<path d="M342.687 128.05C338.057 123.933 335.057 118.015 334.971 111.325C334.799 98.7177 345.517 88.3398 358.12 88.3398H387.958C396.531 88.3398 404.505 92.8855 408.792 100.347C414.108 109.524 430.57 143.917 412.736 168.36C409.735 172.477 410.421 178.309 414.108 181.912C474.211 240.062 435.286 406.964 435.286 406.964C435.457 411.424 432.37 415.284 428.084 416.227C428.084 416.227 413.336 423.088 407.42 417.942L407.077 417.514C376.726 363.823 370.553 297.611 370.553 297.611" stroke="#020203" stroke-miterlimit="10"/>
<path d="M380.413 351.559C366.266 357.992 303.505 386.552 303.505 386.552C299.475 388.439 294.674 387.152 292.102 383.55L282.242 369.827C279.841 366.568 279.841 362.108 282.242 358.849L291.502 345.984C294.074 342.468 297.761 339.98 301.962 338.866L309.336 336.979C313.622 335.864 317.224 333.033 319.281 329.088L326.398 315.537C328.37 311.763 331.628 308.847 335.657 307.389L343.631 301.728C351.176 296.84 355.463 287.92 352.548 279.429L344.146 215.447" stroke="#020203" stroke-miterlimit="10"/>
<path d="M359.406 88.4258L369.266 78.391C371.238 76.3326 372.353 73.7596 372.267 71.1009L372.096 60.5515" stroke="#020203" stroke-miterlimit="10"/>
<path d="M408.879 100.09L415.395 84.9951" stroke="#020203" stroke-miterlimit="10"/>
<path d="M409.567 134.482H390.533C388.989 134.482 387.703 133.196 387.703 131.652C387.703 130.108 388.989 128.822 390.533 128.822H409.567C411.11 128.822 412.396 130.108 412.396 131.652C412.396 133.196 411.11 134.482 409.567 134.482Z" fill="#020203"/>
<path d="M347.06 191.346C346.117 190.917 342.173 191.432 341.915 184.914C341.744 180.111 345.774 177.624 345.774 177.624L342.773 134.397V128.565C342.773 128.565 340.544 126.506 338.829 124.191C326.139 101.119 349.803 89.5408 349.803 89.5408C346.117 85.9386 341.058 83.7944 335.485 83.7944H324.425C313.021 83.7944 303.676 93.0573 303.676 104.55V197.95C303.676 209.357 312.936 218.706 324.425 218.706H335.485C342.43 218.706 348.517 215.361 352.29 210.129C352.204 210.043 348.003 191.861 347.06 191.346ZM333.17 148.12H318.251C315.251 148.12 312.85 145.718 312.85 142.716C312.85 139.715 315.251 137.313 318.251 137.313H333.17C336.171 137.313 338.572 139.715 338.572 142.716C338.572 145.718 336.171 148.12 333.17 148.12Z" fill="#020203"/>
<path d="M377.414 191.861H348.863C345.005 191.861 341.918 188.773 341.918 184.913C341.918 181.054 345.005 177.966 348.863 177.966H377.414C381.272 177.966 384.359 181.054 384.359 184.913C384.359 188.773 381.272 191.861 377.414 191.861Z" stroke="#020203" stroke-miterlimit="10"/>
<path d="M346.889 239.976L271.781 239.804" stroke="#020203" stroke-miterlimit="10"/>
<path d="M308.562 336.121V303.958C308.562 300.356 306.59 296.925 303.503 295.124L272.208 276.941C272.208 276.941 226.166 276.941 179.867 276.941" stroke="#020203" stroke-miterlimit="10"/>
<path d="M453.308 102H455.254C455.772 100.992 456.038 99.284 456.038 96.862V93.908H460.238V102H462.128V92.2H454.148V97.03C454.148 99.144 453.868 100.712 453.308 101.734V102ZM463.93 102H466.464L469.068 97.198V102H470.818V95.364H468.298L465.68 100.166V95.364H463.93V102ZM481.266 95.364H478.396L476.898 100.348L475.4 95.364H472.53V102H474.28V96.946L475.778 102H478.018L479.516 96.946V102H481.266V95.364ZM482.975 102H485.509L488.113 97.198V102H489.863V95.364H487.343L484.725 100.166V95.364H482.975V102ZM492.989 102H494.739V96.974H496.825V95.364H490.903V96.974H492.989V102ZM502.909 95.364H501.159V102H502.909V99.41H505.667V102H507.417V95.364H505.667V97.8H502.909V95.364ZM508.849 100.082C508.849 101.356 509.885 102.14 511.033 102.14C512.111 102.14 512.797 101.748 513.231 100.978V102H514.869V97.912C514.869 96.176 513.833 95.224 511.817 95.224C510.207 95.224 509.157 96.022 508.807 97.31L510.361 97.73C510.515 97.058 511.005 96.624 511.803 96.624C512.629 96.624 513.161 97.072 513.161 97.814V98.234L512.573 98.094C512.209 97.996 511.831 97.954 511.439 97.954C509.871 97.954 508.849 98.668 508.849 100.082ZM513.161 99.55C513.161 100.32 512.573 100.768 511.747 100.768C511.033 100.768 510.669 100.46 510.669 99.97C510.669 99.452 511.061 99.172 511.719 99.172C511.985 99.172 512.335 99.242 512.755 99.368L513.161 99.494V99.55ZM519.875 102H523.753C525.111 102 526.021 101.272 526.021 100.166C526.021 99.326 525.559 98.794 524.789 98.626C525.405 98.36 525.797 97.828 525.797 97.114C525.797 96.064 524.957 95.364 523.683 95.364H519.875V102ZM521.597 97.926V96.778H523.403C523.851 96.778 524.117 97.002 524.117 97.352C524.117 97.73 523.851 97.926 523.403 97.926H521.597ZM521.597 100.572V99.298H523.585C524.047 99.298 524.341 99.55 524.341 99.942C524.341 100.32 524.047 100.572 523.585 100.572H521.597ZM527.463 102H530.879C532.377 102 533.287 101.09 533.287 99.76C533.287 98.43 532.405 97.604 530.879 97.604H529.143V95.364H527.463V102ZM529.143 100.572V99.018H530.795C531.341 99.018 531.649 99.34 531.649 99.802C531.649 100.264 531.341 100.572 530.795 100.572H529.143ZM534.729 95.364V102H536.521V95.364H534.729ZM537.845 97.94C537.845 100.222 538.909 102.14 541.401 102.14C543.459 102.14 544.817 100.67 544.817 98.71C544.817 96.764 543.795 95.224 541.779 95.224C540.729 95.224 539.875 95.77 539.441 96.68C539.721 95.378 540.519 94.734 542.241 94.328C543.865 93.936 544.803 93.292 544.803 91.962C544.803 91.85 544.803 91.766 544.789 91.71H543.235C543.319 92.41 542.927 92.648 541.401 93.082C540.351 93.376 539.483 93.922 538.825 94.72C538.167 95.504 537.845 96.582 537.845 97.94ZM543.081 98.696C543.081 99.858 542.353 100.572 541.331 100.572C540.337 100.572 539.581 99.816 539.581 98.696C539.581 97.534 540.323 96.778 541.331 96.778C542.353 96.778 543.081 97.52 543.081 98.696ZM546.167 95.364V104.772H547.959V101.146C548.309 101.762 549.079 102.14 549.989 102.14C551.851 102.14 553.209 100.796 553.209 98.71C553.209 96.624 551.879 95.224 550.087 95.224C549.205 95.224 548.379 95.672 547.889 96.358V95.364H546.167ZM549.653 100.614C548.687 100.614 547.889 99.886 547.889 98.71C547.889 97.52 548.687 96.764 549.653 96.764C550.647 96.764 551.417 97.52 551.417 98.71C551.417 99.872 550.647 100.614 549.653 100.614ZM554.156 98.682C554.156 100.656 555.626 102.14 557.628 102.14C559.63 102.14 561.1 100.656 561.1 98.682C561.1 96.694 559.644 95.224 557.628 95.224C555.612 95.224 554.156 96.694 554.156 98.682ZM559.35 98.682C559.35 99.788 558.622 100.53 557.628 100.53C556.634 100.53 555.906 99.788 555.906 98.682C555.906 97.576 556.634 96.834 557.628 96.834C558.622 96.834 559.35 97.576 559.35 98.682ZM565.628 100.558C564.69 100.558 563.808 99.83 563.808 98.64C563.808 97.45 564.69 96.792 565.53 96.792C566.37 96.792 567 97.31 567.126 98.15L568.708 97.618C568.414 96.106 567.168 95.224 565.488 95.224C563.64 95.224 562.058 96.638 562.058 98.64C562.058 100.74 563.5 102.14 565.67 102.14C567.406 102.14 568.652 101.244 569.058 99.494L567.406 98.92C567.28 99.872 566.706 100.558 565.628 100.558ZM570.27 102H573.686C575.184 102 576.094 101.09 576.094 99.76C576.094 98.43 575.212 97.604 573.686 97.604H571.95V95.364H570.27V102ZM571.95 100.572V99.018H573.602C574.148 99.018 574.456 99.34 574.456 99.802C574.456 100.264 574.148 100.572 573.602 100.572H571.95ZM577.536 95.364V102H579.328V95.364H577.536ZM455.492 111.1C455.492 109.07 456.864 107.768 458.6 107.768C460.112 107.768 461.134 108.692 461.414 110.106L463.15 109.336C462.702 107.53 461.176 106.06 458.614 106.06C455.772 106.004 453.518 108.286 453.56 111.1C453.56 113.984 455.548 116.14 458.614 116.14C459.944 116.14 461.05 115.79 461.918 115.076C462.786 114.362 463.36 113.41 463.626 112.22L461.904 111.534C461.582 113.228 460.476 114.418 458.628 114.418C456.864 114.418 455.492 113.158 455.492 111.1ZM469.773 106.06C466.959 106.004 464.565 108.37 464.621 111.1C464.565 113.83 466.959 116.21 469.773 116.14C472.573 116.196 474.967 113.858 474.911 111.1C474.967 108.356 472.573 106.004 469.773 106.06ZM469.773 114.348C468.009 114.348 466.553 113.06 466.553 111.1C466.553 109.154 467.967 107.838 469.773 107.838C471.579 107.838 472.993 109.154 472.993 111.1C472.993 113.06 471.537 114.348 469.773 114.348ZM475.799 115.524C475.799 115.944 475.939 116.294 476.205 116.56L477.101 115.958C476.975 115.818 476.919 115.664 476.919 115.51C476.919 115.188 477.157 114.978 477.549 114.978C477.955 114.978 478.207 115.188 478.207 115.524C478.207 115.93 477.955 116.168 477.241 116.574C476.429 117.05 475.841 117.512 475.841 118.772H479.299V117.75H477.437C477.563 117.54 477.773 117.414 478.123 117.204C478.851 116.756 479.285 116.448 479.341 115.44C479.341 114.53 478.697 113.956 477.577 113.956C476.527 113.956 475.799 114.558 475.799 115.524ZM483.85 116H485.6V110.974H488.162V116H489.912V109.364H483.85V116ZM491.616 109.364V118.772H493.408V115.146C493.758 115.762 494.528 116.14 495.438 116.14C497.3 116.14 498.658 114.796 498.658 112.71C498.658 110.624 497.328 109.224 495.536 109.224C494.654 109.224 493.828 109.672 493.338 110.358V109.364H491.616ZM495.102 114.614C494.136 114.614 493.338 113.886 493.338 112.71C493.338 111.52 494.136 110.764 495.102 110.764C496.096 110.764 496.866 111.52 496.866 112.71C496.866 113.872 496.096 114.614 495.102 114.614ZM504.687 113.466C504.477 114.222 503.959 114.6 503.147 114.6C502.195 114.6 501.411 114.026 501.397 113.018H505.905C505.961 112.766 505.989 112.5 505.989 112.206C505.989 110.386 504.743 109.224 502.909 109.224C500.949 109.224 499.605 110.75 499.605 112.64C499.605 114.74 501.061 116.14 503.119 116.14C504.673 116.14 505.751 115.356 506.213 114.068L504.687 113.466ZM501.397 111.828C501.565 111.1 502.181 110.666 502.909 110.666C503.707 110.666 504.253 111.1 504.253 111.772L504.239 111.828H501.397ZM507.461 116H511.339C512.697 116 513.607 115.272 513.607 114.166C513.607 113.326 513.145 112.794 512.375 112.626C512.991 112.36 513.383 111.828 513.383 111.114C513.383 110.064 512.543 109.364 511.269 109.364H507.461V116ZM509.183 111.926V110.778H510.989C511.437 110.778 511.703 111.002 511.703 111.352C511.703 111.73 511.437 111.926 510.989 111.926H509.183ZM509.183 114.572V113.298H511.171C511.633 113.298 511.927 113.55 511.927 113.942C511.927 114.32 511.633 114.572 511.171 114.572H509.183ZM515.049 116H518.465C519.963 116 520.873 115.09 520.873 113.76C520.873 112.43 519.991 111.604 518.465 111.604H516.729V109.364H515.049V116ZM516.729 114.572V113.018H518.381C518.927 113.018 519.235 113.34 519.235 113.802C519.235 114.264 518.927 114.572 518.381 114.572H516.729ZM522.315 109.364V116H524.107V109.364H522.315ZM525.809 116H535.469V109.364H533.719V114.39H531.521V109.364H529.771V114.39H527.559V109.364H525.809V116ZM541.874 113.466C541.664 114.222 541.146 114.6 540.334 114.6C539.382 114.6 538.598 114.026 538.584 113.018H543.092C543.148 112.766 543.176 112.5 543.176 112.206C543.176 110.386 541.93 109.224 540.096 109.224C538.136 109.224 536.792 110.75 536.792 112.64C536.792 114.74 538.248 116.14 540.306 116.14C541.86 116.14 542.938 115.356 543.4 114.068L541.874 113.466ZM538.584 111.828C538.752 111.1 539.368 110.666 540.096 110.666C540.894 110.666 541.44 111.1 541.44 111.772L541.426 111.828H538.584ZM546.399 109.364H544.649V116H546.399V113.41H549.157V116H550.907V109.364H549.157V111.8H546.399V109.364ZM552.732 113.2H554.412V106.2H552.732V113.2ZM552.592 116H554.552V114.04H552.592V116Z" fill="#020203"/>
<path d="M105.276 276.856H99.9606C94.4733 276.856 89.9291 272.482 89.8434 266.993C89.7576 263.819 89.5862 260.989 89.0717 258.931C87.6142 252.67 81.5267 247.609 77.3255 250.868C75.3535 252.412 73.5529 255.671 71.238 254.728C68.7516 253.784 68.7516 249.41 69.0945 246.237C69.3517 243.064 68.3229 238.432 65.8364 238.861C63.2642 239.29 63.4357 244.179 61.6352 246.58C59.5775 249.325 55.462 247.266 54.0902 243.664C52.7183 240.148 53.147 235.945 53.5757 232.171C54.0044 228.312 54.2616 224.109 52.5469 220.764C49.6317 215.189 41.658 215.275 39.1715 220.678C34.7131 230.199 36.5994 385.866 36.5994 385.866" stroke="#020203" stroke-miterlimit="10"/>
<path d="M272.211 247.438C287.815 250.354 272.382 266.392 281.385 276.084C285.415 280.458 295.446 280.544 299.305 275.998C301.619 273.254 301.277 269.823 300.676 266.735C300.162 263.648 299.476 260.217 301.362 257.387C303.249 254.471 308.736 252.755 311.565 255.071C313.966 256.958 313.709 260.989 317.224 261.332C320.568 261.675 322.025 257.901 321.597 255.328C321.254 252.755 321.254 249.239 324.512 248.381C327.598 247.609 329.999 250.268 332.657 251.469C337.973 253.956 345.346 250.611 347.919 246.065" stroke="#020203" stroke-miterlimit="10"/>
<path d="M271.351 174.193C276.067 176.851 280.097 184.913 278.296 190.917C277.353 194.005 275.124 196.749 276.153 200.18C277.267 203.782 280.697 203.611 283.183 203.096C285.67 202.581 289.442 203.868 289.528 207.642C289.614 211.501 285.67 211.501 284.041 214.332C282.155 217.591 284.469 223.68 287.47 225.567C290.471 227.454 293.644 226.596 296.644 225.824C299.645 225.052 302.903 224.452 305.819 226.854C308.991 229.512 310.448 235.087 310.106 240.062H271.266L271.351 174.193Z" fill="#020203"/>
<path d="M225.738 210.901C222.051 213.56 218.793 221.536 220.165 227.454C220.851 230.456 222.565 233.115 221.708 236.545C220.765 240.147 218.107 239.976 216.135 239.461C214.163 238.947 211.248 240.319 211.162 244.007C211.076 247.781 214.163 247.781 215.363 250.439C216.821 253.613 214.935 259.617 212.534 261.503C210.133 263.39 207.647 262.618 205.332 261.846C203.017 261.075 200.445 260.56 198.13 262.961C195.643 265.62 194.357 271.109 194.614 275.912L225.052 275.483L225.738 210.901Z" fill="#020203"/>
<path d="M181.241 443.158L192.216 443.758V442.986C192.216 440.242 194.531 438.012 197.274 438.012H204.477C207.306 438.012 209.535 440.242 209.535 442.986C209.535 444.702 210.821 446.074 212.536 446.246L229.77 447.189C236.8 447.789 242.116 452.678 242.116 458.51C242.116 460.226 240.658 461.598 238.944 461.598H179.698C176.869 461.598 174.639 459.282 174.725 456.538L174.982 448.561C175.068 445.388 177.897 442.901 181.241 443.158Z" stroke="#020203" stroke-miterlimit="10"/>
<path d="M242.203 456.709H174.555" stroke="#020203" stroke-miterlimit="10"/>
<path d="M40.0298 404.391C40.0298 404.391 41.4874 408.165 43.0307 411.424C44.231 414.083 46.7175 415.884 49.5469 416.484L56.749 417.942C60.1785 418.629 61.3789 423.003 58.6352 425.233C58.6352 425.233 58.6352 425.233 58.5495 425.318L54.6055 429.178C53.3194 430.207 52.9764 432.008 53.8338 433.381L63.3509 446.846C67.0377 452.507 66.4375 459.368 61.8933 462.884C60.5215 463.914 58.6352 463.656 57.5206 462.37L21.9389 417.771C20.3098 415.798 20.7385 412.882 22.882 411.338L31.7989 403.019C34.6283 401.046 38.315 401.733 40.0298 404.391Z" stroke="#020203" stroke-miterlimit="10"/>
<path d="M63.4378 461.684L23.0547 411.081" stroke="#020203" stroke-miterlimit="10"/>
<path d="M148.574 66.1264L172.495 35.5076" stroke="#020203" stroke-miterlimit="10"/>
<path d="M208.078 42.0259C207.735 43.2266 208.507 44.5131 209.707 44.8562C210.993 45.1993 212.279 44.4274 212.536 43.2266C212.879 42.0259 212.108 40.7394 210.907 40.3963C209.707 40.0532 208.421 40.8252 208.078 42.0259Z" fill="#020203"/>
<path d="M171.125 36.3652C171.125 36.3652 177.47 -2.65874 204.22 7.6333C224.455 15.4381 222.054 31.305 222.054 31.305C209.365 19.2118 201.82 27.1882 200.191 29.1608C200.019 29.4181 199.848 29.6754 199.676 29.9327L192.045 45.1992C191.445 46.4 191.874 47.858 192.988 48.6299L206.45 57.2924L202.677 60.8088C201.562 61.6665 201.048 63.0388 201.305 64.411C201.734 67.0698 201.477 71.7012 196.161 74.8746C188.359 79.506 167.095 67.4987 176.955 52.0606C191.102 33.6207 191.102 33.6207 191.102 33.6207C191.102 33.6207 195.561 28.732 190.674 25.1298C185.786 21.6133 181.928 27.1882 181.156 29.2466C175.326 41.8543 171.125 36.3652 171.125 36.3652Z" fill="#020203"/>
<path d="M221.196 29.7612C221.196 29.7612 221.025 38.1664 215.195 46.8289C214.937 47.1719 214.852 47.6008 214.852 48.0296L215.538 55.3198C215.623 56.2632 214.594 56.8636 213.823 56.349L211.508 54.8052C210.908 54.3764 210.136 54.3764 209.536 54.8052L204.734 57.807" stroke="#020203" stroke-miterlimit="10"/>
<path d="M164.01 224.967C164.01 224.967 178.157 264.848 187.246 308.332C196.334 351.816 199.849 413.225 199.849 413.225C200.792 419.572 204.05 429.006 197.877 431.065L186.817 434.753C180.129 436.983 172.927 433.466 170.612 426.948C170.612 426.948 94.6473 270.595 90.7891 225.824" stroke="#020203" stroke-miterlimit="10"/>
<path d="M139.4 358.763L73.5524 411.081C59.8341 420.944 43.2007 400.189 43.2007 400.189C40.1141 395.043 41.3145 388.524 46.0301 384.751L116.936 306.703" stroke="#020203" stroke-miterlimit="10"/>
<path d="M143.602 222.823C145.574 223.08 151.49 224.109 158.092 225.053C162.979 225.739 167.523 222.48 168.209 217.677L187.157 95.03C188.701 87.5683 186.643 79.8492 181.67 74.0171C174.554 65.6977 137.172 48.5443 114.965 101.634L99.1033 145.89L71.8383 221.879C69.6948 227.626 75.868 233.029 81.3553 230.199C86.6712 227.54 91.644 225.31 92.8444 225.567L118.738 221.965" stroke="#020203" stroke-miterlimit="10"/>
<path d="M118.223 122.218C118.223 122.218 125.853 72.7304 151.661 77.5334C175.668 81.9932 154.062 129.68 154.062 129.68L118.223 122.218Z" stroke="#020203" stroke-miterlimit="10"/>
<path d="M132.2 253.785C100.134 188.43 113.938 140.229 119.682 123.076" stroke="#020203" stroke-miterlimit="10"/>
<path d="M215.367 53.0898L199.248 42.1116C196.591 40.3105 192.475 40.6536 189.131 42.9693L187.759 44.17C183.644 47.0003 182.015 51.8033 184.244 54.8909L191.36 74.1885C193.59 77.2761 198.734 77.5334 202.849 74.7031L213.224 65.1829C218.197 61.7522 219.311 55.7486 215.367 53.0898Z" fill="white" stroke="#020203" stroke-miterlimit="10"/>
<path d="M183.642 56.006C183.642 56.006 175.754 43.2267 180.898 27.4456" stroke="#020203" stroke-miterlimit="10"/>
<path d="M150.891 129.337L139.402 182.083L146.776 244.35" stroke="#020203" stroke-miterlimit="10"/>
<path d="M124.656 258.33C124.656 258.33 148.235 249.582 157.323 230.971" stroke="#020203" stroke-miterlimit="10" stroke-linecap="round"/>
<path d="M212.709 31.7339C212.709 32.5915 212.023 33.2777 211.165 33.2777C210.307 33.2777 209.621 32.5915 209.621 31.7339C209.621 30.8762 211.165 28.6462 211.165 28.6462C211.165 28.6462 212.709 30.8762 212.709 31.7339Z" fill="#020203"/>
<path d="M231.055 292.38C243.23 292.38 255.233 292.38 266.636 292.38" stroke="#020203" stroke-miterlimit="10" stroke-linecap="round"/>
<path d="M231.055 298.297C243.23 298.297 255.233 298.297 266.636 298.297" stroke="#020203" stroke-miterlimit="10" stroke-linecap="round"/>
<path d="M231.055 304.301C243.23 304.301 255.233 304.301 266.636 304.301" stroke="#020203" stroke-miterlimit="10" stroke-linecap="round"/>
<path d="M231.055 310.219C243.23 310.219 255.233 310.219 266.636 310.219" stroke="#020203" stroke-miterlimit="10" stroke-linecap="round"/>
<path d="M231.055 316.137C243.23 316.137 255.233 316.137 266.636 316.137" stroke="#020203" stroke-miterlimit="10" stroke-linecap="round"/>
<path d="M231.055 322.141C243.23 322.141 255.233 322.141 266.636 322.141" stroke="#020203" stroke-miterlimit="10" stroke-linecap="round"/>
<path d="M271.608 277.714V167.846C271.608 164.158 268.607 161.156 264.92 161.156H231.996C228.309 161.156 225.309 164.158 225.309 167.846V277.714" stroke="#020203" stroke-miterlimit="10"/>
<path d="M258.921 161.327V137.484C258.921 135.855 257.549 134.482 255.92 134.482H241.087C239.458 134.482 238.086 135.855 238.086 137.484V161.327" stroke="#020203" stroke-miterlimit="10"/>
<path d="M60.3464 191.603V175.651C60.3464 174.536 59.4032 173.592 58.2886 173.592H48.3429C47.2283 173.592 46.2852 174.536 46.2852 175.651V191.603" fill="#020203"/>
<path d="M64.1196 239.633V194.176C64.1196 192.547 62.7477 191.175 61.1187 191.175H46.2858C44.6568 191.175 43.285 192.547 43.285 194.176L43.1992 217.162" stroke="#020203" stroke-miterlimit="10"/>
<path d="M250.604 134.311V120.502C250.604 120.159 250.346 119.902 250.003 119.902H247.003C246.66 119.902 246.402 120.159 246.402 120.502V134.311" fill="#020203"/>
<path d="M235.341 182.769C234.569 182.769 233.883 182.169 233.883 181.397V175.737C233.883 174.965 234.483 174.364 235.255 174.364C236.027 174.364 236.627 174.965 236.627 175.737V181.397C236.713 182.169 236.113 182.769 235.341 182.769Z" fill="#020203"/>
<path d="M240.571 182.769C239.799 182.769 239.113 182.169 239.113 181.397V175.737C239.113 174.965 239.714 174.364 240.486 174.364C241.257 174.364 241.858 174.965 241.858 175.737V181.397C242.029 182.169 241.343 182.769 240.571 182.769Z" fill="#020203"/>
<path d="M245.888 182.769C245.116 182.769 244.43 182.169 244.43 181.397V175.737C244.43 174.965 245.03 174.364 245.802 174.364C246.574 174.364 247.174 174.965 247.174 175.737V181.397C247.26 182.169 246.66 182.769 245.888 182.769Z" fill="#020203"/>
<path d="M251.118 182.769C250.346 182.769 249.66 182.169 249.66 181.397V175.737C249.66 174.965 250.261 174.364 251.032 174.364C251.804 174.364 252.405 174.965 252.405 175.737V181.397C252.576 182.169 251.89 182.769 251.118 182.769Z" fill="#020203"/>
<path d="M256.431 182.769C255.659 182.769 254.973 182.169 254.973 181.397V175.737C254.973 174.965 255.573 174.364 256.345 174.364C257.117 174.364 257.717 174.965 257.717 175.737V181.397C257.803 182.169 257.203 182.769 256.431 182.769Z" fill="#020203"/>
<path d="M261.661 182.769C260.889 182.769 260.203 182.169 260.203 181.397V175.737C260.203 174.965 260.803 174.364 261.575 174.364C262.347 174.364 262.948 174.965 262.948 175.737V181.397C263.119 182.169 262.433 182.769 261.661 182.769Z" fill="#020203"/>
<path d="M235.341 196.835C234.569 196.835 233.883 196.235 233.883 195.463V189.802C233.883 189.031 234.483 188.43 235.255 188.43C236.027 188.43 236.627 189.031 236.627 189.802V195.463C236.713 196.235 236.113 196.835 235.341 196.835Z" fill="#020203"/>
<path d="M240.571 196.835C239.799 196.835 239.113 196.235 239.113 195.463V189.802C239.113 189.031 239.714 188.43 240.486 188.43C241.257 188.43 241.858 189.031 241.858 189.802V195.463C242.029 196.235 241.343 196.835 240.571 196.835Z" fill="#020203"/>
<path d="M245.888 196.835C245.116 196.835 244.43 196.235 244.43 195.463V189.802C244.43 189.031 245.03 188.43 245.802 188.43C246.574 188.43 247.174 189.031 247.174 189.802V195.463C247.26 196.235 246.66 196.835 245.888 196.835Z" fill="#020203"/>
<path d="M251.118 196.835C250.346 196.835 249.66 196.235 249.66 195.463V189.802C249.66 189.031 250.261 188.43 251.032 188.43C251.804 188.43 252.405 189.031 252.405 189.802V195.463C252.576 196.235 251.89 196.835 251.118 196.835Z" fill="#020203"/>
<path d="M256.431 196.835C255.659 196.835 254.973 196.235 254.973 195.463V189.802C254.973 189.031 255.573 188.43 256.345 188.43C257.117 188.43 257.717 189.031 257.717 189.802V195.463C257.803 196.235 257.203 196.835 256.431 196.835Z" fill="#020203"/>
<path d="M261.661 196.835C260.889 196.835 260.203 196.235 260.203 195.463V189.802C260.203 189.031 260.803 188.43 261.575 188.43C262.347 188.43 262.948 189.031 262.948 189.802V195.463C263.119 196.235 262.433 196.835 261.661 196.835Z" fill="#020203"/>
<path d="M235.341 210.901C234.569 210.901 233.883 210.3 233.883 209.529V203.868C233.883 203.096 234.483 202.496 235.255 202.496C236.027 202.496 236.627 203.096 236.627 203.868V209.529C236.713 210.3 236.113 210.901 235.341 210.901Z" fill="#020203"/>
<path d="M240.571 210.901C239.799 210.901 239.113 210.3 239.113 209.529V203.868C239.113 203.096 239.714 202.496 240.486 202.496C241.257 202.496 241.858 203.096 241.858 203.868V209.529C242.029 210.3 241.343 210.901 240.571 210.901Z" fill="#020203"/>
<path d="M245.888 210.901C245.116 210.901 244.43 210.3 244.43 209.529V203.868C244.43 203.096 245.03 202.496 245.802 202.496C246.574 202.496 247.174 203.096 247.174 203.868V209.529C247.26 210.3 246.66 210.901 245.888 210.901Z" fill="#020203"/>
<path d="M251.118 210.901C250.346 210.901 249.66 210.3 249.66 209.529V203.868C249.66 203.096 250.261 202.496 251.032 202.496C251.804 202.496 252.405 203.096 252.405 203.868V209.529C252.576 210.3 251.89 210.901 251.118 210.901Z" fill="#020203"/>
<path d="M256.431 210.901C255.659 210.901 254.973 210.3 254.973 209.529V203.868C254.973 203.096 255.573 202.496 256.345 202.496C257.117 202.496 257.717 203.096 257.717 203.868V209.529C257.803 210.3 257.203 210.901 256.431 210.901Z" fill="#020203"/>
<path d="M261.661 210.901C260.889 210.901 260.203 210.3 260.203 209.529V203.868C260.203 203.096 260.803 202.496 261.575 202.496C262.347 202.496 262.948 203.096 262.948 203.868V209.529C263.119 210.3 262.433 210.901 261.661 210.901Z" fill="#020203"/>
<path d="M235.341 224.967C234.569 224.967 233.883 224.366 233.883 223.594V217.848C233.883 217.076 234.483 216.476 235.255 216.476C236.027 216.476 236.627 217.076 236.627 217.848V223.508C236.713 224.366 236.113 224.967 235.341 224.967Z" fill="#020203"/>
<path d="M240.571 224.967C239.799 224.967 239.113 224.366 239.113 223.594V217.848C239.113 217.076 239.714 216.476 240.486 216.476C241.257 216.476 241.858 217.076 241.858 217.848V223.508C242.029 224.366 241.343 224.967 240.571 224.967Z" fill="#020203"/>
<path d="M245.888 224.967C245.116 224.967 244.43 224.366 244.43 223.594V217.848C244.43 217.076 245.03 216.476 245.802 216.476C246.574 216.476 247.174 217.076 247.174 217.848V223.508C247.26 224.366 246.66 224.967 245.888 224.967Z" fill="#020203"/>
<path d="M251.118 224.967C250.346 224.967 249.66 224.366 249.66 223.594V217.848C249.66 217.076 250.261 216.476 251.032 216.476C251.804 216.476 252.405 217.076 252.405 217.848V223.508C252.576 224.366 251.89 224.967 251.118 224.967Z" fill="#020203"/>
<path d="M256.431 224.967C255.659 224.967 254.973 224.366 254.973 223.594V217.848C254.973 217.076 255.573 216.476 256.345 216.476C257.117 216.476 257.717 217.076 257.717 217.848V223.508C257.803 224.366 257.203 224.967 256.431 224.967Z" fill="#020203"/>
<path d="M261.661 224.967C260.889 224.967 260.203 224.366 260.203 223.594V217.848C260.203 217.076 260.803 216.476 261.575 216.476C262.347 216.476 262.948 217.076 262.948 217.848V223.508C263.119 224.366 262.433 224.967 261.661 224.967Z" fill="#020203"/>
<path d="M235.341 239.033C234.569 239.033 233.883 238.432 233.883 237.66V232C233.883 231.228 234.483 230.627 235.255 230.627C236.027 230.627 236.627 231.228 236.627 232V237.66C236.713 238.346 236.113 239.033 235.341 239.033Z" fill="#020203"/>
<path d="M240.571 239.033C239.799 239.033 239.113 238.432 239.113 237.66V232C239.113 231.228 239.714 230.627 240.486 230.627C241.257 230.627 241.858 231.228 241.858 232V237.66C242.029 238.346 241.343 239.033 240.571 239.033Z" fill="#020203"/>
<path d="M245.888 239.033C245.116 239.033 244.43 238.432 244.43 237.66V232C244.43 231.228 245.03 230.627 245.802 230.627C246.574 230.627 247.174 231.228 247.174 232V237.66C247.26 238.346 246.66 239.033 245.888 239.033Z" fill="#020203"/>
<path d="M251.118 239.033C250.346 239.033 249.66 238.432 249.66 237.66V232C249.66 231.228 250.261 230.627 251.032 230.627C251.804 230.627 252.405 231.228 252.405 232V237.66C252.576 238.346 251.89 239.033 251.118 239.033Z" fill="#020203"/>
<path d="M256.431 239.033C255.659 239.033 254.973 238.432 254.973 237.66V232C254.973 231.228 255.573 230.627 256.345 230.627C257.117 230.627 257.717 231.228 257.717 232V237.66C257.803 238.346 257.203 239.033 256.431 239.033Z" fill="#020203"/>
<path d="M261.661 239.033C260.889 239.033 260.203 238.432 260.203 237.66V232C260.203 231.228 260.803 230.627 261.575 230.627C262.347 230.627 262.948 231.228 262.948 232V237.66C263.119 238.346 262.433 239.033 261.661 239.033Z" fill="#020203"/>
<path d="M235.341 253.098C234.569 253.098 233.883 252.498 233.883 251.726V246.065C233.883 245.293 234.483 244.693 235.255 244.693C236.027 244.693 236.627 245.293 236.627 246.065V251.726C236.713 252.412 236.113 253.098 235.341 253.098Z" fill="#020203"/>
<path d="M240.571 253.098C239.799 253.098 239.113 252.498 239.113 251.726V246.065C239.113 245.293 239.714 244.693 240.486 244.693C241.257 244.693 241.858 245.293 241.858 246.065V251.726C242.029 252.412 241.343 253.098 240.571 253.098Z" fill="#020203"/>
<path d="M245.888 253.098C245.116 253.098 244.43 252.498 244.43 251.726V246.065C244.43 245.293 245.03 244.693 245.802 244.693C246.574 244.693 247.174 245.293 247.174 246.065V251.726C247.26 252.412 246.66 253.098 245.888 253.098Z" fill="#020203"/>
<path d="M251.118 253.098C250.346 253.098 249.66 252.498 249.66 251.726V246.065C249.66 245.293 250.261 244.693 251.032 244.693C251.804 244.693 252.405 245.293 252.405 246.065V251.726C252.576 252.412 251.89 253.098 251.118 253.098Z" fill="#020203"/>
<path d="M256.431 253.098C255.659 253.098 254.973 252.498 254.973 251.726V246.065C254.973 245.293 255.573 244.693 256.345 244.693C257.117 244.693 257.717 245.293 257.717 246.065V251.726C257.803 252.412 257.203 253.098 256.431 253.098Z" fill="#020203"/>
<path d="M261.661 253.098C260.889 253.098 260.203 252.498 260.203 251.726V246.065C260.203 245.293 260.803 244.693 261.575 244.693C262.347 244.693 262.948 245.293 262.948 246.065V251.726C263.119 252.412 262.433 253.098 261.661 253.098Z" fill="#020203"/>
<path d="M46.9737 273.339C46.2018 273.339 45.5156 272.739 45.5156 271.967V266.306C45.5156 265.534 46.116 264.934 46.8879 264.934C47.6598 264.934 48.2602 265.534 48.2602 266.306V271.967C48.3459 272.739 47.7456 273.339 46.9737 273.339Z" fill="#020203"/>
<path d="M52.2901 273.339C51.5182 273.339 50.832 272.739 50.832 271.967V266.306C50.832 265.534 51.4324 264.934 52.2043 264.934C52.9762 264.934 53.5766 265.534 53.5766 266.306V271.967C53.6623 272.739 53.062 273.339 52.2901 273.339Z" fill="#020203"/>
<path d="M57.5205 273.339C56.7486 273.339 56.0625 272.739 56.0625 271.967V266.306C56.0625 265.534 56.6629 264.934 57.4348 264.934C58.2067 264.934 58.807 265.534 58.807 266.306V271.967C58.8928 272.739 58.2924 273.339 57.5205 273.339Z" fill="#020203"/>
<path d="M62.8369 273.339C62.065 273.339 61.3789 272.739 61.3789 271.967V266.306C61.3789 265.534 61.9793 264.934 62.7512 264.934C63.5231 264.934 64.1234 265.534 64.1234 266.306V271.967C64.2092 272.739 63.6088 273.339 62.8369 273.339Z" fill="#020203"/>
<path d="M68.0635 273.339C67.2916 273.339 66.6055 272.739 66.6055 271.967V266.306C66.6055 265.534 67.2058 264.934 67.9777 264.934C68.7496 264.934 69.35 265.534 69.35 266.306V271.967C69.4358 272.739 68.8354 273.339 68.0635 273.339Z" fill="#020203"/>
<path d="M73.3799 273.339C72.608 273.339 71.9219 272.739 71.9219 271.967V266.306C71.9219 265.534 72.5222 264.934 73.2941 264.934C74.066 264.934 74.6664 265.534 74.6664 266.306V271.967C74.7522 272.739 74.1518 273.339 73.3799 273.339Z" fill="#020203"/>
<path d="M460.493 342.467C459.721 342.467 459.035 341.867 459.035 341.095V335.349C459.035 334.577 459.636 333.977 460.407 333.977C461.179 333.977 461.78 334.577 461.78 335.349V341.009C461.951 341.781 461.265 342.467 460.493 342.467Z" fill="#020203"/>
<path d="M465.81 342.467C465.038 342.467 464.352 341.867 464.352 341.095V335.349C464.352 334.577 464.952 333.977 465.724 333.977C466.496 333.977 467.096 334.577 467.096 335.349V341.009C467.182 341.781 466.581 342.467 465.81 342.467Z" fill="#020203"/>
<path d="M471.04 342.467C470.268 342.467 469.582 341.867 469.582 341.095V335.349C469.582 334.577 470.182 333.977 470.954 333.977C471.726 333.977 472.327 334.577 472.327 335.349V341.009C472.498 341.781 471.812 342.467 471.04 342.467Z" fill="#020203"/>
<path d="M476.356 342.467C475.585 342.467 474.898 341.867 474.898 341.095V335.349C474.898 334.577 475.499 333.977 476.271 333.977C477.043 333.977 477.643 334.577 477.643 335.349V341.009C477.729 341.781 477.128 342.467 476.356 342.467Z" fill="#020203"/>
<path d="M481.583 342.467C480.811 342.467 480.125 341.867 480.125 341.095V335.349C480.125 334.577 480.725 333.977 481.497 333.977C482.269 333.977 482.869 334.577 482.869 335.349V341.009C483.041 341.781 482.355 342.467 481.583 342.467Z" fill="#020203"/>
<path d="M486.899 342.467C486.128 342.467 485.441 341.867 485.441 341.095V335.349C485.441 334.577 486.042 333.977 486.814 333.977C487.586 333.977 488.186 334.577 488.186 335.349V341.009C488.272 341.781 487.671 342.467 486.899 342.467Z" fill="#020203"/>
<path d="M460.493 358.249C459.721 358.249 459.035 357.648 459.035 356.876V351.216C459.035 350.444 459.636 349.844 460.407 349.844C461.179 349.844 461.78 350.444 461.78 351.216V356.876C461.951 357.648 461.265 358.249 460.493 358.249Z" fill="#020203"/>
<path d="M465.81 358.249C465.038 358.249 464.352 357.648 464.352 356.876V351.216C464.352 350.444 464.952 349.844 465.724 349.844C466.496 349.844 467.096 350.444 467.096 351.216V356.876C467.182 357.648 466.581 358.249 465.81 358.249Z" fill="#020203"/>
<path d="M471.04 358.249C470.268 358.249 469.582 357.648 469.582 356.876V351.216C469.582 350.444 470.182 349.844 470.954 349.844C471.726 349.844 472.327 350.444 472.327 351.216V356.876C472.498 357.648 471.812 358.249 471.04 358.249Z" fill="#020203"/>
<path d="M476.356 358.249C475.585 358.249 474.898 357.648 474.898 356.876V351.216C474.898 350.444 475.499 349.844 476.271 349.844C477.043 349.844 477.643 350.444 477.643 351.216V356.876C477.729 357.648 477.128 358.249 476.356 358.249Z" fill="#020203"/>
<path d="M481.583 358.249C480.811 358.249 480.125 357.648 480.125 356.876V351.216C480.125 350.444 480.725 349.844 481.497 349.844C482.269 349.844 482.869 350.444 482.869 351.216V356.876C483.041 357.648 482.355 358.249 481.583 358.249Z" fill="#020203"/>
<path d="M486.899 358.249C486.128 358.249 485.441 357.648 485.441 356.876V351.216C485.441 350.444 486.042 349.844 486.814 349.844C487.586 349.844 488.186 350.444 488.186 351.216V356.876C488.272 357.648 487.671 358.249 486.899 358.249Z" fill="#020203"/>
<path d="M460.493 374.116C459.721 374.116 459.035 373.515 459.035 372.743V367.083C459.035 366.311 459.636 365.71 460.407 365.71C461.179 365.71 461.78 366.311 461.78 367.083V372.743C461.951 373.515 461.265 374.116 460.493 374.116Z" fill="#020203"/>
<path d="M465.81 374.116C465.038 374.116 464.352 373.515 464.352 372.743V367.083C464.352 366.311 464.952 365.71 465.724 365.71C466.496 365.71 467.096 366.311 467.096 367.083V372.743C467.182 373.515 466.581 374.116 465.81 374.116Z" fill="#020203"/>
<path d="M471.04 374.116C470.268 374.116 469.582 373.515 469.582 372.743V367.083C469.582 366.311 470.182 365.71 470.954 365.71C471.726 365.71 472.327 366.311 472.327 367.083V372.743C472.498 373.515 471.812 374.116 471.04 374.116Z" fill="#020203"/>
<path d="M476.356 374.116C475.585 374.116 474.898 373.515 474.898 372.743V367.083C474.898 366.311 475.499 365.71 476.271 365.71C477.043 365.71 477.643 366.311 477.643 367.083V372.743C477.729 373.515 477.128 374.116 476.356 374.116Z" fill="#020203"/>
<path d="M481.583 374.116C480.811 374.116 480.125 373.515 480.125 372.743V367.083C480.125 366.311 480.725 365.71 481.497 365.71C482.269 365.71 482.869 366.311 482.869 367.083V372.743C483.041 373.515 482.355 374.116 481.583 374.116Z" fill="#020203"/>
<path d="M486.899 374.116C486.128 374.116 485.441 373.515 485.441 372.743V367.083C485.441 366.311 486.042 365.71 486.814 365.71C487.586 365.71 488.186 366.311 488.186 367.083V372.743C488.272 373.515 487.671 374.116 486.899 374.116Z" fill="#020203"/>
<path d="M460.493 389.982C459.721 389.982 459.035 389.382 459.035 388.61V382.949C459.035 382.178 459.636 381.577 460.407 381.577C461.179 381.577 461.78 382.178 461.78 382.949V388.61C461.951 389.296 461.265 389.982 460.493 389.982Z" fill="#020203"/>
<path d="M465.81 389.982C465.038 389.982 464.352 389.382 464.352 388.61V382.949C464.352 382.178 464.952 381.577 465.724 381.577C466.496 381.577 467.096 382.178 467.096 382.949V388.61C467.182 389.296 466.581 389.982 465.81 389.982Z" fill="#020203"/>
<path d="M471.04 389.982C470.268 389.982 469.582 389.382 469.582 388.61V382.949C469.582 382.178 470.182 381.577 470.954 381.577C471.726 381.577 472.327 382.178 472.327 382.949V388.61C472.498 389.296 471.812 389.982 471.04 389.982Z" fill="#020203"/>
<path d="M476.356 389.982C475.585 389.982 474.898 389.382 474.898 388.61V382.949C474.898 382.178 475.499 381.577 476.271 381.577C477.043 381.577 477.643 382.178 477.643 382.949V388.61C477.729 389.296 477.128 389.982 476.356 389.982Z" fill="#020203"/>
<path d="M481.583 389.982C480.811 389.982 480.125 389.382 480.125 388.61V382.949C480.125 382.178 480.725 381.577 481.497 381.577C482.269 381.577 482.869 382.178 482.869 382.949V388.61C483.041 389.296 482.355 389.982 481.583 389.982Z" fill="#020203"/>
<path d="M486.899 389.982C486.128 389.982 485.441 389.382 485.441 388.61V382.949C485.441 382.178 486.042 381.577 486.814 381.577C487.586 381.577 488.186 382.178 488.186 382.949V388.61C488.272 389.296 487.671 389.982 486.899 389.982Z" fill="#020203"/>
<path d="M460.493 405.764C459.721 405.764 459.035 405.163 459.035 404.391V398.731C459.035 397.959 459.636 397.358 460.407 397.358C461.179 397.358 461.78 397.959 461.78 398.731V404.391C461.951 405.163 461.265 405.764 460.493 405.764Z" fill="#020203"/>
<path d="M465.81 405.764C465.038 405.764 464.352 405.163 464.352 404.391V398.731C464.352 397.959 464.952 397.358 465.724 397.358C466.496 397.358 467.096 397.959 467.096 398.731V404.391C467.182 405.163 466.581 405.764 465.81 405.764Z" fill="#020203"/>
<path d="M471.04 405.764C470.268 405.764 469.582 405.163 469.582 404.391V398.731C469.582 397.959 470.182 397.358 470.954 397.358C471.726 397.358 472.327 397.959 472.327 398.731V404.391C472.498 405.163 471.812 405.764 471.04 405.764Z" fill="#020203"/>
<path d="M476.356 405.764C475.585 405.764 474.898 405.163 474.898 404.391V398.731C474.898 397.959 475.499 397.358 476.271 397.358C477.043 397.358 477.643 397.959 477.643 398.731V404.391C477.729 405.163 477.128 405.764 476.356 405.764Z" fill="#020203"/>
<path d="M481.583 405.764C480.811 405.764 480.125 405.163 480.125 404.391V398.731C480.125 397.959 480.725 397.358 481.497 397.358C482.269 397.358 482.869 397.959 482.869 398.731V404.391C483.041 405.163 482.355 405.764 481.583 405.764Z" fill="#020203"/>
<path d="M486.899 405.764C486.128 405.764 485.441 405.163 485.441 404.391V398.731C485.441 397.959 486.042 397.358 486.814 397.358C487.586 397.358 488.186 397.959 488.186 398.731V404.391C488.272 405.163 487.671 405.764 486.899 405.764Z" fill="#020203"/>
<path d="M48.2588 204.554C47.4869 204.554 46.8008 203.954 46.8008 203.182V197.521C46.8008 196.749 47.4011 196.149 48.1731 196.149C48.945 196.149 49.5453 196.749 49.5453 197.521V203.182C49.6311 203.954 49.0307 204.554 48.2588 204.554Z" fill="#020203"/>
<path d="M53.4893 204.554C52.7174 204.554 52.0312 203.954 52.0312 203.182V197.521C52.0312 196.749 52.6316 196.149 53.4035 196.149C54.1754 196.149 54.7758 196.749 54.7758 197.521V203.182C54.8616 203.954 54.2612 204.554 53.4893 204.554Z" fill="#020203"/>
<path d="M58.8057 204.554C58.0338 204.554 57.3477 203.954 57.3477 203.182V197.521C57.3477 196.749 57.948 196.149 58.7199 196.149C59.4918 196.149 60.0922 196.749 60.0922 197.521V203.182C60.178 203.954 59.5776 204.554 58.8057 204.554Z" fill="#020203"/>
<path d="M46.9737 286.119C46.2018 286.119 45.5156 285.518 45.5156 284.746V279.086C45.5156 278.314 46.116 277.713 46.8879 277.713C47.6598 277.713 48.2602 278.314 48.2602 279.086V284.746C48.3459 285.518 47.7456 286.119 46.9737 286.119Z" fill="#020203"/>
<path d="M52.2901 286.119C51.5182 286.119 50.832 285.518 50.832 284.746V279.086C50.832 278.314 51.4324 277.713 52.2043 277.713C52.9762 277.713 53.5766 278.314 53.5766 279.086V284.746C53.6623 285.518 53.062 286.119 52.2901 286.119Z" fill="#020203"/>
<path d="M57.5205 286.119C56.7486 286.119 56.0625 285.518 56.0625 284.746V279.086C56.0625 278.314 56.6629 277.713 57.4348 277.713C58.2067 277.713 58.807 278.314 58.807 279.086V284.746C58.8928 285.518 58.2924 286.119 57.5205 286.119Z" fill="#020203"/>
<path d="M62.8369 286.119C62.065 286.119 61.3789 285.518 61.3789 284.746V279.086C61.3789 278.314 61.9793 277.713 62.7512 277.713C63.5231 277.713 64.1234 278.314 64.1234 279.086V284.746C64.2092 285.518 63.6088 286.119 62.8369 286.119Z" fill="#020203"/>
<path d="M68.0635 286.119C67.2916 286.119 66.6055 285.518 66.6055 284.746V279.086C66.6055 278.314 67.2058 277.713 67.9777 277.713C68.7496 277.713 69.35 278.314 69.35 279.086V284.746C69.4358 285.518 68.8354 286.119 68.0635 286.119Z" fill="#020203"/>
<path d="M73.3799 286.119C72.608 286.119 71.9219 285.518 71.9219 284.746V279.086C71.9219 278.314 72.5222 277.713 73.2941 277.713C74.066 277.713 74.6664 278.314 74.6664 279.086V284.746C74.7522 285.518 74.1518 286.119 73.3799 286.119Z" fill="#020203"/>
<path d="M46.9737 298.984C46.2018 298.984 45.5156 298.383 45.5156 297.611V291.951C45.5156 291.179 46.116 290.578 46.8879 290.578C47.6598 290.578 48.2602 291.179 48.2602 291.951V297.611C48.3459 298.383 47.7456 298.984 46.9737 298.984Z" fill="#020203"/>
<path d="M52.2901 298.984C51.5182 298.984 50.832 298.383 50.832 297.612V291.951C50.832 291.179 51.4324 290.579 52.2043 290.579C52.9762 290.579 53.5766 291.179 53.5766 291.951V297.612C53.6623 298.383 53.062 298.984 52.2901 298.984Z" fill="#020203"/>
<path d="M57.5205 298.984C56.7486 298.984 56.0625 298.383 56.0625 297.611V291.951C56.0625 291.179 56.6629 290.578 57.4348 290.578C58.2067 290.578 58.807 291.179 58.807 291.951V297.611C58.8928 298.383 58.2924 298.984 57.5205 298.984Z" fill="#020203"/>
<path d="M62.8369 298.984C62.065 298.984 61.3789 298.383 61.3789 297.611V291.951C61.3789 291.179 61.9793 290.578 62.7512 290.578C63.5231 290.578 64.1234 291.179 64.1234 291.951V297.611C64.2092 298.383 63.6088 298.984 62.8369 298.984Z" fill="#020203"/>
<path d="M68.0635 298.984C67.2916 298.984 66.6055 298.383 66.6055 297.611V291.951C66.6055 291.179 67.2058 290.578 67.9777 290.578C68.7496 290.578 69.35 291.179 69.35 291.951V297.611C69.4358 298.383 68.8354 298.984 68.0635 298.984Z" fill="#020203"/>
<path d="M73.3799 298.984C72.608 298.984 71.9219 298.383 71.9219 297.611V291.951C71.9219 291.179 72.5222 290.578 73.2941 290.578C74.066 290.578 74.6664 291.179 74.6664 291.951V297.611C74.7522 298.383 74.1518 298.984 73.3799 298.984Z" fill="#020203"/>
<path d="M46.9737 311.763C46.2018 311.763 45.5156 311.162 45.5156 310.391V304.73C45.5156 303.958 46.116 303.358 46.8879 303.358C47.6598 303.358 48.2602 303.958 48.2602 304.73V310.391C48.3459 311.162 47.7456 311.763 46.9737 311.763Z" fill="#020203"/>
<path d="M52.2901 311.763C51.5182 311.763 50.832 311.163 50.832 310.391V304.73C50.832 303.958 51.4324 303.358 52.2043 303.358C52.9762 303.358 53.5766 303.958 53.5766 304.73V310.391C53.6623 311.163 53.062 311.763 52.2901 311.763Z" fill="#020203"/>
<path d="M57.5205 311.763C56.7486 311.763 56.0625 311.162 56.0625 310.391V304.73C56.0625 303.958 56.6629 303.358 57.4348 303.358C58.2067 303.358 58.807 303.958 58.807 304.73V310.391C58.8928 311.162 58.2924 311.763 57.5205 311.763Z" fill="#020203"/>
<path d="M62.8369 311.763C62.065 311.763 61.3789 311.162 61.3789 310.391V304.73C61.3789 303.958 61.9793 303.358 62.7512 303.358C63.5231 303.358 64.1234 303.958 64.1234 304.73V310.391C64.2092 311.162 63.6088 311.763 62.8369 311.763Z" fill="#020203"/>
<path d="M68.0635 311.763C67.2916 311.763 66.6055 311.162 66.6055 310.391V304.73C66.6055 303.958 67.2058 303.358 67.9777 303.358C68.7496 303.358 69.35 303.958 69.35 304.73V310.391C69.4358 311.162 68.8354 311.763 68.0635 311.763Z" fill="#020203"/>
<path d="M73.3799 311.763C72.608 311.763 71.9219 311.162 71.9219 310.391V304.73C71.9219 303.958 72.5222 303.358 73.2941 303.358C74.066 303.358 74.6664 303.958 74.6664 304.73V310.391C74.7522 311.162 74.1518 311.763 73.3799 311.763Z" fill="#020203"/>
<path d="M46.9737 324.628C46.2018 324.628 45.5156 324.028 45.5156 323.256V317.595C45.5156 316.823 46.116 316.223 46.8879 316.223C47.6598 316.223 48.2602 316.823 48.2602 317.595V323.256C48.3459 324.028 47.7456 324.628 46.9737 324.628Z" fill="#020203"/>
<path d="M52.2901 324.628C51.5182 324.628 50.832 324.027 50.832 323.256V317.595C50.832 316.823 51.4324 316.223 52.2043 316.223C52.9762 316.223 53.5766 316.823 53.5766 317.595V323.256C53.6623 324.027 53.062 324.628 52.2901 324.628Z" fill="#020203"/>
<path d="M57.5205 324.628C56.7486 324.628 56.0625 324.028 56.0625 323.256V317.595C56.0625 316.823 56.6629 316.223 57.4348 316.223C58.2067 316.223 58.807 316.823 58.807 317.595V323.256C58.8928 324.028 58.2924 324.628 57.5205 324.628Z" fill="#020203"/>
<path d="M62.8369 324.628C62.065 324.628 61.3789 324.028 61.3789 323.256V317.595C61.3789 316.823 61.9793 316.223 62.7512 316.223C63.5231 316.223 64.1234 316.823 64.1234 317.595V323.256C64.2092 324.028 63.6088 324.628 62.8369 324.628Z" fill="#020203"/>
<path d="M68.0635 324.628C67.2916 324.628 66.6055 324.028 66.6055 323.256V317.595C66.6055 316.823 67.2058 316.223 67.9777 316.223C68.7496 316.223 69.35 316.823 69.35 317.595V323.256C69.4358 324.028 68.8354 324.628 68.0635 324.628Z" fill="#020203"/>
<path d="M73.3799 324.628C72.608 324.628 71.9219 324.028 71.9219 323.256V317.595C71.9219 316.823 72.5222 316.223 73.2941 316.223C74.066 316.223 74.6664 316.823 74.6664 317.595V323.256C74.7522 324.028 74.1518 324.628 73.3799 324.628Z" fill="#020203"/>
<path d="M348.004 64.1536H245.717C240.658 64.1536 236.543 60.4656 236.543 55.92V9.17699C236.543 4.63134 240.658 0.943359 245.717 0.943359H348.09C353.148 0.943359 357.264 4.63134 357.264 9.17699V55.92C357.264 60.4656 353.148 64.1536 348.004 64.1536Z" stroke="#020203" stroke-miterlimit="10"/>
<path d="M262.952 21H267.964C269.924 21 271.282 19.936 271.282 18.298C271.282 17.108 270.54 16.282 269.364 15.96C270.372 15.526 270.932 14.756 270.932 13.748C270.932 12.25 269.63 11.2 267.782 11.2H262.952V21ZM264.842 15.12V12.95H267.712C268.538 12.95 269.084 13.342 269.084 14C269.084 14.714 268.608 15.12 267.712 15.12H264.842ZM264.842 19.25V16.828H267.992C268.846 16.828 269.392 17.346 269.392 18.06C269.392 18.774 268.832 19.25 267.992 19.25H264.842ZM272.445 19.082C272.445 20.356 273.481 21.14 274.629 21.14C275.707 21.14 276.393 20.748 276.827 19.978V21H278.465V16.912C278.465 15.176 277.429 14.224 275.413 14.224C273.803 14.224 272.753 15.022 272.403 16.31L273.957 16.73C274.111 16.058 274.601 15.624 275.399 15.624C276.225 15.624 276.757 16.072 276.757 16.814V17.234L276.169 17.094C275.805 16.996 275.427 16.954 275.035 16.954C273.467 16.954 272.445 17.668 272.445 19.082ZM276.757 18.55C276.757 19.32 276.169 19.768 275.343 19.768C274.629 19.768 274.265 19.46 274.265 18.97C274.265 18.452 274.657 18.172 275.315 18.172C275.581 18.172 275.931 18.242 276.351 18.368L276.757 18.494V18.55ZM280.176 21H289.836V14.364H288.086V19.39H285.888V14.364H284.138V19.39H281.926V14.364H280.176V21ZM294.833 21H296.583V15.974H299.145V21H300.895V14.364H294.833V21ZM302.598 14.364V23.772H304.39V20.146C304.74 20.762 305.51 21.14 306.42 21.14C308.282 21.14 309.64 19.796 309.64 17.71C309.64 15.624 308.31 14.224 306.518 14.224C305.636 14.224 304.81 14.672 304.32 15.358V14.364H302.598ZM306.084 19.614C305.118 19.614 304.32 18.886 304.32 17.71C304.32 16.52 305.118 15.764 306.084 15.764C307.078 15.764 307.848 16.52 307.848 17.71C307.848 18.872 307.078 19.614 306.084 19.614ZM310.587 17.682C310.587 19.656 312.057 21.14 314.059 21.14C316.061 21.14 317.531 19.656 317.531 17.682C317.531 15.694 316.075 14.224 314.059 14.224C312.043 14.224 310.587 15.694 310.587 17.682ZM315.781 17.682C315.781 18.788 315.053 19.53 314.059 19.53C313.065 19.53 312.337 18.788 312.337 17.682C312.337 16.576 313.065 15.834 314.059 15.834C315.053 15.834 315.781 16.576 315.781 17.682ZM318.868 21H320.618V15.974H323.18V21H324.93V14.364H318.868V21ZM331.267 14.364L329.447 18.144L327.739 14.364H325.863L328.523 20.062L326.745 23.772H328.565L333.087 14.364H331.267ZM336.989 19.558C336.051 19.558 335.169 18.83 335.169 17.64C335.169 16.45 336.051 15.792 336.891 15.792C337.731 15.792 338.361 16.31 338.487 17.15L340.069 16.618C339.775 15.106 338.529 14.224 336.849 14.224C335.001 14.224 333.419 15.638 333.419 17.64C333.419 19.74 334.861 21.14 337.031 21.14C338.767 21.14 340.013 20.244 340.419 18.494L338.767 17.92C338.641 18.872 338.067 19.558 336.989 19.558ZM341.631 21H343.381V18.326L345.607 21H347.763L344.753 17.5L347.623 14.364H345.411L343.381 16.716V14.364H341.631V21ZM264.604 28.364H262.854V35H264.604V32.41H267.362V35H269.112V28.364H267.362V30.8H264.604V28.364ZM270.545 33.082C270.545 34.356 271.581 35.14 272.729 35.14C273.807 35.14 274.493 34.748 274.927 33.978V35H276.565V30.912C276.565 29.176 275.529 28.224 273.513 28.224C271.903 28.224 270.853 29.022 270.503 30.31L272.057 30.73C272.211 30.058 272.701 29.624 273.499 29.624C274.325 29.624 274.857 30.072 274.857 30.814V31.234L274.269 31.094C273.905 30.996 273.527 30.954 273.135 30.954C271.567 30.954 270.545 31.668 270.545 33.082ZM274.857 32.55C274.857 33.32 274.269 33.768 273.443 33.768C272.729 33.768 272.365 33.46 272.365 32.97C272.365 32.452 272.757 32.172 273.415 32.172C273.681 32.172 274.031 32.242 274.451 32.368L274.857 32.494V32.55ZM281.571 35H283.321V29.974H285.883V35H287.633V28.364H281.571V35ZM289.336 28.364V37.772H291.128V34.146C291.478 34.762 292.248 35.14 293.158 35.14C295.02 35.14 296.378 33.796 296.378 31.71C296.378 29.624 295.048 28.224 293.256 28.224C292.374 28.224 291.548 28.672 291.058 29.358V28.364H289.336ZM292.822 33.614C291.856 33.614 291.058 32.886 291.058 31.71C291.058 30.52 291.856 29.764 292.822 29.764C293.816 29.764 294.586 30.52 294.586 31.71C294.586 32.872 293.816 33.614 292.822 33.614ZM297.326 31.682C297.326 33.656 298.796 35.14 300.798 35.14C302.8 35.14 304.27 33.656 304.27 31.682C304.27 29.694 302.814 28.224 300.798 28.224C298.782 28.224 297.326 29.694 297.326 31.682ZM302.52 31.682C302.52 32.788 301.792 33.53 300.798 33.53C299.804 33.53 299.076 32.788 299.076 31.682C299.076 30.576 299.804 29.834 300.798 29.834C301.792 29.834 302.52 30.576 302.52 31.682ZM305.606 35H307.398V29.974H310.436V28.364H305.606V35ZM316.42 28.364L314.6 32.144L312.892 28.364H311.016L313.676 34.062L311.898 37.772H313.718L318.24 28.364H316.42ZM318.648 35H320.398C320.958 33.88 321.238 32.312 321.238 30.31V29.974H323.408V35H325.158V28.364H319.488V30.38C319.488 31.486 319.418 32.382 319.264 33.04C319.124 33.698 318.914 34.272 318.648 34.776V35ZM326.866 35H328.616V32.326L330.842 35H332.998L329.988 31.5L332.858 28.364H330.646L328.616 30.716V28.364H326.866V35ZM338.746 28.364L336.926 32.144L335.218 28.364H333.342L336.002 34.062L334.224 37.772H336.044L340.566 28.364H338.746ZM262.854 49H265.388L267.992 44.198V49H269.742V42.364H267.222L264.604 47.166V42.364H262.854V49ZM274.646 47.558C273.708 47.558 272.826 46.83 272.826 45.64C272.826 44.45 273.708 43.792 274.548 43.792C275.388 43.792 276.018 44.31 276.144 45.15L277.726 44.618C277.432 43.106 276.186 42.224 274.506 42.224C272.658 42.224 271.076 43.638 271.076 45.64C271.076 47.74 272.518 49.14 274.688 49.14C276.424 49.14 277.67 48.244 278.076 46.494L276.424 45.92C276.298 46.872 275.724 47.558 274.646 47.558ZM280.565 49H282.315V43.974H284.401V42.364H278.479V43.974H280.565V49ZM290.144 46.466C289.934 47.222 289.416 47.6 288.604 47.6C287.652 47.6 286.868 47.026 286.854 46.018H291.362C291.418 45.766 291.446 45.5 291.446 45.206C291.446 43.386 290.2 42.224 288.366 42.224C286.406 42.224 285.062 43.75 285.062 45.64C285.062 47.74 286.518 49.14 288.576 49.14C290.13 49.14 291.208 48.356 291.67 47.068L290.144 46.466ZM286.854 44.828C287.022 44.1 287.638 43.666 288.366 43.666C289.164 43.666 289.71 44.1 289.71 44.772L289.696 44.828H286.854ZM286.14 41.174H287.918V39.368H286.14V41.174ZM288.828 41.174H290.606V39.368H288.828V41.174ZM292.918 49H294.668V46.326L296.894 49H299.05L296.04 45.5L298.91 42.364H296.698L294.668 44.716V42.364H292.918V49Z" fill="#020203"/>
<path d="M250.091 21.2628C252.648 21.2628 254.721 19.1893 254.721 16.6314C254.721 14.0736 252.648 12 250.091 12C247.534 12 245.461 14.0736 245.461 16.6314C245.461 19.1893 247.534 21.2628 250.091 21.2628Z" fill="#020203"/>
<path d="M443.173 103.006C445.73 103.006 447.803 100.932 447.803 98.3746C447.803 95.8167 445.73 93.7432 443.173 93.7432C440.616 93.7432 438.543 95.8167 438.543 98.3746C438.543 100.932 440.616 103.006 443.173 103.006Z" fill="#020203"/>
<path d="M448.833 226.339C451.296 226.339 453.292 224.342 453.292 221.879C453.292 219.416 451.296 217.419 448.833 217.419C446.371 217.419 444.375 219.416 444.375 221.879C444.375 224.342 446.371 226.339 448.833 226.339Z" stroke="#020203" stroke-miterlimit="10"/>
<path d="M423.539 192.804C423.539 192.804 442.487 192.804 461.95 192.804L465.294 192.976C474.554 193.319 477.126 203.782 474.983 209.958C474.039 212.874 472.153 215.275 472.496 218.706C472.753 222.394 474.983 222.651 476.697 222.394C478.326 222.136 480.641 223.938 480.213 227.711C479.784 231.485 477.212 231.056 475.84 233.458C474.211 236.374 474.897 242.635 476.612 244.865C478.326 247.095 480.47 246.666 482.442 246.323C484.414 245.98 486.643 245.808 488.186 248.553C490.844 253.184 489.815 263.733 486.986 268.365C486.986 268.365 482.013 273.597 482.013 283.975C482.013 288.52 483.728 292.894 486.3 295.725C488.101 297.697 490.416 299.155 491.273 301.986C492.045 304.559 491.359 307.56 491.959 310.219C492.645 313.307 494.96 315.279 497.275 315.88C498.132 316.051 499.332 316.652 500.447 317.252C503.105 318.624 504.82 322.055 504.82 325.829C504.82 325.829 504.82 372.229 504.82 408.337" stroke="#020203" stroke-miterlimit="10"/>
<path d="M177.039 266.221H225.139" stroke="#020203" stroke-miterlimit="10"/>
<path d="M192.816 343.582L213.48 343.754C215.452 343.754 216.738 345.898 215.795 347.699C213.48 352.073 211.593 356.447 211.593 359.106C211.593 365.967 217.166 371.457 223.94 371.457C230.799 371.457 236.286 365.882 236.286 359.106C236.286 356.362 234.314 351.816 231.913 347.356C230.885 345.469 232.256 343.239 234.4 343.239L292.788 343.497" stroke="#020203" stroke-miterlimit="10"/>
<path d="M447.718 156.868L442.831 162.099C440.345 164.758 440.859 168.961 443.946 170.933C446.603 172.649 447.461 176.079 445.832 178.738L441.545 185.943" stroke="#020203" stroke-miterlimit="10" stroke-linecap="round"/>
<path d="M461.608 156.868L456.636 162.099C454.149 164.758 454.664 168.961 457.75 170.933C460.408 172.649 461.266 176.079 459.637 178.738L455.35 185.943" stroke="#020203" stroke-miterlimit="10" stroke-linecap="round"/>
<path d="M475.413 156.868L470.526 162.099C468.04 164.758 468.554 168.961 471.641 170.933C474.299 172.649 475.156 176.079 473.527 178.738L469.24 185.943" stroke="#020203" stroke-miterlimit="10" stroke-linecap="round"/>
<path d="M509.964 474.206C501.562 473.605 493.76 476.007 487.415 480.295C484.757 482.096 481.413 482.096 478.755 480.381C473.097 476.693 466.409 474.549 459.121 474.549H277.869C275.725 474.549 273.667 475.235 271.953 476.436L263.893 482.268C261.664 483.897 259.006 484.755 256.177 484.755H37.5417C17.6502 484.755 1.53125 500.879 1.53125 520.777C1.53125 540.675 17.6502 556.799 37.5417 556.799H254.719C257.548 556.799 260.206 555.942 262.436 554.312L269.981 548.823C271.953 547.365 274.439 546.593 276.84 546.593H459.207C465.723 546.593 471.811 544.878 477.041 541.876C481.328 539.474 486.472 539.217 490.845 541.533C495.818 544.192 501.476 545.65 507.478 545.65C528.141 545.65 544.689 528.153 543.146 507.226C542.031 490.587 526.769 475.406 509.964 474.206ZM507.478 533.728C497.532 533.728 489.044 527.639 485.529 518.976C484.243 515.974 481.328 514.002 477.984 514.002H16.4499C14.1349 514.002 12.2486 512.029 12.4201 509.713C12.5916 507.569 14.4779 505.939 16.6213 505.939H479.356C482.013 505.939 484.328 504.31 485.272 501.823C488.787 492.388 498.047 485.698 508.85 486.299C520.939 486.899 530.713 496.762 531.313 508.856C531.828 522.492 521.025 533.728 507.478 533.728Z" stroke="#020203" stroke-miterlimit="10"/>
<path d="M28.5391 504.996V494.447" stroke="#020203" stroke-miterlimit="10" stroke-linecap="round"/>
<path d="M78.0117 504.996V494.447" stroke="#020203" stroke-miterlimit="10" stroke-linecap="round"/>
<path d="M127.48 504.996V494.447" stroke="#020203" stroke-miterlimit="10" stroke-linecap="round"/>
<path d="M176.953 504.996V494.447" stroke="#020203" stroke-miterlimit="10" stroke-linecap="round"/>
<path d="M226.426 504.996V494.447" stroke="#020203" stroke-miterlimit="10" stroke-linecap="round"/>
<path d="M275.895 504.996V494.447" stroke="#020203" stroke-miterlimit="10" stroke-linecap="round"/>
<path d="M325.367 504.996V494.447" stroke="#020203" stroke-miterlimit="10" stroke-linecap="round"/>
<path d="M374.84 504.996V494.447" stroke="#020203" stroke-miterlimit="10" stroke-linecap="round"/>
<path d="M424.227 504.996V494.447" stroke="#020203" stroke-miterlimit="10" stroke-linecap="round"/>
<path d="M487.331 523.522H26.8258C21.5958 523.522 17.3945 519.319 17.3945 514.087H475.499L482.787 515.545L487.331 523.522Z" fill="#020203"/>
<path d="M32.5677 530.64C32.5677 532.87 30.7672 534.586 28.6237 534.586C26.4802 534.586 24.6797 532.785 24.6797 530.64C24.6797 528.496 26.4802 526.695 28.6237 526.695C30.7672 526.695 32.5677 528.496 32.5677 530.64Z" stroke="#020203" stroke-miterlimit="10" stroke-linecap="round"/>
<path d="M398.589 499.25H28.4531V505.511H404.162V504.824C404.076 501.737 401.59 499.25 398.589 499.25Z" fill="#020203"/>
<path d="M490.503 509.284C490.331 518.976 498.134 526.867 507.736 526.867C517.339 526.867 525.141 518.976 524.97 509.284H519.054C517.939 509.284 516.996 508.598 516.568 507.569L514.938 502.938C513.995 500.193 510.566 499.25 508.422 501.222L500.191 508.513C499.591 509.027 498.734 509.37 497.876 509.37H490.503V509.284Z" fill="#020203"/>
</svg>
