<svg width="702" height="179" viewBox="0 0 702 179" fill="none" xmlns="http://www.w3.org/2000/svg">
<g clip-path="url(#clip0)">
<path d="M635.309 13.9421C636.307 8.94963 633.141 4.07893 628.238 3.06302C623.335 2.04711 618.552 5.27069 617.555 10.2631C616.557 15.2555 619.723 20.1263 624.625 21.1422C629.528 22.1581 634.311 18.9345 635.309 13.9421Z" fill="#020203"/>
<path d="M636.839 33.6084L637.051 45.9517C637.094 47.6841 635.69 49.1567 633.989 49.1567H631.267C627.226 49.1567 622.888 49.5465 621.442 53.401C616.933 65.0947 630.544 82.8085 635.818 89.868C637.136 91.6437 639.561 92.1201 641.432 90.9508C646.961 87.486 658.998 77.005 664.017 72.544C665.336 71.3747 665.548 69.4257 664.57 67.9965L662.954 65.6578C661.89 64.0986 659.721 63.7088 658.233 64.8349C654.66 67.4768 648.365 72.0676 643.559 75.2293C642.581 75.8789 641.305 75.6191 640.624 74.6662L639.731 73.3669" stroke="#020203" stroke-miterlimit="10" stroke-linecap="round"/>
<path d="M648.58 16.8906C648.58 16.8906 650.324 21.3949 650.451 25.1628C650.451 25.3361 650.494 25.466 650.579 25.5959L652.195 27.7181C652.365 27.9347 652.28 28.2811 651.983 28.3245L650.962 28.6276C650.664 28.7142 650.494 29.0174 650.536 29.3206C650.792 30.7931 650.154 35.8604 646.964 37.3762C646.538 37.5495 646.283 37.9826 646.283 38.459V45.865C646.283 47.7273 647.772 49.2432 649.601 49.2432H650.962C653.811 49.2432 656.108 51.5819 656.108 54.4837L653.556 68.2129" stroke="#020203" stroke-miterlimit="10"/>
<path d="M649.472 26.5058C649.472 27.0259 649.047 27.4159 648.579 27.4159C648.111 27.4159 647.686 26.9825 647.686 26.5058C647.686 25.9857 648.111 25.5957 648.579 25.5957C649.047 25.5957 649.472 25.9857 649.472 26.5058Z" fill="#020203"/>
<path d="M636.759 34.9935L636.717 34.8643C636.036 35.0366 636.802 34.9505 636.759 34.9935Z" fill="#020203"/>
<path d="M649.132 17.4975C648.069 13.2098 644.241 10.1781 639.903 10.3947C634.416 10.6979 630.546 15.7218 631.439 21.0922C631.481 21.482 631.609 21.8718 631.694 22.2183L636.713 34.8648C636.883 34.8215 638.372 34.5183 638.584 29.1912C638.627 28.3683 639.095 27.5887 639.86 27.2423C640.924 26.7658 641.647 27.4588 642.072 28.2384C642.497 28.9313 646.665 28.9747 647.218 28.3683C649.302 26.0296 650.196 21.8718 649.132 17.4975Z" fill="#020203"/>
<path d="M660.576 31.356H650.539C647.902 31.356 645.732 29.1472 645.732 26.462V24.9028C645.732 22.2176 647.902 20.0088 650.539 20.0088H660.576C662.575 20.0088 664.192 21.6546 664.192 23.6901V27.6746C664.192 29.7102 662.575 31.356 660.576 31.356Z" stroke="#020203" stroke-miterlimit="10"/>
<path d="M653.601 28.0649V23.3441C653.601 21.7417 654.962 20.4424 656.663 20.4424H648.795C647.093 20.4424 645.732 21.7417 645.732 23.3441V28.0649C645.732 29.6674 647.093 30.9667 648.795 30.9667H656.663C654.962 30.9667 653.601 29.6674 653.601 28.0649Z" fill="#020203"/>
<path d="M637.268 43.7002H641.393C642.627 43.7002 643.605 44.5664 643.605 45.6491V62.6266C643.605 63.6228 645.008 63.7527 645.221 62.7566L647.731 48.8974" stroke="#020203" stroke-miterlimit="10"/>
<path d="M628.504 49.5898V53.661" stroke="#020203" stroke-miterlimit="10"/>
<path d="M630.973 48.9834V53.6609" stroke="#020203" stroke-miterlimit="10"/>
<path d="M633.441 48.9834V53.6609" stroke="#020203" stroke-miterlimit="10"/>
<path d="M635.82 48.7246V52.0595C635.82 53.0556 634.884 53.8785 633.778 53.8785H627.739C626.59 53.8785 625.697 53.0556 625.697 52.0595V49.4609" stroke="#020203" stroke-miterlimit="10"/>
<path d="M649.646 84.7148L647.477 96.3219" stroke="#020203" stroke-miterlimit="10"/>
<path d="M647.516 96.9707C694.77 96.9707 690.687 132.312 689.241 146.344C689.028 148.639 687.114 150.415 684.818 150.372L679.076 150.285C676.779 150.242 674.907 148.423 674.822 146.127C672.27 96.7108 621.571 137.855 621.997 106.542C622.039 104.074 622.167 100.869 622.38 97.3605" stroke="#020203" stroke-miterlimit="10"/>
<path d="M622.592 94.1562C623.315 83.2421 624.166 72.7178 624.166 71.7217" stroke="#020203" stroke-miterlimit="10"/>
<path d="M670.439 128.241C670.439 128.241 658.36 150.069 652.447 150.069L643.686 150.026C642.622 150.026 641.942 148.9 642.452 147.947L657.169 120.099" stroke="#020203" stroke-miterlimit="10"/>
<path d="M647.391 97.4043H621.913C621.573 97.4043 621.275 97.1011 621.275 96.7546V94.5891C621.275 94.2426 621.573 93.9395 621.913 93.9395L647.391 96.0617C647.731 96.0617 648.029 96.3648 648.029 96.7113V96.7546C648.029 97.1011 647.731 97.4043 647.391 97.4043Z" stroke="#020203" stroke-miterlimit="10"/>
<path d="M670.061 57.8186C669.636 57.8619 669.253 57.5588 669.211 57.1257L668.445 50.326C668.318 49.1566 667.297 48.3338 666.148 48.4637C665.51 48.5503 664.957 48.8968 664.66 49.4598L661.853 54.2672C661.47 54.9169 661.3 55.6964 661.342 56.476L661.683 61.37C661.81 63.0591 663.299 64.3151 664.958 64.0986L666.957 63.8387C669.253 63.4922 670.614 61.1102 671.295 59.4211C671.593 58.6415 670.955 57.732 670.061 57.8186Z" stroke="#020203" stroke-miterlimit="10"/>
<path d="M660.787 21.0488H656.704C655.343 21.0488 654.279 22.1749 654.279 23.5175V27.8485C654.279 29.2344 655.385 30.3172 656.704 30.3172H660.787C662.148 30.3172 663.211 29.1911 663.211 27.8485V23.5175C663.211 22.1749 662.148 21.0488 660.787 21.0488ZM661.893 23.2143L656.236 28.8013C656.193 28.8446 656.108 28.8879 656.023 28.8879C655.938 28.8879 655.853 28.8446 655.81 28.8013C655.683 28.6714 655.683 28.4548 655.81 28.3249L658.32 25.8562L659.426 24.7302L661.467 22.7379C661.595 22.608 661.808 22.608 661.935 22.7379C662.02 22.8678 662.02 23.0844 661.893 23.2143Z" fill="#020203"/>
<path d="M675.879 168.085C675.836 168.951 676.559 169.687 677.41 169.687H699.952C700.803 169.687 701.483 168.994 701.483 168.128C701.483 165.399 700.08 162.801 695.656 162.454C694.976 162.411 694.338 162.065 693.955 161.502L688.511 154.182C687.83 153.489 686.895 153.056 685.916 153.056L677.708 152.883C676.729 152.883 675.921 153.662 675.921 154.659L675.879 168.085Z" stroke="#020203" stroke-miterlimit="10"/>
<path d="M675.84 166.137H701.487" stroke="#020203" stroke-miterlimit="10"/>
<path d="M641.865 168.086C641.823 168.952 642.546 169.688 643.396 169.688H665.939C666.789 169.688 667.47 168.995 667.47 168.129C667.47 165.4 666.066 162.802 661.643 162.455C660.962 162.412 660.324 162.066 659.941 161.502L654.497 154.183C653.817 153.49 652.881 153.057 651.903 153.057L643.694 152.884C642.716 152.884 641.908 153.663 641.908 154.66L641.865 168.086Z" stroke="#020203" stroke-miterlimit="10"/>
<path d="M641.82 166.137H667.51" stroke="#020203" stroke-miterlimit="10"/>
<path d="M667.932 35.471C667.932 36.3805 667.209 37.1168 666.315 37.1168C665.422 37.1168 664.699 36.3805 664.699 35.471C664.699 34.5615 665.422 33.8252 666.315 33.8252C667.209 33.8252 667.932 34.5615 667.932 35.471Z" stroke="#020203" stroke-miterlimit="10"/>
<path d="M671.927 31.4868C671.927 32.6995 670.949 33.6523 669.801 33.6523C668.652 33.6523 667.674 32.6562 667.674 31.4868C667.674 30.3174 668.652 29.3213 669.801 29.3213C670.949 29.3213 671.927 30.2741 671.927 31.4868Z" fill="#020203"/>
<path d="M667.252 34.1293L668.315 33.0459" stroke="#020203" stroke-miterlimit="10"/>
<path d="M671.377 35.471C671.377 36.3805 672.1 37.1168 672.993 37.1168C673.886 37.1168 674.609 36.3805 674.609 35.471C674.609 34.5615 673.886 33.8252 672.993 33.8252C672.1 33.8252 671.377 34.5615 671.377 35.471Z" stroke="#020203" stroke-miterlimit="10"/>
<path d="M672.016 34.1296L671.08 33.1328" stroke="#020203" stroke-miterlimit="10"/>
<path d="M679.123 27.8039C679.123 29.0599 678.144 30.056 676.911 30.056C675.677 30.056 674.699 29.0599 674.699 27.8039C674.699 26.5479 675.677 25.5518 676.911 25.5518C678.102 25.5518 679.123 26.5479 679.123 27.8039Z" stroke="#020203" stroke-miterlimit="10"/>
<path d="M684.654 22.3042C684.654 23.9932 683.335 25.3359 681.677 25.3359C680.018 25.3359 678.699 23.9932 678.699 22.3042C678.699 20.6151 680.018 19.2725 681.677 19.2725C683.335 19.2725 684.654 20.6151 684.654 22.3042Z" fill="#020203"/>
<path d="M678.184 25.9432L679.63 24.4697" stroke="#020203" stroke-miterlimit="10"/>
<path d="M683.885 27.8049C683.885 29.0608 684.863 30.057 686.096 30.057C687.33 30.057 688.308 29.0608 688.308 27.8049C688.308 26.5489 687.33 25.5527 686.096 25.5527C684.863 25.5527 683.885 26.5489 683.885 27.8049Z" stroke="#020203" stroke-miterlimit="10"/>
<path d="M684.82 25.9431L683.459 24.5996" stroke="#020203" stroke-miterlimit="10"/>
<path d="M679.461 41.4475C680.378 41.4475 681.12 40.6913 681.12 39.7584C681.12 38.8256 680.378 38.0693 679.461 38.0693C678.545 38.0693 677.803 38.8256 677.803 39.7584C677.803 40.6913 678.545 41.4475 679.461 41.4475Z" stroke="#020203" stroke-miterlimit="10"/>
<path d="M685.248 35.6447C685.248 36.9007 684.269 37.8968 683.036 37.8968C681.802 37.8968 680.824 36.9007 680.824 35.6447C680.824 34.3887 681.802 33.3926 683.036 33.3926C684.269 33.3926 685.248 34.432 685.248 35.6447Z" fill="#020203"/>
<path d="M680.439 38.3735L681.503 37.29" stroke="#020203" stroke-miterlimit="10"/>
<path d="M686.311 41.4475C687.227 41.4475 687.97 40.6913 687.97 39.7584C687.97 38.8256 687.227 38.0693 686.311 38.0693C685.395 38.0693 684.652 38.8256 684.652 39.7584C684.652 40.6913 685.395 41.4475 686.311 41.4475Z" stroke="#020203" stroke-miterlimit="10"/>
<path d="M685.37 38.3728L684.35 37.376" stroke="#020203" stroke-miterlimit="10"/>
<path d="M275.4 119.925H231.039C231.167 120.011 231.337 120.098 231.464 120.228C235.335 122.87 237.972 126.378 239.205 130.362H275.4V119.925Z" fill="#020203"/>
<path d="M234.821 135.647C234.821 131.316 232.61 127.418 228.569 124.603C225.762 122.697 222.189 121.311 217.979 120.575V150.762C222.104 149.983 225.677 148.597 228.484 146.604C232.567 143.789 234.821 139.848 234.821 135.647Z" fill="#020203"/>
<path d="M234.951 159.727V149.68H272.209V139.285H239.587C238.566 143.833 235.716 147.947 231.378 150.979C227.72 153.534 223.169 155.267 217.938 156.133V170.122H276.462V159.727H234.951Z" fill="#020203"/>
<path d="M228.528 124.603C224.062 121.528 217.597 119.926 209.856 119.926H187.356C187.484 120.012 187.654 120.099 187.782 120.229C191.652 122.871 194.289 126.379 195.523 130.363H208.793C211.515 130.363 213.812 130.84 215.385 131.749C217.384 132.919 217.81 134.565 217.81 135.734C217.81 136.903 217.384 138.549 215.385 139.718C213.812 140.628 211.557 141.104 208.793 141.104H195.438C194.162 144.916 191.482 148.38 187.739 151.022C184.124 153.578 179.53 155.31 174.299 156.176V170.165H191.269V151.499H209.856C217.512 151.499 223.934 149.81 228.443 146.648C232.526 143.79 234.78 139.892 234.78 135.647C234.823 131.316 232.568 127.418 228.528 124.603Z" fill="#020203"/>
<path d="M80.3893 147.686H72.4357L75.0302 142.402H80.3893V133.004H76.2637L78.7731 119.968H69.5435L67.0341 133.004H61.3347L63.8442 119.968H54.6146L52.1052 133.004H39.6431V142.402H50.4889L49.1704 147.686H37.6016V157.084H47.5116L45.0873 170.121H54.3169L56.7412 157.084H62.4406L60.0162 170.121H69.2458L71.6701 157.084H80.3893V147.686ZM64.4821 148.119H58.1023L59.2506 141.969H65.6305L64.4821 148.119Z" fill="#020203"/>
<path d="M141.081 146.647C145.165 143.789 147.419 139.891 147.419 135.646C147.419 131.315 145.207 127.417 141.167 124.602C136.701 121.527 130.236 119.925 122.495 119.925H86.9375V170.121H103.908V151.454H122.495C130.108 151.498 136.573 149.809 141.081 146.647ZM103.908 141.103V130.363H121.431C124.153 130.363 126.45 130.839 128.024 131.748C130.023 132.918 130.448 134.564 130.448 135.733C130.448 136.902 130.023 138.548 128.024 139.717C126.45 140.627 124.196 141.103 121.431 141.103H103.908Z" fill="#020203"/>
<path d="M184.848 124.603C180.382 121.528 173.917 119.926 166.176 119.926H143.677C143.804 120.012 143.974 120.099 144.102 120.229C147.972 122.871 150.609 126.379 151.843 130.363H165.113C167.835 130.363 170.132 130.84 171.706 131.749C173.705 132.919 174.13 134.565 174.13 135.734C174.13 136.903 173.705 138.549 171.706 139.718C170.132 140.628 167.878 141.104 165.113 141.104H151.758C150.482 144.916 147.802 148.38 144.059 151.022C140.444 153.578 135.851 155.31 130.619 156.176V170.165H147.59V151.499H166.176C173.832 151.499 180.255 149.81 184.806 146.648C188.889 143.79 191.143 139.892 191.143 135.647C191.1 131.316 188.889 127.418 184.848 124.603Z" fill="#020203"/>
<path d="M147.415 135.647C147.415 131.316 145.203 127.418 141.163 124.603C138.356 122.697 134.783 121.311 130.572 120.575V150.762C134.698 149.983 138.228 148.597 141.078 146.604C145.161 143.789 147.415 139.848 147.415 135.647Z" fill="#020203"/>
<path d="M278.545 170.121H297.132L302.874 159.727H337.07L342.812 170.121H361.398L332.179 119.925H307.765L278.545 170.121ZM308.615 149.332L319.972 128.803L331.328 149.332H308.615Z" fill="#020203"/>
<path d="M364.076 170.122H381.047V150.762L407.162 170.122H430.512L393.892 143.876L428.726 119.926H406.736L381.047 137.726V119.926H364.076V170.122Z" fill="#020203"/>
<path d="M486.276 179H501.673V160.42H492.656V119.969H475.686V160.42H449.443V119.969H432.473V170.165H486.319V179H486.276Z" fill="#020203"/>
<path d="M557.815 137.943V170.122H574.785V119.926H557.815L523.023 152.105V119.926H506.053V170.122H523.023L557.815 137.943Z" fill="#020203"/>
<path d="M580.528 170.121H598.988L621.7 151.108H627.017V170.121H643.987V119.925H606.814C591.842 119.925 581.847 126.291 581.847 135.343C581.847 145.261 593.118 150.545 602.433 151.108L580.443 168.952V170.121H580.528ZM607.409 140.757C601.454 140.757 598.392 138.461 598.392 135.386C598.392 132.311 601.369 130.363 607.409 130.363H627.059V140.757H607.409Z" fill="#020203"/>
<path d="M53.5443 100.999L21.1345 100.869C16.2007 100.869 12.628 105.677 13.989 110.527L17.6043 151.932C18.1572 154.097 20.0286 155.57 22.2403 155.57H30.0238C32.4907 155.57 34.5322 153.664 34.7874 151.195L36.0634 125.383C36.191 122.914 38.19 120.922 40.6144 120.922L76.4268 120.532C76.4268 120.532 87.6129 121.182 91.7811 110.181" stroke="#020203" stroke-miterlimit="10"/>
<path d="M54.6065 73.9307C53.8834 88.3962 53.373 101.043 53.373 101.043L65.112 101.086C66.9409 101.043 68.7273 101.562 70.2585 102.515L80.7215 109.055C81.7423 109.705 82.8906 110.008 84.0816 110.008L94.2468 109.878C95.6504 109.878 96.6287 108.535 96.3309 107.149L89.866 80.5138" stroke="#020203" stroke-miterlimit="10"/>
<path d="M55.0761 63.7097C54.7359 27.8057 69.3671 24.2543 78.2139 33.6526C87.9538 44.0469 90.9311 59.422 90.2506 59.4653C90.2506 59.4653 72.7697 62.6702 72.6421 61.4575L70.3879 50.7167" stroke="#020203" stroke-miterlimit="10"/>
<path d="M89.3578 59.9846L91.3143 73.9304C92.2075 79.604 88.2945 84.9311 80.2558 83.2854C80.2558 83.2854 43.7629 70.0758 40.2752 68.7765C25.4739 63.2329 26.8775 57.4727 26.8775 57.4727" stroke="#020203" stroke-miterlimit="10"/>
<path d="M23.5155 53.2715C23.5155 53.2715 22.1119 55.3504 23.473 56L36.9983 64.2722C38.2318 65.0518 38.9974 64.1856 39.7204 62.7997L23.5155 53.2715Z" fill="#020203"/>
<path d="M36.1504 60.6346C37.2137 59.162 39.6806 59.8117 39.6806 59.8117L72.8985 68.8201C74.0044 69.1233 75.0252 68.1272 74.77 67.0011L73.6216 61.8473" stroke="#020203" stroke-miterlimit="10"/>
<path d="M31.8055 160.594L26.1487 160.897V160.507C26.1487 159.035 24.9577 157.865 23.5542 157.865H19.8538C18.4077 157.865 17.2593 159.078 17.2593 160.507C17.2593 161.417 16.5788 162.153 15.6856 162.24L6.83887 162.716C3.2236 163.062 0.458984 165.661 0.458984 168.779V170.468H35.2506L35.038 163.496C34.9954 161.806 33.5068 160.421 31.8055 160.594Z" stroke="#020203" stroke-miterlimit="10"/>
<path d="M0.458984 167.826H35.2506" stroke="#020203" stroke-miterlimit="10"/>
<path d="M70.8952 29.2776L58.0078 11.5205" stroke="#020203" stroke-miterlimit="10"/>
<path d="M59.328 36.6406L49.0352 21.5254" stroke="#020203" stroke-miterlimit="10"/>
<path d="M43.8861 16.8918C44.0563 17.4548 43.716 18.0612 43.1206 18.1911C42.5676 18.3644 41.9722 18.0179 41.8446 17.4115C41.6744 16.8485 42.0147 16.2422 42.6102 16.1122C43.1631 15.9823 43.7585 16.3288 43.8861 16.8918Z" fill="#020203"/>
<path d="M60.517 14.2491C60.517 14.2491 57.6673 -4.02767 45.6732 0.823044C36.5712 4.46108 37.677 11.8671 37.677 11.8671C44.0994 5.50052 47.6296 11.0875 47.6296 11.0875L51.1173 18.3636C51.3725 18.9266 51.2024 19.6196 50.692 19.966L44.6098 23.9939L46.3111 25.6396C46.779 26.0727 47.0342 26.6791 46.9491 27.3287C46.779 28.5847 46.8641 30.7502 49.2459 32.2228C52.7336 34.3883 63.707 30.8801 57.88 21.5685C51.5426 12.9498 51.5426 12.9498 51.5426 12.9498C51.5426 12.9498 49.5436 10.6544 51.7553 9.00862C53.967 7.36285 55.6683 9.96144 56.0086 10.9576C58.6456 16.8477 60.517 14.2491 60.517 14.2491Z" fill="#020203"/>
<path d="M38.0195 11.1748C38.0195 11.1748 38.1046 15.116 40.6991 19.1871C40.8267 19.3604 40.8692 19.5336 40.8267 19.7502L40.4864 23.1717C40.4439 23.6048 40.9117 23.8646 41.252 23.6481L42.3153 22.9551C42.5705 22.7819 42.9533 22.7819 43.2085 22.9551L45.3351 24.3843" stroke="#020203" stroke-miterlimit="10"/>
<path d="M32.7871 160.507V154.79" stroke="#020203" stroke-miterlimit="10"/>
<path d="M17.9453 39.1082C17.6476 39.1949 17.3924 39.4114 17.3499 39.7146C17.2648 40.0177 17.3499 40.2776 17.52 40.4508C17.6901 40.6674 17.7327 40.9273 17.7327 41.1871V41.317C16.9245 41.4037 16.159 41.7501 15.521 42.2699L15.3508 42.0966C15.1807 41.9234 15.0956 41.7068 15.0531 41.4903C15.0106 41.317 14.968 41.1438 14.7979 41.0139C14.4151 40.6241 13.7771 40.6674 13.4794 41.1871C13.3093 41.447 13.3093 41.7935 13.4794 42.0533C13.607 42.2699 13.8197 42.4431 14.0749 42.4431C14.3301 42.4864 14.5853 42.573 14.7554 42.7896L14.883 42.9195C14.4577 43.4825 14.1599 44.1322 14.0323 44.8252C13.9898 44.9984 13.8622 45.085 13.6921 45.085C13.4794 45.085 13.2242 44.9984 13.0541 44.8252C12.9265 44.6952 12.7564 44.6519 12.5437 44.6519C11.9908 44.6519 11.608 45.1716 11.7356 45.7347C11.8206 46.0378 12.0333 46.2977 12.331 46.341C12.6288 46.4276 12.884 46.341 13.0541 46.1678C13.2242 46.0378 13.4369 45.9512 13.6495 45.9512H13.7771C13.9047 45.9512 13.9898 46.0378 14.0323 46.1678C14.1599 46.904 14.4577 47.597 14.883 48.16L14.6703 48.3766C14.5002 48.5498 14.2875 48.6364 14.0749 48.6797C13.9047 48.723 13.7346 48.7664 13.607 48.9396C13.2242 49.3294 13.2667 49.979 13.7771 50.2822C14.0323 50.4554 14.3726 50.4554 14.6278 50.2822C14.8404 50.1523 15.0106 49.9357 15.0106 49.6759C15.0531 49.416 15.1382 49.1561 15.3508 48.9829L15.521 48.8097C16.1164 49.3294 16.8395 49.6326 17.6476 49.7625V50.0657C17.6476 50.2822 17.5625 50.5421 17.3924 50.7153C17.2648 50.8452 17.2223 51.0185 17.2223 51.235C17.2223 51.7981 17.7327 52.1878 18.2856 52.0579C18.5833 51.9713 18.8385 51.7547 18.881 51.4516C18.9661 51.1484 18.881 50.8885 18.7109 50.7153C18.5408 50.4988 18.4983 50.2389 18.4983 49.979V49.8058C19.3064 49.7192 20.072 49.416 20.7099 48.9396L20.8801 49.1128C21.0502 49.2861 21.1353 49.5026 21.1778 49.7192C21.2203 49.8924 21.2629 50.0657 21.433 50.1956C21.8158 50.5854 22.4538 50.5421 22.7515 50.0223C22.9216 49.7625 22.9216 49.416 22.7515 49.1561C22.6239 48.9396 22.4112 48.7664 22.156 48.7664C21.9009 48.723 21.6457 48.6364 21.4755 48.4199L21.3479 48.2899C21.8583 47.6836 22.1986 46.904 22.2836 46.0378H22.5388C22.7515 46.0378 23.0067 46.1244 23.1768 46.2977C23.3044 46.4276 23.4746 46.4709 23.6872 46.4709C24.2401 46.4709 24.6229 45.9512 24.4953 45.3882C24.4103 45.085 24.1976 44.8252 23.8999 44.7818C23.6022 44.6952 23.347 44.7818 23.1768 44.9551C22.9642 45.1283 22.709 45.1716 22.4538 45.1716H22.3262C22.2411 44.3054 21.9434 43.5259 21.433 42.8762L21.5606 42.7463C21.7307 42.573 21.9434 42.4864 22.156 42.4431C22.3262 42.3998 22.4963 42.3565 22.6239 42.1832C23.0067 41.7935 22.9642 41.1438 22.4538 40.8406C22.1986 40.6674 21.8583 40.6674 21.6031 40.8406C21.3905 40.9706 21.2203 41.1871 21.2203 41.447C21.1778 41.7068 21.0927 41.9667 20.8801 42.1399L20.8375 42.2699C20.1996 41.7501 19.434 41.4037 18.6258 41.317V41.1005C18.6258 40.8839 18.7109 40.6241 18.881 40.4508C19.0086 40.3209 19.0512 40.1477 19.0512 39.9311C19.0086 39.4114 18.4983 38.9783 17.9453 39.1082Z" fill="#020203"/>
<path d="M32.3633 32.7424C32.1507 32.7857 31.9806 32.959 31.938 33.1755C31.8955 33.3921 31.938 33.5653 32.0656 33.7386C32.1932 33.8685 32.2358 34.085 32.2358 34.2583V34.3449C31.6403 34.4315 31.0874 34.6481 30.662 35.0378L30.5344 34.9079C30.4069 34.778 30.3643 34.6047 30.3218 34.4315C30.3218 34.3016 30.2367 34.1716 30.1517 34.085C29.8965 33.8252 29.3861 33.8252 29.1734 34.215C29.0458 34.3882 29.0458 34.6481 29.1734 34.8646C29.2585 35.0378 29.4286 35.1245 29.5987 35.1678C29.7689 35.2111 29.9815 35.2544 30.1091 35.4276L30.1942 35.5143C29.8965 35.904 29.6413 36.3805 29.5562 36.9002C29.5562 37.0301 29.4286 37.1167 29.301 37.1167C29.1309 37.1167 28.9607 37.0301 28.8331 36.9435C28.7481 36.8569 28.6205 36.8136 28.4929 36.8136C28.1101 36.8136 27.8124 37.16 27.8974 37.5931C27.94 37.8097 28.1101 37.9829 28.3228 38.0262C28.5354 38.0695 28.7055 38.0262 28.8757 37.8963C29.0033 37.8097 29.1309 37.7231 29.301 37.7231H29.3861C29.4711 37.7231 29.5562 37.8097 29.5562 37.8963C29.6413 38.416 29.8539 38.9357 30.1942 39.3255L30.0241 39.4988C29.8965 39.6287 29.7263 39.672 29.5562 39.7153C29.4286 39.7153 29.301 39.8019 29.2159 39.8886C28.9607 40.1484 28.9607 40.6681 29.3435 40.8847C29.5137 41.0146 29.7689 41.0146 29.9815 40.8847C30.1517 40.7981 30.2367 40.6248 30.2793 40.4516C30.3218 40.2783 30.3643 40.0618 30.5344 39.9319L30.662 39.8019C31.0874 40.1484 31.6403 40.4083 32.2358 40.4949V40.7114C32.2358 40.8847 32.1507 41.0579 32.0656 41.1879C31.9806 41.2745 31.938 41.4044 31.938 41.5776C31.938 41.9674 32.2783 42.2706 32.7036 42.184C32.9163 42.1407 33.0864 41.9674 33.1289 41.7509C33.1715 41.5343 33.1289 41.3611 33.0013 41.1879C32.8737 41.0579 32.8312 40.8414 32.8312 40.6681V40.5382C33.4267 40.4949 33.9796 40.2783 34.4049 39.8886L34.5325 40.0185C34.6601 40.1484 34.7026 40.3217 34.7452 40.4949C34.7452 40.6248 34.8302 40.7548 34.9153 40.8414C35.1705 41.1012 35.6809 41.1012 35.8935 40.7114C36.0211 40.5382 36.0211 40.2783 35.8935 40.0618C35.8085 39.8886 35.6384 39.8019 35.4682 39.7586C35.2981 39.7153 35.0854 39.672 34.9578 39.4988L34.8728 39.4121C35.2556 38.9791 35.5108 38.416 35.5533 37.8097H35.7234C35.8935 37.8097 36.0637 37.8963 36.1913 37.9829C36.2763 38.0695 36.4039 38.1129 36.5741 38.1129C36.9569 38.1129 37.2546 37.7664 37.1695 37.3333C37.127 37.1167 36.9569 36.9435 36.7442 36.9002C36.5315 36.8569 36.3614 36.9002 36.1913 37.0301C36.0637 37.16 35.851 37.2033 35.6809 37.2033H35.5958C35.5533 36.597 35.2981 35.9907 34.9578 35.5576L35.0429 35.4709C35.1705 35.341 35.3406 35.2977 35.5108 35.2544C35.6384 35.2544 35.766 35.1678 35.851 35.0812C36.1062 34.8213 36.1062 34.3016 35.7234 34.085C35.5533 33.9551 35.2981 33.9551 35.0854 34.085C34.9153 34.1716 34.8302 34.3449 34.7877 34.5181C34.7452 34.6914 34.7026 34.9079 34.5325 35.0378H34.4474C33.9796 34.6481 33.4267 34.4315 32.8312 34.3449V34.215C32.8312 34.0417 32.9163 33.8685 33.0013 33.7386C33.0864 33.6519 33.1289 33.522 33.1289 33.3488C33.1289 32.959 32.7887 32.6558 32.3633 32.7424Z" fill="#020203"/>
<path d="M19.218 22.6517C19.0479 22.695 18.9203 22.8249 18.8778 22.9981C18.8352 23.1714 18.8778 23.3013 18.9628 23.4312C19.0479 23.5612 19.0904 23.6911 19.0904 23.821V23.9076C18.6226 23.951 18.1972 24.1675 17.857 24.4274L17.7719 24.3407C17.6868 24.2541 17.6443 24.1242 17.6018 23.9943C17.6018 23.9076 17.5592 23.7777 17.4742 23.7344C17.2615 23.5179 16.8787 23.5612 16.7511 23.821C16.6661 23.951 16.6661 24.1675 16.7511 24.2974C16.8362 24.4274 16.9638 24.514 17.0914 24.514C17.219 24.5573 17.3891 24.6006 17.4742 24.6872L17.5592 24.7738C17.3041 25.077 17.1339 25.4668 17.0914 25.8566C17.0914 25.9432 17.0063 26.0298 16.9213 26.0298C16.7937 26.0298 16.6661 25.9865 16.581 25.8999C16.4959 25.8566 16.4109 25.8133 16.2833 25.8133C15.9855 25.8133 15.7303 26.1164 15.8154 26.4196C15.8579 26.5929 15.9855 26.7228 16.1557 26.7661C16.3258 26.8094 16.4534 26.7661 16.581 26.6795C16.6661 26.5929 16.7937 26.5495 16.9213 26.5495H17.0063C17.0914 26.5495 17.1339 26.5929 17.1339 26.6795C17.1765 27.1126 17.3466 27.4591 17.6018 27.8055L17.4742 27.9355C17.3891 28.0221 17.2615 28.0654 17.1339 28.1087C17.0489 28.1087 16.9213 28.152 16.8787 28.2386C16.6661 28.4552 16.7086 28.845 16.9638 28.9749C17.0914 29.0615 17.3041 29.0615 17.4317 28.9749C17.5592 28.8883 17.6443 28.7584 17.6443 28.6284C17.6868 28.4985 17.7294 28.3253 17.8144 28.2386L17.8995 28.152C18.2398 28.4552 18.6651 28.6284 19.0904 28.6717V28.845C19.0904 28.9749 19.0479 29.1048 18.9628 29.1915C18.9203 29.2781 18.8778 29.3647 18.8778 29.4946C18.8778 29.7978 19.1755 30.0577 19.4732 29.971C19.6433 29.9277 19.7709 29.7978 19.8135 29.6246C19.856 29.4513 19.8135 29.3214 19.7284 29.1915C19.6433 29.0615 19.6008 28.9316 19.6008 28.8017V28.6717C19.9836 28.5851 20.4089 28.4119 20.7492 28.152L20.8343 28.2386C20.9193 28.3253 20.9619 28.4552 21.0044 28.5851C21.0044 28.6717 21.0469 28.8017 21.132 28.845C21.3446 29.0615 21.7274 29.0182 21.855 28.7584C21.9401 28.6284 21.9401 28.4119 21.855 28.2819C21.77 28.152 21.6424 28.0654 21.5148 28.0654C21.3872 28.0221 21.2171 27.9788 21.132 27.8922L21.0469 27.8055C21.3446 27.4591 21.5148 27.026 21.5998 26.5495H21.7274C21.855 26.5495 21.9826 26.5929 22.0677 26.6795C22.1528 26.7228 22.2378 26.7661 22.3654 26.7661C22.6632 26.7661 22.9184 26.4629 22.8333 26.1598C22.7908 25.9865 22.6632 25.8566 22.493 25.8133C22.3229 25.77 22.1953 25.8133 22.0677 25.8999C21.9401 25.9865 21.8125 26.0298 21.6849 26.0298H21.6424C21.5998 25.5534 21.4297 25.1203 21.132 24.7738L21.2171 24.6872C21.3021 24.6006 21.4297 24.5573 21.5573 24.514C21.6424 24.514 21.77 24.4707 21.8125 24.3841C22.0252 24.1675 21.9826 23.7777 21.7274 23.6478C21.5998 23.5612 21.3872 23.5612 21.2596 23.6478C21.132 23.7344 21.0469 23.8643 21.0469 23.9943C21.0044 24.1242 20.9619 24.2974 20.8768 24.3841L20.8343 24.4274C20.494 24.1242 20.0687 23.951 19.6008 23.9076V23.7777C19.6008 23.6478 19.6433 23.5179 19.7284 23.4312C19.7709 23.3446 19.8135 23.258 19.8135 23.1281C19.8135 22.8249 19.5157 22.565 19.218 22.6517Z" fill="#020203"/>
</g>
<defs>
<clipPath id="clip0">
<rect width="702" height="179" fill="white"/>
</clipPath>
</defs>
</svg>
