<svg width="454" height="558" viewBox="0 0 454 558" fill="none" xmlns="http://www.w3.org/2000/svg">
<path d="M86.205 37.4094C87.4163 37.4094 88.3982 36.4292 88.3982 35.2201C88.3982 34.0109 87.4163 33.0307 86.205 33.0307C84.9937 33.0307 84.0117 34.0109 84.0117 35.2201C84.0117 36.4292 84.9937 37.4094 86.205 37.4094Z" fill="#020203"/>
<path d="M86.205 45.9765C87.4163 45.9765 88.3982 44.9963 88.3982 43.7871C88.3982 42.578 87.4163 41.5978 86.205 41.5978C84.9937 41.5978 84.0117 42.578 84.0117 43.7871C84.0117 44.9963 84.9937 45.9765 86.205 45.9765Z" fill="#020203"/>
<path d="M86.205 54.6387C87.4163 54.6387 88.3982 53.6585 88.3982 52.4494C88.3982 51.2402 87.4163 50.26 86.205 50.26C84.9937 50.26 84.0117 51.2402 84.0117 52.4494C84.0117 53.6585 84.9937 54.6387 86.205 54.6387Z" fill="#020203"/>
<path d="M120.055 381.709L36.7122 381.424C24.0296 381.424 14.7799 393.608 18.3081 405.792L45.1991 510.215C46.6295 515.641 51.4927 519.448 57.1189 519.448H77.0487C83.3424 519.448 88.6824 514.689 89.2545 508.406L95.7389 442.916C94.7853 437.3 99.0764 432.16 104.798 432.16L178.891 431.017C178.891 431.017 207.594 432.636 218.369 404.84" stroke="#020203" stroke-miterlimit="10"/>
<path d="M122.823 313.458C120.915 349.916 119.676 381.805 119.676 381.805L149.904 381.9C154.577 381.805 159.249 383.137 163.159 385.517L190.05 401.985C192.625 403.603 195.581 404.364 198.632 404.364L224.76 404.079C228.289 404.079 230.959 400.652 230.1 397.225L213.508 330.021" stroke="#020203" stroke-miterlimit="10"/>
<path d="M124.061 287.662C123.203 197.137 160.87 188.094 183.565 211.892C208.644 238.164 216.273 276.906 214.556 277.001C214.556 277.001 169.547 285.092 169.166 282.046L163.349 255.012" stroke="#020203" stroke-miterlimit="10"/>
<path d="M267.884 149.091C275.834 138.026 273.293 122.624 262.209 114.688C251.125 106.753 235.695 109.29 227.745 120.354C219.796 131.418 222.337 146.821 233.421 154.756C244.505 162.692 259.935 160.155 267.884 149.091Z" fill="#020203"/>
<path d="M276.254 192.378L276.826 225.408C276.922 230.073 273.107 233.975 268.435 233.975H261.092C250.031 233.975 238.206 235.023 234.201 245.303C221.9 276.62 259.09 324.025 273.489 343.062C277.112 347.822 283.787 349.059 288.841 345.918C303.908 336.685 336.807 308.509 350.538 296.61C354.066 293.564 354.734 288.233 352.064 284.426L347.677 278.143C344.721 273.955 338.904 272.908 334.709 275.954C324.982 282.998 307.818 295.373 294.563 303.844C291.893 305.558 288.365 304.891 286.553 302.321L284.074 298.799" stroke="#020203" stroke-miterlimit="10" stroke-linecap="round"/>
<path d="M308.294 147.639C308.294 147.639 313.062 159.632 313.444 169.818C313.444 170.198 313.634 170.579 313.825 170.96L318.212 176.671C318.688 177.242 318.402 178.099 317.639 178.385L314.874 179.241C314.111 179.527 313.539 180.288 313.73 181.145C314.397 185.143 312.681 198.66 304.003 202.658C302.859 203.134 302.191 204.276 302.191 205.514V225.313C302.191 230.358 306.292 234.356 311.346 234.356H314.969C322.789 234.356 329.082 240.639 329.082 248.444L322.121 285.187" stroke="#020203" stroke-miterlimit="10"/>
<path d="M310.677 173.34C310.677 174.672 309.533 175.815 308.198 175.815C306.863 175.815 305.719 174.672 305.719 173.34C305.719 172.007 306.863 170.865 308.198 170.865C309.533 170.865 310.677 172.007 310.677 173.34Z" fill="#020203"/>
<path d="M275.969 196.091L275.874 195.804C273.967 196.186 276.065 195.995 275.969 196.091Z" fill="#020203"/>
<path d="M309.821 149.257C306.96 137.739 296.375 129.553 284.551 130.219C269.579 130.981 258.995 144.497 261.379 158.871C261.569 159.918 261.76 160.87 262.046 161.917L275.778 195.805C276.254 195.709 280.355 194.853 280.927 180.574C281.022 178.29 282.262 176.291 284.36 175.339C287.221 174.101 289.223 175.91 290.463 178.004C291.607 179.908 303.05 179.908 304.48 178.29C310.202 172.102 312.681 160.87 309.821 149.257Z" fill="#020203"/>
<path d="M212.267 278.239L217.321 313.363C219.609 327.737 209.597 341.063 188.904 336.97C188.904 336.97 94.9764 303.654 86.1081 300.322C47.9649 286.33 51.5885 271.861 51.5885 271.861" stroke="#020203" stroke-miterlimit="10"/>
<path d="M42.9126 261.295C42.9126 261.295 39.289 266.53 42.8172 268.244L77.5276 289.09C80.6744 290.994 82.6769 288.9 84.5841 285.378L42.9126 261.295Z" fill="#020203"/>
<path d="M75.332 279.857C78.0974 276.144 84.3911 277.763 84.3911 277.763L169.832 300.418C172.693 301.179 175.267 298.704 174.6 295.848L171.644 282.808" stroke="#020203" stroke-miterlimit="10"/>
<path d="M81.6261 532.013L67.1317 532.87V531.918C67.1317 528.206 64.0802 525.16 60.3612 525.16H50.9208C47.2018 525.16 44.1504 528.206 44.1504 531.918C44.1504 534.203 42.4339 536.106 40.1453 536.297L17.3547 537.534C8.00963 538.391 0.953125 544.959 0.953125 552.86V557.048H90.5898L90.113 539.533C89.9222 534.964 86.1079 531.633 81.6261 532.013Z" stroke="#020203" stroke-miterlimit="10"/>
<path d="M1.04688 550.29H90.5881" stroke="#020203" stroke-miterlimit="10"/>
<path d="M164.683 200.85L131.594 156.111" stroke="#020203" stroke-miterlimit="10"/>
<path d="M135.025 219.411L108.516 181.336" stroke="#020203" stroke-miterlimit="10"/>
<path d="M95.2611 169.628C95.6425 171.055 94.7843 172.578 93.3539 172.959C91.9236 173.34 90.3978 172.483 90.0164 171.055C89.635 169.628 90.4932 168.105 91.9236 167.724C93.4493 167.343 94.8797 168.2 95.2611 169.628Z" fill="#020203"/>
<path d="M138.078 162.964C138.078 162.964 130.735 116.893 99.8393 129.077C76.4766 138.31 79.242 156.967 79.242 156.967C95.8343 140.88 104.798 154.968 104.798 154.968L113.762 173.34C114.429 174.768 113.952 176.481 112.617 177.338L96.9786 187.523L101.365 191.711C102.605 192.758 103.177 194.377 102.986 195.995C102.509 199.136 102.795 204.562 108.898 208.369C117.862 213.89 146.088 205.038 131.117 181.526C114.811 159.823 114.811 159.823 114.811 159.823C114.811 159.823 109.661 154.016 115.383 149.828C121.104 145.64 125.491 152.208 126.349 154.683C133.215 169.437 138.078 162.964 138.078 162.964Z" fill="#020203"/>
<path d="M80.1953 155.159C80.1953 155.159 80.386 165.058 87.1565 175.339C87.4425 175.72 87.5379 176.291 87.5379 176.767L86.6797 185.334C86.5843 186.381 87.7286 187.142 88.6822 186.571L91.3522 184.763C92.0197 184.287 92.9733 184.287 93.6408 184.763L99.1716 188.285" stroke="#020203" stroke-miterlimit="10"/>
<path d="M341.001 186.381H313.538C306.291 186.381 300.379 180.479 300.379 173.245V169.056C300.379 161.822 306.291 155.92 313.538 155.92H341.001C346.437 155.92 350.919 160.299 350.919 165.82V176.481C350.919 182.002 346.532 186.381 341.001 186.381Z" stroke="#020203" stroke-miterlimit="10"/>
<path d="M321.93 177.528V164.868C321.93 160.585 325.649 157.062 330.321 157.062H308.77C304.098 157.062 300.379 160.585 300.379 164.868V177.528C300.379 181.812 304.098 185.334 308.77 185.334H330.321C325.744 185.334 321.93 181.812 321.93 177.528Z" fill="#020203"/>
<path d="M277.301 219.507H288.553C291.891 219.507 294.656 221.886 294.656 224.742V270.242C294.656 272.908 298.566 273.289 299.042 270.623L305.908 233.499" stroke="#020203" stroke-miterlimit="10"/>
<path d="M253.367 235.213V246.064" stroke="#020203" stroke-miterlimit="10"/>
<path d="M260.137 233.5V246.064" stroke="#020203" stroke-miterlimit="10"/>
<path d="M266.812 233.5V246.064" stroke="#020203" stroke-miterlimit="10"/>
<path d="M273.296 232.833V241.781C273.296 244.446 270.817 246.636 267.67 246.636H251.173C248.026 246.636 245.547 244.446 245.547 241.781V234.832" stroke="#020203" stroke-miterlimit="10"/>
<path d="M272.057 421.118H98.6958C96.3118 421.118 94.5 423.021 94.5 425.306V469.188C94.5 471.568 96.4072 473.377 98.6958 473.377C100.889 473.377 102.701 475.185 102.701 477.375V550.861C102.701 554.668 105.18 557.714 108.232 557.714H111.378C114.144 557.714 116.528 555.239 116.909 551.813L123.489 477.089C123.68 474.995 125.491 473.472 127.589 473.472H249.171C251.269 473.472 253.081 475.09 253.271 477.089L259.851 551.813C260.232 555.144 262.616 557.714 265.382 557.714H268.529C271.58 557.714 274.059 554.668 274.059 550.861V477.851C274.059 475.376 275.776 473.186 278.16 472.615C289.698 469.855 298.28 459.574 298.28 447.2C298.28 432.826 286.551 421.118 272.057 421.118Z" fill="#020203"/>
<path d="M311.154 329.355L305.242 360.387" stroke="#020203" stroke-miterlimit="10"/>
<path d="M305.433 362.195C434.643 362.195 423.391 456.909 419.481 494.509C418.813 500.696 413.664 505.36 407.466 505.265L391.732 504.979C385.533 504.884 380.384 500.03 380.098 493.747C373.041 361.434 234.582 471.568 235.726 387.706C235.821 381.043 236.203 372.476 236.775 363.147" stroke="#020203" stroke-miterlimit="10"/>
<path d="M237.25 354.58C239.157 325.262 241.541 297.181 241.541 294.516" stroke="#020203" stroke-miterlimit="10"/>
<path d="M368.083 445.867C368.083 445.867 335.089 504.408 318.878 504.408L294.848 504.218C291.892 504.218 290.08 501.172 291.51 498.697L331.751 424.069" stroke="#020203" stroke-miterlimit="10"/>
<path d="M305.051 363.243H235.439C234.486 363.243 233.723 362.481 233.723 361.529V355.723C233.723 354.771 234.486 354.009 235.439 354.009L305.051 359.721C306.004 359.721 306.767 360.482 306.767 361.434V361.529C306.767 362.481 306.004 363.243 305.051 363.243Z" stroke="#020203" stroke-miterlimit="10"/>
<path d="M366.936 257.202C365.791 257.297 364.743 256.44 364.647 255.298L362.549 237.117C362.263 233.975 359.403 231.786 356.351 232.167C354.635 232.357 353.109 233.404 352.251 234.832L344.622 247.683C343.573 249.491 343.096 251.585 343.192 253.584L344.145 266.721C344.431 271.29 348.532 274.621 353.014 274.05L358.449 273.384C364.743 272.527 368.366 266.149 370.273 261.485C371.132 259.391 369.32 257.011 366.936 257.202Z" stroke="#020203" stroke-miterlimit="10"/>
<path d="M341.668 158.776H330.511C326.792 158.776 323.836 161.727 323.836 165.439V177.052C323.836 180.765 326.792 183.715 330.511 183.715H341.668C345.387 183.715 348.343 180.765 348.343 177.052V165.439C348.248 161.727 345.291 158.776 341.668 158.776ZM344.624 164.487L329.176 179.527C328.985 179.718 328.795 179.813 328.604 179.813C328.413 179.813 328.127 179.718 327.936 179.527C327.555 179.146 327.65 178.67 327.936 178.29L334.802 171.626L337.854 168.676L343.384 163.25C343.766 162.869 344.243 162.964 344.624 163.25C345.005 163.631 345.005 164.202 344.624 164.487Z" fill="#020203"/>
<path d="M382.867 552.669C382.771 555.049 384.679 556.953 387.062 556.953H448.664C450.952 556.953 452.86 555.049 452.86 552.765C452.86 545.435 448.95 538.486 436.935 537.534C435.028 537.344 433.406 536.392 432.262 534.964L417.386 515.451C415.479 513.547 412.905 512.404 410.234 512.404L387.825 511.929C385.155 511.833 382.867 514.023 382.867 516.688V552.669Z" stroke="#020203" stroke-miterlimit="10"/>
<path d="M382.77 547.434H452.858" stroke="#020203" stroke-miterlimit="10"/>
<path d="M451.617 547.339C449.9 542.294 445.514 538.296 436.55 537.534C434.643 537.344 433.022 536.392 431.878 534.964L417.002 515.451C415.095 513.547 412.52 512.404 409.85 512.404L387.441 511.929C384.771 511.833 382.482 514.023 382.482 516.688L382.387 547.339H451.617Z" fill="#020203"/>
<path d="M289.984 552.669C289.889 555.049 291.796 556.953 294.18 556.953H355.781C358.07 556.953 359.977 555.049 359.977 552.765C359.977 545.435 356.067 538.486 344.052 537.534C342.145 537.344 340.524 536.392 339.379 534.964L324.504 515.451C322.596 513.547 320.022 512.404 317.352 512.404L294.943 511.929C292.272 511.833 289.984 514.023 289.984 516.688V552.669Z" stroke="#020203" stroke-miterlimit="10"/>
<path d="M289.793 547.434H359.977" stroke="#020203" stroke-miterlimit="10"/>
<path d="M358.738 547.339C357.021 542.294 352.635 538.296 343.671 537.534C341.764 537.344 340.143 536.392 338.999 534.964L324.123 515.451C322.216 513.547 319.641 512.404 316.971 512.404L294.562 511.929C291.892 511.833 289.603 514.023 289.603 516.688L289.508 547.339H358.738Z" fill="#020203"/>
<path d="M101.27 93.8567C101.842 93.8567 102.414 94.9038 102.986 94.9038C103.558 94.9038 104.13 94.0471 104.702 94.0471C105.275 94.0471 105.847 93.9519 106.419 93.9519C106.991 93.9519 107.563 93.7615 108.04 93.7615C108.612 93.7615 109.184 93.8567 109.756 93.8567C110.329 93.8567 110.901 94.523 111.473 94.523C112.045 94.523 112.617 94.7134 113.189 94.7134C113.761 94.7134 114.334 94.7134 114.906 94.7134C115.478 94.7134 116.05 94.3326 116.527 94.3326C117.099 94.3326 117.671 94.2374 118.243 94.2374C118.815 94.2374 119.292 92.9048 119.864 92.9048C120.437 92.9048 121.009 92.8096 121.485 92.8096C122.058 92.8096 122.63 94.1423 123.202 94.0471C123.774 94.0471 124.251 92.6192 124.823 92.6192C125.395 92.6192 126.063 93.9519 126.539 93.9519C127.112 93.9519 127.588 93 128.161 93C128.733 93 129.305 92.9048 129.782 92.8096C130.354 92.8096 130.926 93.8567 131.498 93.7615C132.07 93.7615 132.452 91.9529 133.024 91.9529C133.596 91.9529 134.263 93.1904 134.836 93.1904C135.408 93.1904 135.885 92.524 136.457 92.4288C137.029 92.4288 137.601 92.8096 138.173 92.8096C138.745 92.7144 139.127 91.4769 139.699 91.4769C140.271 91.3818 140.843 92.2385 141.415 92.1433C141.987 92.0481 142.56 92.8096 143.132 92.7144C143.704 92.6192 144.276 92.524 144.753 92.524C145.325 92.4288 145.802 92.0481 146.374 92.0481C146.946 91.9529 147.518 92.4288 148.09 92.4288C148.663 92.3337 149.139 92.1433 149.711 92.1433C150.284 92.0481 150.76 91.1914 151.237 91.1914C151.809 91.0962 152.381 91.3818 152.954 91.2866C153.526 91.1914 153.907 90.1443 154.479 90.0491C155.052 89.9539 155.814 91.3818 156.291 91.2866C156.863 91.1914 157.34 90.7154 157.912 90.6202C158.484 90.5251 158.961 90.2395 159.533 90.1443C160.105 90.0491 160.582 89.8587 161.154 89.7635C161.727 89.6684 162.299 89.7635 162.871 89.6684C163.443 89.5732 163.92 89.002 164.492 88.9068C165.064 88.8117 165.636 88.8116 166.113 88.7165C166.685 88.6213 167.353 89.5732 167.925 89.478C168.497 89.3828 169.069 89.5732 169.641 89.478C170.213 89.3828 170.69 88.7165 171.167 88.6213C171.739 88.5261 172.121 87.6694 172.693 87.5742C173.265 87.479 173.742 87.2886 174.314 87.1934C174.886 87.0982 175.458 87.0031 175.935 86.9079C176.507 86.8127 177.27 88.1453 177.842 88.0501C178.414 87.9549 178.891 87.7646 179.463 87.6694C180.035 87.5742 180.321 85.956 180.798 85.8608C181.37 85.7656 182.133 87.0031 182.705 86.9079C183.278 86.8127 183.754 86.6223 184.326 86.5271C184.899 86.4319 185.185 85.0993 185.757 84.9089C186.329 84.8137 186.996 85.1945 187.473 85.0993C188.045 85.0041 188.522 84.7185 189.094 84.6233C189.667 84.5281 190.143 84.0522 190.62 83.957C191.192 83.8618 191.86 84.6233 192.432 84.4329C193.004 84.3377 193.672 84.8137 194.244 84.7185C194.816 84.6233 195.102 83.2907 195.579 83.1003C196.151 83.0051 196.723 83.2907 197.295 83.1955C197.867 83.1003 198.249 82.5292 198.821 82.434C199.393 82.3388 200.156 83.1955 200.633 83.1003C201.205 83.0051 201.682 82.5292 202.158 82.434C202.731 82.3388 203.017 81.1965 203.589 81.1013C204.161 81.0061 205.019 82.2436 205.591 82.0532C206.163 81.958 206.45 80.9109 207.022 80.7206C207.594 80.6254 208.071 80.2446 208.547 80.0542C209.12 79.959 209.692 80.2446 210.264 80.0542C210.836 79.959 211.313 79.7687 211.885 79.6735C212.457 79.5783 212.839 78.8168 213.315 78.7216C213.887 78.6264 214.65 79.1975 215.127 79.1023C215.699 79.0071 215.89 77.7697 216.462 77.5793C217.034 77.3889 217.797 78.1504 218.274 78.0553C218.846 77.8649 219.228 77.4841 219.8 77.2937C220.372 77.1034 220.753 76.6274 221.325 76.437C221.898 76.2467 222.565 76.8178 223.137 76.6274C223.709 76.437 224.472 77.1985 224.949 77.0082C225.521 76.8178 225.521 75.1044 226.093 74.914C226.665 74.7236 227.619 76.1515 228.191 75.9611C228.763 75.7707 229.049 74.914 229.526 74.7236C230.098 74.5332 230.48 74.1525 231.052 73.9621C231.624 73.7717 232.292 74.1525 232.768 73.9621C233.341 73.7717 233.722 73.2958 234.294 73.1054C234.866 72.915 235.629 73.6765 236.201 73.5814C236.773 73.391 236.964 72.3439 237.536 72.1535C238.108 71.9631 238.681 71.9631 239.157 71.8679C239.73 71.6776 239.92 70.6305 240.397 70.4401C240.969 70.2497 242.018 71.7728 242.495 71.5824C243.067 71.392 243.067 69.6786 243.544 69.5834C244.116 69.393 244.879 70.0593 245.356 69.869C245.928 69.6786 246.5 69.7738 247.072 69.6786C247.644 69.4882 248.026 68.9171 248.502 68.7267C249.075 68.5363 249.551 68.2507 250.028 68.0604C250.6 67.87 251.077 67.5844 251.554 67.4892C252.126 67.2989 252.984 68.1556 253.461 67.9652C254.033 67.7748 254.224 66.9181 254.796 66.7277C255.368 66.5373 255.94 66.4421 256.417 66.347C256.989 66.1566 257.561 66.1566 258.038 65.9662C258.515 65.7758 258.706 64.5384 259.183 64.348C259.755 64.1576 260.232 63.872 260.708 63.6817C261.28 63.4913 262.329 64.8239 262.806 64.6336C263.283 64.4432 263.664 63.6817 264.141 63.4913C264.618 63.3009 265.381 63.6817 265.953 63.4913C266.43 63.3009 266.716 62.4442 267.288 62.2538C267.765 62.0634 268.432 62.1586 269.004 61.9683C269.481 61.7779 269.767 61.0164 270.339 60.7308C270.816 60.5404 271.102 59.6837 271.674 59.4933C272.151 59.3029 273.2 60.35 273.677 60.0645C274.154 59.8741 274.821 59.9693 275.393 59.7789C275.87 59.5885 276.347 59.1126 276.824 58.9222C277.301 58.7318 277.968 58.7318 278.445 58.5414C278.922 58.3511 278.826 56.6376 279.398 56.4473C279.875 56.2569 280.543 56.1617 281.02 55.9713C281.496 55.7809 281.973 55.305 282.45 55.1146C282.927 54.9242 283.69 55.2098 284.166 54.9242C284.643 54.7339 284.929 53.782 285.406 53.5916C285.883 53.4012 286.55 53.4964 287.123 53.306C287.599 53.1156 288.553 53.6868 289.03 53.4012C289.506 53.2108 290.079 52.9253 290.555 52.7349C291.032 52.5445 291.7 52.6397 292.272 52.3541C292.749 52.1637 292.653 50.6407 293.225 50.3552C293.702 50.0696 294.56 50.5455 295.037 50.3552C295.514 50.0696 296.372 50.4503 296.849 50.26C297.326 49.9744 297.421 48.9273 297.898 48.6417C298.375 48.3562 299.328 48.9273 299.805 48.7369C300.282 48.4514 300.568 47.785 301.045 47.5947C301.522 47.3091 301.808 46.5476 302.284 46.262C302.761 45.9764 302.952 45.2149 303.429 44.9294C303.906 44.6438 304.382 44.3582 304.859 44.0727C305.336 43.7871 306.003 43.8823 306.48 43.6919C306.957 43.4063 307.625 43.5015 308.101 43.216C308.578 42.9304 308.769 42.1689 309.246 41.8833C309.722 41.5977 310.39 41.5977 310.867 41.3122C311.343 41.0266 311.725 40.6458 312.202 40.3603C312.678 40.0747 313.06 39.6939 313.537 39.4084C314.013 39.1228 314.776 39.218 315.253 38.9324C315.73 38.6469 316.111 38.2661 316.588 37.9805C317.065 37.695 318.019 38.1709 318.495 37.8853C318.972 37.5998 319.258 36.9335 319.64 36.6479C320.116 36.3623 320.593 35.9816 320.975 35.696C321.451 35.4104 321.737 34.8393 322.214 34.5537C322.691 34.173 323.263 34.0778 323.74 33.7922C324.217 33.4114 324.598 33.0307 324.98 32.6499C325.456 32.2692 325.266 31.3173 325.647 30.9365" stroke="#020203" stroke-miterlimit="10" stroke-linecap="round"/>
<path d="M330.129 104.137H102.509C98.218 104.137 94.7852 100.52 94.7852 96.0461V33.8874" stroke="#020203" stroke-miterlimit="10" stroke-linecap="round"/>
<path d="M341.477 136.977H204.066C199.393 136.977 195.197 140.119 193.958 144.688L188.618 164.202C187.283 168.961 181.18 170.199 178.128 166.391L158.103 141.547C155.815 138.691 152.382 137.073 148.663 137.073H86.0124C78.0976 137.073 71.6133 130.695 71.6133 122.699V15.4207C71.6133 7.51993 78.0023 1.04706 86.0124 1.04706H341.477C349.391 1.04706 355.876 7.42475 355.876 15.4207V122.604C355.876 130.505 349.391 136.977 341.477 136.977Z" stroke="#020203" stroke-miterlimit="10"/>
<path d="M93.7168 17.1524C94.2448 18.4484 95.4128 19.1844 97.1568 19.1844C98.9808 19.1844 100.357 18.1604 100.357 16.7364C100.357 15.3924 99.5888 14.6564 97.6528 14.3524C96.3728 14.1604 95.9728 13.9684 95.9728 13.5204C95.9728 13.1364 96.4208 12.8644 97.0448 12.8644C97.6688 12.8644 98.1328 13.1524 98.3248 13.7284L99.8768 12.8804C99.4128 11.8724 98.5808 11.2804 96.9968 11.2804C95.4608 11.2804 94.1008 12.1924 94.1008 13.5044C94.1008 14.7844 95.0448 15.5204 96.6928 15.7764C98.0528 15.9684 98.4528 16.2404 98.4528 16.7684C98.4528 17.2004 98.0048 17.5044 97.2208 17.5044C96.3088 17.5044 95.6688 17.1044 95.3168 16.3044L93.7168 17.1524ZM102.547 16.4644C102.547 18.1284 103.555 19.1844 105.395 19.1844C106.995 19.1844 108.019 18.2564 108.227 16.6724L106.339 16.3204C106.275 17.0244 105.971 17.3764 105.443 17.3764C104.931 17.3764 104.579 17.0404 104.579 16.4644V13.1204H107.427V11.4404H104.579V8.94435H102.547V11.4404H100.979V13.1204H102.547V16.4644ZM109.254 16.8324C109.254 18.2884 110.438 19.1844 111.75 19.1844C112.982 19.1844 113.766 18.7364 114.262 17.8564V19.0244H116.134V14.3524C116.134 12.3684 114.95 11.2804 112.646 11.2804C110.806 11.2804 109.606 12.1924 109.206 13.6644L110.982 14.1444C111.158 13.3764 111.718 12.8804 112.63 12.8804C113.574 12.8804 114.182 13.3924 114.182 14.2404V14.7204L113.51 14.5604C113.094 14.4484 112.662 14.4004 112.214 14.4004C110.422 14.4004 109.254 15.2164 109.254 16.8324ZM114.182 16.2244C114.182 17.1044 113.51 17.6164 112.566 17.6164C111.75 17.6164 111.334 17.2644 111.334 16.7044C111.334 16.1124 111.782 15.7924 112.534 15.7924C112.838 15.7924 113.238 15.8724 113.718 16.0164L114.182 16.1604V16.2244ZM122.963 11.4404L120.883 15.7604L118.931 11.4404H116.787L119.827 17.9524L117.795 22.1924H119.875L125.043 11.4404H122.963ZM96.3248 35.0244V31.0884C96.3248 29.7924 97.0608 28.9764 98.0368 28.9764C99.0128 28.9764 99.5888 29.6004 99.5888 30.6404V35.0244H101.621V30.1604C101.621 28.4324 100.565 27.2804 98.8368 27.2804C97.7328 27.2804 96.7888 27.8244 96.3248 28.8004V23.8244H94.2768V35.0244H96.3248ZM103.142 31.2324C103.142 33.4884 104.822 35.1844 107.11 35.1844C109.398 35.1844 111.078 33.4884 111.078 31.2324C111.078 28.9604 109.414 27.2804 107.11 27.2804C104.806 27.2804 103.142 28.9604 103.142 31.2324ZM109.078 31.2324C109.078 32.4964 108.246 33.3444 107.11 33.3444C105.974 33.3444 105.142 32.4964 105.142 31.2324C105.142 29.9684 105.974 29.1204 107.11 29.1204C108.246 29.1204 109.078 29.9684 109.078 31.2324ZM112.605 27.4404V35.0244H114.653V30.4484C114.653 29.5364 115.117 29.0244 115.773 29.0244C116.429 29.0244 116.893 29.4724 116.893 30.2884V35.0244H118.925V30.3684C118.925 29.4884 119.357 28.9764 120.045 28.9764C120.701 28.9764 121.165 29.4564 121.165 30.2884V35.0244H123.213V29.9044C123.213 28.2404 122.237 27.2804 120.685 27.2804C119.725 27.2804 118.941 27.7444 118.493 28.7044C118.173 27.7604 117.437 27.2804 116.525 27.2804C115.661 27.2804 115.037 27.6484 114.653 28.3684V27.4404H112.605ZM130.543 32.1284C130.303 32.9924 129.711 33.4244 128.783 33.4244C127.695 33.4244 126.799 32.7684 126.783 31.6164H131.935C131.999 31.3284 132.031 31.0244 132.031 30.6884C132.031 28.6084 130.607 27.2804 128.511 27.2804C126.271 27.2804 124.735 29.0244 124.735 31.1844C124.735 33.5844 126.399 35.1844 128.751 35.1844C130.527 35.1844 131.759 34.2884 132.287 32.8164L130.543 32.1284ZM126.783 30.2564C126.975 29.4244 127.679 28.9284 128.511 28.9284C129.423 28.9284 130.047 29.4244 130.047 30.1924L130.031 30.2564H126.783Z" fill="#020203"/>
<path d="M48.6338 226.455C47.9663 226.646 47.3941 227.122 47.2987 227.788C47.108 228.454 47.2988 229.025 47.6802 229.406C48.0616 229.882 48.157 230.453 48.157 231.024V231.31C46.3452 231.5 44.6287 232.262 43.1984 233.404L42.8169 233.023C42.4355 232.643 42.2448 232.167 42.1494 231.691C42.0541 231.31 41.9587 230.929 41.5773 230.644C40.719 229.787 39.2887 229.882 38.6212 231.024C38.2397 231.596 38.2397 232.357 38.6212 232.928C38.9072 233.404 39.384 233.785 39.9562 233.785C40.5283 233.88 41.1005 234.071 41.4819 234.546L41.768 234.832C40.8144 236.069 40.1469 237.497 39.8608 239.02C39.7655 239.401 39.4794 239.592 39.098 239.592C38.6212 239.592 38.049 239.401 37.6676 239.02C37.3815 238.735 37.0001 238.64 36.5233 238.64C35.2836 238.64 34.4254 239.782 34.7115 241.019C34.9022 241.686 35.379 242.257 36.0465 242.352C36.714 242.542 37.2861 242.352 37.6676 241.971C38.049 241.686 38.5258 241.495 39.0026 241.495H39.2887C39.5747 241.495 39.7655 241.686 39.8608 241.971C40.1469 243.589 40.8144 245.112 41.768 246.35L41.2912 246.826C40.9098 247.207 40.433 247.397 39.9562 247.492C39.5747 247.587 39.1933 247.683 38.9072 248.063C38.049 248.92 38.1444 250.348 39.2887 251.014C39.8608 251.395 40.6237 251.395 41.1958 251.014C41.6726 250.729 42.0541 250.253 42.0541 249.682C42.1494 249.11 42.3401 248.539 42.8169 248.159L43.1984 247.778C44.5334 248.92 46.1545 249.586 47.9663 249.872V250.538C47.9663 251.014 47.7755 251.585 47.3941 251.966C47.108 252.252 47.0127 252.632 47.0127 253.108C47.0127 254.346 48.157 255.203 49.3966 254.917C50.0641 254.727 50.6363 254.251 50.7316 253.584C50.9224 252.918 50.7316 252.347 50.3502 251.966C49.9688 251.49 49.8734 250.919 49.8734 250.348V249.967C51.6852 249.777 53.4017 249.11 54.832 248.063L55.2135 248.444C55.5949 248.825 55.7856 249.301 55.881 249.777C55.9763 250.158 56.0717 250.538 56.4531 250.824C57.3114 251.681 58.7417 251.585 59.4092 250.443C59.7907 249.872 59.7907 249.11 59.4092 248.539C59.1232 248.063 58.6464 247.683 58.0742 247.683C57.5021 247.587 56.9299 247.397 56.5485 246.921L56.2624 246.54C57.4067 245.208 58.1696 243.494 58.3603 241.59H58.8371C59.3139 241.59 59.886 241.781 60.2675 242.162C60.5535 242.447 60.935 242.542 61.4118 242.542C62.6514 242.542 63.5096 241.4 63.2236 240.163C63.0328 239.496 62.556 238.925 61.8885 238.83C61.221 238.64 60.6489 238.83 60.2675 239.211C59.7907 239.592 59.2185 239.687 58.6464 239.687H58.3603C58.1696 237.783 57.5021 236.069 56.3578 234.642L56.6438 234.356C57.0253 233.975 57.5021 233.785 57.9789 233.69C58.3603 233.595 58.7417 233.499 59.0278 233.119C59.886 232.262 59.7907 230.834 58.6464 230.168C58.0742 229.787 57.3114 229.787 56.7392 230.168C56.2624 230.453 55.881 230.929 55.881 231.5C55.7856 232.072 55.5949 232.643 55.1181 233.023L54.9274 233.214C53.497 232.072 51.7806 231.31 49.9688 231.12V230.644C49.9688 230.168 50.1595 229.597 50.5409 229.216C50.827 228.93 50.9224 228.55 50.9224 228.074C51.0177 227.027 49.9688 226.075 48.6338 226.455Z" fill="#020203"/>
<path d="M81.0571 212.463C80.5803 212.558 80.1989 212.938 80.1035 213.414C80.0081 213.89 80.1035 214.271 80.3896 214.652C80.6757 214.937 80.771 215.413 80.771 215.794V215.985C79.436 216.175 78.1963 216.651 77.2428 217.508L76.9567 217.222C76.6706 216.936 76.5753 216.556 76.4799 216.175C76.4799 215.889 76.2892 215.604 76.0985 215.413C75.5263 214.842 74.382 214.842 73.9052 215.699C73.6192 216.08 73.6192 216.651 73.9052 217.127C74.0959 217.508 74.4774 217.698 74.8588 217.793C75.2402 217.888 75.717 217.983 76.0031 218.364L76.2892 218.65C75.6217 219.507 75.0495 220.554 74.8588 221.696C74.8588 221.981 74.5727 222.172 74.2867 222.172C73.9052 222.172 73.5238 221.981 73.2377 221.791C73.047 221.601 72.7609 221.505 72.3795 221.505C71.5213 221.505 70.8538 222.267 71.0445 223.219C71.1398 223.695 71.5213 224.076 71.9981 224.171C72.4749 224.266 72.8563 224.171 73.2377 223.885C73.5238 223.695 73.8099 223.504 74.1913 223.504H74.382C74.5727 223.504 74.7635 223.695 74.7635 223.885C74.9542 225.028 75.431 226.17 76.1938 227.026L75.8124 227.407C75.5263 227.693 75.1449 227.788 74.7635 227.883C74.4774 227.883 74.1913 228.074 74.0006 228.264C73.4284 228.835 73.4284 229.977 74.2867 230.453C74.6681 230.739 75.2402 230.739 75.717 230.453C76.0985 230.263 76.2892 229.882 76.3845 229.501C76.4799 229.121 76.5753 228.645 76.9567 228.359L77.2428 228.074C78.1963 228.835 79.436 229.406 80.771 229.597V230.073C80.771 230.453 80.5803 230.834 80.3896 231.12C80.1989 231.31 80.1035 231.596 80.1035 231.976C80.1035 232.833 80.8664 233.499 81.82 233.309C82.2967 233.214 82.6782 232.833 82.7735 232.357C82.8689 231.881 82.7735 231.5 82.4875 231.12C82.2014 230.834 82.106 230.358 82.106 229.977V229.406C83.441 229.311 84.6807 228.835 85.6343 227.978L85.9204 228.264C86.2064 228.55 86.3018 228.93 86.3971 229.311C86.3971 229.597 86.5879 229.882 86.7786 230.073C87.3507 230.644 88.495 230.644 88.9718 229.787C89.2579 229.406 89.2579 228.835 88.9718 228.359C88.7811 227.978 88.3997 227.788 88.0182 227.693C87.6368 227.598 87.16 227.502 86.8739 227.122L86.6832 226.931C87.5414 225.979 88.1136 224.742 88.2089 223.409H88.5904C88.9718 223.409 89.3532 223.6 89.6393 223.79C89.83 223.98 90.1161 224.076 90.4975 224.076C91.3558 224.076 92.0233 223.314 91.8326 222.362C91.7372 221.886 91.3558 221.506 90.879 221.41C90.4022 221.315 90.0208 221.41 89.6393 221.696C89.3532 221.981 88.8765 222.077 88.495 222.077H88.3043C88.2089 220.744 87.6368 219.411 86.8739 218.459L87.0647 218.269C87.3507 217.983 87.7322 217.888 88.1136 217.793C88.3997 217.793 88.6857 217.603 88.8764 217.412C89.4486 216.841 89.4486 215.699 88.5904 215.223C88.2089 214.937 87.6368 214.937 87.16 215.223C86.7786 215.413 86.5879 215.794 86.4925 216.175C86.3971 216.556 86.3018 217.032 85.9204 217.317L85.7296 217.508C84.6807 216.651 83.441 216.175 82.106 215.985V215.604C82.106 215.223 82.2967 214.842 82.4875 214.557C82.6782 214.366 82.7735 214.081 82.7735 213.7C82.7735 212.938 81.9153 212.177 81.0571 212.463Z" fill="#020203"/>
<path d="M51.494 190.283C51.1125 190.379 50.8265 190.664 50.7311 191.045C50.6357 191.426 50.7311 191.711 50.9218 191.997C51.1125 192.282 51.2079 192.568 51.2079 192.854V193.044C50.1589 193.139 49.2054 193.615 48.4425 194.186L48.2518 193.996C48.0611 193.805 47.9657 193.52 47.8703 193.234C47.8703 193.044 47.775 192.758 47.5843 192.663C47.1075 192.187 46.2493 192.282 45.9632 192.854C45.7725 193.139 45.7725 193.615 45.9632 193.901C46.1539 194.186 46.44 194.377 46.7261 194.377C47.0121 194.472 47.3936 194.567 47.5843 194.757L47.775 194.948C47.2028 195.614 46.8214 196.471 46.7261 197.327C46.7261 197.518 46.5353 197.708 46.3446 197.708C46.0585 197.708 45.7725 197.613 45.5818 197.423C45.391 197.327 45.2003 197.232 44.9142 197.232C44.2467 197.232 43.6746 197.899 43.8653 198.565C43.9607 198.946 44.2467 199.231 44.6282 199.326C45.0096 199.422 45.2957 199.326 45.5818 199.136C45.7725 198.946 46.0585 198.851 46.3446 198.851H46.5353C46.7261 198.851 46.8214 198.946 46.8214 199.136C46.9168 200.088 47.2982 200.849 47.8703 201.611L47.5843 201.897C47.3936 202.087 47.1075 202.182 46.8214 202.277C46.6307 202.277 46.3446 202.373 46.2493 202.563C45.7725 203.039 45.8678 203.896 46.44 204.181C46.7261 204.371 47.2028 204.371 47.4889 204.181C47.775 203.991 47.9657 203.705 47.9657 203.42C48.0611 203.134 48.1564 202.753 48.3471 202.563L48.5379 202.373C49.3007 203.039 50.2543 203.42 51.2079 203.515V203.896C51.2079 204.181 51.1125 204.467 50.9218 204.657C50.8265 204.847 50.7311 205.038 50.7311 205.323C50.7311 205.99 51.3986 206.561 52.0661 206.37C52.4475 206.275 52.7336 205.99 52.829 205.609C52.9243 205.228 52.829 204.943 52.6383 204.657C52.4475 204.371 52.3522 204.086 52.3522 203.8V203.515C53.4011 203.42 54.3547 203.039 55.1176 202.468L55.3083 202.658C55.499 202.848 55.5944 203.134 55.6897 203.42C55.6897 203.61 55.7851 203.896 55.9758 203.991C56.4526 204.467 57.3108 204.371 57.5969 203.8C57.7876 203.515 57.7876 203.039 57.5969 202.753C57.4062 202.468 57.1201 202.277 56.834 202.277C56.5479 202.182 56.1665 202.087 55.9758 201.897L55.7851 201.706C56.4526 200.945 56.834 199.993 57.0247 198.946H57.2154C57.5015 198.946 57.7876 199.041 57.9783 199.231C58.169 199.326 58.3597 199.422 58.6458 199.422C59.3133 199.422 59.8855 198.755 59.6948 198.089C59.5994 197.708 59.3133 197.423 58.9319 197.327C58.5505 197.232 58.2644 197.327 57.9783 197.518C57.6922 197.708 57.4062 197.803 57.1201 197.803H57.0247C56.9294 196.756 56.5479 195.804 55.8804 195.043L56.0711 194.853C56.2619 194.662 56.5479 194.567 56.834 194.472C57.0247 194.472 57.3108 194.377 57.4062 194.186C57.883 193.71 57.7876 192.854 57.2154 192.568C56.9294 192.378 56.4526 192.378 56.1665 192.568C55.8804 192.758 55.6897 193.044 55.6897 193.33C55.5944 193.615 55.499 193.996 55.3083 194.186L55.2129 194.281C54.4501 193.615 53.4965 193.234 52.4475 193.139V192.854C52.4475 192.568 52.5429 192.282 52.7336 192.092C52.829 191.902 52.9243 191.711 52.9243 191.426C52.829 190.664 52.1615 190.093 51.494 190.283Z" fill="#020203"/>
<path d="M362.549 192.759C362.549 195.519 360.261 197.804 357.495 197.804C354.73 197.804 352.441 195.519 352.441 192.759C352.441 189.998 354.73 187.714 357.495 187.714C360.261 187.714 362.549 189.998 362.549 192.759Z" stroke="#020203" stroke-miterlimit="10"/>
<path d="M368.462 187.238C372.201 187.238 375.232 184.212 375.232 180.479C375.232 176.747 372.201 173.721 368.462 173.721C364.723 173.721 361.691 176.747 361.691 180.479C361.691 184.212 364.723 187.238 368.462 187.238Z" fill="#020203"/>
<path d="M360.453 188.57L363.791 185.334" stroke="#020203" stroke-miterlimit="10"/>
<path d="M373.516 192.759C373.516 195.519 375.804 197.804 378.57 197.804C381.335 197.804 383.624 195.519 383.624 192.759C383.624 189.998 381.335 187.714 378.57 187.714C375.709 187.714 373.516 189.998 373.516 192.759Z" stroke="#020203" stroke-miterlimit="10"/>
<path d="M375.612 188.57L372.465 185.524" stroke="#020203" stroke-miterlimit="10"/>
<path d="M397.96 170.155C398.584 166.315 395.972 162.697 392.125 162.074C388.278 161.451 384.653 164.058 384.029 167.899C383.405 171.739 386.017 175.357 389.864 175.98C393.711 176.603 397.336 173.996 397.96 170.155Z" stroke="#020203" stroke-miterlimit="10"/>
<path d="M406.226 161.346C411.439 161.346 415.666 157.127 415.666 151.922C415.666 146.718 411.439 142.499 406.226 142.499C401.012 142.499 396.785 146.718 396.785 151.922C396.785 157.127 401.012 161.346 406.226 161.346Z" fill="#020203"/>
<path d="M395.066 163.25L399.644 158.681" stroke="#020203" stroke-miterlimit="10"/>
<path d="M421.289 176.006C425.136 175.382 427.748 171.764 427.124 167.924C426.5 164.084 422.875 161.476 419.028 162.099C415.181 162.723 412.569 166.341 413.193 170.181C413.817 174.021 417.442 176.629 421.289 176.006Z" stroke="#020203" stroke-miterlimit="10"/>
<path d="M416.045 163.25L411.754 158.966" stroke="#020203" stroke-miterlimit="10"/>
<path d="M399.073 211.416C401.969 211.416 404.318 209.072 404.318 206.18C404.318 203.289 401.969 200.945 399.073 200.945C396.176 200.945 393.828 203.289 393.828 206.18C393.828 209.072 396.176 211.416 399.073 211.416Z" stroke="#020203" stroke-miterlimit="10"/>
<path d="M410.422 200.374C414.267 200.374 417.383 197.263 417.383 193.425C417.383 189.587 414.267 186.476 410.422 186.476C406.578 186.476 403.461 189.587 403.461 193.425C403.461 197.263 406.578 200.374 410.422 200.374Z" fill="#020203"/>
<path d="M402.125 201.801L405.558 198.375" stroke="#020203" stroke-miterlimit="10"/>
<path d="M420.815 211.416C423.712 211.416 426.06 209.072 426.06 206.18C426.06 203.289 423.712 200.945 420.815 200.945C417.918 200.945 415.57 203.289 415.57 206.18C415.57 209.072 417.918 211.416 420.815 211.416Z" stroke="#020203" stroke-miterlimit="10"/>
<path d="M417.764 201.802L414.617 198.66" stroke="#020203" stroke-miterlimit="10"/>
</svg>
