<svg width="444" height="558" viewBox="0 0 444 558" fill="none" xmlns="http://www.w3.org/2000/svg">
<path d="M225.947 219.521C154.457 233.057 100.023 295.004 100.023 370.408C100.023 414.917 118.832 454.968 148.958 483.154C149.436 483.632 150.313 484.508 151.19 485.384C152.545 486.737 153.182 488.728 152.784 490.639L152.704 491.196L144.336 539.766C142.901 548.127 148.56 556.169 157.008 557.045C164.181 557.841 170.796 553.302 172.708 546.455L181.396 515.402C182.511 511.42 186.895 509.43 190.641 511.102C210.087 519.94 231.765 524.877 254.559 524.877C277.751 524.877 299.748 519.781 319.513 510.624C322.701 509.111 326.526 510.863 327.483 514.287L336.489 546.455C338.242 552.745 343.98 557.124 350.516 557.124C359.522 557.124 366.455 549.003 364.861 540.085C364.861 540.085 358.406 504.254 356.334 491.594V491.515C355.935 488.887 356.892 486.26 358.804 484.508C359.522 483.871 360.239 483.154 360.797 482.676C391.162 453.932 409.891 413.006 409.094 367.7C407.739 294.128 354.979 234.889 285.96 220.477" stroke="#020203" stroke-miterlimit="10"/>
<path d="M250.734 143.8H326.528V171.827H260.617" stroke="#020203" stroke-miterlimit="10"/>
<path d="M130.547 143.8H101.696C99.2253 143.8 97.3125 145.79 97.3125 148.179V167.289C97.3125 169.757 99.305 171.668 101.696 171.668H156.21" stroke="#020203" stroke-miterlimit="10"/>
<path d="M30.4464 3.42377L1.91432 72.2183C-2.3894 82.5693 0.878235 94.5924 9.88416 101.36L51.3274 132.493C57.225 136.793 65.434 135.519 69.7377 129.627L114.767 68.1575C117.796 64.0171 116.919 58.2046 112.775 55.1789L38.8944 1.11469C35.9456 -1.03514 31.8012 0.0795881 30.4464 3.42377ZM51.1679 117.205C48.0597 114.896 47.3424 110.517 49.6537 107.412C51.9649 104.306 56.3484 103.59 59.4566 105.899C62.5648 108.208 63.2821 112.587 60.9709 115.693C58.6596 118.798 54.2762 119.515 51.1679 117.205Z" fill="#020203"/>
<path d="M116.602 133.528L141.149 152.876C141.627 153.275 142.025 153.673 142.424 154.15L169.521 188.388C175.26 194.918 183.469 198.819 192.156 199.217L200.046 199.138C201.241 199.138 202.437 198.899 203.632 198.421L208.892 196.271C210.247 195.714 211.762 195.634 213.116 196.112L219.731 198.341C220.688 198.66 221.644 198.819 222.68 198.819L227.382 198.739C228.339 198.739 229.215 198.58 230.092 198.262L237.823 195.555C239.257 195.077 240.851 194.997 242.366 195.395L252.727 198.341C261.414 198.739 267.71 190.299 265 182.019L241.17 117.046C239.815 113.065 237.026 109.721 233.36 107.81C228.658 105.341 223.318 104.147 217.978 104.386L184.823 105.262C181.954 105.341 179.085 104.625 176.615 103.112L153.343 84.4004" stroke="#020203" stroke-miterlimit="10"/>
<path d="M367.172 120.391C366.375 118.718 364.86 117.524 363.107 117.046C355.058 114.658 348.522 107.093 345.334 98.8922C344.219 95.9462 341.349 93.876 338.161 93.876H329.474C325.808 93.876 322.859 96.822 322.859 100.485V205.986C322.859 209.648 325.808 212.594 329.474 212.594H360.955C364.621 212.594 367.57 209.648 367.57 205.986V128.273V121.585C367.491 121.266 367.411 120.789 367.172 120.391Z" fill="#020203"/>
<path d="M126.801 76.0398C129.032 73.0937 130.387 71.2624 130.387 71.2624C133.017 67.759 138.038 66.9628 141.625 69.6699L150.471 76.2787C153.978 78.9062 154.775 83.9225 152.065 87.5056C152.065 87.5056 150.392 90.0535 148.638 92.4422" stroke="#020203" stroke-miterlimit="10"/>
<path d="M123.933 125.008C121.542 128.193 120.028 130.263 120.028 130.263C117.398 133.767 112.377 134.563 108.791 131.856L99.9442 125.247C96.4374 122.619 95.6404 117.603 98.3502 114.02C98.3502 114.02 100.024 111.791 102.654 108.287" stroke="#020203" stroke-miterlimit="10"/>
<path d="M137.042 121.457C148.809 115 153.116 100.231 146.662 88.4699C140.208 76.7088 125.437 72.4092 113.669 78.8666C101.902 85.3239 97.5953 100.093 104.049 111.854C110.503 123.615 125.275 127.915 137.042 121.457Z" stroke="#020203" stroke-miterlimit="10"/>
<path d="M125.367 117.763C135.095 117.763 142.981 109.885 142.981 100.166C142.981 90.4477 135.095 82.5693 125.367 82.5693C115.64 82.5693 107.754 90.4477 107.754 100.166C107.754 109.885 115.64 117.763 125.367 117.763Z" stroke="#020203" stroke-miterlimit="10"/>
<path d="M131.504 100.166H137.641C140.829 100.166 142.981 103.351 141.865 106.297C139.076 113.702 131.345 118.798 122.817 117.524C115.246 116.409 109.189 110.278 108.073 102.714C106.957 94.8311 111.181 87.5854 117.876 84.4005C119.868 83.445 122.179 84.6393 122.578 86.7096L124.172 94.1941C124.809 97.6976 127.918 100.166 131.504 100.166Z" stroke="#020203" stroke-miterlimit="10"/>
<path d="M130.306 83.2862C120.982 80.5791 111.258 85.9138 108.549 95.2297C105.839 104.546 111.179 114.26 120.503 116.967C129.828 119.674 139.551 114.339 142.261 105.023C144.971 95.7871 139.631 85.9934 130.306 83.2862ZM141.783 106.297C138.993 113.702 131.263 118.798 122.735 117.524C115.164 116.41 109.107 110.279 107.991 102.714C106.875 94.8316 111.099 87.5859 117.794 84.401C119.786 83.4455 122.097 84.6398 122.496 86.71L124.09 94.1946C124.807 97.6981 127.915 100.166 131.422 100.166H137.559C140.747 100.166 142.899 103.351 141.783 106.297Z" fill="#020203"/>
<path d="M370.199 313.078C374.249 313.078 377.532 309.799 377.532 305.753C377.532 301.707 374.249 298.428 370.199 298.428C366.15 298.428 362.867 301.707 362.867 305.753C362.867 309.799 366.15 313.078 370.199 313.078Z" fill="#020203"/>
<path d="M428.778 321.678C420.888 321.678 414.512 328.048 414.512 335.93V393.418C414.512 401.301 420.888 407.671 428.778 407.671C436.668 407.671 443.044 401.301 443.044 393.418V335.93C443.124 328.048 436.668 321.678 428.778 321.678Z" stroke="#020203" stroke-miterlimit="10"/>
<path d="M414.515 393.419V335.931C414.515 328.367 420.333 322.236 427.745 321.678V320.563H402.082V407.91H427.745V407.671C420.333 407.114 414.515 400.983 414.515 393.419Z" fill="#020203"/>
<path d="M423.518 338.479C422.004 338.479 420.809 339.673 420.809 341.186V350.183C420.809 351.696 422.004 352.89 423.518 352.89C425.033 352.89 426.228 351.696 426.228 350.183V341.186C426.228 339.673 425.033 338.479 423.518 338.479Z" fill="#020203"/>
<path d="M434.038 338.479C432.524 338.479 431.328 339.673 431.328 341.186V350.183C431.328 351.696 432.524 352.89 434.038 352.89C435.552 352.89 436.748 351.696 436.748 350.183V341.186C436.748 339.673 435.552 338.479 434.038 338.479Z" fill="#020203"/>
<path d="M305.885 434.027L265.717 415.156C262.369 413.802 258.942 414.2 256.073 415.713C251.53 418.102 249.697 423.675 251.69 428.453L276.396 488.728C277.672 491.833 280.859 493.664 284.207 493.187L296.002 491.515C296.241 491.515 296.401 491.435 296.64 491.435C300.943 490.479 301.9 485.941 301.183 481.562C300.545 478.058 298.632 472.644 297.198 469.061C296.64 467.707 297.995 466.354 299.429 466.831L338.641 481.8C338.641 481.8 355.059 490.081 367.97 474.077" stroke="#020203" stroke-miterlimit="10"/>
<path d="M307.558 418.42C306.681 429.249 305.884 434.265 305.087 439.998C304.37 445.173 307.319 450.19 312.181 452.101L367.013 474.156C369.165 474.156 370.759 472.245 370.281 470.175L363.188 425.984" stroke="#020203" stroke-miterlimit="10"/>
<path d="M308.676 403.053C309.552 348.988 332.187 344.131 345.337 358.702C359.922 374.786 363.907 398.036 362.791 398.036C362.791 398.036 335.773 402.177 335.614 400.345L332.585 384.102" stroke="#020203" stroke-miterlimit="10" stroke-linecap="round"/>
<path d="M361.515 398.753L363.986 419.774C365.181 428.373 358.965 436.176 346.691 433.389C346.691 433.389 291.142 412.05 285.881 409.98C263.327 401.062 265.718 392.463 265.718 392.463" stroke="#020203" stroke-miterlimit="10"/>
<path d="M260.615 386.094C260.615 386.094 258.383 389.119 260.456 390.234L280.858 403.213C282.691 404.407 283.967 403.133 285.082 401.143L260.615 386.094Z" fill="#020203"/>
<path d="M279.742 397.639C281.416 395.409 285.162 396.524 285.162 396.524L335.85 411.334C337.524 411.811 339.118 410.378 338.799 408.627L337.284 400.823" stroke="#020203" stroke-miterlimit="10"/>
<path d="M307.638 513.968L303.812 502.423C303.015 499.875 300.226 498.601 297.755 499.557L289.546 502.423L289.387 501.866C288.749 499.716 286.598 498.521 284.446 499.079L279.026 500.592C276.874 501.229 275.679 503.378 276.237 505.528C276.635 506.802 275.918 508.235 274.643 508.713L261.732 513.092C256.551 515.083 252.726 517.153 254.001 521.692L254.479 524.717" stroke="#020203" stroke-miterlimit="10"/>
<path d="M253.684 520.259C253.684 520.259 268.109 519.463 281.02 516.039C293.931 512.615 305.886 508.555 305.886 508.555" stroke="#020203" stroke-miterlimit="10"/>
<path d="M334.258 351.856L323.738 336.488" stroke="#020203" stroke-miterlimit="10"/>
<path d="M316.326 362.445L301.023 339.274" stroke="#020203" stroke-miterlimit="10"/>
<path d="M305.805 321.598C305.168 322.235 304.131 322.235 303.494 321.598C302.856 320.961 302.856 319.926 303.494 319.289C304.131 318.652 305.168 318.652 305.805 319.289C306.443 320.006 306.443 320.961 305.805 321.598Z" fill="#020203"/>
<path d="M324.534 339.513C329.635 334.417 340.474 321.359 328.121 311.804C316.325 302.568 307.559 309.097 307.559 309.097C318.955 316.582 316.246 322.156 316.246 322.156L309.471 332.347C308.913 333.144 307.877 333.382 307.08 332.984L297.118 328.048L296.321 331.551C296.162 332.507 295.524 333.303 294.647 333.701C292.894 334.417 290.184 336.169 290.025 340.469C289.865 346.759 303.016 358.623 310.587 343.813C316.883 328.844 316.883 328.844 316.883 328.844C316.883 328.844 318.318 324.465 322.223 326.137C326.128 327.809 324.056 332.029 323.02 333.303C322.382 334.179 321.904 334.895 321.585 335.612L324.534 339.513Z" fill="#020203"/>
<path d="M308.676 309.495C308.676 309.495 303.655 312.6 300.387 319.13C300.228 319.368 300.068 319.607 299.75 319.767L295.047 321.916C294.489 322.155 294.489 323.031 295.047 323.27L296.801 324.146C297.279 324.385 297.518 324.862 297.518 325.34L297.757 329.242" stroke="#020203" stroke-miterlimit="10"/>
<path d="M299.429 499.159L296.879 491.355" stroke="#020203" stroke-miterlimit="10"/>
<path d="M284.128 499.636L281.816 493.027" stroke="#020203" stroke-miterlimit="10"/>
<path d="M125.287 418.898C135.647 419.774 171.432 422.88 179.561 423.596L184.662 424.392L189.922 425.268C177.887 425.507 134.372 424.711 123.852 424.472C122.417 424.472 121.541 424.392 121.541 424.392C120.903 424.313 120.505 423.756 120.584 423.119L121.142 419.456C121.222 418.819 121.78 418.421 122.417 418.5C122.417 418.66 123.453 418.739 125.287 418.898Z" fill="#020203"/>
<path d="M170.556 321.2C170.795 321.917 170.396 322.713 169.599 322.872C168.802 323.032 168.085 322.713 167.925 321.917C167.686 321.2 168.165 320.484 168.882 320.245C169.599 320.085 170.316 320.563 170.556 321.2Z" fill="#020203"/>
<path d="M155.649 353.767H155.569C154.613 353.607 153.576 353.448 152.381 353.448C151.186 353.368 149.91 353.448 148.555 353.528C147.36 353.607 146.085 353.767 144.81 354.005C143.295 354.244 141.861 354.642 140.506 355.12C137.956 355.996 135.883 357.35 134.768 359.101C131.181 364.914 131.739 374.389 133.891 383.944C136.521 395.967 141.701 408.229 144.252 413.882C145.128 415.873 147.041 417.306 149.193 417.704C157.96 419.296 181.072 423.357 192.23 424.552C193.824 424.711 195.179 424.87 196.215 424.87C198.765 424.95 200.997 423.118 201.396 420.57L201.953 416.749L202.033 416.43C202.432 413.643 200.439 411.095 197.65 410.697C192.39 410.06 170.632 405.84 161.706 403.292C159.474 402.655 157.641 400.904 157.083 398.594L155.888 394.215" stroke="#020203" stroke-miterlimit="10" stroke-linecap="round"/>
<path d="M166.566 311.725C166.566 311.725 169.675 313.636 171.428 318.97C171.508 319.209 171.667 319.368 171.827 319.448L174.058 321.041C174.855 321.598 174.855 322.792 173.978 323.35L173.66 323.588C173.261 323.827 173.181 324.305 173.341 324.783C179.238 340.548 169.276 340.309 169.515 341.026L172.544 354.801C173.341 357.667 174.058 360.932 176.21 361.887C176.449 361.967 176.688 362.047 176.927 362.126L178.92 362.524C183.144 363.32 185.933 367.302 185.136 371.522L174.138 405.441" stroke="#020203" stroke-miterlimit="10"/>
<path d="M155.57 349.785L164.098 351.378C165.214 351.537 166.011 352.492 165.931 353.607L164.417 379.803C164.178 381.236 166.25 381.794 166.728 380.44L176.212 361.888L176.292 361.649" stroke="#020203" stroke-miterlimit="10"/>
<path d="M144.812 353.925L145.529 361.648" stroke="#020203" stroke-miterlimit="10"/>
<path d="M148.555 353.766L149.192 361.33" stroke="#020203" stroke-miterlimit="10"/>
<path d="M152.301 354.164L152.858 361.012" stroke="#020203" stroke-miterlimit="10"/>
<path d="M155.492 353.208L155.572 353.765L156.289 358.463C156.369 359.896 155.173 361.25 153.42 361.409L152.942 361.489L149.275 361.807L145.609 362.126L144.414 362.205C142.74 362.365 141.226 361.25 141.146 359.817L140.668 355.517" stroke="#020203" stroke-miterlimit="10"/>
<path d="M184.659 424.472C187.29 424.472 189.76 424.551 192.231 424.79C204.983 425.825 214.626 429.886 221.958 435.46C241.325 450.349 244.194 476.545 244.035 490.081C244.035 493.505 241.405 496.292 237.978 496.61L229.37 497.247C225.943 497.486 222.596 495.098 222.437 491.753C221.879 477.501 217.336 468.742 210.482 463.407C204.425 458.71 196.535 456.719 187.927 456.003C157.96 453.614 119.546 467.229 120.98 437.45C121.14 433.867 122.654 429.408 123.929 424.551" stroke="#020203" stroke-miterlimit="10"/>
<path d="M133.813 383.864C133.574 385.297 129.19 403.452 125.285 418.899" stroke="#020203" stroke-miterlimit="10"/>
<path d="M223.871 435.141C223.871 434.664 223.791 434.186 223.552 433.788L219.886 426.463C219.328 425.427 218.531 424.631 217.575 424.074L202.113 416.828" stroke="#020203" stroke-miterlimit="10"/>
<path d="M208.489 517.392C208.808 517.153 210.083 515.8 210.243 515.401C210.561 514.446 210.8 513.491 210.88 512.535C211.04 509.589 209.525 506.643 204.982 504.573C204.026 504.175 203.389 503.299 203.07 502.343L199.164 489.444C198.527 488.091 197.491 487.056 196.056 486.498L184.659 481.96C183.305 481.402 181.711 482.119 181.232 483.473L175.335 499.238L174.299 501.945C173.82 503.14 174.378 504.493 175.653 504.971" stroke="#020203" stroke-miterlimit="10"/>
<path d="M175.254 499.237V499.317L210.879 512.534L211.278 512.694" stroke="#020203" stroke-miterlimit="10"/>
<path d="M255.75 516.198C254.714 515.561 252.642 514.526 251.207 514.207C250.171 514.048 249.295 513.411 248.816 512.535L241.883 500.99C240.926 499.875 239.651 499.079 238.216 498.92L226.023 497.327C224.588 497.168 223.233 498.203 223.074 501.388L221.4 516.516L220.922 520.975C220.922 519.781 220.922 519.462 220.922 519.383" stroke="#020203" stroke-miterlimit="10"/>
<path d="M221.082 516.356C221.082 516.356 221.162 516.356 221.321 516.436C222.995 516.834 232.798 518.825 239.094 519.701C243.158 520.258 249.375 520.417 253.838 520.497" stroke="#020203" stroke-miterlimit="10"/>
<path d="M187.928 455.843V455.922L183.624 470.732C182.11 475.191 184.341 480.208 188.486 481.561L193.267 483.154C196.376 484.189 199.723 482.915 201.556 480.048L210.403 463.327L210.801 462.611" stroke="#020203" stroke-miterlimit="10"/>
<path d="M136.287 456.879L179.802 456.162H187.852L183.389 471.131L183.229 476.147L184.106 479.332L187.453 481.96H182.91L180.838 483.552L174.702 500.194C174.702 500.194 173.267 501.627 173.984 502.98C174.861 504.573 188.888 509.669 188.888 509.669L182.273 512.854C182.273 512.854 176.694 540.403 169.999 551.391C166.811 556.726 161.711 557.92 156.849 556.806C139.953 553.143 143.779 542.394 144.815 536.343C145.851 530.291 152.147 494.779 152.147 494.779C152.147 494.779 155.813 486.897 147.923 482.119C140.033 477.421 124.731 454.49 124.731 454.49L123.535 450.668L136.287 456.879Z" fill="#020203"/>
<path d="M190.48 483.711C191.038 483.711 199.008 484.985 201.001 481.243C202.993 477.58 210.963 462.771 210.963 462.771C210.963 462.771 221.882 470.494 222.44 486.419C221.403 494.062 226.185 496.77 226.185 496.77C226.185 496.77 223.396 496.77 222.997 500.592C221.324 519.781 221.324 515.401 221.324 515.401L220.686 520.975L209.608 517.312C209.608 517.312 211.919 512.694 208.174 506.643C202.595 502.582 202.595 501.706 202.595 501.706L200.283 491.355L197.095 487.294L190.48 483.711Z" fill="#020203"/>
<path d="M364.624 534.431C364.225 534.511 363.827 534.511 363.428 534.59C356.016 492.311 356.016 492.31 356.016 492.31C356.016 492.31 356.016 487.374 359.364 483.074C359.364 483.074 339.439 492.629 345.895 525.434C347.01 531.246 342.946 536.74 337.128 537.536C334.657 537.855 334.02 537.935 334.02 537.935C334.02 537.935 337.845 556.487 348.286 556.885C354.024 557.044 359.443 555.213 362.472 550.754C363.827 549.48 364.783 547.728 364.863 545.34C364.863 545.18 364.863 545.101 364.863 544.942C365.421 541.995 365.421 538.492 364.624 534.431Z" fill="#020203"/>
<path d="M115.404 390.951H87.5096C80.2571 390.951 74.3594 385.058 74.3594 377.813C74.3594 370.567 80.2571 364.675 87.5096 364.675H115.404V390.951Z" fill="#020203"/>
<path d="M120.663 445.651C120.663 445.651 95.3991 413.563 101.695 356.792C134.053 359.18 135.408 356.553 135.408 356.553C135.408 356.553 128.554 372.876 133.814 384.978C125.127 423.038 120.663 445.651 120.663 445.651Z" fill="#020203"/>
<path d="M150.152 334.179C150.391 334.099 157.006 336.329 155.891 329.003C155.731 327.889 156.13 326.694 157.086 325.978C158.441 325.022 159.716 325.739 160.433 326.694C161.47 328.048 162.984 328.128 163.143 326.535C163.303 324.226 160.673 320.961 162.107 318.891C164.418 315.467 168.403 314.432 166.491 309.416" stroke="#020203" stroke-miterlimit="10"/>
<path d="M409.968 371.283C409.968 302.091 364.54 243.488 301.817 223.662L292.174 221.114C290.739 220.716 289.703 219.442 289.703 217.929V217.292C289.703 212.753 286.037 209.091 281.494 209.091H233.994C229.451 209.091 225.785 212.753 225.785 217.292V217.531C225.785 218.248 225.227 218.884 224.51 219.044C202.912 220.955 103.926 255.909 101.137 365.152L135.009 358.066L140.428 354.881L144.891 353.448L156.447 353.289L155.89 349.944H157.484L154.853 334.498L146.645 322.793C144.652 324.146 142.341 324.863 139.79 324.863C133.016 324.863 127.517 319.369 127.517 312.601C127.517 305.833 133.016 300.339 139.79 300.339C144.174 300.339 147.999 302.648 150.231 306.152C152.144 305.037 154.535 304.4 157.244 304.48C160.911 304.718 164.258 306.789 165.772 310.212C166.091 310.929 167.366 311.805 167.446 312.362L171.989 319.289L175.097 321.121L174.937 322.713L173.742 324.146C173.742 324.146 178.205 337.842 169.996 341.504C172.387 353.368 172.467 353.527 172.467 353.527L239.254 221.353H280.219L399.846 421.207C406.78 401.461 409.968 382.351 409.968 371.283ZM375.618 341.902V325.898C375.618 323.271 377.77 321.121 380.4 321.121C383.03 321.121 385.182 323.271 385.182 325.898V341.902C385.182 344.53 383.03 346.68 380.4 346.68C377.77 346.68 375.618 344.61 375.618 341.902Z" fill="#020203"/>
</svg>
