<svg width="590" height="413" viewBox="0 0 590 413" fill="none" xmlns="http://www.w3.org/2000/svg">
<g clip-path="url(#clip0)">
<path d="M556.763 40.9417C544.94 29.0495 529.12 22.4238 512.279 22.4238H386.654C351.952 22.4238 323.459 50.2856 323.204 84.5182C323.119 101.337 329.498 117.137 341.406 129.029C353.228 140.921 369.048 147.547 385.889 147.547H429.777C439.473 147.547 447.638 139.987 448.319 130.303L449.679 112.805C450.53 102.017 459.631 93.6073 470.433 93.6073C481.235 93.6073 490.335 102.017 491.186 112.805L492.547 130.303C493.312 139.987 501.477 147.547 511.174 147.547H511.684C546.386 147.547 574.879 119.685 575.134 85.4526C575.049 68.7186 568.585 52.9189 556.763 40.9417ZM484.722 40.3471C481.66 40.3471 479.108 37.8837 479.108 34.7408C479.108 31.6828 481.575 29.1344 484.722 29.1344C487.869 29.1344 490.335 31.5978 490.335 34.7408C490.335 37.7988 487.784 40.3471 484.722 40.3471ZM530.141 39.6676H503.179C500.457 39.6676 498.245 37.459 498.245 34.7408C498.245 32.0226 500.457 29.814 503.179 29.814H530.141C532.862 29.814 535.074 32.0226 535.074 34.7408C535.074 37.459 532.862 39.6676 530.141 39.6676Z" fill="#020203"/>
<path d="M514.574 11.2109H322.352C292.158 11.2109 266.216 29.474 255.159 55.6369C253.118 60.3938 248.44 63.3668 243.337 63.3668H233.811C229.728 63.3668 226.496 66.6797 226.496 70.6721V97.5995C226.496 101.677 229.813 104.905 233.811 104.905H243.762C248.61 104.905 253.118 107.793 254.989 112.295C266.046 138.628 292.073 157.061 322.352 157.061H515.425C555.911 157.061 588.742 124.102 588.486 83.5836C588.231 43.4049 554.805 11.2109 514.574 11.2109ZM511.513 150.18H511.002C499.945 150.18 490.589 141.516 489.739 130.473L488.378 112.974C487.697 103.546 479.702 96.2404 470.261 96.2404C460.82 96.2404 452.91 103.631 452.145 112.974L450.784 130.473C449.933 141.516 440.662 150.18 429.52 150.18H385.632C368.111 150.18 351.611 143.3 339.278 130.898C326.945 118.496 320.226 102.017 320.311 84.4331C320.566 48.7564 350.25 19.7054 386.398 19.7054H512.023C529.544 19.7054 546.045 26.5859 558.377 38.9878C570.71 51.3897 577.429 67.8689 577.344 85.4524C577.344 121.214 547.661 150.18 511.513 150.18Z" stroke="#020203" stroke-miterlimit="10" stroke-linecap="round"/>
<path d="M58.08 152.389C59.0156 157.995 55.1881 163.177 49.6596 164.111C44.046 165.045 38.8577 161.223 37.9221 155.701C36.9865 150.095 40.814 144.913 46.3425 143.979C51.9561 143.045 57.1444 146.867 58.08 152.389Z" fill="#020203"/>
<path d="M61.4858 181.865L59.2744 194.946C58.8491 196.56 60.0399 198.089 61.6559 198.089H75.0094V188.321C75.0094 187.641 75.4347 186.962 76.03 186.707C80.9632 184.413 81.9838 178.892 81.5586 176.598C81.4735 176.174 81.8137 175.664 82.239 175.494L83.855 174.984C84.2803 174.899 84.4504 174.39 84.1952 174.05L81.7287 170.822C81.5586 170.652 81.4735 170.397 81.4735 170.143C81.2183 164.366 77.1357 154.938 77.1357 154.938" stroke="#020203" stroke-miterlimit="10"/>
<path d="M78.1575 171.076C78.1575 171.841 77.5621 172.52 76.7115 172.52C75.861 172.52 75.2656 171.926 75.2656 171.076C75.2656 170.312 75.861 169.632 76.7115 169.632C77.5621 169.632 78.1575 170.312 78.1575 171.076Z" fill="#020203"/>
<path d="M60.2038 185.178L60.1187 185.008C59.013 185.263 60.2038 185.178 60.2038 185.178Z" fill="#020203"/>
<path d="M78.5784 156.637C76.9624 150.096 71.8591 147.208 65.0548 147.633C56.5494 148.057 50.5106 155.787 51.8714 163.942C51.9565 164.536 52.1266 165.131 52.2967 165.641L60.1217 185.008C60.3768 184.923 62.6733 184.498 63.0135 176.344C63.0986 175.07 63.779 173.88 64.9698 173.371C66.5858 172.606 67.8616 173.626 68.457 174.9C69.3075 176.514 70.9236 177.023 71.3488 175.324C72.0293 172.861 69.9029 168.784 71.9442 166.83C75.4314 163.432 80.1945 163.347 78.5784 156.637Z" fill="#020203"/>
<path d="M52.1291 248.035L51.5337 271.479C51.4487 274.113 53.575 276.321 56.2117 276.321C62.4206 276.321 72.372 276.321 72.372 276.321L72.2019 252.452" stroke="#020203" stroke-miterlimit="10"/>
<path d="M76.1199 243.193C77.0124 243.193 77.736 242.47 77.736 241.579C77.736 240.687 77.0124 239.965 76.1199 239.965C75.2274 239.965 74.5039 240.687 74.5039 241.579C74.5039 242.47 75.2274 243.193 76.1199 243.193Z" fill="#020203"/>
<path d="M51.2827 253.641C51.2827 253.641 39.0349 228.922 58.2571 223.826C74.9277 219.409 78.3299 230.961 78.3299 230.961C61.149 229.007 64.8063 238.266 64.8063 238.266L66.7625 250.413C66.9326 251.348 67.7832 252.027 68.7188 252.027L79.8609 251.603L79.1804 255.17C78.9253 256.105 79.1804 257.124 79.8609 257.804C81.1367 259.163 82.9228 261.966 81.2217 265.873C78.7552 271.65 61.8294 277.086 60.9788 260.352C61.4892 244.043 61.4892 244.043 61.4892 244.043C61.4892 244.043 61.9995 239.456 57.7468 239.371C53.4941 239.286 53.6642 244.043 54.0895 245.572C55.9607 255.085 51.2827 253.641 51.2827 253.641Z" fill="#020203"/>
<path d="M76.9727 229.856C76.9727 229.856 80.2898 234.783 80.5449 242.173C80.5449 242.513 80.63 242.768 80.8851 243.023L84.2873 246.93C84.7126 247.44 84.3724 248.204 83.6919 248.204L81.7357 248.289C81.2254 248.289 80.8001 248.629 80.63 249.054L78.8438 252.876" stroke="#020203" stroke-miterlimit="10"/>
<path d="M50.2565 332.384V344.531C50.1714 346.994 52.2127 349.033 54.5942 349.033C60.3779 349.033 61.3986 348.948 61.3986 348.948" stroke="#020203" stroke-miterlimit="10"/>
<path d="M69.3125 321.172C69.5676 321.937 70.5032 322.362 71.2687 322.107C72.0342 321.852 72.4595 320.918 72.2043 320.153C71.9491 319.389 71.0135 318.964 70.2481 319.219C69.4826 319.473 69.0573 320.408 69.3125 321.172Z" fill="#020203"/>
<path d="M50.8533 331.62C48.812 333.659 46.7707 332.98 46.4305 330.091C45.4099 321.427 43.964 306.647 56.4669 303.334C56.8922 303.249 57.3175 303.079 57.7427 302.994C58.7634 302.739 59.8691 303.419 60.1242 304.438L65.0574 325.419C65.2275 326.269 65.993 326.948 66.8435 326.864L76.7098 328.732L76.0294 332.385C75.7742 333.234 86.406 337.567 81.0476 347.505C77.8155 353.536 59.1036 355.915 59.1036 342.238C59.5289 327.033 59.5289 326.694 59.5289 326.694C59.5289 326.694 59.9541 322.361 56.0416 322.277C52.5544 322.192 52.4694 325.929 53.49 328.053C53.7452 328.562 53.5751 329.157 53.0647 329.412C52.7245 329.837 51.874 330.601 50.8533 331.62Z" stroke="#020203" stroke-miterlimit="10"/>
<path d="M58.8516 302.994C58.8516 302.994 77.9037 301.125 77.3083 320.407C77.3083 320.662 77.3934 320.917 77.5635 321.172L80.7105 324.824C81.1358 325.249 80.7955 326.013 80.2002 326.013L78.414 326.098C76.9681 326.013 76.883 328.052 76.7129 328.477" stroke="#020203" stroke-miterlimit="10"/>
<path d="M104.503 248.042C105.113 251.643 107.9 254.141 112.111 254.141C116.38 254.141 119.488 251.207 119.488 247.025C119.488 243.134 116.409 240.84 113.592 240.84C113.244 240.84 112.925 240.869 112.634 240.927L118.588 235.99V233.521H105.374V236.426H114.086L107.697 241.798L109.44 243.976C110.05 243.366 111.066 242.96 112.199 242.96C114.667 242.96 116.438 244.615 116.438 247.084C116.438 249.552 114.58 251.236 112.111 251.236C109.44 251.236 107.552 249.436 107.407 246.735L104.503 248.042ZM130.79 253.85H133.839V248.913H137.179V246.154H133.839V239.794H130.79V246.154H124.836C126.492 244.499 127.595 242.815 128.176 241.101C128.757 239.359 129.047 237.268 129.047 234.828V233.521H125.998V234.828C125.911 240.027 125.446 241.769 121.642 245.719V248.913H130.79V253.85Z" fill="#020203"/>
<path d="M103.31 326.162C103.31 329.444 105.924 332.261 110.716 332.261C115.507 332.261 118.121 329.444 118.121 326.162C118.121 323.606 116.756 321.486 114.2 320.644C116.059 319.802 116.959 318.35 116.959 316.579C116.959 313.674 114.578 311.351 110.716 311.351C106.853 311.351 104.472 313.674 104.472 316.579C104.472 318.35 105.372 319.802 107.231 320.644C104.675 321.486 103.31 323.606 103.31 326.162ZM114.055 316.724C114.055 318.35 112.719 319.483 110.716 319.483C108.712 319.483 107.376 318.35 107.376 316.724C107.376 315.243 108.741 314.11 110.716 314.11C112.69 314.11 114.055 315.243 114.055 316.724ZM115.072 325.726C115.072 327.817 113.387 329.357 110.716 329.357C108.044 329.357 106.359 327.817 106.359 325.726C106.359 324.71 106.766 323.839 107.579 323.142C108.392 322.445 109.438 322.096 110.716 322.096C111.993 322.096 113.039 322.445 113.852 323.142C114.665 323.839 115.072 324.71 115.072 325.726ZM125.761 323.839C124.164 324.739 122.886 325.785 121.928 327.033C120.998 328.282 120.534 329.908 120.534 331.97H134.764V329.066H124.483C124.657 328.34 125.093 327.701 125.761 327.208C126.458 326.714 127.474 326.104 128.839 325.378L130.407 324.536C133.079 322.997 134.764 321.109 134.764 317.943C134.764 314.11 132.121 311.351 127.503 311.351C123.118 311.351 120.098 314.371 120.098 318.031C120.098 319.686 120.621 321.196 121.695 322.532L124.309 320.789C123.583 319.976 123.147 318.931 123.147 317.973C123.147 315.882 124.89 314.11 127.358 314.11C130.03 314.11 131.714 315.794 131.714 318.118C131.714 319.831 130.901 320.906 129.74 321.69C129.188 322.067 128.375 322.503 127.329 323.026C126.632 323.374 126.109 323.635 125.761 323.839Z" fill="#020203"/>
<path d="M113.475 93.4296C113.475 99.383 116.204 103.739 121.374 103.739C125.294 103.739 128.256 100.922 128.256 96.7693C128.256 93.6039 125.875 90.3803 121.809 90.3803C120.706 90.3803 119.66 90.6417 118.673 91.1935C117.686 91.7453 116.96 92.4422 116.524 93.2844V92.8488C116.524 87.7957 118.905 85.5886 121.432 85.5886C123.842 85.5886 125.12 86.6921 125.614 89.1606L128.518 88.2313C127.937 84.8626 125.556 82.8297 121.577 82.8297C116.175 82.8297 113.475 87.5634 113.475 93.4296ZM125.207 97.0597C125.207 98.1342 124.83 99.0345 124.104 99.7605C123.378 100.487 122.448 100.835 121.374 100.835C120.183 100.835 119.196 100.458 118.412 99.7315C117.627 99.0055 117.25 98.0471 117.25 96.9145C117.25 94.7655 119.021 93.1392 121.083 93.1392C123.552 93.1392 125.207 94.7365 125.207 97.0597Z" fill="#020203"/>
<path d="M111.462 168.806C109.865 169.706 108.587 170.751 107.628 172C106.699 173.249 106.234 174.875 106.234 176.937H120.465V174.033H110.184C110.358 173.307 110.794 172.668 111.462 172.174C112.159 171.681 113.175 171.071 114.54 170.345L116.108 169.503C118.78 167.963 120.465 166.076 120.465 162.91C120.465 159.077 117.822 156.318 113.204 156.318C108.819 156.318 105.799 159.338 105.799 162.997C105.799 164.653 106.322 166.163 107.396 167.499L110.01 165.756C109.284 164.943 108.848 163.898 108.848 162.939C108.848 160.848 110.591 159.077 113.059 159.077C115.731 159.077 117.415 160.761 117.415 163.085C117.415 164.798 116.602 165.872 115.44 166.657C114.889 167.034 114.076 167.47 113.03 167.992C112.333 168.341 111.81 168.602 111.462 168.806ZM137.159 156.608H124.236C124.236 160.238 123.946 163.927 123.365 167.615L126.704 168.37C127.256 167.005 128.941 165.901 130.77 165.901C133.471 165.901 135.126 167.673 135.126 170.112C135.126 172.523 133.442 174.323 130.625 174.323C127.953 174.323 126.443 172.726 126.124 170.258L123.074 171.129C123.481 175.078 126.792 177.227 130.625 177.227C135.33 177.227 138.176 174.091 138.176 169.822C138.176 165.64 135.213 163.172 131.38 163.172C129.405 163.172 127.547 164.043 126.501 165.292C126.937 162.968 127.14 161.052 127.14 159.512H137.159V156.608Z" fill="#020203"/>
<path d="M40.1282 51.5391H43.3712C44.5069 51.5391 45.2679 50.9303 45.2679 50.0054C45.2679 49.3029 44.8815 48.858 44.2376 48.7175C44.7527 48.4951 45.0806 48.0502 45.0806 47.4531C45.0806 46.575 44.3781 45.9896 43.3127 45.9896H40.1282V51.5391ZM41.5683 48.1321V47.1721H43.0785C43.4532 47.1721 43.6756 47.3594 43.6756 47.6521C43.6756 47.9682 43.4532 48.1321 43.0785 48.1321H41.5683ZM41.5683 50.3449V49.2795H43.2307C43.6171 49.2795 43.863 49.4902 43.863 49.818C43.863 50.1341 43.6171 50.3449 43.2307 50.3449H41.5683ZM46.1576 48.7644C46.1576 50.4151 47.3869 51.6561 49.0611 51.6561C50.7352 51.6561 51.9645 50.4151 51.9645 48.7644C51.9645 47.1019 50.7469 45.8726 49.0611 45.8726C47.3752 45.8726 46.1576 47.1019 46.1576 48.7644ZM50.5011 48.7644C50.5011 49.6893 49.8923 50.3098 49.0611 50.3098C48.2298 50.3098 47.621 49.6893 47.621 48.7644C47.621 47.8395 48.2298 47.219 49.0611 47.219C49.8923 47.219 50.5011 47.8395 50.5011 48.7644ZM52.6729 49.8297C52.8602 50.8951 53.7382 51.6561 55.0963 51.6561C56.5598 51.6561 57.4847 51.0239 57.4847 49.9819C57.4847 49.2678 57.0515 48.8463 56.4778 48.7175C57.0281 48.5302 57.3676 48.0619 57.3676 47.4414C57.3676 46.458 56.4661 45.8726 55.1549 45.8726C53.9841 45.8726 53.2465 46.4462 52.9304 47.3946L54.1246 47.9565C54.2768 47.3594 54.6514 47.0199 55.1783 47.0199C55.6583 47.0199 55.9861 47.2424 55.9861 47.6053C55.9861 47.9448 55.6934 48.1556 55.2602 48.1556H54.8505V49.2912H55.3656C55.7871 49.2912 56.0681 49.4902 56.0681 49.8063C56.0681 50.2161 55.7637 50.4151 55.1432 50.4151C54.3939 50.4151 53.9724 49.9468 53.867 49.3029L52.6729 49.8297ZM65.9213 45.9896H63.5212L62.2685 50.1576L61.0158 45.9896H58.6157V51.5391H60.0792V47.3126L61.3319 51.5391H63.2051L64.4579 47.3126V51.5391H65.9213V45.9896ZM67.0346 48.7644C67.0346 50.4151 68.2639 51.6561 69.9381 51.6561C71.6123 51.6561 72.8416 50.4151 72.8416 48.7644C72.8416 47.1019 71.624 45.8726 69.9381 45.8726C68.2522 45.8726 67.0346 47.1019 67.0346 48.7644ZM71.3782 48.7644C71.3782 49.6893 70.7694 50.3098 69.9381 50.3098C69.1069 50.3098 68.4981 49.6893 68.4981 48.7644C68.4981 47.8395 69.1069 47.219 69.9381 47.219C70.7694 47.219 71.3782 47.8395 71.3782 48.7644ZM73.0787 51.5391H74.8465L76.6729 49.3263V51.5391H78.113V49.3263L79.9394 51.5391H81.7072L79.1901 48.6122L81.5901 45.9896H79.7754L78.113 47.9331V45.9896H76.6729V47.9331L75.0104 45.9896H73.1958L75.5958 48.6122L73.0787 51.5391ZM84.0547 45.9896H82.5912V51.5391H84.0547V49.3732H86.3611V51.5391H87.8245V45.9896H86.3611V48.0268H84.0547V45.9896ZM89.2568 51.5391H92.1134C93.3662 51.5391 94.1272 50.7781 94.1272 49.6658C94.1272 48.5536 93.3896 47.8629 92.1134 47.8629H90.6617V45.9896H89.2568V51.5391ZM90.6617 50.3449V49.0453H92.0432C92.4998 49.0453 92.7574 49.3146 92.7574 49.701C92.7574 50.0873 92.4998 50.3449 92.0432 50.3449H90.6617ZM95.333 45.9896V51.5391H96.8316V45.9896H95.333ZM102.188 49.42C102.013 50.0522 101.58 50.3683 100.901 50.3683C100.105 50.3683 99.4489 49.8883 99.4372 49.0453H103.207C103.254 48.8346 103.277 48.6122 103.277 48.3663C103.277 46.8443 102.235 45.8726 100.702 45.8726C99.0626 45.8726 97.9386 47.1487 97.9386 48.7292C97.9386 50.4854 99.1562 51.6561 100.877 51.6561C102.177 51.6561 103.078 51.0005 103.465 49.9234L102.188 49.42ZM99.4372 48.0502C99.5777 47.4414 100.093 47.0785 100.702 47.0785C101.369 47.0785 101.826 47.4414 101.826 48.0034L101.814 48.0502H99.4372ZM107.264 51.5391H108.763V47.336H111.303V45.9896H107.264V51.5391ZM112.203 45.9896V53.8572H113.702V50.8249C113.995 51.34 114.638 51.6561 115.399 51.6561C116.957 51.6561 118.092 50.5322 118.092 48.7878C118.092 47.0433 116.98 45.8726 115.481 45.8726C114.744 45.8726 114.053 46.2472 113.643 46.8209V45.9896H112.203ZM115.118 50.38C114.311 50.38 113.643 49.7712 113.643 48.7878C113.643 47.7926 114.311 47.1604 115.118 47.1604C115.95 47.1604 116.594 47.7926 116.594 48.7878C116.594 49.7595 115.95 50.38 115.118 50.38ZM122.858 45.9896L121.336 49.1507L119.908 45.9896H118.339L120.564 50.7547L119.077 53.8572H120.599L124.38 45.9896H122.858ZM125.226 51.5391H126.689V47.336H128.832V51.5391H130.295V45.9896H125.226V51.5391ZM131.72 51.5391H133.183V47.336H135.326V51.5391H136.789V45.9896H131.72V51.5391ZM138.214 51.5391H141.071C142.323 51.5391 143.084 50.7781 143.084 49.6658C143.084 48.5536 142.347 47.8629 141.071 47.8629H139.619V45.9896H138.214V51.5391ZM139.619 50.3449V49.0453H141C141.457 49.0453 141.714 49.3146 141.714 49.701C141.714 50.0873 141.457 50.3449 141 50.3449H139.619ZM144.29 45.9896V51.5391H145.789V45.9896H144.29ZM149.967 45.9896V53.8572H151.466V50.8249C151.758 51.34 152.402 51.6561 153.163 51.6561C154.72 51.6561 155.856 50.5322 155.856 48.7878C155.856 47.0433 154.744 45.8726 153.245 45.8726C152.508 45.8726 151.817 46.2472 151.407 46.8209V45.9896H149.967ZM152.882 50.38C152.075 50.38 151.407 49.7712 151.407 48.7878C151.407 47.7926 152.075 47.1604 152.882 47.1604C153.714 47.1604 154.358 47.7926 154.358 48.7878C154.358 49.7595 153.714 50.38 152.882 50.38ZM156.964 51.5391H159.083L161.261 47.5233V51.5391H162.724V45.9896H160.617L158.428 50.0054V45.9896H156.964V51.5391ZM166.825 50.3332C166.041 50.3332 165.303 49.7244 165.303 48.7292C165.303 47.7341 166.041 47.1838 166.743 47.1838C167.446 47.1838 167.973 47.617 168.078 48.3195L169.401 47.8746C169.155 46.6102 168.113 45.8726 166.708 45.8726C165.163 45.8726 163.84 47.055 163.84 48.7292C163.84 50.4854 165.046 51.6561 166.86 51.6561C168.312 51.6561 169.354 50.9069 169.694 49.4434L168.312 48.9634C168.207 49.7595 167.727 50.3332 166.825 50.3332ZM170.707 51.5391H172.171V49.3029L174.032 51.5391H175.835L173.318 48.6122L175.718 45.9896H173.868L172.171 47.9565V45.9896H170.707V51.5391ZM176.35 49.9351C176.35 51.0005 177.216 51.6561 178.176 51.6561C179.077 51.6561 179.651 51.3283 180.014 50.6844V51.5391H181.384V48.1204C181.384 46.6687 180.518 45.8726 178.832 45.8726C177.485 45.8726 176.607 46.5399 176.314 47.617L177.614 47.9682C177.743 47.4063 178.153 47.0433 178.82 47.0433C179.511 47.0433 179.956 47.418 179.956 48.0385V48.3897L179.464 48.2726C179.159 48.1907 178.843 48.1556 178.516 48.1556C177.204 48.1556 176.35 48.7526 176.35 49.9351ZM179.956 49.4902C179.956 50.1341 179.464 50.5088 178.773 50.5088C178.176 50.5088 177.872 50.2512 177.872 49.8415C177.872 49.4083 178.199 49.1741 178.75 49.1741C178.972 49.1741 179.265 49.2327 179.616 49.338L179.956 49.4434V49.4902Z" fill="#020203"/>
<path d="M112.351 118.871H113.815C114.283 117.934 114.517 116.623 114.517 114.949V114.668H116.332V118.871H117.795V113.322H113.054V115.008C113.054 115.932 112.995 116.682 112.866 117.232C112.749 117.782 112.574 118.262 112.351 118.684V118.871ZM123.157 116.752C122.981 117.384 122.548 117.7 121.869 117.7C121.073 117.7 120.417 117.22 120.406 116.377H124.175C124.222 116.167 124.246 115.944 124.246 115.698C124.246 114.176 123.204 113.205 121.67 113.205C120.031 113.205 118.907 114.481 118.907 116.061C118.907 117.817 120.125 118.988 121.846 118.988C123.145 118.988 124.047 118.333 124.433 117.255L123.157 116.752ZM120.406 115.382C120.546 114.773 121.061 114.41 121.67 114.41C122.337 114.41 122.794 114.773 122.794 115.335L122.782 115.382H120.406ZM126.66 118.871H128.123V114.668H129.867V113.322H124.915V114.668H126.66V118.871Z" fill="#020203"/>
<path d="M112.351 193.216H113.815C114.283 192.279 114.517 190.968 114.517 189.294V189.013H116.332V193.216H117.795V187.666H113.054V189.352C113.054 190.277 112.995 191.026 112.866 191.577C112.749 192.127 112.574 192.607 112.351 193.028V193.216ZM123.157 191.097C122.981 191.729 122.548 192.045 121.869 192.045C121.073 192.045 120.417 191.565 120.406 190.722H124.175C124.222 190.511 124.246 190.289 124.246 190.043C124.246 188.521 123.204 187.549 121.67 187.549C120.031 187.549 118.907 188.825 118.907 190.406C118.907 192.162 120.125 193.333 121.846 193.333C123.145 193.333 124.047 192.677 124.433 191.6L123.157 191.097ZM120.406 189.727C120.546 189.118 121.061 188.755 121.67 188.755C122.337 188.755 122.794 189.118 122.794 189.68L122.782 189.727H120.406ZM126.66 193.216H128.123V189.013H129.867V187.666H124.915V189.013H126.66V193.216Z" fill="#020203"/>
<path d="M109.452 269.245H110.951V265.042H113.492V263.696H109.452V269.245ZM114.075 266.47C114.075 268.121 115.305 269.362 116.979 269.362C118.653 269.362 119.882 268.121 119.882 266.47C119.882 264.808 118.665 263.579 116.979 263.579C115.293 263.579 114.075 264.808 114.075 266.47ZM118.419 266.47C118.419 267.395 117.81 268.016 116.979 268.016C116.148 268.016 115.539 267.395 115.539 266.47C115.539 265.546 116.148 264.925 116.979 264.925C117.81 264.925 118.419 265.546 118.419 266.47ZM120.43 270.533H121.741V269.245H125.301V270.533H126.624V267.922H125.898V263.696H121.589V265.089C121.589 265.733 121.554 266.236 121.472 266.623C121.402 267.009 121.261 267.442 121.039 267.922H120.43V270.533ZM122.479 267.922C122.772 267.114 122.912 266.388 122.912 265.265V264.925H124.575V267.922H122.479ZM127.397 267.641C127.397 268.707 128.263 269.362 129.224 269.362C130.125 269.362 130.699 269.034 131.062 268.39V269.245H132.431V265.826C132.431 264.375 131.565 263.579 129.879 263.579C128.533 263.579 127.655 264.246 127.362 265.323L128.662 265.674C128.79 265.112 129.2 264.749 129.867 264.749C130.558 264.749 131.003 265.124 131.003 265.745V266.096L130.511 265.979C130.207 265.897 129.891 265.862 129.563 265.862C128.252 265.862 127.397 266.459 127.397 267.641ZM131.003 267.196C131.003 267.84 130.511 268.215 129.821 268.215C129.224 268.215 128.919 267.957 128.919 267.548C128.919 267.114 129.247 266.88 129.797 266.88C130.02 266.88 130.312 266.939 130.664 267.044L131.003 267.149V267.196Z" fill="#020203"/>
<path d="M109.452 348.938H110.951V344.734H113.492V343.388H109.452V348.938ZM114.075 346.163C114.075 347.814 115.305 349.055 116.979 349.055C118.653 349.055 119.882 347.814 119.882 346.163C119.882 344.5 118.665 343.271 116.979 343.271C115.293 343.271 114.075 344.5 114.075 346.163ZM118.419 346.163C118.419 347.088 117.81 347.708 116.979 347.708C116.148 347.708 115.539 347.088 115.539 346.163C115.539 345.238 116.148 344.617 116.979 344.617C117.81 344.617 118.419 345.238 118.419 346.163ZM120.43 350.225H121.741V348.938H125.301V350.225H126.624V347.615H125.898V343.388H121.589V344.781C121.589 345.425 121.554 345.929 121.472 346.315C121.402 346.701 121.261 347.135 121.039 347.615H120.43V350.225ZM122.479 347.615C122.772 346.807 122.912 346.081 122.912 344.957V344.617H124.575V347.615H122.479ZM127.397 347.334C127.397 348.399 128.263 349.055 129.224 349.055C130.125 349.055 130.699 348.727 131.062 348.083V348.938H132.431V345.519C132.431 344.067 131.565 343.271 129.879 343.271C128.533 343.271 127.655 343.938 127.362 345.015L128.662 345.367C128.79 344.805 129.2 344.442 129.867 344.442C130.558 344.442 131.003 344.816 131.003 345.437V345.788L130.511 345.671C130.207 345.589 129.891 345.554 129.563 345.554C128.252 345.554 127.397 346.151 127.397 347.334ZM131.003 346.889C131.003 347.533 130.511 347.907 129.821 347.907C129.224 347.907 128.919 347.65 128.919 347.24C128.919 346.807 129.247 346.573 129.797 346.573C130.02 346.573 130.312 346.631 130.664 346.736L131.003 346.842V346.889Z" fill="#020203"/>
<path d="M187.876 0.932129H179.541H35.7994H18.7885C9.17743 0.932129 1.4375 8.74702 1.4375 18.2608V394.65C1.4375 404.248 9.26248 411.978 18.7885 411.978H35.7994H178.435H187.876C197.487 411.978 205.227 404.164 205.227 394.65V18.2608C205.227 8.74702 197.487 0.932129 187.876 0.932129Z" stroke="#020203" stroke-miterlimit="10" stroke-linecap="round"/>
<path d="M15.0494 102.356C15.0494 104.479 13.3483 106.178 11.222 106.178C9.09561 106.178 7.39453 104.479 7.39453 102.356V90.3787C7.39453 88.255 9.09561 86.5562 11.222 86.5562C13.3483 86.5562 15.0494 88.255 15.0494 90.3787V102.356Z" fill="#020203"/>
<path d="M15.0494 78.1463C15.0494 80.27 13.3483 81.9688 11.222 81.9688C9.09561 81.9688 7.39453 80.27 7.39453 78.1463V46.0373C7.39453 43.9137 9.09561 42.2148 11.222 42.2148C13.3483 42.2148 15.0494 43.9137 15.0494 46.0373V78.1463Z" fill="#020203"/>
<path d="M201.571 392.781C201.571 401.105 194.766 407.901 186.431 407.901H177.16H37.331C28.9957 407.901 22.1914 401.105 22.1914 392.781V20.2144C22.1914 11.8898 28.9957 5.09424 37.331 5.09424H178.266H186.431C194.766 5.09424 201.571 11.8898 201.571 20.2144V392.781Z" stroke="#020203" stroke-miterlimit="10" stroke-linecap="round"/>
<path d="M79.6002 83.8372C79.6002 83.8372 76.113 73.389 63.3549 75.6825C50.5968 77.8911 50.5968 89.7833 50.5968 89.7833C40.0501 91.5672 39.1995 100.486 40.7305 105.073C44.2177 115.352 61.3986 112.548 62.8446 105.838C64.2054 99.2122 64.2054 99.467 64.2054 99.467C58.762 99.2971 58.5919 95.4746 60.0378 93.6908C61.4837 91.9069 63.9503 92.3317 67.9478 91.822C73.7315 91.1424 79.6002 83.8372 79.6002 83.8372Z" fill="#020203"/>
<path d="M75.0908 93.9466C76.0773 93.9466 76.877 93.1479 76.877 92.1627C76.877 91.1776 76.0773 90.3789 75.0908 90.3789C74.1044 90.3789 73.3047 91.1776 73.3047 92.1627C73.3047 93.1479 74.1044 93.9466 75.0908 93.9466Z" fill="#020203"/>
<path d="M62.2521 104.48L60.3809 111.87C59.9556 113.144 60.8912 114.503 62.2521 114.503L72.8839 114.673L72.7988 106.348C72.7988 106.348 73.2241 105.669 73.6494 105.669C80.2836 105.584 80.5387 99.9776 80.3686 98.1088C80.3686 97.6841 80.5387 97.3443 80.964 97.1744C81.3893 97.0046 81.4743 96.4949 81.1341 96.1551C78.6676 93.3519 79.2629 89.1047 79.348 88.9348C79.6882 86.3865 79.7733 85.1973 78.2423 82.7339" stroke="#020203" stroke-miterlimit="10"/>
<path d="M186.682 18.6005C186.682 20.1295 185.491 21.3188 183.96 21.3188C182.429 21.3188 181.238 20.1295 181.238 18.6005C181.238 17.0715 182.429 15.8823 183.96 15.8823C185.491 15.8823 186.682 17.0715 186.682 18.6005Z" fill="#020203"/>
<path d="M175.198 112.306C178.486 109.022 178.486 103.697 175.198 100.413C171.91 97.1289 166.578 97.1289 163.29 100.413C160.002 103.697 160.002 109.022 163.29 112.306C166.578 115.59 171.91 115.59 175.198 112.306Z" stroke="#020203" stroke-miterlimit="10"/>
<path d="M173.76 106.349C173.76 101.762 171.803 97.9399 169.337 97.9399C166.87 97.9399 164.914 101.677 164.914 106.349C164.914 110.936 166.87 114.759 169.337 114.759C171.718 114.759 173.76 111.021 173.76 106.349Z" stroke="#020203" stroke-miterlimit="10"/>
<path d="M169.25 114.759V97.4307" stroke="#020203" stroke-miterlimit="10"/>
<path d="M177.674 106.35H160.918" stroke="#020203" stroke-miterlimit="10"/>
<path d="M169.075 95.6454C173.242 95.6454 176.815 98.0239 178.601 101.422C180.387 94.0315 176.474 87.9155 174.008 85.4521C173.753 85.1973 173.327 85.4521 173.412 85.7069C173.753 87.8305 173.583 88.9348 172.137 90.9735C171.967 91.2283 171.456 91.1434 171.456 90.8036C171.711 87.7456 170.946 84.6027 169.16 81.9694C168.99 81.7145 168.479 81.8844 168.479 82.2242C169.16 85.622 163.801 89.7843 160.314 94.2863C158.953 96.0702 158.188 100.317 159.208 102.186C160.824 98.3637 164.652 95.6454 169.075 95.6454Z" fill="#020203"/>
<path d="M169.245 185.006C173.895 185.006 177.665 181.241 177.665 176.597C177.665 171.953 173.895 168.188 169.245 168.188C164.594 168.188 160.824 171.953 160.824 176.597C160.824 181.241 164.594 185.006 169.245 185.006Z" stroke="#020203" stroke-miterlimit="10"/>
<path d="M173.752 176.597C173.752 172.01 171.796 168.188 169.329 168.188C166.862 168.188 164.906 171.925 164.906 176.597C164.906 181.269 166.862 185.006 169.329 185.006C171.711 185.006 173.752 181.269 173.752 176.597Z" stroke="#020203" stroke-miterlimit="10"/>
<path d="M169.242 185.006V167.678" stroke="#020203" stroke-miterlimit="10"/>
<path d="M177.666 176.597H160.91" stroke="#020203" stroke-miterlimit="10"/>
<path d="M169.075 165.98C173.242 165.98 176.815 168.358 178.601 171.756C180.387 164.366 176.474 158.25 174.008 155.787C173.753 155.532 173.327 155.787 173.412 156.041C173.753 158.165 173.583 159.269 172.137 161.308C171.967 161.563 171.456 161.478 171.456 161.138C171.711 158.08 170.946 154.937 169.16 152.304C168.99 152.049 168.479 152.219 168.479 152.559C169.16 155.956 163.801 160.119 160.314 164.621C158.953 166.405 158.188 170.652 159.208 172.521C160.824 168.613 164.652 165.98 169.075 165.98Z" fill="#020203"/>
<path d="M175.198 257.729C178.486 254.445 178.486 249.12 175.198 245.836C171.91 242.552 166.578 242.552 163.29 245.836C160.002 249.12 160.002 254.445 163.29 257.729C166.578 261.013 171.91 261.013 175.198 257.729Z" stroke="#020203" stroke-miterlimit="10"/>
<path d="M173.756 251.773C173.756 247.186 171.8 243.363 169.333 243.363C166.866 243.363 164.91 247.101 164.91 251.773C164.91 256.445 166.866 260.182 169.333 260.182C171.714 260.182 173.756 256.445 173.756 251.773Z" stroke="#020203" stroke-miterlimit="10"/>
<path d="M169.254 260.181V242.852" stroke="#020203" stroke-miterlimit="10"/>
<path d="M177.67 251.771H160.914" stroke="#020203" stroke-miterlimit="10"/>
<path d="M169.083 241.155C173.25 241.155 176.822 243.533 178.609 246.931C180.395 239.541 176.482 233.425 174.016 230.961C173.76 230.707 173.335 230.961 173.42 231.216C173.761 233.34 173.59 234.444 172.144 236.483C171.974 236.738 171.464 236.653 171.464 236.313C171.719 233.255 170.954 230.112 169.168 227.479C168.997 227.224 168.487 227.394 168.487 227.733C169.168 231.131 163.809 235.294 160.322 239.796C158.961 241.579 158.196 245.827 159.216 247.695C160.832 243.788 164.66 241.155 169.083 241.155Z" fill="#020203"/>
<path d="M171.182 326.703C175.708 325.636 178.51 321.106 177.442 316.586C176.373 312.066 171.838 309.267 167.312 310.335C162.786 311.402 159.984 315.931 161.052 320.451C162.121 324.971 166.656 327.77 171.182 326.703Z" stroke="#020203" stroke-miterlimit="10"/>
<path d="M173.752 318.538C173.752 313.951 171.796 310.129 169.329 310.129C166.862 310.129 164.906 313.866 164.906 318.538C164.906 323.21 166.862 326.948 169.329 326.948C171.711 326.948 173.752 323.21 173.752 318.538Z" stroke="#020203" stroke-miterlimit="10"/>
<path d="M169.242 326.949V309.621" stroke="#020203" stroke-miterlimit="10"/>
<path d="M177.662 318.54H160.906" stroke="#020203" stroke-miterlimit="10"/>
<path d="M169.075 307.837C173.242 307.837 176.815 310.215 178.601 313.613C180.387 306.223 176.474 300.107 174.008 297.644C173.753 297.389 173.327 297.644 173.412 297.898C173.753 300.022 173.583 301.126 172.137 303.165C171.967 303.42 171.456 303.335 171.456 302.995C171.711 299.937 170.946 296.794 169.16 294.161C168.99 293.906 168.479 294.076 168.479 294.416C169.16 297.813 163.801 301.976 160.314 306.478C158.953 308.262 158.188 312.509 159.208 314.378C160.824 310.555 164.652 307.837 169.075 307.837Z" fill="#020203"/>
<path d="M168.569 336.378C167.973 336.547 167.463 337.057 167.293 337.652C167.123 338.246 167.293 338.841 167.633 339.181C167.973 339.605 168.143 340.115 168.143 340.71V340.965C166.357 341.134 164.741 341.814 163.465 342.918L163.04 342.494C162.7 342.154 162.53 341.644 162.445 341.219C162.36 340.88 162.19 340.455 161.934 340.2C161.169 339.436 159.723 339.52 159.128 340.54C158.787 341.134 158.787 341.814 159.128 342.324C159.383 342.833 159.893 343.088 160.403 343.173C160.914 343.258 161.424 343.428 161.849 343.853L162.19 344.192C161.254 345.297 160.659 346.741 160.403 348.185C160.318 348.525 160.063 348.779 159.723 348.779C159.213 348.779 158.787 348.61 158.362 348.27C158.022 348.015 157.682 347.93 157.256 347.93C156.151 347.93 155.215 348.949 155.555 350.139C155.725 350.733 156.236 351.243 156.831 351.413C157.426 351.583 158.022 351.413 158.362 351.073C158.702 350.818 159.128 350.563 159.638 350.563H159.893C160.148 350.563 160.318 350.733 160.403 350.988C160.659 352.517 161.254 353.961 162.19 355.15L161.679 355.66C161.339 356 160.829 356.17 160.403 356.255C160.063 356.339 159.638 356.509 159.383 356.764C158.617 357.529 158.702 358.973 159.723 359.567C160.318 359.907 160.999 359.907 161.509 359.567C162.019 359.313 162.275 358.803 162.36 358.293C162.445 357.784 162.615 357.274 163.04 356.849L163.38 356.509C164.656 357.529 166.187 358.293 167.888 358.463V359.058C167.888 359.567 167.718 359.992 167.378 360.417C167.123 360.757 167.038 361.096 167.038 361.521C167.038 362.625 168.058 363.56 169.249 363.22C169.844 363.05 170.355 362.54 170.525 361.946C170.695 361.351 170.525 360.757 170.185 360.417C169.844 359.992 169.674 359.482 169.674 358.888V358.463C171.46 358.293 172.991 357.699 174.352 356.679L174.692 357.019C175.033 357.359 175.203 357.868 175.288 358.293C175.373 358.633 175.543 359.058 175.798 359.313C176.564 360.077 178.01 359.992 178.605 358.973C178.945 358.378 178.945 357.699 178.605 357.189C178.35 356.679 177.839 356.424 177.329 356.339C176.819 356.255 176.309 356.085 175.883 355.66L175.628 355.405C176.734 354.131 177.414 352.517 177.669 350.733H178.095C178.605 350.733 179.03 350.903 179.456 351.243C179.796 351.498 180.136 351.583 180.561 351.583C181.667 351.583 182.603 350.563 182.262 349.374C182.092 348.779 181.582 348.27 180.986 348.1C180.391 347.93 179.796 348.1 179.456 348.44C179.03 348.779 178.52 348.949 177.925 348.949H177.669C177.499 347.165 176.819 345.552 175.798 344.192L176.053 343.938C176.394 343.598 176.904 343.428 177.329 343.343C177.669 343.258 178.095 343.088 178.35 342.833C179.115 342.069 179.03 340.625 178.01 340.03C177.414 339.69 176.734 339.69 176.223 340.03C175.713 340.285 175.458 340.795 175.373 341.304C175.288 341.814 175.118 342.324 174.692 342.748L174.522 342.918C173.247 341.814 171.545 341.134 169.844 340.965V340.54C169.844 340.03 170.014 339.605 170.355 339.181C170.61 338.841 170.695 338.501 170.695 338.076C170.78 336.972 169.759 336.123 168.569 336.378Z" fill="#020203"/>
<path d="M73.8185 133.955H54.9364C53.0652 133.955 51.4492 132.426 51.4492 130.472C51.4492 128.603 52.9802 126.989 54.9364 126.989H73.8185C75.6896 126.989 77.3057 128.518 77.3057 130.472C77.3057 132.426 75.7747 133.955 73.8185 133.955Z" fill="#020203"/>
<path d="M174.182 21.4891H158.532C156.916 21.4891 155.641 20.2149 155.641 18.601C155.641 16.9871 156.916 15.7129 158.532 15.7129H174.182C175.798 15.7129 177.074 16.9871 177.074 18.601C177.074 20.2149 175.798 21.4891 174.182 21.4891Z" fill="#020203"/>
<path d="M53.0652 21.4891H37.4153C35.7993 21.4891 34.5234 20.2149 34.5234 18.601C34.5234 16.9871 35.7993 15.7129 37.4153 15.7129H53.0652C54.6813 15.7129 55.9571 16.9871 55.9571 18.601C55.9571 20.2149 54.6813 21.4891 53.0652 21.4891Z" fill="#020203"/>
<path d="M75.4345 212.019H54.9364C53.0652 212.019 51.4492 210.49 51.4492 208.536C51.4492 206.667 52.9802 205.053 54.9364 205.053H75.4345C77.3057 205.053 78.9217 206.582 78.9217 208.536C78.9217 210.49 77.3907 212.019 75.4345 212.019Z" fill="#020203"/>
<path d="M94.6567 291.696H54.9364C53.0652 291.696 51.4492 290.167 51.4492 288.214C51.4492 286.345 52.9802 284.731 54.9364 284.731H94.5717C96.4429 284.731 98.0589 286.26 98.0589 288.214C98.0589 290.167 96.5279 291.696 94.6567 291.696Z" fill="#020203"/>
<path d="M140.501 370.526H54.9364C53.0652 370.526 51.4492 368.997 51.4492 367.043C51.4492 365.175 52.9802 363.561 54.9364 363.561H140.501C142.372 363.561 143.988 365.09 143.988 367.043C143.988 368.997 142.372 370.526 140.501 370.526Z" fill="#020203"/>
<path d="M468.894 364.496L457.072 294.247C456.731 292.378 456.731 290.509 457.072 288.64L468.894 218.391C470.255 210.237 477.4 204.206 485.65 204.206H533.875C541.956 204.206 549.015 209.897 550.546 217.882L564.155 285.922C564.58 288.046 564.58 290.254 564.155 292.463L550.376 364.921C548.845 372.905 541.871 378.766 533.62 378.766H485.565C477.4 378.682 470.255 372.735 468.894 364.496Z" stroke="#020203" stroke-miterlimit="10" stroke-linecap="round"/>
<path d="M484.031 204.63C484.031 190.19 495.769 178.467 510.228 178.467C524.687 178.467 536.425 190.19 536.425 204.63" stroke="#020203" stroke-miterlimit="10"/>
<path d="M484.031 378.171C484.031 392.442 495.599 403.995 509.888 403.995C524.177 403.995 535.744 392.442 535.744 378.171" stroke="#020203" stroke-miterlimit="10"/>
<path d="M523.414 218.477L543.912 257.466" stroke="#020203" stroke-miterlimit="10" stroke-linecap="round"/>
<path d="M497.9 218.477L477.402 257.466" stroke="#020203" stroke-miterlimit="10" stroke-linecap="round"/>
<path d="M510.656 218.477V256.277" stroke="#020203" stroke-miterlimit="10" stroke-linecap="round"/>
<path d="M523.414 365.007L543.912 326.017" stroke="#020203" stroke-miterlimit="10" stroke-linecap="round"/>
<path d="M497.9 365.007L477.402 326.017" stroke="#020203" stroke-miterlimit="10" stroke-linecap="round"/>
<path d="M510.656 365.006V327.291" stroke="#020203" stroke-miterlimit="10" stroke-linecap="round"/>
<path d="M363.767 298.748C385.37 313.359 412.673 331.622 412.673 331.622C420.668 336.973 421.689 348.186 415.054 355.151C409.866 360.503 404.082 365.345 397.873 369.592C349.478 402.211 282.795 389.299 250.134 340.966C217.474 292.632 230.402 226.036 278.798 193.417C323.111 163.602 382.649 171.841 417.521 210.491C422.709 216.267 421.689 225.271 415.224 229.688C415.224 229.688 386.731 248.886 364.447 263.921" stroke="#020203" stroke-miterlimit="10" stroke-linecap="round"/>
<path d="M269.187 284.054C269.187 283.204 269.102 282.27 269.102 281.42C269.102 260.269 278.628 241.412 293.512 228.67" stroke="#020203" stroke-miterlimit="10" stroke-linecap="round"/>
<path d="M319.707 214.824C325.661 213.125 331.87 212.275 338.419 212.275C343.607 212.275 348.625 212.87 353.474 213.889" stroke="#020203" stroke-miterlimit="10" stroke-linecap="round"/>
<path d="M338.335 299.937C348.575 299.937 356.877 291.646 356.877 281.419C356.877 271.192 348.575 262.901 338.335 262.901C328.094 262.901 319.793 271.192 319.793 281.419C319.793 291.646 328.094 299.937 338.335 299.937Z" fill="#020203"/>
<path d="M368.953 280.994C368.953 287.365 366.997 293.311 363.68 298.238L410.289 329.752C419.73 315.821 425.259 299.087 425.259 280.994C425.259 262.986 419.815 246.252 410.374 232.406L363.68 263.835C366.997 268.677 368.953 274.623 368.953 280.994Z" fill="#020203"/>
<path d="M273.866 366.789C272.591 368.828 271.91 371.121 271.91 373.67V387.261C271.91 394.566 277.864 400.427 285.094 400.427H380.439C387.754 400.427 393.623 394.481 393.623 387.261V373.67C393.623 373.5 393.623 373.245 393.623 373.075C355.774 396.095 307.973 392.442 273.866 366.789Z" fill="#020203"/>
<path d="M403.398 251.093C405.014 254.576 406.375 258.229 407.396 261.966" stroke="white" stroke-miterlimit="10" stroke-linecap="round"/>
<path d="M409.866 275.218C410.036 277.256 410.121 279.295 410.121 281.334C410.121 290.168 408.505 298.577 405.613 306.392" stroke="white" stroke-miterlimit="10" stroke-linecap="round"/>
</g>
<defs>
<clipPath id="clip0">
<rect width="589" height="413" fill="white" transform="translate(0.5)"/>
</clipPath>
</defs>
</svg>
