
<svg xmlns="http://www.w3.org/2000/svg" xmlns:xlink="http://www.w3.org/1999/xlink"
	 x="0px" y="0px" width="566.08px" height="689px" viewBox="0 0 566.08 689">
<path fill-rule="evenodd" clip-rule="evenodd" fill="none" d="M148.48,529.439c0.58,3.802,1.323,7.567,2.83,11.127
	c5.613,13.266,15.308,21.707,29.48,24.795c1.992,0.435,4.021,0.646,6.071,0.646c64.794-0.005,129.588,0.075,194.383-0.072
	c12.705-0.029,22.805-5.964,30.387-16.029c5.51-7.315,8.146-15.661,8.146-24.856c-0.015-100.432,0.045-200.863-0.062-301.294
	c-0.018-16.528-7.667-28.921-22.225-36.834c-5.275-2.868-11.042-4.136-17.084-4.135c-64.194,0.013-128.389-0.107-192.583,0.087
	c-16.767,0.051-28.456,8.754-35.752,23.599c-1.995,4.057-2.936,8.44-3.589,12.888c0-32.319,0-64.639,0-96.959
	c44.32,0,88.64,0,132.959,0c-0.23,0.063-0.459,0.135-0.691,0.189c-8.128,1.912-13.321,9.203-12.289,17.265
	c1.033,8.071,8.154,13.813,15.982,13.634c11.471-0.265,18.904-13.134,13.202-23.144c-2.49-4.372-6.276-6.935-11.163-7.944
	c44.474,0,88.947,0,133.431,0c0,147.894,0,295.787,0,443.72c-90.471,0-180.951,0-271.431,0
	C148.48,553.916,148.48,541.678,148.48,529.439z"/>
<path fill-rule="evenodd" clip-rule="evenodd" fill="none" d="M284.084,316.641c41.036,0,82.073,0,123.109,0
	c0.44,0,0.881,0.018,1.319,0.002c0.704-0.023,1.04,0.297,1.017,1.006c-0.012,0.359,0.004,0.72,0.004,1.08
	c0,37.276,0,74.554,0,111.83c0,0.4-0.008,0.8-0.011,1.2c-0.003,0.595-0.31,0.874-0.896,0.872c-0.359-0.001-0.72,0.008-1.08,0.008
	c-82.312,0-164.626,0-246.939,0c-1.978,0-1.979-0.002-1.979-1.967c0-37.357,0-74.714,0-112.07c0-1.959,0.002-1.961,1.987-1.961
	C201.771,316.641,242.927,316.641,284.084,316.641z M240.781,351.53c2.133,11.253,7.555,20.488,16.552,27.465
	c9.042,7.012,19.392,10.377,30.752,9.066c21.858-2.523,34.655-15.396,40.085-36.393c0.327-0.104,0.704,0.188,1.094,0.355
	c9.768,4.192,18.267,10.211,25.535,17.943c2.272,2.418,4.305,5.059,5.707,8.114c0.984,2.145,0.93,4.179-0.658,6.051
	c-0.218,0.257-0.557,0.497-0.371,0.952c0.445,0.286,0.981,0.294,1.483,0.358c5.984,0.765,11.983,1.427,17.953,2.297
	c2.352,0.343,4.424-0.035,6.448-1.166c1.046-0.585,2.16-1.049,3.207-1.632c1.571-0.875,3.123-1.787,4.659-2.722
	c0.6-0.364,1.425-0.729,1.226-1.588c-0.212-0.915-1.137-0.679-1.818-0.765c-0.515-0.065-1.038-0.069-1.549-0.153
	c-4.683-0.768-8.354-3.302-11.471-6.718c-3.857-4.229-7.902-8.259-12.252-11.984c-13.871-11.882-29.572-20.404-47.082-25.567
	c-8.034-2.369-16.227-3.925-24.593-4.609c-8.998-0.736-17.974-0.672-26.934,0.386c-10.535,1.244-20.749,3.808-30.643,7.642
	c-9.478,3.671-18.381,8.418-26.738,14.203c-8.727,6.04-16.459,13.179-23.595,21.015c-2.752,3.021-6.265,4.939-10.339,5.678
	c-0.861,0.156-1.76,0.103-2.62,0.263c-0.964,0.181-1.154,0.828-0.492,1.539c0.295,0.315,0.674,0.563,1.042,0.8
	c3.005,1.921,6.182,3.518,9.407,5.032c1.259,0.591,2.551,0.646,3.869,0.481c6.384-0.796,12.765-1.61,19.144-2.442
	c0.434-0.057,0.98,0.008,1.252-0.491c-0.025-0.106-0.03-0.189-0.064-0.259c-0.053-0.106-0.114-0.214-0.192-0.302
	c-1.9-2.116-1.786-4.371-0.571-6.774c1.202-2.379,2.741-4.523,4.492-6.497c6.861-7.732,15.047-13.709,24.381-18.119
	C238.201,352.464,239.297,351.87,240.781,351.53z M291.361,411.069c0-1.797-0.019-3.594,0.008-5.39
	c0.013-0.835-0.345-1.173-1.158-1.078c-3.979,0.462-7.959,0.443-11.938-0.004c-0.848-0.095-1.253,0.205-1.246,1.118
	c0.025,3.514,0.017,7.027,0.005,10.541c-0.002,0.652,0.228,1.035,0.901,1.188c4.152,0.942,8.298,1.026,12.456,0.025
	c0.716-0.173,0.99-0.538,0.981-1.25C291.349,414.504,291.363,412.786,291.361,411.069z M348.628,402.974
	c-0.188-0.276-0.368-0.586-0.591-0.86c-1.988-2.454-4.006-4.884-5.962-7.363c-0.604-0.766-1.165-0.884-2.046-0.484
	c-3.35,1.519-6.729,2.968-10.092,4.456c-0.424,0.188-0.933,0.282-1.175,0.835c0.097,0.225,0.177,0.496,0.32,0.728
	c1.578,2.549,3.11,5.127,4.951,7.503c1.528,1.972,1.947,2.13,4.255,1.152c3.395-1.438,6.561-3.317,9.715-5.21
	C348.24,403.588,348.485,403.437,348.628,402.974z M239.896,399.545c-0.27-0.247-0.367-0.392-0.501-0.451
	c-3.797-1.681-7.599-3.351-11.397-5.026c-0.607-0.269-0.965,0.045-1.317,0.485c-0.996,1.249-2.015,2.479-3.018,3.723
	c-1.271,1.576-2.536,3.158-3.784,4.714c0.291,0.55,0.703,0.733,1.072,0.952c3.265,1.934,6.519,3.888,10.072,5.267
	c0.889,0.345,1.804,0.545,2.543-0.302C236.044,406.065,237.903,402.812,239.896,399.545z"/>
<path fill-rule="evenodd" clip-rule="evenodd" fill="none" d="M284.05,306.158c-41.034,0-82.068,0-123.102,0
	c-0.479,0-0.959-0.008-1.439-0.008c-0.598-0.002-0.872-0.314-0.873-0.896c0-0.361-0.009-0.721-0.009-1.08
	c0-26.517,0.023-53.033-0.013-79.549c-0.012-8.721,2.724-16.355,8.773-22.664c4.689-4.89,10.44-7.836,17.211-8.709
	c1.595-0.206,3.188-0.225,4.787-0.225c63.311,0.001,126.621,0.07,189.932-0.049c15.736-0.029,28.458,12.121,30.021,27.398
	c0.146,1.438,0.195,2.87,0.195,4.309c0.002,26.477,0.001,52.952,0.001,79.428c0,0.36-0.013,0.721-0.006,1.08
	c0.012,0.641-0.278,0.971-0.936,0.96c-0.479-0.007-0.96,0.005-1.439,0.005C366.118,306.158,325.084,306.158,284.05,306.158z
	 M199.119,288.274c2.159,0,4.319,0.026,6.479-0.006c4.812-0.073,9.575-0.565,14.224-1.87c12.317-3.453,20.374-11.193,23.445-23.724
	c2.11-8.61,2.032-17.284-0.213-25.872c-2.213-8.466-6.944-15.12-14.632-19.5c-5.782-3.295-12.094-4.77-18.671-5.191
	c-6.19-0.397-12.392-0.114-18.587-0.173c-1.688-0.016-1.728,0.051-1.729,1.771c-0.002,10.237-0.001,20.476-0.001,30.713
	c0,13.997,0,27.993,0.001,41.989c0,1.84,0.017,1.855,1.887,1.859C193.92,288.277,196.52,288.273,199.119,288.274z M255.121,288.062
	c2.707,0,4.978-0.07,7.241,0.027c1.291,0.055,1.896-0.402,2.352-1.621c6.291-16.854,12.636-33.688,18.975-50.525
	c0.129-0.34,0.154-0.769,0.599-1.021c0.173,0.422,0.331,0.784,0.47,1.152c6.349,16.876,12.703,33.75,19.025,50.635
	c0.362,0.967,0.848,1.407,1.911,1.371c1.997-0.066,3.998-0.011,5.997-0.025c0.422-0.002,0.89,0.112,1.398-0.473
	c-9.53-25.101-19.1-50.305-28.668-75.509c-0.156,0.015-0.312,0.028-0.467,0.042C274.389,237.309,264.824,262.504,255.121,288.062z
	 M319.129,212.391c0.01,0.643,0.395,1.079,0.665,1.556c7.749,13.629,15.498,27.257,23.268,40.874
	c0.494,0.867,0.71,1.733,0.707,2.729c-0.022,9.6-0.015,19.2-0.012,28.801c0.001,1.713,0.205,1.914,1.945,1.929
	c1.44,0.013,2.881,0.011,4.32,0.001c1.834-0.012,2.046-0.227,2.047-2.101c0.003-8.399,0.13-16.803-0.062-25.198
	c-0.076-3.309,0.776-6.08,2.413-8.903c7.382-12.733,14.61-25.554,21.884-38.35c0.239-0.422,0.672-0.829,0.409-1.405
	c-0.459-0.286-0.951-0.197-1.423-0.199c-2-0.011-4.005,0.076-5.999-0.033c-1.344-0.073-2.092,0.412-2.745,1.584
	c-5.746,10.304-11.549,20.576-17.345,30.854c-0.361,0.641-0.645,1.348-1.191,1.869c-0.444-0.263-0.564-0.664-0.756-1.002
	c-1.656-2.924-3.3-5.854-4.947-8.781c-4.375-7.771-8.758-15.539-13.113-23.322c-0.464-0.828-1.035-1.208-2.002-1.188
	c-2.319,0.05-4.64,0.013-6.96,0.02C319.88,212.123,319.506,212.061,319.129,212.391z"/>
<path fill-rule="evenodd" clip-rule="evenodd" fill="none" d="M284.137,443.121c40.953,0,81.906,0,122.86,0
	c0.439,0,0.882,0.027,1.319-0.004c0.857-0.061,1.291,0.279,1.218,1.174c-0.021,0.238-0.001,0.479-0.001,0.72
	c0,26.556-0.001,53.112,0,79.668c0,7.416-2.146,14.131-6.808,19.918c-5.8,7.199-13.344,11.146-22.654,11.152
	c-63.99,0.04-127.98,0.03-191.969,0.015c-13.089-0.004-24.717-9.138-28.265-22.078c-0.808-2.947-1.216-5.939-1.215-9
	c0.01-26.596,0.005-53.191,0.006-79.787c0-1.773,0.004-1.777,1.809-1.777C201.669,443.121,242.903,443.121,284.137,443.121z
	 M377.768,499.221c0-12.155,0.001-24.311-0.001-36.466c-0.001-1.691-0.05-1.743-1.759-1.746c-5.158-0.008-10.317-0.065-15.474,0.01
	c-4.245,0.062-8.454,0.555-12.568,1.655c-12.686,3.393-20.928,11.26-24.056,24.143c-1.895,7.807-1.928,15.686-0.288,23.541
	c1.961,9.395,6.791,16.836,15.274,21.627c6.121,3.456,12.817,4.938,19.768,5.163c5.752,0.185,11.515,0.054,17.272,0.059
	c1.825,0.001,1.83-0.006,1.83-1.879C377.769,523.291,377.768,511.256,377.768,499.221z M247.501,461.523
	c-0.674-0.402-1.202-0.302-1.703-0.302c-9.399-0.006-18.797-0.005-28.196-0.004c-7.519,0-15.038-0.004-22.557,0.004
	c-1.539,0.002-1.756,0.225-1.767,1.722c-0.012,1.68,0.041,3.361-0.017,5.039c-0.041,1.196,0.51,1.686,1.637,1.686
	c0.479-0.001,0.959,0.013,1.439,0.013c11.398,0.001,22.797-0.003,34.195,0.009c0.532,0.001,1.115-0.179,1.743,0.354
	c-14.249,22.266-28.496,44.53-42.753,66.811c0.74,0.511,1.356,0.346,1.932,0.346c17.158,0.01,34.315,0.008,51.473,0.008
	c0.32,0,0.641-0.015,0.96-0.003c0.967,0.035,1.38-0.455,1.375-1.391c-0.009-1.56,0.004-3.119,0.003-4.68
	c-0.002-2.147-0.097-2.246-2.221-2.246c-12.198-0.001-24.396,0.001-36.595-0.008c-0.463,0-0.953,0.131-1.556-0.242
	C219.092,506.273,233.28,483.926,247.501,461.523z M284.425,503.348c7.114,0,14.228,0.002,21.342-0.002
	c1.799-0.001,2.056-0.263,2.078-2.093c0.015-1.158,0.005-2.317,0.004-3.477c-0.001-2.801-0.08-2.884-2.889-2.884
	c-13.588-0.002-27.177-0.001-40.765,0c-0.4,0-0.801-0.007-1.199,0.02c-1.379,0.091-1.685,0.382-1.713,1.753
	c-0.031,1.518-0.022,3.037-0.008,4.556c0.017,1.879,0.27,2.124,2.167,2.125C270.438,503.35,277.431,503.348,284.425,503.348z
	 M284.565,469.681c6.155,0,12.311,0.001,18.466,0c0.879,0,1.759,0.011,2.638-0.005c1.887-0.033,2.162-0.306,2.177-2.154
	c0.012-1.318,0.009-2.638,0.002-3.957c-0.011-2.146-0.205-2.346-2.309-2.346c-8.633-0.003-17.266-0.002-25.899-0.001
	c-5.515,0-11.031-0.006-16.547,0.005c-1.444,0.003-1.771,0.317-1.807,1.752c-0.035,1.398-0.016,2.798-0.014,4.197
	c0.004,2.301,0.202,2.505,2.55,2.507C270.736,469.685,277.65,469.681,284.565,469.681z M284.514,537.206
	c7.195,0,14.39,0.004,21.585-0.004c1.414-0.001,1.713-0.279,1.737-1.661c0.029-1.678-0.002-3.357,0.001-5.036
	c0.002-1.146-0.533-1.629-1.702-1.628c-14.391,0.019-28.781,0.019-43.171,0.001c-1.184-0.002-1.683,0.522-1.682,1.651
	c0.001,1.559-0.018,3.118-0.007,4.677c0.013,1.772,0.242,1.998,2.012,1.999C270.363,537.209,277.438,537.207,284.514,537.206z"/>
<g>
	<g>
		<path fill-rule="evenodd" clip-rule="evenodd" d="M289.48,275.4c4.887,1.01,8.673,3.572,11.163,7.944
			c5.702,10.01-1.731,22.879-13.202,23.144c-7.828,0.18-14.949-5.562-15.982-13.634c-1.032-8.062,4.161-15.353,12.289-17.265
			c0.232-0.055,0.461-0.126,0.691-0.189C286.12,275.4,287.801,275.4,289.48,275.4z"/>
		<path fill-rule="evenodd" clip-rule="evenodd" d="M243.781,351.53c-1.483,0.34-2.58,0.934-3.692,1.459
			c-9.334,4.41-17.521,10.387-24.381,18.119c-1.751,1.974-3.29,4.118-4.492,6.497c-1.215,2.403-1.33,4.658,0.571,6.774
			c0.079,0.088,0.139,0.195,0.192,0.302c0.034,0.069,0.04,0.152,0.064,0.259c-0.272,0.499-0.819,0.435-1.252,0.491
			c-6.379,0.832-12.76,1.646-19.144,2.442c-1.318,0.164-2.609,0.109-3.869-0.481c-3.225-1.515-6.402-3.111-9.407-5.032
			c-0.368-0.236-0.747-0.484-1.042-0.8c-0.663-0.711-0.472-1.358,0.492-1.539c0.859-0.16,1.759-0.106,2.62-0.263
			c4.074-0.738,7.587-2.656,10.339-5.678c7.136-7.836,14.868-14.975,23.595-21.015c8.357-5.785,17.26-10.532,26.738-14.203
			c9.895-3.834,20.108-6.397,30.643-7.642c8.96-1.058,17.936-1.122,26.934-0.386c8.366,0.685,16.559,2.24,24.593,4.609
			c17.51,5.163,33.211,13.686,47.082,25.567c4.35,3.726,8.395,7.755,12.252,11.984c3.117,3.416,6.788,5.95,11.471,6.718
			c0.511,0.084,1.034,0.088,1.549,0.153c0.682,0.086,1.606-0.15,1.818,0.765c0.199,0.859-0.626,1.224-1.226,1.588
			c-1.536,0.935-3.088,1.847-4.659,2.722c-1.047,0.583-2.161,1.047-3.207,1.632c-2.024,1.131-4.097,1.509-6.448,1.166
			c-5.97-0.87-11.969-1.532-17.953-2.297c-0.502-0.064-1.038-0.072-1.483-0.358c-0.186-0.455,0.153-0.695,0.371-0.952
			c1.588-1.872,1.643-3.906,0.658-6.051c-1.402-3.056-3.435-5.696-5.707-8.114c-7.269-7.732-15.768-13.751-25.535-17.943
			c-0.39-0.167-0.767-0.459-1.094-0.355c-5.43,20.997-18.227,33.869-40.085,36.393c-11.36,1.311-21.711-2.055-30.752-9.066
			C251.335,372.019,245.914,362.783,243.781,351.53z"/>
	</g>
	<path fill-rule="evenodd" clip-rule="evenodd" d="M291.362,411.069c0.001,1.717-0.014,3.435,0.009,5.151
		c0.009,0.712-0.266,1.077-0.981,1.25c-4.158,1.001-8.304,0.917-12.456-0.025c-0.674-0.153-0.903-0.536-0.901-1.188
		c0.012-3.514,0.021-7.027-0.005-10.541c-0.007-0.913,0.398-1.213,1.246-1.118c3.979,0.447,7.958,0.466,11.938,0.004
		c0.813-0.095,1.171,0.243,1.158,1.078C291.343,407.476,291.361,409.272,291.362,411.069z"/>
	<path fill-rule="evenodd" clip-rule="evenodd" d="M348.628,402.974c-0.143,0.463-0.388,0.614-0.624,0.756
		c-3.154,1.893-6.32,3.772-9.715,5.21c-2.308,0.978-2.727,0.819-4.255-1.152c-1.841-2.376-3.373-4.954-4.951-7.503
		c-0.144-0.231-0.224-0.503-0.32-0.728c0.242-0.553,0.751-0.647,1.175-0.835c3.363-1.488,6.742-2.938,10.092-4.456
		c0.881-0.399,1.441-0.281,2.046,0.484c1.956,2.479,3.974,4.909,5.962,7.363C348.26,402.388,348.439,402.697,348.628,402.974z"/>
	<path fill-rule="evenodd" clip-rule="evenodd" d="M242.896,399.545c-1.992,3.267-3.852,6.521-6.33,9.361
		c-0.739,0.847-1.654,0.646-2.543,0.302c-3.554-1.379-6.808-3.333-10.072-5.267c-0.37-0.219-0.782-0.402-1.072-0.952
		c1.248-1.556,2.513-3.138,3.784-4.714c1.003-1.243,2.021-2.474,3.018-3.723c0.352-0.44,0.709-0.754,1.317-0.485
		c3.799,1.676,7.601,3.346,11.397,5.026C242.529,399.153,242.626,399.298,242.896,399.545z"/>
</g>
<path fill-rule="evenodd" clip-rule="evenodd" fill="none" d="M199.667,250.062c0-8.677-0.001-17.354,0.001-26.032
	c0-1.72,0.006-1.708,1.746-1.729c5.082-0.062,10.153-0.068,15.125,1.252c5.85,1.553,10.807,4.378,14.018,9.711
	c1.906,3.167,2.946,6.643,3.394,10.291c0.741,6.039,0.705,12.047-1.018,17.947c-1.998,6.844-6.374,11.508-13.022,14.045
	c-3.963,1.512-8.091,2.195-12.315,2.309c-2.158,0.059-4.319-0.012-6.477,0.053c-1.086,0.032-1.485-0.346-1.469-1.455
	c0.051-3.598,0.019-7.197,0.018-10.796C199.667,260.459,199.667,255.26,199.667,250.062z"/>
</svg>
