<?xml version="1.0" encoding="UTF-8" standalone="no"?>
<svg
   xmlns:dc="http://purl.org/dc/elements/1.1/"
   xmlns:cc="http://creativecommons.org/ns#"
   xmlns:rdf="http://www.w3.org/1999/02/22-rdf-syntax-ns#"
   xmlns:svg="http://www.w3.org/2000/svg"
   xmlns="http://www.w3.org/2000/svg"
   viewBox="0 0 59.432266 43.223999"
   height="43.223999"
   width="59.432266"
   xml:space="preserve"
   id="svg2"
   version="1.1"><metadata
     id="metadata8"><rdf:RDF><cc:Work
         rdf:about=""><dc:format>image/svg+xml</dc:format><dc:type
           rdf:resource="http://purl.org/dc/dcmitype/StillImage" /></cc:Work></rdf:RDF></metadata><defs
     id="defs6"><clipPath
       id="clipPath18"
       clipPathUnits="userSpaceOnUse"><path
         id="path16"
         d="M 0,32.418 H 44.574 V 0 H 0 Z" /></clipPath></defs><g
     transform="matrix(1.3333333,0,0,-1.3333333,0,43.224)"
     id="g10"><g
       id="g12"><g
         clip-path="url(#clipPath18)"
         id="g14"><g
           transform="translate(10.1049,32.4179)"
           id="g20"><path
             id="path22"
             style="fill:#d9af7e;fill-opacity:1;fill-rule:nonzero;stroke:none"
             d="m 0,0 c 2.869,0 5.32,-1.118 7.354,-3.352 0.967,-1.035 1.734,-2.294 2.301,-3.777 0.568,-1.484 0.852,-2.976 0.852,-4.477 0,-3.169 -1.035,-6.378 -3.103,-9.63 -2.067,-3.252 -4.836,-6.012 -8.304,-8.28 -2.935,-1.934 -5.237,-2.902 -6.904,-2.902 -0.667,0 -1.217,0.2 -1.65,0.601 -0.434,0.4 -0.65,0.934 -0.65,1.6 0,1.001 0.632,1.835 1.9,2.502 3.034,1.569 5.253,3.119 6.654,4.653 1.333,1.433 2,2.484 2,3.151 0,0.634 -0.5,1.018 -1.5,1.151 l -0.65,0.1 -0.75,0.05 c -2.169,0.334 -3.928,1.342 -5.279,3.026 -1.35,1.684 -2.026,3.728 -2.026,6.129 0,2.467 0.834,4.601 2.501,6.403 C -5.352,-1.018 -2.935,0 0,0" /></g><g
           transform="translate(34.0678,32.4179)"
           id="g24"><path
             id="path26"
             style="fill:#d9af7e;fill-opacity:1;fill-rule:nonzero;stroke:none"
             d="m 0,0 c 2.869,0 5.32,-1.118 7.354,-3.352 0.966,-1.035 1.734,-2.294 2.301,-3.777 0.569,-1.484 0.852,-2.976 0.852,-4.477 0,-3.169 -1.035,-6.378 -3.103,-9.63 -2.067,-3.252 -4.835,-6.012 -8.304,-8.28 -2.935,-1.934 -5.237,-2.902 -6.905,-2.902 -0.667,0 -1.216,0.2 -1.65,0.601 -0.433,0.4 -0.649,0.934 -0.649,1.6 0,1.001 0.632,1.835 1.9,2.502 3.034,1.569 5.254,3.119 6.653,4.653 1.334,1.433 2.001,2.484 2.001,3.151 0,0.634 -0.5,1.018 -1.501,1.151 l -0.649,0.1 -0.75,0.05 c -2.168,0.334 -3.929,1.342 -5.279,3.026 -1.351,1.684 -2.026,3.728 -2.026,6.129 0,2.467 0.833,4.601 2.501,6.403 C -5.352,-1.018 -2.935,0 0,0" /></g></g></g></g></svg>