
<svg xmlns="http://www.w3.org/2000/svg" xmlns:xlink="http://www.w3.org/1999/xlink" x="0px"
	 y="0px" width="792" height="576" viewBox="0 0 792 576" fill="#ffffff">

	<path fill="none" d="M720.72,352.8c-0.04,0.08-0.076,0.227-0.121,0.229c-0.318,0.021-0.64,0.011-0.959,0.011
		c-215.521,0-431.04,0-646.56-0.01c-0.36,0-0.72-0.15-1.08-0.23c8.878-0.003,17.757-0.01,26.635-0.007
		c10.352,0.003,20.497-1.311,30.258-4.897c13.322-4.896,23.514-13.382,29.778-26.283c3.48-7.166,5.321-14.785,6.107-22.68
		c1.123-11.276,0.65-22.454-2.393-33.422c-4.345-15.662-13.641-27.292-28.431-34.288c-10.491-4.962-21.683-6.806-33.186-6.933
		c-9.317-0.102-18.636-0.009-27.954,0.004c-0.272,0-0.544,0.069-0.815,0.106c0.08-0.16,0.131-0.428,0.246-0.458
		c0.262-0.069,0.554-0.022,0.834-0.022c215.52,0,431.04,0,646.56,0.01c0.36,0,0.72,0.15,1.08,0.23
		c-0.315,0.036-0.631,0.103-0.946,0.103c-8.358,0.002-16.717,0.02-25.075-0.012c-10.632-0.04-21.062,1.178-31.086,4.924
		c-13.475,5.036-23.651,13.755-29.817,26.899c-3.329,7.097-5.104,14.612-5.866,22.382c-1.102,11.236-0.654,22.38,2.414,33.301
		c4.451,15.839,13.989,27.444,29.056,34.312c10.439,4.76,21.512,6.561,32.887,6.691C701.762,352.87,711.241,352.794,720.72,352.8z
		 M426.94,339.1c24.337-38.253,48.525-76.273,72.799-114.426c-0.496-0.04-0.799-0.086-1.102-0.086
		c-29.558-0.003-59.114-0.003-88.671,0c-1.46,0-1.859,0.393-1.864,1.84c-0.011,3.2-0.004,6.399-0.003,9.599
		c0.001,1.989,0.274,2.255,2.306,2.255c20.998,0,41.996,0,62.993,0c0.459,0,0.918,0,1.623,0
		c-24.529,38.25-48.914,76.275-73.396,114.453c0.558,0.029,0.9,0.063,1.243,0.063c30.356,0.003,60.714,0.003,91.07,0.001
		c1.601,0,1.938-0.348,1.94-1.993c0.004-3.119,0.001-6.239,0.001-9.358c-0.001-2.131-0.213-2.347-2.319-2.347
		c-21.638-0.001-43.274-0.001-64.912-0.001C428.173,339.1,427.697,339.1,426.94,339.1z M281.452,352.406
		c-16.288-42.829-32.528-85.536-48.77-128.244c-0.094,0.01-0.187,0.021-0.28,0.032c-16.242,42.711-32.484,85.423-48.787,128.291
		c0.653,0,1.087,0,1.522,0c3.799,0,7.6-0.073,11.396,0.039c1.354,0.04,1.922-0.388,2.392-1.638
		c10.983-29.271,22.011-58.524,33.034-87.781c0.145-0.385,0.321-0.757,0.607-1.428c0.298,0.757,0.476,1.189,0.641,1.627
		c11.07,29.366,22.143,58.732,33.19,88.107c0.301,0.801,0.663,1.105,1.54,1.095c4.119-0.049,8.238-0.02,12.357-0.024
		C280.638,352.481,280.982,352.438,281.452,352.406z M291.673,224.587c0.303,0.58,0.49,0.969,0.703,1.343
		c13.543,23.74,27.093,47.476,40.607,71.231c0.428,0.752,0.685,1.715,0.687,2.58c0.04,16.996,0.029,33.993,0.03,50.989
		c0,1.823,0.25,2.068,2.084,2.069c3.119,0.001,6.238,0.001,9.358,0c2.104,0,2.277-0.17,2.277-2.236
		c0-16.797-0.007-33.593,0.025-50.39c0.001-0.752,0.217-1.591,0.589-2.244c13.631-23.966,27.292-47.914,40.948-71.865
		c0.248-0.435,0.485-0.875,0.818-1.48c-0.62,0-1.014,0-1.408,0c-4.399,0-8.798,0.034-13.196-0.025
		c-1.017-0.014-1.546,0.311-2.045,1.199c-10.577,18.806-21.189,37.593-31.797,56.381c-0.167,0.296-0.375,0.569-0.652,0.983
		c-0.301-0.486-0.52-0.812-0.712-1.153c-4.929-8.734-9.856-17.47-14.783-26.205c-5.674-10.058-11.343-20.119-17.042-30.162
		c-0.239-0.422-0.76-0.968-1.156-0.973C301.974,224.564,296.939,224.587,291.673,224.587z M562.801,238.281
		c12.398,0,24.798,0.001,37.196-0.001c1.546,0,1.936-0.381,1.938-1.89c0.007-3.32,0.008-6.639-0.001-9.959
		c-0.003-1.451-0.395-1.844-1.853-1.844c-24.878-0.003-49.755-0.003-74.633,0c-1.437,0-1.812,0.396-1.814,1.878
		c-0.006,3.2-0.003,6.399-0.002,9.599c0.001,1.947,0.269,2.216,2.211,2.216C538.162,238.282,550.481,238.282,562.801,238.281z
		 M562.895,281.682c-12.438,0-24.877-0.001-37.316,0.002c-1.564,0-1.94,0.364-1.943,1.873c-0.007,3.32-0.007,6.64,0,9.959
		c0.003,1.456,0.401,1.867,1.84,1.867c24.877,0.004,49.755,0.004,74.633,0c1.423,0,1.825-0.424,1.828-1.883
		c0.007-3.2,0.003-6.399,0.002-9.599c-0.001-1.954-0.263-2.219-2.206-2.219C587.453,281.681,575.174,281.682,562.895,281.682z
		 M562.818,352.8c12.393,0,24.785,0.001,37.178-0.001c1.564,0,1.936-0.354,1.939-1.871c0.008-3.318,0.007-6.637,0-9.954
		c-0.003-1.46-0.397-1.87-1.83-1.87c-24.864-0.004-49.729-0.004-74.595-0.001c-1.506,0-1.874,0.388-1.877,1.94
		c-0.005,3.198-0.003,6.396-0.001,9.594c0.001,1.903,0.257,2.163,2.128,2.163C538.113,352.801,550.466,352.8,562.818,352.8z"/>
	<path fill-rule="evenodd" clip-rule="evenodd" d="M720.72,352.8c-9.479-0.006-18.958,0.07-28.435-0.038
		c-11.375-0.131-22.447-1.932-32.887-6.691c-15.066-6.868-24.604-18.474-29.056-34.312c-3.068-10.921-3.516-22.065-2.414-33.301
		c0.762-7.77,2.537-15.285,5.866-22.382c6.166-13.144,16.343-21.863,29.817-26.899c10.023-3.746,20.454-4.964,31.086-4.924
		c8.358,0.032,16.717,0.014,25.075,0.012c0.315,0,0.631-0.067,0.946-0.103C720.72,267.04,720.72,309.92,720.72,352.8z
		 M707.123,288.602c0-16.439-0.009-32.877,0.021-49.316c0.003-1.065-0.229-1.459-1.376-1.432c-3.158,0.075-6.32,0.066-9.479,0.001
		c-8.851-0.182-17.577,0.578-26.036,3.368c-9.594,3.165-17.436,8.616-22.584,17.516c-3.419,5.909-5.225,12.341-6.012,19.074
		c-1.193,10.21-1.03,20.363,1.74,30.342c2.522,9.084,7.349,16.622,15.244,21.988c8.026,5.457,17.098,7.91,26.617,8.592
		c6.77,0.485,13.585,0.303,20.379,0.494c1.258,0.035,1.514-0.364,1.511-1.552C707.111,321.318,707.123,304.96,707.123,288.602z"/>
	<path fill-rule="evenodd" clip-rule="evenodd" d="M72,224.4c0.271-0.037,0.543-0.106,0.815-0.106
		c9.318-0.013,18.637-0.106,27.954-0.004c11.503,0.126,22.694,1.97,33.186,6.933c14.79,6.997,24.086,18.626,28.431,34.288
		c3.043,10.968,3.516,22.146,2.393,33.422c-0.786,7.895-2.627,15.514-6.107,22.68c-6.264,12.901-16.456,21.388-29.778,26.283
		c-9.761,3.587-19.906,4.9-30.258,4.897C89.757,352.79,80.878,352.797,72,352.8C72,310,72,267.2,72,224.4z M85.667,237.987
		c-0.027,0.38-0.068,0.692-0.068,1.005c-0.003,32.996,0.002,65.993-0.025,98.989c0,1.065,0.399,1.246,1.332,1.236
		c3.959-0.04,7.919-0.013,11.878-0.019c8.367-0.012,16.599-0.952,24.545-3.711c9.811-3.407,17.633-9.258,22.551-18.604
		c2.864-5.443,4.458-11.278,5.174-17.36c1.208-10.252,1.026-20.442-1.729-30.462c-3.453-12.56-11.118-21.486-23.215-26.48
		c-7.254-2.995-14.869-4.371-22.67-4.623c-5.593-0.181-11.197-0.063-16.795-0.073C86.334,237.886,86.025,237.949,85.667,237.987z"/>
	<path fill-rule="evenodd" clip-rule="evenodd" d="M426.94,339.1c0.757,0,1.232,0,1.708,0c21.638,0,43.274,0,64.912,0.001
		c2.106,0,2.318,0.216,2.319,2.347c0,3.119,0.003,6.239-0.001,9.358c-0.003,1.646-0.34,1.993-1.94,1.993
		c-30.356,0.002-60.714,0.002-91.07-0.001c-0.343,0-0.686-0.034-1.243-0.063c24.482-38.178,48.867-76.202,73.396-114.453
		c-0.705,0-1.164,0-1.623,0c-20.997,0-41.995,0-62.993,0c-2.031,0-2.305-0.267-2.306-2.255c-0.001-3.2-0.008-6.399,0.003-9.599
		c0.005-1.447,0.404-1.84,1.864-1.84c29.557-0.003,59.113-0.003,88.671,0c0.303,0,0.605,0.046,1.102,0.086
		C475.466,262.827,451.277,300.847,426.94,339.1z"/>
	<path fill-rule="evenodd" clip-rule="evenodd" d="M281.452,352.406c-0.469,0.032-0.813,0.075-1.158,0.076
		c-4.119,0.005-8.238-0.024-12.357,0.024c-0.877,0.011-1.238-0.294-1.54-1.095c-11.047-29.375-22.121-58.741-33.19-88.107
		c-0.165-0.438-0.343-0.87-0.641-1.627c-0.286,0.671-0.462,1.043-0.607,1.428c-11.022,29.256-22.051,58.51-33.034,87.781
		c-0.469,1.25-1.038,1.678-2.392,1.638c-3.796-0.112-7.597-0.039-11.396-0.039c-0.435,0-0.869,0-1.522,0
		c16.302-42.868,32.544-85.58,48.787-128.291c0.093-0.011,0.187-0.021,0.28-0.032C248.923,266.87,265.164,309.577,281.452,352.406z"
		/>
	<path fill-rule="evenodd" clip-rule="evenodd" d="M291.673,224.587c5.266,0,10.301-0.022,15.335,0.043
		c0.396,0.005,0.917,0.551,1.156,0.973c5.699,10.043,11.368,20.104,17.042,30.162c4.927,8.735,9.854,17.471,14.783,26.205
		c0.192,0.341,0.411,0.667,0.712,1.153c0.276-0.415,0.485-0.687,0.652-0.983c10.608-18.789,21.221-37.575,31.797-56.381
		c0.5-0.888,1.028-1.213,2.045-1.199c4.398,0.059,8.797,0.025,13.196,0.025c0.395,0,0.789,0,1.408,0
		c-0.333,0.604-0.571,1.045-0.818,1.48c-13.656,23.951-27.317,47.899-40.948,71.865c-0.372,0.653-0.587,1.492-0.589,2.244
		c-0.033,16.797-0.025,33.593-0.025,50.39c0,2.066-0.174,2.236-2.277,2.236c-3.12,0.001-6.239,0.001-9.358,0
		c-1.833-0.001-2.084-0.246-2.084-2.069c-0.001-16.996,0.009-33.993-0.03-50.989c-0.002-0.865-0.259-1.828-0.687-2.58
		c-13.515-23.756-27.064-47.491-40.607-71.231C292.163,225.556,291.976,225.167,291.673,224.587z"/>
	<path fill-rule="evenodd" clip-rule="evenodd" d="M562.801,238.281c-12.319,0-24.639,0.001-36.957,0
		c-1.942,0-2.21-0.27-2.211-2.216c-0.001-3.2-0.004-6.399,0.002-9.599c0.003-1.482,0.378-1.878,1.814-1.878
		c24.878-0.004,49.755-0.004,74.633,0c1.458,0,1.85,0.394,1.853,1.844c0.009,3.32,0.008,6.639,0.001,9.959
		c-0.003,1.509-0.393,1.889-1.938,1.89C587.599,238.283,575.199,238.281,562.801,238.281z"/>
	<path fill-rule="evenodd" clip-rule="evenodd" d="M562.895,281.682c12.279,0,24.559,0,36.837,0c1.943,0,2.205,0.265,2.206,2.219
		c0.001,3.2,0.005,6.399-0.002,9.599c-0.003,1.459-0.405,1.883-1.828,1.883c-24.878,0.004-49.756,0.004-74.633,0
		c-1.438,0-1.837-0.411-1.84-1.867c-0.007-3.319-0.007-6.639,0-9.959c0.003-1.509,0.379-1.873,1.943-1.873
		C538.018,281.681,550.456,281.682,562.895,281.682z"/>
	<path fill-rule="evenodd" clip-rule="evenodd" d="M562.818,352.8c-12.353,0-24.705,0.001-37.058,0c-1.871,0-2.127-0.26-2.128-2.163
		c-0.002-3.197-0.004-6.396,0.001-9.594c0.003-1.553,0.371-1.94,1.877-1.94c24.865-0.003,49.73-0.003,74.595,0.001
		c1.433,0,1.827,0.41,1.83,1.87c0.007,3.317,0.008,6.636,0,9.954c-0.004,1.517-0.375,1.871-1.939,1.871
		C587.604,352.801,575.211,352.8,562.818,352.8z"/>
	<path fill-rule="evenodd" clip-rule="evenodd" fill="none" d="M707.123,288.602c0,16.358-0.012,32.717,0.026,49.075
		c0.003,1.188-0.253,1.587-1.511,1.552c-6.794-0.191-13.609-0.009-20.379-0.494c-9.52-0.682-18.591-3.135-26.617-8.592
		c-7.896-5.366-12.722-12.904-15.244-21.988c-2.771-9.979-2.934-20.132-1.74-30.342c0.787-6.733,2.593-13.165,6.012-19.074
		c5.148-8.9,12.99-14.352,22.584-17.516c8.459-2.79,17.186-3.55,26.036-3.368c3.158,0.065,6.32,0.074,9.479-0.001
		c1.147-0.027,1.379,0.367,1.376,1.432C707.114,255.724,707.123,272.163,707.123,288.602z"/>
	<path fill-rule="evenodd" clip-rule="evenodd" fill="none" d="M85.667,237.987c0.358-0.039,0.667-0.102,0.977-0.101
		c5.599,0.009,11.202-0.108,16.795,0.073c7.801,0.252,15.416,1.627,22.67,4.623c12.098,4.995,19.762,13.92,23.215,26.48
		c2.755,10.02,2.937,20.21,1.729,30.462c-0.716,6.082-2.31,11.917-5.174,17.36c-4.918,9.346-12.741,15.196-22.551,18.604
		c-7.946,2.759-16.179,3.699-24.545,3.711c-3.959,0.006-7.919-0.021-11.878,0.019c-0.933,0.01-1.332-0.171-1.332-1.236
		c0.028-32.996,0.022-65.993,0.025-98.989C85.599,238.68,85.64,238.368,85.667,237.987z"/>

</svg>
