<svg width="33" height="24" viewBox="0 0 33 24" fill="none" xmlns="http://www.w3.org/2000/svg">
<path d="M0 4.54461C0 2.03537 2.1551 0 4.81194 0H28.1881C30.8449 0 33 2.03537 33 4.54461V18.8304C33 21.3396 30.8449 23.375 28.1881 23.375H4.81194C2.1551 23.375 0 21.3396 0 18.8304V4.54461Z" fill="#B3B3B3"/>
<path d="M19.6788 11.3727C17.9177 12.244 15.0621 12.244 13.301 11.3727L2.06418 5.80718V4.54779C2.06418 3.11349 3.29663 1.94951 4.81531 1.94951H28.1914C29.7101 1.94951 30.9426 3.11349 30.9426 4.54779V5.79764L19.6788 11.3727ZM30.9358 18.8304C30.9358 20.2647 29.7034 21.4287 28.1847 21.4287H4.81194C3.29327 21.4287 2.06082 20.2647 2.06082 18.8304V8.1574L12.9778 13.5639C14.9173 14.5243 18.0557 14.5243 19.9953 13.5639L30.9358 8.14468V18.8304ZM4.81194 0C2.1551 0 0 2.03537 0 4.54461V18.8304C0 21.3396 2.1551 23.375 4.81194 23.375H28.1881C30.8449 23.375 33 21.3396 33 18.8304V4.54461C33 2.03537 30.8449 0 28.1881 0H4.81194Z" fill="#EDEDFF"/>
</svg>
