<svg width="371" height="98" viewBox="0 0 371 98" fill="none" xmlns="http://www.w3.org/2000/svg">
<path fill-rule="evenodd" clip-rule="evenodd" d="M53.1594 82.5514L53.1191 82.709L53.1594 82.5514ZM118.009 65.2935H303.012C308.252 65.2935 312.539 69.5857 312.539 74.8324C312.539 80.079 308.252 84.3712 303.012 84.3712H118.009C112.77 84.3712 108.483 80.079 108.483 74.8324C108.483 69.5857 112.77 65.2935 118.009 65.2935ZM117.378 4.63306H114.514V10.132L108.483 4.63306H108.483V28.2498H117.378C132.743 28.1823 132.743 4.70052 117.378 4.63306ZM311.926 4.63306H317.89V28.2498H311.926V4.63306ZM253.911 4.63306H259.875V28.2498H253.911V4.63306ZM114.514 10.1326H117.378C124.892 10.1326 124.892 22.7505 117.378 22.7505H114.514V10.1326ZM148.782 19.8828C154.746 15.8339 153.061 4.66664 143.795 4.63306H139.482V10.0312C140.897 10.0312 142.379 9.99736 143.795 10.0312C147.232 10.0651 147.063 15.9353 143.795 15.9353H139.482V10.132L133.451 4.63306H133.451C133.451 12.5275 133.451 20.3889 133.451 28.2498C135.405 28.2498 137.46 28.2498 139.482 28.2498V21.2999H142.615L146.659 28.2498H153.398V27.3727L148.782 19.8828ZM179.781 16.4753C179.781 0.145814 155.588 0.145814 155.588 16.4753C155.588 32.8384 179.781 32.8384 179.781 16.4753ZM161.788 16.4753C161.788 7.97308 173.615 7.97308 173.615 16.4753C173.615 25.0447 161.788 25.0447 161.788 16.4753ZM190.361 28.2498V22.2105H194.708C205.995 22.2105 205.995 4.66664 194.708 4.63306H190.361V10.0312C191.743 10.0312 193.259 9.99736 194.674 10.0312C198.179 10.0651 197.976 16.7788 194.674 16.7788H190.361V10.132L184.33 4.63306H184.33C184.33 12.5275 184.33 20.3889 184.33 28.2498C186.318 28.2498 188.339 28.2498 190.361 28.2498ZM211.892 21.03C209.837 21.03 208.085 21.03 206.063 21.03C205.928 31.4213 225.134 31.2525 225.134 21.3335C225.134 15.4291 220.552 14.7209 215.868 14.2147C213.745 13.9785 211.993 13.6072 212.128 11.8192C212.33 9.01895 218.665 8.74909 218.665 11.8867C220.72 11.8867 222.27 11.8867 224.393 11.8867C224.528 1.69783 206.198 1.69783 206.4 11.8867C206.467 17.0147 209.837 18.7694 214.958 19.1407C217.317 19.2753 219.272 19.6465 219.272 21.2999C219.272 24.0663 211.892 24.0327 211.892 21.03ZM249.192 4.63306C247.137 4.63306 245.082 4.63306 243.027 4.63306V13.2024H235.748V4.63306C233.693 4.63306 231.604 4.63306 229.582 4.63306V28.2498C231.604 28.2498 233.693 28.2498 235.748 28.2498V18.7694H243.027V28.2498C245.082 28.2498 247.137 28.2498 249.192 28.2498V4.63306ZM271.08 28.2498V22.2105H275.426C286.714 22.2105 286.713 4.65683 275.426 4.63306C272.5 4.62711 269.546 4.63127 266.65 4.63276H271.08V10.0312C272.461 10.0312 273.979 10.0128 275.392 10.0312C278.896 10.0776 278.692 16.7788 275.392 16.7788H271.08V10.132L265.048 4.63306H265.048C265.048 12.5275 265.048 20.3889 265.048 28.2498C267.036 28.2498 269.058 28.2498 271.08 28.2498ZM294.464 28.2498V22.2105H298.81C310.098 22.2105 310.098 4.65683 298.81 4.63306C295.884 4.62711 292.93 4.63127 290.034 4.63276H294.464V10.0312C295.845 10.0312 297.363 10.0128 298.776 10.0312C302.28 10.0776 302.076 16.7788 298.776 16.7788H294.464V10.132L288.433 4.63306H288.432C288.432 12.5275 288.432 20.3889 288.432 28.2498C290.42 28.2498 292.442 28.2498 294.464 28.2498ZM340.948 28.2498H343.104V4.63306C341.049 4.63306 338.993 4.63306 336.938 4.63306V16.1885L325.01 4.53171H322.82V28.2498C324.875 28.2498 326.964 28.2498 329.053 28.2498V16.6441L340.948 28.2498ZM347.653 16.4417C347.653 24.5047 353.752 28.5199 359.75 28.5199C364.096 28.5199 368.565 26.6238 370.262 21.7047C371.054 19.4076 371.071 17.15 370.936 14.7884H359.783V20.0177H364.804C363.725 22.2783 362.175 22.9191 359.75 22.9191C356.178 22.9191 353.886 20.3551 353.886 16.4417C353.886 12.8312 355.942 9.86243 359.75 9.86243C362.142 9.86243 363.692 10.672 364.669 12.6963H370.599C369.453 6.82615 364.498 4.34209 359.75 4.32931C353.754 4.31267 347.653 8.37817 347.653 16.4417ZM114.514 58.5798V52.5409H118.861C130.149 52.5409 130.149 34.997 118.861 34.9631H114.514V40.3616C115.896 40.3616 117.412 40.3277 118.827 40.3616C122.332 40.3952 122.129 47.1091 118.827 47.1091H114.514C114.514 45.1856 114.514 42.2845 114.514 40.3616L108.594 34.9631H108.483C108.483 42.8578 108.483 50.719 108.483 58.5798C110.471 58.5798 112.493 58.5798 114.514 58.5798ZM137.898 34.9631C135.843 34.9631 133.855 34.9631 131.833 34.9631V58.5798C136.618 58.5798 141.605 58.5798 146.457 58.5798C146.457 56.5559 146.457 55.1726 146.457 53.1478H137.898C137.898 43.0941 137.898 47.1766 137.898 34.9631ZM165.596 58.5798H171.492V57.7028L160.844 34.6597H158.25L147.636 57.7028V58.5798H153.533L154.914 55.611H164.214L165.596 58.5798ZM162.26 50.4491H156.868L159.531 44.2413L162.26 50.4491ZM176.479 40.3616V58.5798C178.467 58.5798 180.455 58.5798 182.443 58.5798V40.3616H188.205C188.205 38.5394 188.205 36.7508 188.205 34.9631H170.684C170.684 36.7508 170.684 38.5394 170.684 40.3616H176.479ZM205.659 50.9214C205.659 48.8296 205.659 47.5478 205.659 45.5235H198.077V40.3616L192.157 34.9631H191.945V58.5798C194 58.5798 196.056 58.5798 198.077 58.5798V50.9214H205.659ZM198.077 40.3616H206.636C206.636 38.337 206.636 36.9538 206.636 34.9631H198.077V40.3616ZM234.03 46.8054C234.03 30.4762 209.837 30.4762 209.837 46.8054C209.837 63.1684 234.03 63.1684 234.03 46.8054ZM216.037 46.8054C216.037 38.3031 227.864 38.3031 227.864 46.8054C227.864 55.3748 216.037 55.3748 216.037 46.8054ZM253.876 50.2131C259.84 46.1643 258.155 34.997 248.889 34.9631H244.576V40.3616C245.991 40.3616 247.474 40.3277 248.889 40.3616C252.326 40.3952 252.158 46.2653 248.889 46.2653H244.576C244.576 44.3763 244.576 42.2845 244.576 40.3616L238.656 34.9631H238.545C238.545 42.8578 238.545 50.719 238.545 58.5798C240.499 58.5798 242.554 58.5798 244.576 58.5798V51.6299H247.71L251.754 58.5798H258.492V57.7028L253.876 50.2131ZM273.554 45.152L264.321 34.8956H262.098V58.5798C264.153 58.5798 266.209 58.5798 268.264 58.5798V48.0536L273.25 53.3169H273.924L278.945 48.0536V58.5798C281 58.5798 283.056 58.5798 285.111 58.5798V34.8956H282.955L273.554 45.152ZM306.642 58.5798H312.539V57.7028L301.891 34.6597H299.297L288.683 57.7028V58.5798H294.579L295.961 55.611H305.261L306.642 58.5798ZM303.307 50.4491H297.915L300.577 44.2413L303.307 50.4491ZM124.537 66.9929H126.67V79.9729H124.537V78.5492C123.721 79.6697 122.563 80.2299 121.062 80.2299C119.706 80.2299 118.55 79.7256 117.596 78.7172C116.642 77.7087 116.165 76.4795 116.165 75.0294C116.165 73.5663 116.642 72.3334 117.596 71.3324C118.55 70.3306 119.706 69.8292 121.062 69.8292C122.576 69.8292 123.734 70.3897 124.537 71.5102V66.9929ZM119.187 77.2935C119.778 77.8936 120.522 78.1935 121.417 78.1935C122.313 78.1935 123.057 77.8936 123.649 77.2935C124.241 76.6938 124.537 75.9392 124.537 75.0294C124.537 74.1202 124.241 73.3653 123.649 72.7656C123.057 72.1658 122.313 71.8659 121.417 71.8659C120.522 71.8659 119.778 72.1658 119.187 72.7656C118.594 73.3653 118.298 74.1202 118.298 75.0294C118.298 75.9392 118.594 76.6938 119.187 77.2935ZM134.047 71.5693C134.587 70.4622 135.535 69.9085 136.891 69.9085V72.2223C136.101 72.1691 135.429 72.3569 134.876 72.7849C134.323 73.2135 134.047 73.9161 134.047 74.8912V79.9729H131.914V70.0862H134.047V71.5693ZM145.472 80.2299C144.024 80.2299 142.793 79.7289 141.779 78.7267C140.765 77.7257 140.259 76.4932 140.259 75.0294C140.259 73.5663 140.765 72.3334 141.779 71.3324C142.793 70.3306 144.024 69.8292 145.472 69.8292C146.933 69.8292 148.167 70.3306 149.174 71.3324C150.182 72.3334 150.685 73.5663 150.685 75.0294C150.685 76.4932 150.182 77.7257 149.174 78.7267C148.167 79.7289 146.933 80.2299 145.472 80.2299ZM143.28 77.2641C143.873 77.857 144.603 78.1537 145.472 78.1537C146.341 78.1537 147.072 77.857 147.664 77.2641C148.256 76.6706 148.553 75.9264 148.553 75.0294C148.553 74.133 148.256 73.3885 147.664 72.7953C147.072 72.2021 146.341 71.9058 145.472 71.9058C144.603 71.9058 143.873 72.2021 143.28 72.7953C142.688 73.3885 142.392 74.133 142.392 75.0294C142.392 75.9264 142.688 76.6706 143.28 77.2641ZM160.984 69.8292C162.341 69.8292 163.499 70.3306 164.461 71.3324C165.421 72.3334 165.902 73.5663 165.902 75.0294C165.902 76.4795 165.421 77.7087 164.461 78.7172C163.499 79.7256 162.341 80.2299 160.984 80.2299C159.484 80.2299 158.332 79.6697 157.529 78.5492V82.678H155.396V70.0862H157.529V71.4903C158.332 70.3829 159.484 69.8292 160.984 69.8292ZM160.649 78.1935C161.544 78.1935 162.288 77.8936 162.88 77.2935C163.473 76.6938 163.769 75.9392 163.769 75.0294C163.769 74.1202 163.473 73.3653 162.88 72.7656C162.288 72.1658 161.544 71.8659 160.649 71.8659C159.793 71.8659 159.072 72.1397 158.487 72.6862C157.901 73.2337 157.582 73.9291 157.529 74.7729V75.2868C157.582 76.13 157.901 76.8257 158.487 77.3729C159.072 77.9198 159.793 78.1935 160.649 78.1935ZM176.201 69.8292C177.557 69.8292 178.716 70.3306 179.677 71.3324C180.638 72.3334 181.118 73.5663 181.118 75.0294C181.118 76.4795 180.638 77.7087 179.677 78.7172C178.716 79.7256 177.557 80.2299 176.201 80.2299C174.701 80.2299 173.548 79.6697 172.745 78.5492V82.678H170.613V70.0862H172.745V71.4903C173.548 70.3829 174.701 69.8292 176.201 69.8292ZM175.865 78.1935C176.761 78.1935 177.504 77.8936 178.097 77.2935C178.689 76.6938 178.986 75.9392 178.986 75.0294C178.986 74.1202 178.689 73.3653 178.097 72.7656C177.504 72.1658 176.761 71.8659 175.865 71.8659C175.009 71.8659 174.289 72.1397 173.703 72.6862C173.117 73.2337 172.798 73.9291 172.745 74.7729V75.2868C172.798 76.13 173.117 76.8257 173.703 77.3729C174.289 77.9198 175.009 78.1935 175.865 78.1935ZM185.829 79.9729V66.9867H187.962V79.9729H185.829ZM197.017 69.8292C198.162 69.8292 199.103 70.1653 199.84 70.8376C200.578 71.5102 200.947 72.4455 200.947 73.6453V79.9729H198.853V79.0435C198.221 79.8341 197.287 80.2299 196.049 80.2299C195.101 80.2299 194.298 79.9565 193.64 79.4094C192.982 78.8625 192.653 78.0877 192.653 77.0861C192.653 76.0839 192.982 75.3129 193.64 74.7729C194.298 74.232 195.101 73.9615 196.049 73.9615C197.247 73.9615 198.182 74.298 198.853 74.9703V73.7443C198.853 73.0854 198.689 72.6003 198.359 72.2906C198.03 71.9815 197.583 71.8267 197.017 71.8267C196.477 71.8267 196.036 71.9619 195.694 72.2318C195.351 72.502 195.18 72.8741 195.18 73.3493H193.087C193.087 72.2811 193.458 71.4275 194.203 70.7882C194.947 70.149 195.884 69.8292 197.017 69.8292ZM196.74 78.5692C197.372 78.5692 197.882 78.4306 198.271 78.1537C198.659 77.877 198.853 77.5212 198.853 77.0861C198.853 76.6376 198.659 76.2821 198.271 76.0185C197.882 75.7546 197.372 75.6232 196.74 75.6232C196.095 75.6232 195.608 75.7546 195.279 76.0185C194.95 76.2821 194.785 76.6376 194.785 77.0861C194.785 77.5343 194.95 77.8936 195.279 78.1638C195.608 78.4342 196.095 78.5692 196.74 78.5692ZM210.831 71.2231V73.2792H209.014V79.9729H206.881V73.2792H205.065V71.2231H206.881V66.9887H209.014V71.2231H210.831ZM220.143 69.0677C218.576 68.9224 217.793 69.5751 217.793 71.0251V71.2231H220.143V73.2792H217.793V79.9729H215.66V73.2792H214.16V71.2231H215.66V71.0251C215.66 69.6675 216.042 68.635 216.806 67.93C217.569 67.225 218.682 66.9192 220.143 67.011V69.0677ZM228.606 80.2299C227.157 80.2299 225.927 79.7289 224.913 78.7267C223.899 77.7257 223.392 76.4932 223.392 75.0294C223.392 73.5663 223.899 72.3334 224.913 71.3324C225.927 70.3306 227.157 69.8292 228.606 69.8292C230.067 69.8292 231.301 70.3306 232.308 71.3324C233.315 72.3334 233.819 73.5663 233.819 75.0294C233.819 76.4932 233.315 77.7257 232.308 78.7267C231.301 79.7289 230.067 80.2299 228.606 80.2299ZM226.414 77.2641C227.006 77.857 227.737 78.1537 228.606 78.1537C229.475 78.1537 230.206 77.857 230.798 77.2641C231.391 76.6706 231.686 75.9264 231.686 75.0294C231.686 74.133 231.391 73.3885 230.798 72.7953C230.206 72.2021 229.475 71.9058 228.606 71.9058C227.737 71.9058 227.006 72.2021 226.414 72.7953C225.822 73.3885 225.525 74.133 225.525 75.0294C225.525 75.9264 225.822 76.6706 226.414 77.2641ZM240.663 71.5693C241.203 70.4622 242.15 69.9085 243.507 69.9085V72.2223C242.717 72.1691 242.045 72.3569 241.492 72.7849C240.939 73.2135 240.663 73.9161 240.663 74.8912V79.9729H238.53V70.0862H240.663V71.5693ZM257.657 69.8292C258.578 69.8292 259.325 70.1326 259.898 70.7389C260.47 71.3452 260.757 72.2021 260.757 73.3095V79.9729H258.624V73.4283C258.624 72.8741 258.486 72.4693 258.21 72.2119C257.933 71.9554 257.571 71.8267 257.123 71.8267C256.649 71.8267 256.234 71.9881 255.88 72.3105C255.524 72.6339 255.346 73.1644 255.346 73.9027V79.9729H253.213V73.4283C253.213 72.8741 253.075 72.4693 252.799 72.2119C252.522 71.9554 252.166 71.8267 251.732 71.8267C251.258 71.8267 250.844 71.9881 250.488 72.3105C250.133 72.6339 249.955 73.1644 249.955 73.9027V79.9729H247.823V70.0862H249.955V71.1149C250.508 70.2577 251.324 69.8292 252.404 69.8292C253.523 69.8292 254.346 70.3038 254.872 71.2525C255.557 70.3038 256.485 69.8292 257.657 69.8292ZM269.575 69.8292C270.721 69.8292 271.662 70.1653 272.399 70.8376C273.137 71.5102 273.505 72.4455 273.505 73.6453V79.9729H271.412V79.0435C270.78 79.8341 269.846 80.2299 268.607 80.2299C267.66 80.2299 266.857 79.9565 266.199 79.4094C265.54 78.8625 265.211 78.0877 265.211 77.0861C265.211 76.0839 265.54 75.3129 266.199 74.7729C266.857 74.232 267.66 73.9615 268.607 73.9615C269.806 73.9615 270.741 74.298 271.412 74.9703V73.7443C271.412 73.0854 271.247 72.6003 270.918 72.2906C270.589 71.9815 270.142 71.8267 269.575 71.8267C269.036 71.8267 268.595 71.9619 268.253 72.2318C267.91 72.502 267.739 72.8741 267.739 73.3493H265.646C265.646 72.2811 266.017 71.4275 266.761 70.7882C267.505 70.149 268.443 69.8292 269.575 69.8292ZM269.299 78.5692C269.931 78.5692 270.441 78.4306 270.829 78.1537C271.218 77.877 271.412 77.5212 271.412 77.0861C271.412 76.6376 271.218 76.2821 270.829 76.0185C270.441 75.7546 269.931 75.6232 269.299 75.6232C268.654 75.6232 268.167 75.7546 267.838 76.0185C267.508 76.2821 267.344 76.6376 267.344 77.0861C267.344 77.5343 267.508 77.8936 267.838 78.1638C268.167 78.4342 268.654 78.5692 269.299 78.5692ZM278.552 79.9729V77.5016H281.02V79.9729H278.552ZM288.456 71.5693C288.996 70.4622 289.944 69.9085 291.3 69.9085V72.2223C290.51 72.1691 289.838 72.3569 289.285 72.7849C288.732 73.2135 288.456 73.9161 288.456 74.8912V79.9729H286.324V70.0862H288.456V71.5693ZM301.441 70.0862H303.574V79.9729H301.441V78.8458C300.835 79.7684 299.901 80.2299 298.637 80.2299C297.689 80.2299 296.909 79.8902 296.297 79.2114C295.685 78.5329 295.379 77.6136 295.379 76.4533V70.0862H297.512V76.3151C297.512 76.9342 297.676 77.4094 298.005 77.7382C298.334 78.0678 298.769 78.2327 299.309 78.2327C299.927 78.2327 300.438 78.0318 300.839 77.6297C301.241 77.2279 301.441 76.6049 301.441 75.7614V70.0862ZM50.8926 64.76V64.8334L50.9778 64.7722L50.8926 64.76C49.9359 63.3298 45.8154 60.9736 44.1167 60.1226C43.2648 59.6964 42.4022 59.308 41.4919 58.9445C37.8472 57.4888 33.4384 56.2771 29.3951 55.8277L25.886 55.5338C24.9383 55.5391 24.577 55.4583 24.057 55.4583L21.3512 55.6078C20.404 55.6509 20.0552 55.4193 21.7584 56.445C23.258 57.3479 24.7925 58.5564 26.1262 59.686C26.3455 59.8721 26.4257 59.9167 26.6346 60.1289C27.1704 60.6713 28.526 62.0037 28.9564 62.563C29.5189 63.2948 31.2016 65.2111 31.3693 65.9316C33.5872 65.9316 34.3987 65.0938 38.7543 65.6385C38.2238 64.8456 35.6246 63.6359 34.5293 63.353C32.5533 62.8424 33.6614 63.7281 31.9855 61.5802C30.8688 60.1497 28.6438 58.4699 28.5904 58.3899C28.9914 58.3899 29.0193 58.3245 29.3927 58.3147C29.7038 58.3061 29.9344 58.3329 30.2416 58.2859C31.3351 58.1189 34.0235 58.5373 35.1918 58.7359C36.9267 59.031 39.2719 59.708 40.9214 60.2475L44.887 61.6946C46.7881 62.4748 48.5272 63.3759 50.2663 64.4354C50.4934 64.5736 50.6442 64.7023 50.8926 64.76ZM65.4438 12.0445C64.8442 11.256 60.5848 8.86559 59.2144 8.03163L52.1882 4.74332C47.8712 3.00793 40.4758 1.03744 35.8902 0.488792C27.195 -0.551138 18.726 0.128279 10.1817 1.95819C7.16207 2.60521 4.92046 3.23915 2.03206 4.04845C1.33185 4.24461 0.674682 4.49188 0 4.6497C0 5.01675 0.275156 5.93423 0.380529 6.31852C0.897003 8.2049 1.16652 9.11763 1.91066 10.9362C3.19591 14.0768 4.851 16.6691 6.92343 19.2426C7.95667 20.5257 8.73673 21.258 9.88959 22.4227L10.9683 23.3931C11.9086 24.1138 12.6931 24.8699 13.8344 25.6483C14.312 25.9738 14.496 26.1976 15.179 26.3515C22.0632 27.9068 30.4803 27.6658 37.2339 25.8243C37.832 25.6608 38.2327 25.5312 38.8 25.3422C39.1879 25.2126 40.0066 24.8869 40.3628 24.8572C39.4999 25.6085 36.4091 26.6758 35.4548 26.9712C28.9309 28.9925 23.0897 28.193 16.4524 27.6393L16.7234 27.9538C17.6331 28.8035 17.949 28.9669 18.6961 30.2247C20.3544 33.0152 21.2689 36.5591 20.6023 39.922C20.3897 40.9955 20.1297 41.365 20.0353 41.7701C21.4565 42.1017 21.0514 42.1347 23.046 42.4165C24.7765 42.6605 28.0852 43.0686 29.7712 42.8789C30.0321 42.8495 30.3708 42.8691 30.6394 42.87C31.9757 42.8763 35.0472 42.3585 36.2693 42.0643C36.7228 41.9543 37.2461 41.8215 37.7038 41.6705C37.9689 41.5828 38.0971 41.5394 38.374 41.4625C38.6296 41.3917 38.792 41.3067 39.0737 41.2113C40.1621 40.8434 42.3577 39.8141 43.4052 39.1056C43.6311 38.9525 43.7457 38.8319 44.0193 38.7683L43.2577 39.4697C42.9425 39.7175 42.7086 39.9012 42.3904 40.1393C42.0947 40.3607 41.7863 40.5634 41.4744 40.7596C41.1627 40.9551 40.8216 41.1694 40.5103 41.3317C36.182 43.5839 32.6961 44.0395 27.8593 44.0401C26.4812 44.0401 24.9433 43.8889 23.6275 43.6645C23.3052 43.6092 22.651 43.4374 22.3001 43.4472C21.7955 43.4615 21.3164 44.0663 20.9686 44.3885C20.7917 44.5522 20.7079 44.5793 20.5272 44.7519L11.8457 54.5099C12.163 53.1451 13.3936 51.1288 14.1262 49.9109C15.6797 47.327 17.1921 45.4079 18.7919 43.0148C18.5485 43.0799 18.4729 43.221 18.2983 43.3991C17.4589 44.2541 16.9558 44.9772 16.233 45.9432C14.9133 47.7071 13.7136 49.5076 12.4892 51.3467C11.1015 53.4313 9.48888 55.9279 8.36006 58.195C8.06828 58.7819 7.27516 60.2635 7.16593 60.7331C7.46187 60.6642 12.6536 57.3114 13.1202 57.0308C17.2841 54.5253 24.8881 50.4527 29.6688 49.4392L33.7822 48.6522C32.919 48.4513 32.1594 48.2956 31.3414 48.0212C29.9772 47.5629 29.2131 47.2212 27.9745 46.7061C27.5521 46.5307 25.0912 45.3791 24.8614 45.0646L27.4663 46.0442C31.4272 47.3644 33.6097 47.6824 37.7611 48.2554C38.3301 48.3339 38.9344 48.3452 39.4322 48.413C40.5052 48.5583 41.8715 48.4177 42.87 48.5604L44.5311 48.5063C45.7249 48.5069 46.7581 48.4034 47.9169 48.2358C49.8727 47.9526 49.9143 47.9187 52.1105 49.117C53.4708 49.8589 55.0164 51.3036 55.7958 52.6018L56.45 53.7773C57.781 56.4171 57.8042 59.8198 56.8442 62.7387C56.6186 63.424 55.4676 66.0487 54.9876 66.3706C55.0131 66.0635 55.19 65.4638 55.2714 65.1903C55.838 63.2796 56.1084 60.3328 55.8356 58.4193C55.5237 56.2292 54.6744 53.5636 53.1054 52.0011C52.6056 51.5027 52.496 51.2575 52.0202 50.8911C51.6789 50.6278 50.4744 49.3961 49.7955 49.2383L50.803 50.4262C53.472 53.7036 54.824 57.7976 53.4432 62.1157C53.2773 62.6349 53.0766 63.2089 52.843 63.7108C52.5922 64.2494 52.3429 64.6637 52.0665 65.1303C50.5201 67.7419 47.5432 70.1513 44.6041 70.8367L45.4827 72.5926C47.0315 75.7588 47.8953 79.9357 47.8947 83.5765C47.8947 84.0155 47.8932 84.4551 47.895 84.8946C47.8968 85.3621 47.7415 87.9282 47.5919 88.399C47.5869 88.4156 47.578 88.4376 47.5726 88.4525L47.1591 84.6786C46.9843 83.4255 46.7335 82.2587 46.4477 81.1448C46.1336 79.9209 45.3233 77.5997 44.7504 76.4744C44.1404 75.2767 44.036 74.9554 43.2838 73.6964C42.0107 71.5651 41.5501 71.1865 40.1547 69.4351L39.0686 68.399C38.4189 67.8518 36.6753 66.224 36.049 66.0778C36.2538 66.3842 37.9077 68.1324 38.5035 68.8915C42.5625 74.0665 44.8047 78.9424 45.6492 85.6049C45.7771 86.6155 45.9772 89.639 45.9208 90.6789C45.8169 92.6048 45.7477 93.6046 45.5029 95.532L45.2621 98C45.4171 97.8862 45.5943 97.5798 45.7427 97.3827C48.1108 94.15 49.9891 91.5732 52.0125 88.2124C52.1642 87.9386 52.2998 87.7056 52.429 87.458C54.4085 83.6505 55.5047 80.1363 56.2728 75.858C56.3827 75.2458 56.5231 74.4932 56.5231 73.8388C56.4156 73.9624 56.4497 73.911 56.391 74.0727C55.9431 75.3011 55.5008 76.8828 54.976 78.2939C54.3625 79.9443 54.0265 80.6032 53.4307 82.018C53.3283 82.2626 53.3355 82.349 53.1594 82.5514L54.2708 78.1002C54.437 77.3949 54.6261 76.5098 54.7478 75.7953C54.8861 74.9869 55.03 74.1589 55.2069 73.3992C57.8442 72.7843 60.0686 72.4963 62.7665 71.5973L66.2372 70.3864C66.7789 70.1861 67.3387 69.9439 67.8813 69.6901C70.716 68.3642 72.7386 67.3653 75.2521 65.3559C76.1553 64.6337 76.8911 63.943 77.7107 63.1316C78.4314 62.418 81.1544 59.0048 80.9627 58.3067L80.1452 56.7752C78.1102 53.3962 66.3218 38.9172 66.3212 38.9145L68.0576 40.5441C72.7276 45.2759 76.6471 49.592 80.5367 55.2119C82.8707 58.584 85.0915 62.2266 86.9173 65.8825L88.5498 69.2998C88.7172 69.6719 88.8321 70.2485 89.1351 70.4708C89.5807 69.5412 89.2847 62.8373 89.1461 61.5273C88.7982 58.2342 88.7036 56.9535 87.8339 53.4699C87.1295 50.6483 86.0013 47.3906 84.7487 44.8441C84.071 43.4659 83.2506 42.0301 82.4308 40.7221C82.285 40.4894 82.2524 40.5453 82.1886 40.3054C83.1369 40.9417 84.4759 42.6623 85.0636 43.7236C85.3046 44.1593 85.5169 44.6872 85.8446 45.0646C85.8446 43.8499 83.456 36.6417 82.993 35.4734C81.6216 32.0095 79.7644 27.3385 77.4886 24.2913L75.9149 22.2801C75.743 22.0866 75.7516 22.1942 75.6807 21.9282C76.4367 22.3288 77.19 22.6985 77.9475 23.1001C78.2749 22.6109 78.838 22.1844 79.2847 21.8036C82.7199 18.8767 89.8437 18.2678 94.3269 18.2678C94.2085 18.1649 94.093 18.066 93.9624 17.9738C93.8273 17.8787 93.7226 17.8246 93.5546 17.723C92.5299 17.1042 90.2482 15.8996 89.2295 15.4645C88.8716 15.3117 88.6454 15.2041 88.331 15.0463C85.8526 13.801 82.5451 12.4077 79.8644 11.6629C78.5076 11.2861 77.1749 10.7856 75.8125 10.4479C74.3978 10.0972 72.9235 9.77446 71.418 9.57652C70.9909 9.52034 70.6676 9.50013 70.2393 9.43921C68.9938 9.26266 67.749 9.29298 66.5367 9.19252C64.9027 9.14408 63.0805 8.96932 61.4952 8.96932C61.952 9.18688 64.0574 9.47754 64.7 9.5676C71.5848 10.53 75.1891 10.8004 81.4079 14.1437C82.0663 14.4974 84.3791 15.7626 84.8057 16.0863C85.0022 16.2358 84.974 16.1808 85.0407 16.3641C81.5032 16.3641 79.028 17.0786 76.1918 18.4868C75.7205 18.7207 74.2708 19.7211 73.7798 19.7324C73.6673 19.3104 71.3013 17.0299 70.8546 16.73C70.9107 16.9398 71.0761 17.0846 71.2108 17.2525C71.3485 17.424 71.4593 17.5628 71.6029 17.7381C74.3661 21.1201 76.6439 25.3687 78.0295 29.5343C78.8131 31.8912 79.5085 34.3006 79.9217 36.7915C79.9873 37.1862 80.0627 37.9453 80.1924 38.2776C80.4697 38.9897 81.6757 40.8891 82.1399 41.8188C82.9882 43.5179 83.5955 45.2382 84.2877 46.9899C85.5551 50.198 86.795 55.6547 86.795 59.1219C86.4961 58.9029 86.0606 57.8009 85.8698 57.4139C84.4115 54.465 82.4605 51.8279 80.6092 49.1355C79.3423 47.2925 77.9499 45.5057 76.5076 43.7976C75.3886 42.4721 74.5329 41.4791 73.2844 40.2157L69.3747 36.0033C68.9072 35.5005 68.5311 35.0927 68.1494 34.5215C71.4305 34.5215 73.6118 35.5614 76.4403 36.5434C76.8442 36.6839 77.1621 36.8397 77.5821 36.9378C77.2304 36.4572 74.5136 34.9542 73.8297 34.5446C73.166 34.1476 72.5795 33.7796 71.9018 33.4001C69.9579 32.3111 66.4934 30.6652 64.3468 30.1284C62.8315 29.7495 63.6587 29.9213 62.9324 32.1536C62.9098 32.2223 62.8656 32.3563 62.8362 32.4229C62.7656 32.578 62.7501 32.5932 62.6652 32.6916C62.6652 32.0255 62.7264 31.5119 62.7353 30.7847C62.7403 30.3745 62.8172 30.3115 62.8172 29.9091L62.5919 27.1266C62.5329 26.5926 62.3426 25.9607 62.2996 25.443H62.1532C62.03 26.926 61.6154 28.5654 60.9606 29.8868C60.9063 29.9962 60.8757 30.066 60.8086 30.1733C60.7415 30.2797 60.6831 30.3463 60.6177 30.4215C60.6177 29.7667 60.7576 29.2933 60.762 28.5889C60.7662 27.979 60.9155 27.3686 60.8062 26.6452C60.7299 26.1417 60.6991 23.501 60.2524 23.1732C60.174 24.1132 59.9342 25.1157 59.697 26.0588C59.5272 26.7352 59.0769 28.1541 58.6433 28.4448L58.8591 26.3176C58.9226 25.5467 58.8594 24.798 58.7484 24.0199C58.6501 23.331 58.3607 20.6983 57.8389 20.0983C57.8389 21.705 57.6314 23.1066 57.2399 24.5498C57.125 24.9725 56.9122 25.3927 56.8154 25.8091C56.8053 25.7934 56.7961 25.7479 56.7929 25.758L56.616 24.3977C56.3699 22.5743 56.6638 22.6444 56.0262 19.9363C55.6807 18.4669 55.2464 16.9957 54.418 15.7626C54.3476 15.658 54.3147 15.6057 54.2366 15.5049C54.1648 15.4125 54.1016 15.3406 54.0369 15.2657C54.0369 19.7392 53.957 24.1358 52.2613 28.3508C51.9689 29.0784 51.0573 31.3306 50.6002 31.6662L51.3467 28.8992C51.5664 27.9746 51.7121 26.9504 51.8659 25.9051C52.144 24.0125 52.1431 21.2259 51.9036 19.2325C51.7849 18.2446 51.5513 17.2394 51.2277 16.3945C50.9101 15.5664 50.6545 14.6834 50.1891 13.9199C49.9526 13.5315 49.4851 13.4518 48.9184 13.4355C46.8154 13.3751 47.0606 13.2889 44.9508 13.7095C44.6539 13.7689 44.4331 13.8527 44.1654 13.8747C44.4509 13.4845 46.3049 12.817 46.9344 12.6205C49.5619 11.7993 52.8454 12.4065 55.0404 14.0409C55.2601 14.2049 55.3963 14.3176 55.6145 14.4917C55.8849 14.7066 55.8635 14.8145 56.2304 14.8998C55.6109 13.727 55.4132 13.6263 54.6842 12.7138C54.4595 12.4333 54.3191 12.2778 54.0564 12.0243C53.1686 11.169 52.0508 10.5329 50.914 10.0458C50.1835 9.73285 49.6967 9.73879 48.8742 9.94981L45.9199 10.7992C45.0487 11.0361 43.8724 11.6784 42.9956 11.7512C43.2013 11.4433 44.7593 10.4554 44.9698 10.1409C44.0173 10.1617 40.504 11.5437 37.3752 10.2773L36.4877 9.84787C37.4254 9.86897 37.6507 10.3091 40.4304 10.0619C40.8095 10.028 41.3494 9.95219 41.5328 9.70134C39.4094 9.70134 38.5628 8.96575 37.9502 8.82309C38.1677 8.49706 38.6124 8.32408 38.9834 8.1734C39.3779 8.0129 39.7917 7.82358 40.2167 7.72491C40.2912 8.00339 40.4806 8.05362 40.5901 8.45515C40.6982 8.85073 40.5432 8.92682 40.5091 9.33578C41.51 9.10217 41.6249 8.8121 42.0452 8.01736C42.4248 8.04916 43.8917 8.5238 44.3209 8.66676C45.0446 8.90869 45.7742 9.238 46.5049 9.40859L44.9808 8.00666C43.7641 7.03123 43.0125 6.26473 41.5328 5.52795C39.6631 4.5971 40.0256 4.73916 38.082 5.22064L29.8083 7.32754C29.5073 7.36024 25.6459 6.40977 25.0086 6.25968C23.6388 5.93661 21.4405 5.60255 19.9837 5.36033C18.3651 5.09076 14.4509 4.59175 12.7231 4.50288C12.0226 4.46662 11.4696 4.48713 10.6557 4.37657L9.21343 4.28384C9.59781 4.03894 11.9641 3.67278 12.3998 3.59372C23.5082 1.57717 27.4951 2.29849 37.6575 2.52645C37.643 2.53655 37.6186 2.5315 37.6115 2.5532L34.0745 3.99049C35.2731 3.99049 38.9885 2.99693 40.1348 3.12057C41.3993 3.25728 44.0567 4.52785 45.1158 5.08868C45.0285 4.7136 44.6388 4.38875 44.3642 4.15753L43.3607 3.405C43.9205 3.405 44.4669 3.59016 44.9549 3.71231C50.5881 5.12286 55.1333 6.8422 60.3497 9.45733L64.1034 11.4091C64.4806 11.5957 65.1811 11.9399 65.4438 12.0445ZM24.8614 45.0646L24.7151 44.9918L24.8614 45.0646ZM24.4957 44.8453L24.5174 44.867C24.5162 44.8655 24.4886 44.8524 24.4957 44.8453ZM27.9321 36.6447L29.4678 39.5737H26.9086C26.9594 39.3541 27.0677 39.1276 27.1547 38.8684C27.2511 38.5837 27.3289 38.3965 27.4319 38.1204C27.5423 37.8226 27.9095 36.9211 27.9321 36.6447ZM29.8335 39.5006C30.0137 39.1594 30.9056 36.9416 30.9306 36.6447C31.2977 36.8911 32.5376 38.8877 32.6121 39.2075C32.0339 39.2075 31.1107 39.5006 29.8335 39.5006ZM25.0077 36.4254C25.0754 36.5038 25.0066 36.4013 25.1012 36.5514C25.1363 36.6085 25.174 36.6801 25.2045 36.7407C25.7136 37.7444 25.9326 38.345 26.5432 39.5006C25.5447 39.5006 25.0953 39.2578 24.4957 39.2075C24.4957 38.5216 24.502 38.2529 24.6263 37.7277C24.7445 37.2314 24.905 36.8658 25.0077 36.4254ZM66.3212 38.9145L66.2482 38.8414L66.3212 38.9145ZM33.1238 39.061L34.1956 36.8397C34.3277 36.5416 34.3574 36.3003 34.5866 36.1326C34.6251 36.278 35.6251 37.997 35.64 38.3721C35.6495 38.5998 35.0692 38.6455 34.5076 38.7623C34.2532 38.8152 34.0823 38.8598 33.8492 38.9085C33.5895 38.9632 33.3743 39.0402 33.1238 39.061ZM36.2681 38.2556C37.1482 36.5906 37.1292 35.9121 37.4381 35.3272C37.8261 35.5872 38.6082 37.0073 38.6082 37.3039C38.6082 37.5476 38.3642 37.5702 38.1499 37.6505C37.5934 37.8591 36.816 38.2434 36.2681 38.2556ZM22.4482 36.4254L22.6655 36.7202C22.7338 36.8328 22.7777 36.9128 22.8555 37.0427L24.057 39.061C23.7207 39.0536 23.4732 38.9249 23.187 38.8342C22.6622 38.6684 22.5782 38.5656 22.4411 37.383C22.3268 36.3992 22.4358 36.991 22.4482 36.4254ZM39.0469 37.2308L39.9974 34.2287C40.491 34.3607 41.0692 35.7846 41.1674 36.2057C40.5975 36.5077 39.7071 37.0769 39.0469 37.2308ZM41.6062 35.913C41.6341 35.5771 42.1909 34.1928 42.1909 32.9112C42.3583 32.9715 42.2966 32.9561 42.4016 33.0663C42.6593 33.3365 43.288 34.4641 43.288 34.8879C43.288 34.9851 41.7893 35.8158 41.6062 35.913ZM43.7267 34.5946C43.7418 33.9101 44.095 33.6165 44.0918 32.5441C44.0903 32.1379 44.1582 32.0594 44.1654 31.7396C44.5616 32.0303 45.1891 33.11 45.1891 33.7897C44.8267 33.9817 43.965 34.539 43.7267 34.5946ZM27.64 33.2036C27.3191 32.9888 25.7925 30.6316 25.7388 29.9822L28.5904 29.8357C28.5684 30.1005 28.1971 30.8801 28.0469 31.4147C27.9047 31.9212 27.6842 32.6702 27.64 33.2036ZM24.2761 33.2036C24.2093 32.9525 23.9938 32.696 23.8617 32.4473C23.697 32.1367 23.5744 31.9473 23.4224 31.6427C23.2339 31.265 22.7005 30.3059 22.6676 29.9091C23.6676 29.9091 24.4191 29.9822 25.3731 29.9822L24.8148 31.5467C24.716 31.8469 24.6572 32.1367 24.5776 32.4074C24.3921 33.0348 24.5189 33.0259 24.2761 33.2036ZM20.5474 29.6895C21.2194 29.6895 21.6982 29.8357 22.3022 29.8357C22.2924 30.2666 22.0466 30.8468 21.9499 31.2403C21.802 31.8383 21.7899 32.1783 21.7899 32.9112C21.3939 32.6202 20.5675 30.4274 20.5474 29.6895ZM31.4423 32.6916C31.0072 32.3997 29.8439 30.7969 29.4554 30.2865C28.9887 29.6731 29.0944 29.8419 30.4186 29.616C30.987 29.5195 31.7611 29.37 32.3197 29.3233L31.6355 31.7866C31.5598 32.043 31.4643 32.4285 31.4423 32.6916ZM35.464 31.7396C35.0909 31.4896 34.6925 30.9264 34.2381 30.4771L33.0508 29.1768L36.1217 28.3716C36.0567 29.156 35.5302 30.9443 35.464 31.7396ZM39.1933 30.3484C38.7593 30.0574 38.4533 29.5744 38.0342 29.2392C37.7507 29.013 36.9318 28.3734 36.8531 28.0789C37.2746 27.9805 37.8602 27.7139 38.2853 27.5356L39.705 26.9073C39.705 27.447 39.5459 28.0813 39.4643 28.6433C39.3921 29.1381 39.2375 29.817 39.1933 30.3484ZM40.3628 26.5411C41.1588 26.1194 41.9068 25.6451 42.7029 25.2233C42.7029 26.1521 42.6038 28.053 42.4105 28.8843C42.209 28.7491 41.3488 27.573 40.8926 27.1091L40.3628 26.5411ZM40.3628 24.8572L40.5055 24.773L40.3628 24.8572ZM44.9698 27.1266C44.7537 26.9822 44.2057 26.2814 44.0087 26.0389C43.7323 25.6988 43.3411 25.2343 43.1416 24.8572C43.5536 24.7469 45.1119 23.3794 45.212 23.3274C45.3081 23.2775 45.3461 23.1134 45.4064 23.4621C45.4358 23.6312 45.2755 25.0801 45.2402 25.3475C45.1701 25.8775 45.0918 26.6024 44.9698 27.1266ZM47.2366 25.1502C47.0303 25.0117 46.2678 23.7937 46.0701 23.4627C45.9552 23.2707 45.7543 23.0073 45.7008 22.807C46.0573 22.5678 46.3236 22.2934 46.6332 21.9832C46.797 21.8194 46.9083 21.7079 47.0728 21.5448C47.2325 21.3861 47.3966 21.1465 47.529 21.0499C47.5536 21.3507 47.6023 21.2134 47.6023 21.4892C47.6023 22.7835 47.2366 24.4283 47.2366 25.1502ZM42.9956 11.7512L42.8528 11.8359L42.9956 11.7512ZM36.4877 9.84787L36.3304 9.80774L36.4877 9.84787Z" fill="white"/>
</svg>
