<svg width="96" height="71" viewBox="0 0 96 71" fill="none" xmlns="http://www.w3.org/2000/svg">
<path d="M63.392 33.9833C67.9968 38.004 70.8992 43.8834 70.8992 50.4348M1 70H95M37.255 64.6857H58.7481M26.5054 50.4348C26.5054 43.8834 29.4108 38.004 34.0126 33.9833M61.1903 1H87.5499C91.6464 1 95 4.31588 95 8.36928V52.005C95 56.0584 91.6464 59.3713 87.5499 59.3713H8.45311C4.3536 59.3713 1 56.0584 1 52.005V8.36928C1 4.31588 4.3536 1 8.45311 1H61.1903ZM48.7023 8.7648C55.7464 8.7648 61.455 14.4122 61.455 21.3741C61.455 28.3389 55.7464 33.9833 48.7023 33.9833C41.6613 33.9833 35.9496 28.3389 35.9496 21.3741C35.9496 14.4122 41.6613 8.7648 48.7023 8.7648Z" stroke="white" stroke-width="2" stroke-linecap="round" stroke-linejoin="round"/>
</svg>
