<svg width="21" height="28" viewBox="0 0 21 28" fill="none" xmlns="http://www.w3.org/2000/svg">
<path d="M18.6737 10.625H2.32628C1.52671 10.625 0.875 11.318 0.875 12.1723V18.0929C0.875 19.3149 1.13514 20.5029 1.64445 21.6231C2.1346 22.698 2.8356 23.6655 3.72553 24.4943C5.54648 26.1915 7.95068 27.125 10.5 27.125C13.0493 27.125 15.4535 26.1915 17.2745 24.4971C18.1644 23.6683 18.8654 22.7009 19.3555 21.6259C19.8649 20.5058 20.125 19.3177 20.125 18.0929V12.1723C20.125 11.318 19.4733 10.625 18.6737 10.625Z" fill="#B3B3B3"/>
<path d="M4.85714 7.09135C4.85714 4.39386 7.38779 2.20118 10.5 2.20118C13.6122 2.20118 16.1429 4.39386 16.1429 7.09135V10.6224H17.375V7.09135C17.375 5.45784 16.6501 3.92271 15.3329 2.76553C14.0344 1.62648 12.3163 1 10.5 1C8.68366 1 6.96557 1.62648 5.66705 2.76812C4.34994 3.92271 3.625 5.46043 3.625 7.09394V10.625H4.85714V7.09135Z" fill="#B3B3B3" stroke="#B3B3B3"/>
<path d="M7.75 17.5C7.75 15.9822 8.98492 14.75 10.5 14.75C12.0151 14.75 13.25 15.9822 13.25 17.5C13.25 19.0178 12.0151 20.25 10.5 20.25C8.98492 20.25 7.75 19.0178 7.75 17.5Z" fill="#EDEDFF"/>
</svg>
