<svg width="117" height="71" viewBox="0 0 117 71" fill="none" xmlns="http://www.w3.org/2000/svg">
<path d="M28.571 60.4075H22.4812C18.9414 60.4075 16.0445 57.5352 16.0445 54.0284V43.8741M106.229 42.5168H86.6831C84.1618 42.5168 82.0959 40.4683 82.0959 37.9683V24.1242M23.3503 26.785H13.7493C5.97558 26.785 1 20.0681 1 12.3601L26.7501 12.7672C35.5585 12.9093 42.7719 19.9166 42.7719 28.6537V45.9258H27.807C22.9301 45.9258 18.9509 42.0149 18.9382 37.1792V37.1319M31.853 37.3749H21.2557C15.115 37.3749 10.1139 32.4256 10.0916 26.3368V26.3053M80.1094 60.4075C77.3272 60.4075 75.0511 58.3653 75.0511 55.8717V23.3761C75.0511 20.8825 77.3272 18.8403 80.1094 18.8403C82.637 18.8403 87.377 18.8403 89.9046 18.8403C96.1503 18.8403 96.6374 18.5688 99.773 21.6747C104.112 26.34 107.649 29.6195 111.991 34.2816C116.68 39.3225 115.96 37.9399 115.96 44.5306C115.96 44.9409 115.96 45.3544 115.96 45.7679V55.8717C115.96 58.3653 113.684 60.4075 110.905 60.4075H104.583M16.0445 7.37919C16.0445 3.86921 18.9414 1 22.4812 1H63.5624C67.0991 1 69.9959 3.86921 69.9959 7.37919V54.0284C69.9959 57.5352 67.0991 60.4075 63.5624 60.4075H53.1624M40.8651 50.8151C46.2099 50.8151 50.5425 55.1079 50.5425 60.4075C50.5425 65.7072 46.2099 70 40.8651 70C35.5234 70 31.1909 65.7072 31.1909 60.4075C31.1909 55.1079 35.5234 50.8151 40.8651 50.8151ZM101.963 60.4075V60.3949C101.957 55.1016 97.6274 50.8151 92.2889 50.8151C86.9791 50.8151 82.6689 55.0542 82.6147 60.3065C82.6147 60.3413 82.6147 60.3728 82.6147 60.4075C82.6147 65.7072 86.9441 70 92.2889 70C97.6306 70 101.963 65.7072 101.963 60.4075Z" stroke="white" stroke-width="2" stroke-linecap="round" stroke-linejoin="round"/>
</svg>
