<svg width="25" height="25" viewBox="0 0 25 25" fill="none" xmlns="http://www.w3.org/2000/svg">
<path fill-rule="evenodd" clip-rule="evenodd" d="M0.00727982 20.7322C0.0932813 21.4072 0.618781 21.9265 0.948066 22.2112C2.24816 23.3354 4.32072 23.9415 6.04811 24.3371C8.7926 24.9658 12.0295 25.1147 14.9376 24.9203C17.5673 24.7445 20.653 24.151 22.7066 23.0707C23.579 22.6117 24.9965 21.7459 25 20.5412C25.0015 19.9827 24.7096 19.061 24.5483 18.5569C24.3203 17.8446 24.1617 17.4038 23.7359 16.966C22.5441 15.7402 19.1103 14.327 17.3807 13.6697C17.17 13.5895 17.163 13.6841 17.0156 13.8217C16.9104 13.9202 16.826 14.0275 16.7175 14.1216C16.0446 14.7057 15.4052 15.1737 14.4948 15.5152C13.2728 15.9736 11.5793 15.9726 10.3892 15.473C9.80873 15.2294 9.29602 14.9163 8.85264 14.5881C8.61769 14.414 8.38487 14.21 8.18478 14.0279L7.87738 13.736C7.77918 13.6474 7.8092 13.6248 7.66857 13.6531C7.637 13.6596 7.49522 13.7201 7.45996 13.7341C6.87229 13.966 6.30456 14.1775 5.72696 14.4201C5.16078 14.658 4.63005 14.9083 4.08712 15.1674C3.15679 15.612 1.68779 16.4737 1.16694 17.0599C0.769284 17.5077 0.629822 18.0451 0.410751 18.738C0.274388 19.1689 -0.0527662 20.2621 0.00727982 20.7322ZM11.9634 0.0299068C8.52878 0.41625 5.91019 3.65232 6.51608 7.68865C6.7181 9.03475 7.18976 10.2206 7.85569 11.3122C8.08134 11.682 8.30545 11.9672 8.55416 12.2858C8.98552 12.8379 9.62239 13.4005 10.3178 13.83C11.1551 14.3471 11.8735 14.4788 13.0315 14.3947C14.7416 14.2707 16.2815 12.6522 16.9284 11.6675C17.7968 10.3462 18.528 8.67755 18.566 6.65584C18.5956 5.08467 18.2508 3.9853 17.4741 2.7735C16.3204 0.974302 14.0586 -0.205798 11.9634 0.0299068Z" fill="#B3B3B3"/>
</svg>
