<svg width="19" height="23" viewBox="0 0 19 23" fill="none" xmlns="http://www.w3.org/2000/svg">
<path fill-rule="evenodd" clip-rule="evenodd" d="M7.40896 23L6.67919 22.5305L4.3292 21.0199L3.09153 22.9134L1.61021 21.9613L2.84788 20.0679V20.0673L0 18.2374L5.38973 9.83332L8.31588 11.7144L9.17866 10.37L6.17659 8.44178C10.0008 2.4791 7.7662 5.96268 11.5904 0L14.6708 1.9801L15.9079 0.0866035L17.3898 1.03865L16.1521 2.93215L19 4.7626L13.5861 13.2038L10.6606 11.3221L9.79779 12.6671L12.7993 14.5953C8.97562 20.558 11.2332 17.0367 7.40896 23ZM5.32087 19.5029L6.54206 17.6341L5.06015 16.6821L3.83896 18.5508L2.45063 17.6583L5.8835 12.3048L7.33775 13.2403L6.2531 14.8581L7.73501 15.8101L8.81907 14.1924L10.3598 15.1821L6.92696 20.5356L5.32087 19.5029ZM13.6791 3.49654L12.4579 5.36529L13.9398 6.31734L15.161 4.44918L16.5494 5.34173L13.0924 10.7318L11.6381 9.7968L12.7228 8.17902L11.2415 7.22697L10.1568 8.84475L8.61603 7.85499L12.073 2.46437L13.6791 3.49654Z" fill="white"/>
</svg>
