<svg width="27" height="27" viewBox="0 0 27 27" fill="none" xmlns="http://www.w3.org/2000/svg">
<path fill-rule="evenodd" clip-rule="evenodd" d="M0 6.74264C0 8.07777 0.0120038 8.61648 0.347039 9.94059C0.930081 12.2489 2.15876 14.5451 3.57413 16.4202C4.89584 18.0258 6.04135 19.4003 7.5146 20.8594C10.6425 23.6485 13.8348 26.287 18.2064 26.9044C19.6252 27.1048 21.1276 27.0031 22.466 26.4756C22.8347 26.3305 23.5811 25.9626 23.7765 25.6737C23.6786 25.5294 17.3086 19.2655 16.4409 18.4079C16.3588 18.3265 16.2917 18.2146 16.1723 18.1832C15.4622 18.6535 15.1362 19.9814 12.8741 18.3116C11.3376 17.1774 9.91836 15.712 8.61938 14.3194C7.94717 13.4891 6.77851 12.5613 7.91394 11.4345C7.99089 11.3582 8.00997 11.3175 8.07899 11.2437C8.22433 11.0884 8.52978 10.8307 8.62367 10.6925L1.05376 3.19502C0.782391 3.37897 0.409416 4.41019 0.306312 4.75754C0.148118 5.28968 0 6.06766 0 6.74264ZM1.98363 2.27568L9.5531 9.77317C9.68257 9.68586 11.2617 8.10108 11.5099 7.85334C11.9659 7.39855 11.9948 6.57437 11.5507 6.08207C9.9398 4.29745 7.86978 2.44289 6.13695 0.72969C5.93417 0.529209 5.76526 0.320463 5.51232 0.176142C5.11491 -0.0501944 4.53251 -0.0730824 4.12074 0.193731C3.92439 0.321098 2.0848 2.12628 1.98363 2.27568ZM17.1369 17.2298C17.1695 17.3512 17.9481 18.0726 18.0529 18.1762C18.6031 18.7204 24.5707 24.6533 24.7133 24.7478C24.8447 24.6607 26.3366 23.1537 26.5938 22.9026C26.8345 22.6673 26.9713 22.3554 27 22.0379V21.7832C26.9807 21.5725 26.9128 21.368 26.7955 21.1911C26.6217 20.9291 21.8051 16.2204 21.1385 15.5613C20.8002 15.2269 20.5257 14.9689 19.9746 14.9689C19.2693 14.9689 18.8653 15.5072 18.4111 15.9563C18.2175 16.1479 17.2184 17.1096 17.1369 17.2298Z" fill="#B3B3B3"/>
</svg>
