<svg width="23" height="24" viewBox="0 0 23 24" fill="none" xmlns="http://www.w3.org/2000/svg">
<path fill-rule="evenodd" clip-rule="evenodd" d="M12.1255 24L11.2704 23.466C6.02292 20.196 5.24683 19.7125 0 16.4419L10.8738 0L15.9922 3.19066L17.4304 1.01623L19.1663 2.09769L17.7281 4.27276L23 7.5568C18.5194 14.3321 16.6068 17.2241 12.1255 24ZM4.79224 14.7906L9.08115 8.30442L10.8171 9.38652L6.52823 15.8727L4.79224 14.7906ZM7.39655 16.4138L11.6855 9.92757L13.4214 11.0097L9.13254 17.4959L7.39655 16.4138ZM10.0002 18.0369L14.2891 11.5507L16.0258 12.6322L11.7362 19.1184L10.0002 18.0369ZM14.8458 4.92381L13.0815 7.59197L14.8175 8.67407L16.5818 6.00592L20.1414 8.22384L11.5603 21.1995L2.87113 15.7838L11.4529 2.80886L14.8458 4.92381Z" fill="white"/>
</svg>
