<svg width="18" height="14" viewBox="0 0 18 14" fill="none" xmlns="http://www.w3.org/2000/svg">
<mask id="path-1-outside-1" maskUnits="userSpaceOnUse" x="0" y="0" width="18" height="14" fill="black">
<rect fill="white" width="18" height="14"/>
<path fill-rule="evenodd" clip-rule="evenodd" d="M9.84785 6.09809H11.5753V7.90192H9.84785V6.09809ZM9.92882 3.2841H15.2535V1.83041H1.75306V12.1696H15.2535V10.7153H9.92882C8.94955 10.7153 8.05956 10.2976 7.41489 9.62447C6.77022 8.95136 6.37014 8.02229 6.37014 6.99981C6.37014 5.98041 6.77114 5.05153 7.41655 4.37688L7.41489 4.37514C8.05956 3.70203 8.94955 3.2841 9.92882 3.2841ZM17.0065 3.2841H18V10.7153H17.0065V14H0V0H17.0065V3.2841ZM16.2469 5.11451H9.92882C9.43301 5.11451 8.98165 5.32694 8.65424 5.66899H8.65074C8.32536 6.00853 8.1232 6.47981 8.1232 6.99981C8.1232 7.5175 8.32665 7.98877 8.65424 8.33063C8.98165 8.67267 9.43301 8.8851 9.92882 8.8851H16.2469V5.11451Z"/>
</mask>
<path fill-rule="evenodd" clip-rule="evenodd" d="M9.84785 6.09809H11.5753V7.90192H9.84785V6.09809ZM9.92882 3.2841H15.2535V1.83041H1.75306V12.1696H15.2535V10.7153H9.92882C8.94955 10.7153 8.05956 10.2976 7.41489 9.62447C6.77022 8.95136 6.37014 8.02229 6.37014 6.99981C6.37014 5.98041 6.77114 5.05153 7.41655 4.37688L7.41489 4.37514C8.05956 3.70203 8.94955 3.2841 9.92882 3.2841ZM17.0065 3.2841H18V10.7153H17.0065V14H0V0H17.0065V3.2841ZM16.2469 5.11451H9.92882C9.43301 5.11451 8.98165 5.32694 8.65424 5.66899H8.65074C8.32536 6.00853 8.1232 6.47981 8.1232 6.99981C8.1232 7.5175 8.32665 7.98877 8.65424 8.33063C8.98165 8.67267 9.43301 8.8851 9.92882 8.8851H16.2469V5.11451Z" fill="white"/>
<path d="M7.41655 4.37688L7.41672 4.37704L7.41656 4.37687L7.41655 4.37688ZM7.41489 4.37514L7.41472 4.37498L7.41488 4.37515L7.41489 4.37514ZM8.65424 5.66899V5.669L8.65425 5.66899L8.65424 5.66899ZM8.65074 5.66899V5.66897L8.65073 5.66898L8.65074 5.66899ZM8.65424 8.33063L8.65425 8.33062L8.65424 8.33063ZM9.84785 6.0981H11.5753V6.09808H9.84785V6.0981ZM11.5753 6.09809V7.90192H11.5753V6.09809H11.5753ZM11.5753 7.90191H9.84785V7.90193H11.5753V7.90191ZM9.84786 7.90192V6.09809H9.84784V7.90192H9.84786ZM9.92882 3.28411H15.2535V3.28409H9.92882V3.28411ZM15.2535 3.2841V1.83041H15.2535V3.2841H15.2535ZM15.2535 1.8304H1.75306V1.83042H15.2535V1.8304ZM1.75305 1.83041V12.1696H1.75307V1.83041H1.75305ZM1.75306 12.1696H15.2535V12.1696H1.75306V12.1696ZM15.2535 12.1696V10.7153H15.2535V12.1696H15.2535ZM15.2535 10.7153H9.92882V10.7153H15.2535V10.7153ZM9.92882 10.7153C8.94955 10.7153 8.05956 10.2976 7.4149 9.62446L7.41488 9.62448C8.05955 10.2976 8.94955 10.7153 9.92882 10.7153V10.7153ZM7.4149 9.62446C6.77023 8.95135 6.37015 8.02228 6.37015 6.99981H6.37013C6.37013 8.02229 6.77021 8.95136 7.41488 9.62448L7.4149 9.62446ZM6.37015 6.99981C6.37015 5.98041 6.77115 5.05154 7.41656 4.37688L7.41654 4.37687C6.77113 5.05153 6.37013 5.98041 6.37013 6.99981H6.37015ZM7.41656 4.37687L7.4149 4.37514L7.41488 4.37515L7.41654 4.37688L7.41656 4.37687ZM7.4149 4.37515C8.05956 3.70204 8.94955 3.28411 9.92882 3.28411V3.28409C8.94955 3.28409 8.05955 3.70202 7.41488 4.37514L7.4149 4.37515ZM17.0065 3.28411H18V3.28409H17.0065V3.28411ZM18 3.2841V10.7153H18V3.2841H18ZM18 10.7153H17.0065V10.7153H18V10.7153ZM17.0065 10.7153V14H17.0065V10.7153H17.0065ZM17.0065 14H0V14H17.0065V14ZM1e-05 14V0H-1e-05V14H1e-05ZM0 1e-05H17.0065V-1e-05H0V1e-05ZM17.0065 0V3.2841H17.0065V0H17.0065ZM16.2469 5.1145H9.92882V5.11452H16.2469V5.1145ZM9.92882 5.1145C9.433 5.1145 8.98164 5.32693 8.65423 5.66898L8.65425 5.66899C8.98165 5.32695 9.43301 5.11452 9.92882 5.11452V5.1145ZM8.65424 5.66898H8.65074V5.669H8.65424V5.66898ZM8.65073 5.66898C8.32535 6.00852 8.12319 6.4798 8.12319 6.99981H8.12321C8.12321 6.47981 8.32537 6.00853 8.65074 5.66899L8.65073 5.66898ZM8.12319 6.99981C8.12319 7.5175 8.32664 7.98878 8.65423 8.33064L8.65425 8.33062C8.32666 7.98877 8.12321 7.5175 8.12321 6.99981H8.12319ZM8.65423 8.33064C8.98164 8.67268 9.433 8.88511 9.92882 8.88511V8.88509C9.43301 8.88509 8.98165 8.67267 8.65425 8.33062L8.65423 8.33064ZM9.92882 8.88511H16.2469V8.88509H9.92882V8.88511ZM16.247 8.8851V5.11451H16.2469V8.8851H16.247Z" fill="white" mask="url(#path-1-outside-1)"/>
</svg>
