<svg width="100" height="77" viewBox="0 0 100 77" fill="none" xmlns="http://www.w3.org/2000/svg">
<path d="M90.5881 39.5224H99V1H90.5881M90.5881 39.5224V1M90.5881 39.5224H80.3423M90.5881 1H57.334M57.1491 1L34.0155 24.6523C40.8292 31.1415 47.6428 30.6104 54.4564 24.968L63.5035 16.0147M49.9061 8.40407L42.663 1H9.41193M60.4978 19.2342L80.8224 40.0123L85.4652 44.7575C87.5227 46.8615 87.466 50.2493 85.3399 52.2855C83.2138 54.3217 79.7936 54.2656 77.7361 52.1615M77.7361 52.1615L73.0724 47.3957M77.7361 52.1615C79.7936 54.2656 79.7041 57.6179 77.6109 59.6866V59.6895C75.5205 61.7582 72.0645 61.6697 70.007 59.5656M49.8882 69.6079L54.5489 74.3737C56.6064 76.4748 60.0624 76.5663 62.1527 74.4947C64.246 72.4261 64.3355 69.0737 62.278 66.9697M62.278 66.9697L57.6143 62.2038M62.278 66.9697C64.3355 69.0737 67.7915 69.1623 69.8818 67.0906C71.9751 65.022 72.0645 61.6697 70.007 59.5656M70.007 59.5656L65.3433 54.7997M32.2175 41.7976C34.275 39.6935 37.6952 39.6404 39.8213 41.6737C41.9474 43.7099 42.0011 47.0976 39.9436 49.2017M32.2175 41.7976C34.272 39.6935 34.2183 36.3058 32.0922 34.2696C29.9661 32.2364 26.5459 32.2895 24.4884 34.3935L19.613 39.3748L19.4699 39.5224M32.2175 41.7976H32.2145L24.8671 49.3109L24.8641 49.3138M39.9436 49.2017L32.5962 56.7149M39.9436 49.2017C42.0011 47.0976 45.4243 47.0415 47.5504 49.0777C49.6765 51.1139 49.7301 54.5017 47.6726 56.6057M32.5962 56.7149C30.5387 58.819 27.1154 58.8751 24.9893 56.8389C22.8633 54.8027 22.8096 51.4179 24.8641 49.3138M32.5962 56.7149C30.5387 58.819 30.5923 62.2067 32.7184 64.2429C34.8445 66.2791 38.2677 66.2231 40.3223 64.119M24.8641 49.3138C22.8066 51.4149 19.3864 51.471 17.2603 49.4348C15.1342 47.3986 15.0805 44.0109 17.138 41.9068L19.4699 39.5224M40.3223 64.119L47.6726 56.6057M40.3223 64.119C38.2677 66.2231 38.3214 69.6108 40.4475 71.644C42.5736 73.6802 45.9938 73.6271 48.0513 71.5231L51.7265 67.765L55.4017 64.0069C57.4592 61.9057 57.4055 58.518 55.2794 56.4818C53.1534 54.4456 49.7301 54.5017 47.6726 56.6057M19.4699 39.5224H9.41193M9.41193 39.5224V1M9.41193 39.5224H1V1H9.41193" stroke="white" stroke-width="2" stroke-linecap="round" stroke-linejoin="round"/>
</svg>
