<svg width="91" height="95" viewBox="0 0 91 95" fill="none" xmlns="http://www.w3.org/2000/svg">
<path d="M18.3185 49.5102H46.0442M20.5731 61.0923H68.8651L72.0637 52.936M15.8069 36.6092H38.7865M22.5276 71.1476L71.905 71.0898M1 26.1613H13.7716L22.5304 71.1476M65.7357 11.1563V39.3596M51.6303 25.258H79.841M65.7357 1C52.3347 1 41.4713 11.8605 41.4713 25.258C41.4713 38.6554 52.3347 49.516 65.7357 49.516C79.1366 49.516 90 38.6554 90 25.258C90 11.8605 79.1366 1 65.7357 1ZM25.5184 80.0282C29.3782 80.0282 32.5075 83.1539 32.5075 87.0127C32.5075 90.8714 29.3782 94 25.5184 94C21.6586 94 18.5321 90.8714 18.5321 87.0127C18.5321 83.1539 21.6586 80.0282 25.5184 80.0282ZM66.2322 80.0282C70.092 80.0282 73.2214 83.1539 73.2214 87.0127C73.2214 90.8714 70.092 94 66.2322 94C62.3724 94 59.2459 90.8714 59.2459 87.0127C59.2459 83.1539 62.3724 80.0282 66.2322 80.0282Z" stroke="white" stroke-width="2" stroke-linecap="round" stroke-linejoin="round"/>
</svg>
