<svg width="21" height="20" viewBox="0 0 21 20" fill="none" xmlns="http://www.w3.org/2000/svg">
<path fill-rule="evenodd" clip-rule="evenodd" d="M10.5 0C13.3987 0 16.0243 1.11978 17.924 2.92885C19.8243 4.73912 21 7.23867 21 10C21 12.7613 19.8243 15.2615 17.924 17.0711C16.0243 18.8808 13.3987 20 10.5 20C7.6007 20 4.9757 18.8808 3.07538 17.0711C1.17565 15.2615 0 12.7613 0 10C0 7.23867 1.17565 4.73912 3.07538 2.92885C4.9757 1.11978 7.6007 0 10.5 0ZM13.2807 10.012L11.6619 8.65146L10.043 7.2903V10.012V12.7337L11.6619 11.3726L13.2807 10.012ZM8.24333 3.35635V16.6677L16.1614 10.012L8.24333 3.35635ZM16.5525 4.23536C15.0044 2.76013 12.8639 1.84749 10.5 1.84749C8.13612 1.84749 5.99564 2.76013 4.44747 4.23536C2.8981 5.71 1.94045 7.74842 1.94045 10C1.94045 12.2516 2.8981 14.29 4.44747 15.7646C5.99564 17.2399 8.13612 18.1525 10.5 18.1525C12.8639 18.1525 15.0044 17.2399 16.5525 15.7646C18.1013 14.2894 19.0595 12.2516 19.0595 10C19.0595 7.74842 18.1013 5.7106 16.5525 4.23536Z" fill="white"/>
</svg>
