<svg width="90" height="90" viewBox="0 0 90 90" fill="none" xmlns="http://www.w3.org/2000/svg">
<path fill-rule="evenodd" clip-rule="evenodd" d="M45 1V45H1V1H45ZM7.57389 51.5766L38.4261 82.4261L7.57389 51.5766ZM7.57389 62.3234L27.6766 82.4261L7.57389 62.3234ZM7.57389 73.0703L16.9297 82.4261L7.57389 73.0703ZM28.8144 51.5766L38.4261 61.1856L28.8144 51.5766ZM18.1955 51.5766L38.4261 71.8045L18.1955 51.5766ZM61.6679 25.5288L82.4234 46.2871L61.6679 25.5288ZM72.9423 25.5288L82.4234 35.0126L72.9423 25.5288ZM51.5739 37.9838L82.4234 68.8333L51.5739 37.9838ZM51.5739 26.7093L82.4234 57.5589L51.5739 26.7093ZM51.5739 71.8045L62.1955 82.4261L51.5739 71.8045ZM51.5739 60.53L73.4673 82.4261L51.5739 60.53ZM51.5739 49.2582L82.4234 80.1078L51.5739 49.2582ZM7.57389 7.57655L38.4261 38.4261L7.57389 7.57655ZM7.57389 18.3234L27.6766 38.4261L7.57389 18.3234ZM7.57389 29.0703L16.9297 38.4261L7.57389 29.0703ZM28.8144 7.57655L38.4261 17.1856L28.8144 7.57655ZM18.1955 7.57655L38.4261 27.8045L18.1955 7.57655ZM45 18.9549H89V89H45V18.9549ZM51.5739 25.5288H82.4234V82.4261H51.5739V25.5288ZM7.57389 51.5766H38.4261V82.4261H7.57389V51.5766ZM45 45V89H1V45H45ZM7.57389 38.4261V7.57655H38.4261V38.4261H7.57389Z" stroke="white" stroke-width="2" stroke-linecap="round" stroke-linejoin="round"/>
</svg>
