<svg width="20" height="16" viewBox="0 0 20 16" fill="none" xmlns="http://www.w3.org/2000/svg">
<path fill-rule="evenodd" clip-rule="evenodd" d="M12.674 6.7446H14.9939C15.6323 6.7446 16.2127 6.4839 16.6332 6.06382L16.6321 6.06268C17.0525 5.64147 17.3137 5.06144 17.3137 4.42392V4.20876C17.3137 3.57124 17.0525 2.99121 16.6321 2.57C16.211 2.14935 15.6312 1.88808 14.9939 1.88808H12.674V6.7446ZM0 16L5.13813 0L10.2763 16H8.69726L7.13192 11.1247H3.1449L1.57899 16H0ZM6.6477 9.61571L5.13813 4.91686L3.62912 9.61571H6.6477ZM17.5903 7.22957C18.0028 7.44189 18.3783 7.71682 18.7032 8.04127C19.5033 8.84158 20 9.94699 20 11.1623V11.5806C20 12.7965 19.5033 13.9013 18.7032 14.7016C17.9026 15.5025 16.7988 15.9994 15.5828 15.9994H11.1662V8.25245V6.7446V0.379665H11.9201H14.9939C16.0477 0.379665 17.0042 0.80999 17.6978 1.50329C18.3914 2.19716 18.8216 3.15515 18.8216 4.20876V4.42392C18.8216 5.47753 18.3914 6.43495 17.6978 7.12882H17.695C17.6608 7.16297 17.6255 7.19656 17.5903 7.22957ZM15.5828 8.25245H14.9939H12.674V14.4904H15.5828C16.3828 14.4904 17.1094 14.1632 17.6369 13.6355C18.1644 13.1078 18.4916 12.3804 18.4916 11.5806V11.1623C18.4916 10.3631 18.1644 9.63563 17.6369 9.10797C17.1094 8.58031 16.3828 8.25245 15.5828 8.25245Z" fill="white"/>
</svg>
