<svg width="95" height="71" viewBox="0 0 95 71" fill="none" xmlns="http://www.w3.org/2000/svg">
<path fill-rule="evenodd" clip-rule="evenodd" d="M58.4063 59.3739H8.37108C4.31803 59.3739 1 56.0578 1 52.0072V8.36662C1 4.31602 4.31803 1 8.37108 1H86.6289C90.682 1 94 4.31602 94 8.36662V52.0072C94 56.0578 90.682 59.3739 86.6289 59.3739H58.4063ZM1 16.3013H94H1ZM1 70H94H1ZM36.8674 64.6854H58.1326H36.8674ZM83.3496 6.95992C82.0224 6.95992 80.9481 8.03353 80.9481 9.35994C80.9481 10.6834 82.0224 11.757 83.3496 11.757C84.6768 11.757 85.7511 10.6834 85.7511 9.35994C85.7511 8.03353 84.6768 6.95992 83.3496 6.95992ZM64.1258 6.95992C62.7986 6.95992 61.7244 8.03353 61.7244 9.35994C61.7244 10.6834 62.7986 11.757 64.1258 11.757C65.4531 11.757 66.5273 10.6834 66.5273 9.35994C66.5273 8.03353 65.4531 6.95992 64.1258 6.95992ZM73.7377 6.95992C72.4105 6.95992 71.3362 8.03353 71.3362 9.35994C71.3362 10.6834 72.4105 11.757 73.7377 11.757C75.0649 11.757 76.1392 10.6834 76.1392 9.35994C76.1392 8.03353 75.0649 6.95992 73.7377 6.95992Z" stroke="white" stroke-width="2" stroke-linecap="round" stroke-linejoin="round"/>
</svg>
