<svg width="21" height="21" viewBox="0 0 21 21" fill="none" xmlns="http://www.w3.org/2000/svg">
<path d="M15.7177 9.6303H21L21 11.3695L13.9785 11.3695L11.3695 11.3695L11.3695 12.5996L11.3695 21L9.6303 21V11.3695L0 11.3695M15.7177 9.6303L0 11.3695M15.7177 9.6303L11.3695 9.6303L15.7177 9.6303ZM0 11.3695L-5e-06 9.6303M0 11.3695L-5e-06 9.6303M-5e-06 9.6303L0 9.63029L8.40017 9.6303L9.6303 9.6303L9.63029 0M-5e-06 9.6303L9.63029 0M9.63029 0L11.3695 -5e-06M9.63029 0L11.3695 -5e-06M11.3695 -5e-06L11.3695 0L11.3695 -5e-06ZM2.17431 4.38004V4.38004V4.38004ZM2.17431 4.38004H2.1743V6.11924H2.17431V6.11924H4.38024M2.17431 4.38004L4.38024 6.11924M4.38024 6.11924V8.32539L4.38025 8.32539H6.11944L6.11945 8.32539V7.34958V6.11924H4.38024ZM12.6746 6.11924L18.8259 6.11924L18.8259 4.38005L12.6746 4.38004M12.6746 6.11924V4.38004M12.6746 6.11924L12.6746 4.38004L12.6746 4.38004M12.6746 6.11924V4.38004M2.17389 14.8801L2.17389 14.8801H8.32518L8.32519 14.8801L8.32518 16.6193L2.17389 14.8801ZM2.17389 14.8801L2.1739 16.6193L2.17389 14.8801ZM18.2102 12.0593L18.1242 12.1454L16.9799 13.2898L15.8344 14.4354L15.7495 14.5202L13.2887 12.0593L12.0589 13.2891L14.4346 15.6647L14.5198 15.75L13.2894 16.9803L12.0589 18.2106L12.1438 18.2955L13.2886 19.4403L15.7495 16.9797L18.2102 19.4403L19.4399 18.2106L16.9793 15.7499L19.4399 13.2891L18.2102 12.0593ZM6.11595 12.6738L6.10654 12.6738L6.11513 14.2209L6.11595 12.6738ZM4.38291 14.2209L4.38374 12.6738L4.38291 14.2209ZM8.32559 6.11924L8.3256 6.11924V4.38004L8.32559 4.38004H6.11945V2.1741H6.11944V2.17409H4.38025V2.1741H4.38024V4.38004L8.32559 6.11924ZM6.11636 17.2786L6.11554 18.8257H4.38333L4.38415 17.2786H6.11636Z" fill="white" stroke="white" stroke-width="1e-05"/>
</svg>
