<svg width="10" height="19" viewBox="0 0 10 19" fill="none" xmlns="http://www.w3.org/2000/svg">
<path fill-rule="evenodd" clip-rule="evenodd" d="M2.84128 19V17.6883H0V16.1215H2.84128V9.42631C2.2454 9.22677 1.71064 8.89856 1.27343 8.47625C0.526532 7.75634 0.0628783 6.7615 0.0628783 5.66746V5.44355C0.0628783 4.72251 0.265029 4.04398 0.616442 3.45954C1.14356 2.58318 1.90163 1.96474 2.84128 1.6677V0H4.46553V1.46817H5.59734V0H7.2216V1.46817H10V3.0344H7.2216V8.59756C8.6155 9.14855 9.9524 10.2874 9.9524 12.6659V13.1001C9.9524 14.3625 9.41764 15.5098 8.55615 16.3409C8.17065 16.7127 7.71934 17.0211 7.2216 17.249V19H5.59734V17.6718C5.46512 17.6826 5.33114 17.6883 5.19598 17.6883H4.46553V19H2.84128ZM2.84128 7.69569V3.4142C2.68849 3.50829 2.54745 3.6177 2.41993 3.74071L2.42111 3.74241C1.96803 4.17946 1.68714 4.78203 1.68714 5.44355V5.66746C1.68714 6.32955 1.96803 6.93213 2.42111 7.36861C2.54863 7.49162 2.68966 7.60102 2.84128 7.69569ZM4.46553 3.0344V8.07775H4.56132C4.82341 8.09022 5.18482 8.11516 5.59734 8.17638V3.0344H4.46553ZM4.56132 9.64398H4.46553V16.1215H5.19598C5.33173 16.1215 5.46571 16.113 5.59734 16.0971V9.66892C5.4757 9.65362 5.35288 9.64568 5.22771 9.64398H5.22125H5.21479H5.20891H5.20186H5.19598H4.56132ZM7.2216 15.3999C7.28624 15.3466 7.34795 15.2916 7.40789 15.2338C7.97614 14.6856 8.32873 13.9306 8.32873 13.1001V12.6659C8.32873 11.8355 7.97614 11.0798 7.40789 10.5323C7.34795 10.4744 7.28624 10.4194 7.2216 10.3662V15.3999Z" fill="white"/>
</svg>
