<svg width="20" height="19" viewBox="0 0 20 19" fill="none" xmlns="http://www.w3.org/2000/svg">
<mask id="path-1-outside-1" maskUnits="userSpaceOnUse" x="0" y="0" width="20" height="19" fill="black">
<rect fill="white" width="20" height="19"/>
<path d="M10 0C12.761 0 15.2612 1.06356 17.0709 2.78262C18.8807 4.50187 20 6.87702 20 9.5C20 12.123 18.8807 14.4981 17.0709 16.2174C15.2612 17.9366 12.761 19 10 19C7.23896 19 4.73882 17.9366 2.92907 16.2174C1.11953 14.4981 0 12.123 0 9.5C0 6.87702 1.11953 4.50187 2.92907 2.78262C4.73882 1.06356 7.23896 0 10 0ZM6.81897 4.04445H10.7914C11.9911 4.04445 13.0814 4.51036 13.8708 5.26029C14.6603 6.01023 15.1507 7.04608 15.1507 8.18578C15.1507 9.32283 14.6603 10.3579 13.8708 11.1081V11.1113C13.0814 11.8612 11.9911 12.3271 10.7914 12.3271H8.6668V14.7201H6.81897V12.3271V10.7315V5.64007V4.84226V4.04445ZM8.6668 10.7315H10.7914C11.5274 10.7315 12.1974 10.4446 12.6833 9.98306L12.6849 9.98456C13.1699 9.52281 13.4711 8.88614 13.4711 8.18578C13.4711 7.48654 13.1691 6.85006 12.6833 6.38849C12.1974 5.92692 11.5274 5.64007 10.7914 5.64007H8.6668V10.7315ZM15.7647 4.02353C14.2899 2.62242 12.2514 1.75544 10 1.75544C7.74864 1.75544 5.71015 2.62242 4.23529 4.02353C2.76044 5.42464 1.84783 7.3612 1.84783 9.5C1.84783 11.6388 2.76044 13.5754 4.23529 14.9765C5.71035 16.3778 7.74864 17.2446 10 17.2446C12.2514 17.2446 14.2897 16.3778 15.7647 14.9765C17.2398 13.5752 18.1522 11.6388 18.1522 9.5C18.1522 7.3612 17.2398 5.42483 15.7647 4.02353Z"/>
</mask>
<path d="M10 0C12.761 0 15.2612 1.06356 17.0709 2.78262C18.8807 4.50187 20 6.87702 20 9.5C20 12.123 18.8807 14.4981 17.0709 16.2174C15.2612 17.9366 12.761 19 10 19C7.23896 19 4.73882 17.9366 2.92907 16.2174C1.11953 14.4981 0 12.123 0 9.5C0 6.87702 1.11953 4.50187 2.92907 2.78262C4.73882 1.06356 7.23896 0 10 0ZM6.81897 4.04445H10.7914C11.9911 4.04445 13.0814 4.51036 13.8708 5.26029C14.6603 6.01023 15.1507 7.04608 15.1507 8.18578C15.1507 9.32283 14.6603 10.3579 13.8708 11.1081V11.1113C13.0814 11.8612 11.9911 12.3271 10.7914 12.3271H8.6668V14.7201H6.81897V12.3271V10.7315V5.64007V4.84226V4.04445ZM8.6668 10.7315H10.7914C11.5274 10.7315 12.1974 10.4446 12.6833 9.98306L12.6849 9.98456C13.1699 9.52281 13.4711 8.88614 13.4711 8.18578C13.4711 7.48654 13.1691 6.85006 12.6833 6.38849C12.1974 5.92692 11.5274 5.64007 10.7914 5.64007H8.6668V10.7315ZM15.7647 4.02353C14.2899 2.62242 12.2514 1.75544 10 1.75544C7.74864 1.75544 5.71015 2.62242 4.23529 4.02353C2.76044 5.42464 1.84783 7.3612 1.84783 9.5C1.84783 11.6388 2.76044 13.5754 4.23529 14.9765C5.71035 16.3778 7.74864 17.2446 10 17.2446C12.2514 17.2446 14.2897 16.3778 15.7647 14.9765C17.2398 13.5752 18.1522 11.6388 18.1522 9.5C18.1522 7.3612 17.2398 5.42483 15.7647 4.02353Z" fill="white"/>
<path d="M17.0709 2.78262L17.0709 2.78261L17.0709 2.78262ZM2.92907 16.2174L2.92907 16.2174L2.92907 16.2174ZM2.92907 2.78262L2.92907 2.78261L2.92907 2.78262ZM13.8708 11.1081L13.8708 11.108V11.1081H13.8708ZM13.8708 11.1113L13.8709 11.1113V11.1113H13.8708ZM12.6833 9.98306L12.6834 9.98292L12.6833 9.98305L12.6833 9.98306ZM12.6849 9.98456L12.6847 9.98471L12.6849 9.98457L12.6849 9.98456ZM10 1e-05C12.761 1e-05 15.2612 1.06356 17.0709 2.78263L17.0709 2.78261C15.2612 1.06355 12.761 -1e-05 10 -1e-05V1e-05ZM17.0709 2.78263C18.8807 4.50188 20 6.87702 20 9.5H20C20 6.87701 18.8807 4.50187 17.0709 2.78261L17.0709 2.78263ZM20 9.5C20 12.123 18.8807 14.4981 17.0709 16.2174L17.0709 16.2174C18.8807 14.4981 20 12.123 20 9.5H20ZM17.0709 16.2174C15.2612 17.9366 12.761 19 10 19V19C12.761 19 15.2612 17.9366 17.0709 16.2174L17.0709 16.2174ZM10 19C7.23897 19 4.73882 17.9366 2.92908 16.2174L2.92907 16.2174C4.73881 17.9366 7.23896 19 10 19V19ZM2.92908 16.2174C1.11954 14.4981 1e-05 12.123 1e-05 9.5H-1e-05C-1e-05 12.123 1.11952 14.4981 2.92907 16.2174L2.92908 16.2174ZM1e-05 9.5C1e-05 6.87702 1.11954 4.50188 2.92908 2.78263L2.92907 2.78261C1.11952 4.50187 -1e-05 6.87701 -1e-05 9.5H1e-05ZM2.92908 2.78263C4.73882 1.06356 7.23897 1e-05 10 1e-05V-1e-05C7.23896 -1e-05 4.73881 1.06355 2.92907 2.78261L2.92908 2.78263ZM6.81897 4.04446H10.7914V4.04444H6.81897V4.04446ZM10.7914 4.04446C11.9911 4.04446 13.0814 4.51037 13.8708 5.2603L13.8709 5.26028C13.0814 4.51035 11.9911 4.04444 10.7914 4.04444V4.04446ZM13.8708 5.2603C14.6602 6.01023 15.1507 7.04608 15.1507 8.18578H15.1507C15.1507 7.04607 14.6603 6.01022 13.8709 5.26028L13.8708 5.2603ZM15.1507 8.18578C15.1507 9.32283 14.6602 10.3579 13.8708 11.108L13.8709 11.1081C14.6603 10.3579 15.1507 9.32284 15.1507 8.18578H15.1507ZM13.8708 11.1081V11.1113H13.8709V11.1081H13.8708ZM13.8708 11.1113C13.0814 11.8612 11.9911 12.3271 10.7914 12.3271V12.3271C11.9911 12.3271 13.0814 11.8612 13.8709 11.1113L13.8708 11.1113ZM10.7914 12.3271H8.6668V12.3271H10.7914V12.3271ZM8.66679 12.3271V14.7201H8.66681V12.3271H8.66679ZM8.6668 14.7201H6.81897V14.7202H8.6668V14.7201ZM6.81898 14.7201V12.3271H6.81896V14.7201H6.81898ZM6.81898 12.3271V10.7315H6.81896V12.3271H6.81898ZM6.81898 10.7315V5.64007H6.81896V10.7315H6.81898ZM6.81898 5.64007V4.84226H6.81896V5.64007H6.81898ZM6.81898 4.84226V4.04445H6.81896V4.84226H6.81898ZM8.6668 10.7315H10.7914V10.7315H8.6668V10.7315ZM10.7914 10.7315C11.5274 10.7315 12.1974 10.4446 12.6833 9.98306L12.6833 9.98305C12.1974 10.4446 11.5274 10.7315 10.7914 10.7315V10.7315ZM12.6833 9.98306L12.6848 9.98457L12.6849 9.98456L12.6833 9.98305L12.6833 9.98306ZM12.6849 9.98457C13.1699 9.52281 13.4711 8.88615 13.4711 8.18578H13.4711C13.4711 8.88614 13.1699 9.5228 12.6848 9.98456L12.6849 9.98457ZM13.4711 8.18578C13.4711 7.48654 13.1691 6.85006 12.6833 6.38849L12.6833 6.3885C13.1691 6.85007 13.4711 7.48654 13.4711 8.18578H13.4711ZM12.6833 6.38849C12.1974 5.92691 11.5274 5.64006 10.7914 5.64006V5.64008C11.5274 5.64008 12.1974 5.92693 12.6833 6.3885L12.6833 6.38849ZM10.7914 5.64006H8.6668V5.64008H10.7914V5.64006ZM8.66679 5.64007V10.7315H8.66681V5.64007H8.66679ZM15.7647 4.02352C14.2899 2.62241 12.2514 1.75543 10 1.75543V1.75545C12.2514 1.75545 14.2898 2.62243 15.7647 4.02354L15.7647 4.02352ZM10 1.75543C7.74863 1.75543 5.71014 2.62241 4.23529 4.02352L4.2353 4.02354C5.71015 2.62243 7.74864 1.75545 10 1.75545V1.75543ZM4.23529 4.02352C2.76043 5.42463 1.84782 7.3612 1.84782 9.5H1.84784C1.84784 7.36121 2.76045 5.42465 4.2353 4.02354L4.23529 4.02352ZM1.84782 9.5C1.84782 11.6388 2.76043 13.5754 4.23529 14.9765L4.2353 14.9765C2.76045 13.5754 1.84784 11.6388 1.84784 9.5H1.84782ZM4.23529 14.9765C5.71034 16.3778 7.74863 17.2446 10 17.2446V17.2445C7.74864 17.2445 5.71035 16.3778 4.2353 14.9765L4.23529 14.9765ZM10 17.2446C12.2514 17.2446 14.2897 16.3778 15.7647 14.9765L15.7647 14.9765C14.2896 16.3778 12.2514 17.2445 10 17.2445V17.2446ZM15.7647 14.9765C17.2398 13.5752 18.1522 11.6388 18.1522 9.5H18.1522C18.1522 11.6388 17.2397 13.5752 15.7647 14.9765L15.7647 14.9765ZM18.1522 9.5C18.1522 7.3612 17.2398 5.42482 15.7647 4.02352L15.7647 4.02354C17.2397 5.42483 18.1522 7.36121 18.1522 9.5H18.1522Z" fill="white" mask="url(#path-1-outside-1)"/>
</svg>
