<svg width="585" height="122" viewBox="0 0 585 122" fill="none" xmlns="http://www.w3.org/2000/svg">
<path fill-rule="evenodd" clip-rule="evenodd" d="M19.8224 0.900543H13.4407V13.1317L0.000673931 0.900543L0 53.4305H19.8224C54.0623 53.2804 54.0623 1.05061 19.8224 0.900543ZM453.358 0.900543H466.649V53.4305H453.358V0.900543ZM324.076 0.900543H337.366V53.4305H324.076V0.900543ZM13.4407 13.1317L19.8224 13.133C36.567 13.133 36.567 41.1987 19.8224 41.1987H13.4407V13.1317ZM89.8032 34.8201C103.094 25.8143 99.3386 0.975244 78.6901 0.900543H69.0793V12.9076C72.2331 12.9076 75.5363 12.8322 78.6901 12.9076C86.3491 12.9829 85.974 26.0397 78.6901 26.0397H69.0793V13.1317L55.6399 0.900543C55.6399 18.4599 55.6392 35.9459 55.6392 53.4305C59.9936 53.4305 64.5741 53.4305 69.0793 53.4305V37.972H76.0622L85.0731 53.4305H100.09V51.4797L89.8032 34.8201ZM158.883 27.2409C158.883 -9.08029 104.971 -9.08029 104.971 27.2409C104.971 63.6368 158.883 63.6368 158.883 27.2409ZM118.787 27.2409C118.787 8.32965 145.142 8.32965 145.142 27.2409C145.142 46.3015 118.787 46.3015 118.787 27.2409ZM182.46 53.4305V39.9976H192.146C217.3 39.9976 217.3 0.975244 192.146 0.900543H182.46V12.9076C185.539 12.9076 188.918 12.8322 192.071 12.9076C199.88 12.9829 199.429 27.9158 192.071 27.9158H182.46V13.1317L169.02 0.900543C169.02 18.4599 169.019 35.9459 169.019 53.4305C173.45 53.4305 177.955 53.4305 182.46 53.4305ZM230.441 37.3718C225.86 37.3718 221.956 37.3718 217.451 37.3718C217.15 60.4848 259.949 60.1093 259.949 38.0467C259.949 24.9139 249.738 23.3386 239.3 22.2128C234.57 21.6872 230.666 20.8616 230.965 16.8846C231.416 10.656 245.533 10.0557 245.533 17.0346C250.113 17.0346 253.567 17.0346 258.298 17.0346C258.597 -5.62819 217.751 -5.62819 218.201 17.0346C218.351 28.4407 225.86 32.3437 237.273 33.1694C242.529 33.4688 246.884 34.2945 246.884 37.972C246.884 44.1253 230.441 44.0506 230.441 37.3718ZM313.561 0.900543C308.981 0.900543 304.4 0.900543 299.821 0.900543V19.9612H283.602V0.900543C279.022 0.900543 274.366 0.900543 269.861 0.900543V53.4305C274.366 53.4305 279.022 53.4305 283.602 53.4305V32.3437H299.821V53.4305C304.4 53.4305 308.981 53.4305 313.561 53.4305V0.900543ZM362.335 53.4305V39.9976H372.021C397.175 39.9976 397.173 0.953429 372.021 0.900543C365.499 0.887322 358.918 0.896577 352.465 0.899882H362.335V12.9076C365.413 12.9076 368.796 12.8666 371.946 12.9076C379.753 13.0107 379.298 27.9158 371.946 27.9158H362.335V13.1317L348.895 0.900543C348.895 18.4599 348.894 35.9459 348.894 53.4305C353.324 53.4305 357.829 53.4305 362.335 53.4305ZM414.444 53.4305V39.9976H424.131C449.284 39.9976 449.284 0.953429 424.131 0.900543C417.609 0.887322 411.027 0.896577 404.574 0.899882H414.444V12.9076C417.523 12.9076 420.906 12.8666 424.055 12.9076C431.863 13.0107 431.408 27.9158 424.055 27.9158H414.444V13.1317L401.005 0.900543C401.005 18.4599 401.004 35.9459 401.004 53.4305C405.434 53.4305 409.939 53.4305 414.444 53.4305ZM518.03 53.4305H522.836V0.900543C518.256 0.900543 513.675 0.900543 509.095 0.900543V26.603L482.514 0.675119H477.633V53.4305C482.214 53.4305 486.869 53.4305 491.525 53.4305V27.6164L518.03 53.4305ZM532.972 27.1662C532.972 45.1004 546.563 54.0314 559.929 54.0314C569.615 54.0314 579.574 49.8138 583.356 38.8724C585.121 33.763 585.158 28.7415 584.858 23.4886H560.004V35.1202H571.192C568.789 40.1483 565.335 41.5735 559.929 41.5735C551.97 41.5735 546.864 35.8705 546.864 27.1662C546.864 19.1355 551.443 12.5321 559.929 12.5321C565.26 12.5321 568.714 14.3328 570.891 18.8354H584.106C581.553 5.77858 570.511 0.253355 559.929 0.224929C546.568 0.187909 532.972 9.23069 532.972 27.1662ZM13.4407 120.893V107.46H23.127C48.2806 107.46 48.2806 68.4381 23.127 68.3628H13.4407V80.3704C16.5191 80.3704 19.8978 80.2951 23.0516 80.3704C30.8613 80.4451 30.4102 95.3787 23.0516 95.3787H13.4407C13.4407 91.1003 13.4407 84.6476 13.4407 80.3704L0.248049 68.3628H0C0 85.9228 0 103.408 0 120.893C4.4304 120.893 8.93554 120.893 13.4407 120.893ZM65.5504 68.3628C60.9705 68.3628 56.5401 68.3628 52.035 68.3628V120.893C62.6976 120.893 73.8106 120.893 84.6227 120.893C84.6227 116.391 84.6227 113.314 84.6227 108.81H65.5504C65.5504 86.4483 65.5504 95.5288 65.5504 68.3628ZM127.272 120.893H140.412V118.942L116.684 67.6878H110.903L87.2506 118.942V120.893H100.391L103.469 114.289H124.193L127.272 120.893ZM119.838 102.808H107.824L113.756 89L119.838 102.808ZM151.525 80.3704V120.893C155.955 120.893 160.385 120.893 164.815 120.893V80.3704H177.654C177.654 76.3174 177.654 72.3391 177.654 68.3628H138.61C138.61 72.3391 138.61 76.3174 138.61 80.3704H151.525ZM216.55 103.858C216.55 99.2056 216.55 96.3545 216.55 91.8519H199.655V80.3704L186.462 68.3628H185.99V120.893C190.569 120.893 195.15 120.893 199.655 120.893V103.858H216.55ZM199.655 80.3704H218.727C218.727 75.8672 218.727 72.7906 218.727 68.3628H199.655V80.3704ZM279.772 94.7031C279.772 58.3826 225.86 58.3826 225.86 94.7031C225.86 131.099 279.772 131.099 279.772 94.7031ZM239.677 94.7031C239.677 75.7919 266.031 75.7919 266.031 94.7031C266.031 113.764 239.677 113.764 239.677 94.7031ZM323.998 102.283C337.288 93.2772 333.534 68.4381 312.885 68.3628H303.274V80.3704C306.428 80.3704 309.731 80.2951 312.885 80.3704C320.544 80.4451 320.169 93.5019 312.885 93.5019H303.274C303.274 89.3002 303.274 84.6476 303.274 80.3704L290.082 68.3628H289.834C289.834 85.9228 289.834 103.408 289.834 120.893C294.189 120.893 298.769 120.893 303.274 120.893V105.434H310.257L319.268 120.893H334.285V118.942L323.998 102.283ZM367.849 91.0256L347.275 68.2127H342.32V120.893C346.9 120.893 351.48 120.893 356.06 120.893V97.4796L367.173 109.186H368.674L379.862 97.4796V120.893C384.442 120.893 389.023 120.893 393.603 120.893V68.2127H388.797L367.849 91.0256ZM441.584 120.893H454.723V118.942L430.997 67.6878H425.215L401.562 118.942V120.893H414.702L417.781 114.289H438.505L441.584 120.893ZM434.15 102.808H422.136L428.068 89L434.15 102.808Z" fill="white"/>
</svg>
