<svg width="83" height="75" viewBox="0 0 83 75" fill="none" xmlns="http://www.w3.org/2000/svg">
<path d="M79.6078 35.1462V23.1773C79.6078 21.3417 77.8919 19.8396 75.4603 19.8396M79.6078 35.1462H79.7184H82V58.6934H79.6078M79.6078 35.1462H72.4282C65.9842 35.1462 60.7094 40.4457 60.7094 46.9198C60.7094 53.3969 65.9842 58.6934 72.4282 58.6934H79.6078M75.4603 19.8396C50.9746 19.7211 8.02112 19.5362 8.02112 19.5362M75.4603 19.8396V4.33771C75.4603 2.50212 73.9652 1 72.1381 1H59.588H10.3744C5.21925 1 1 5.23898 1 10.4213M75.4603 19.8396L70.7208 19.8169V13.4616M8.02112 19.5362C4.03501 18.8798 1 15.3124 1 10.4213M8.02112 19.5362V13.4616M1 10.4213C1 28.1463 1 46.7786 1 64.5457C1 69.746 5.2342 74 10.4133 74H76.2856C78.1127 74 79.6078 72.4979 79.6078 70.6623V58.6934M8.02112 13.4616H70.7208M8.02112 13.4616V7.08358H70.7208V13.4616M71.4534 42.7018C73.7738 42.7018 75.6517 44.5915 75.6517 46.9198C75.6517 49.2511 73.7738 51.1407 71.4534 51.1407C69.1329 51.1407 67.2551 49.2511 67.2551 46.9198C67.2551 44.5915 69.1329 42.7018 71.4534 42.7018Z" stroke="white" stroke-width="2" stroke-linecap="round" stroke-linejoin="round"/>
</svg>
