<svg width="20" height="21" viewBox="0 0 20 21" fill="none" xmlns="http://www.w3.org/2000/svg">
<path d="M9.95706 19.1035C10.2179 19.1035 10.4539 18.9919 10.6247 18.812C10.7954 18.632 10.901 18.3829 10.901 18.1081C10.901 17.833 10.7954 17.5841 10.6247 17.404C10.4539 17.2241 10.2179 17.1125 9.95706 17.1125C9.69625 17.1125 9.46022 17.2241 9.28958 17.404C9.11875 17.5841 9.01312 17.833 9.01312 18.1081C9.01312 18.3829 9.11875 18.632 9.28958 18.812C9.46022 18.9919 9.69625 19.1035 9.95706 19.1035ZM2.74257 7.60807C3.1485 7.60807 3.53394 7.70119 3.88062 7.86817L6.74895 4.84365C7.05968 5.39488 7.49765 5.85693 8.02057 6.18441L5.18205 9.1779C5.37561 9.57414 5.48496 10.0236 5.48496 10.5C5.48496 11.2984 5.17777 12.0215 4.68168 12.5448C4.18521 13.0682 3.49966 13.3919 2.74257 13.3919C1.9853 13.3919 1.29956 13.0682 0.803472 12.5448C0.307194 12.0215 0 11.2986 0 10.5C0 9.70163 0.307194 8.9785 0.803472 8.45516C1.29956 7.93182 1.9853 7.60807 2.74257 7.60807ZM3.41005 9.79612C3.23923 9.61598 3.00319 9.50459 2.74257 9.50459C2.48177 9.50459 2.24574 9.61598 2.07491 9.79612C1.90427 9.97607 1.79845 10.225 1.79845 10.5C1.79845 10.775 1.90427 11.0239 2.07491 11.2041C2.24574 11.384 2.48177 11.4954 2.74257 11.4954C3.00319 11.4954 3.23923 11.384 3.41005 11.2041C3.5807 11.0239 3.68651 10.775 3.68651 10.5C3.68651 10.225 3.5807 9.97607 3.41005 9.79612ZM9.87118 0C10.6285 0 11.314 0.323748 11.8103 0.847088C12.3066 1.37043 12.6136 2.09356 12.6136 2.89192C12.6136 3.32018 12.5253 3.72664 12.3669 4.09223L15.3533 7.2417C14.8364 7.57841 14.4055 8.04812 14.1037 8.60564L11.1251 5.46462C10.7494 5.66853 10.3229 5.78405 9.87118 5.78405C9.11409 5.78405 8.42836 5.4601 7.93208 4.93676C7.4358 4.41342 7.12879 3.69049 7.12879 2.89192C7.12879 2.09356 7.4358 1.37043 7.93208 0.847088C8.42836 0.323944 9.11409 0 9.87118 0ZM10.5388 2.18805C10.368 2.0081 10.132 1.89652 9.87118 1.89652C9.61037 1.89652 9.37434 2.0081 9.2037 2.18805C9.03287 2.36819 8.92724 2.61709 8.92724 2.89192C8.92724 3.16695 9.03287 3.41585 9.2037 3.596C9.37434 3.77595 9.61037 3.88753 9.87118 3.88753C10.132 3.88753 10.368 3.77595 10.5388 3.596C10.7095 3.41585 10.8151 3.16695 10.8151 2.89192C10.8151 2.61709 10.7095 2.36819 10.5388 2.18805ZM17.2576 9.50459C16.9968 9.50459 16.7608 9.61598 16.5901 9.79612C16.4193 9.97607 16.3137 10.225 16.3137 10.5C16.3137 10.775 16.4193 11.0239 16.5901 11.2039C16.7608 11.384 16.9968 11.4954 17.2576 11.4954C17.5184 11.4954 17.7544 11.384 17.9253 11.2039C18.0959 11.0239 18.2015 10.775 18.2015 10.5C18.2015 10.225 18.0959 9.97607 17.9253 9.79612C17.7544 9.61598 17.5184 9.50459 17.2576 9.50459ZM16.0611 13.1028L13.111 16.2135C12.8092 15.656 12.3783 15.1865 11.8613 14.8498L14.7894 11.7618C14.6138 11.3805 14.5152 10.9524 14.5152 10.5C14.5152 9.70144 14.8222 8.9785 15.3185 8.45516C15.8148 7.93182 16.5003 7.60807 17.2576 7.60807C18.0147 7.60807 18.7004 7.93182 19.1967 8.45516C19.693 8.9785 20 9.70144 20 10.5C20 11.2984 19.693 12.0215 19.1967 12.5448C18.7004 13.0682 18.0147 13.3919 17.2576 13.3919C16.8286 13.3919 16.4227 13.288 16.0611 13.1028ZM7.48889 16.8461L4.593 13.7925C5.11592 13.4648 5.55408 13.003 5.86462 12.4515L8.76051 15.5053C9.1221 15.3201 9.52803 15.2161 9.95706 15.2161C10.7143 15.2161 11.3999 15.5399 11.8962 16.0632C12.3924 16.5864 12.6994 17.3095 12.6994 18.1081C12.6994 18.9064 12.3924 19.6296 11.8962 20.1529C11.3999 20.6761 10.7143 21 9.95706 21C9.19997 21 8.51424 20.6761 8.01796 20.1529C7.52168 19.6296 7.21467 18.9064 7.21467 18.1081C7.21467 17.6557 7.31322 17.2276 7.48889 16.8461Z" fill="white"/>
</svg>
