<svg width="20" height="16" viewBox="0 0 20 16" fill="none" xmlns="http://www.w3.org/2000/svg">
<mask id="path-1-outside-1" maskUnits="userSpaceOnUse" x="0" y="0" width="20" height="16" fill="black">
<rect fill="white" width="20" height="16"/>
<path d="M1.83725 3.03205V14.1686H18.1628V3.03205L10 9.69727L1.83725 3.03205ZM16.6921 1.83136H3.30794L10 7.2957L16.6921 1.83136ZM0 15.0843V0H20V16H0V15.0843Z"/>
</mask>
<path d="M1.83725 3.03205V14.1686H18.1628V3.03205L10 9.69727L1.83725 3.03205ZM16.6921 1.83136H3.30794L10 7.2957L16.6921 1.83136ZM0 15.0843V0H20V16H0V15.0843Z" fill="white"/>
<path d="M1.83725 3.03205L1.83724 3.03206V3.03205H1.83725ZM18.1628 3.03205H18.1627L18.1627 3.03204L18.1628 3.03205ZM10 9.69727L9.99997 9.69731L10 9.69728L10 9.69727ZM16.6921 1.83136L16.6921 1.83135H16.6921V1.83136ZM3.30794 1.83136V1.83138L3.30793 1.83137L3.30794 1.83136ZM10 7.2957L9.99997 7.29574L10 7.29571L10 7.2957ZM1.83724 3.03205V14.1686H1.83726V3.03205H1.83724ZM1.83725 14.1686H18.1628V14.1686H1.83725V14.1686ZM18.1628 14.1686V3.03205H18.1627V14.1686H18.1628ZM18.1627 3.03204L9.99999 9.69726L10 9.69728L18.1628 3.03206L18.1627 3.03204ZM10 9.69726L1.83726 3.03204L1.83724 3.03206L9.99999 9.69728L10 9.69726ZM16.6921 1.83135H3.30794V1.83137H16.6921V1.83135ZM3.30793 1.83137L9.99999 7.29571L10 7.2957L3.30795 1.83136L3.30793 1.83137ZM10 7.29571L16.6921 1.83137L16.6921 1.83136L9.99999 7.2957L10 7.29571ZM1e-05 15.0843V0H-1e-05V15.0843H1e-05ZM0 1e-05H20V-1e-05H0V1e-05ZM20 0V16H20V0H20ZM20 16H0V16H20V16ZM1e-05 16V15.0843H-1e-05V16H1e-05Z" fill="white" mask="url(#path-1-outside-1)"/>
</svg>
