<svg width="122" height="102" viewBox="0 0 122 102" fill="none" xmlns="http://www.w3.org/2000/svg">
<path d="M66.0913 22.1726L54.5362 3.73227C53.4878 2.15017 52.5564 1.07869 51.5674 1H51.3385C50.6277 1.05525 49.8825 1.63117 49.0389 2.90355L38.5688 21.5381C36.9408 24.4353 35.083 27.2605 33.3806 28.414C32.5094 29.005 31.5103 29.5307 30.4945 29.8697L5.1381 36.9649C-1.50778 38.8659 1.00907 40.9972 4.65111 45.3366L17.2253 59.8585C18.5309 61.5235 19.8934 63.0713 20.6193 65.1532C20.9876 66.2079 21.2107 67.5255 21.2107 68.9092L19.9268 95.4702C19.6937 97.0179 19.6461 100.999 21.6225 101H21.6267C23.0016 100.999 24.75 100.329 25.8935 99.7929L43.1072 91.8874C50.9818 88.4327 51.818 89.0455 59.0628 91.9502C65.3178 94.4581 71.6746 97.1075 77.9663 99.5075C79.9811 100.275 84.121 102.164 84.121 98.4117C84.121 96.3382 84.025 94.1568 83.7518 92.1569C83.0994 87.3788 82.7444 82.5379 82.3084 77.728M62.349 55.7166L61.4201 74.9271C61.2522 76.0454 61.2188 78.9258 62.6472 78.9267H62.6497C63.6454 78.9258 64.9093 78.4403 65.7363 78.0536L78.1869 72.3363C79.0865 71.9411 79.8583 71.6205 80.5425 71.3669C84.1879 70.0175 85.3139 70.6118 89.7261 72.3806C94.2511 74.1954 98.8487 76.1107 103.4 77.8468C104.856 78.4027 107.851 79.768 107.851 77.0549C107.851 75.5549 107.781 73.977 107.584 72.5305C106.986 68.1541 106.734 63.7058 106.271 59.322C106.17 58.3677 106.095 56.8751 106.236 55.8966C106.643 53.0605 108.527 51.054 110.19 49.0006L119.745 36.7882C120.338 35.916 120.993 35.1978 121 34.0208V34.0007C120.993 32.6321 116.574 31.9097 115.34 31.6627L102.279 28.7304C98.5572 27.6748 97.5389 26.343 95.7045 23.3395L86.4524 8.57569C85.694 7.43222 85.0198 6.65708 84.3048 6.59932H84.1394C83.6265 6.63866 83.0861 7.05637 82.4763 7.97634L74.9032 21.4535C73.7262 23.5505 72.383 25.5938 71.1525 26.4275C70.521 26.8545 69.7993 27.2345 69.065 27.4789L68.4018 27.6648L50.7246 32.612C45.9181 33.9873 47.7391 35.5276 50.3729 38.6675L59.4679 49.1705C60.411 50.3743 61.3967 51.4943 61.9213 52.9994C62.1878 53.7628 62.349 54.7154 62.349 55.7166Z" stroke="white" stroke-width="2" stroke-linecap="round"/>
</svg>
