<svg width="105" height="104" viewBox="0 0 105 104" fill="none" xmlns="http://www.w3.org/2000/svg">
<circle cx="52.5126" cy="51.7875" r="51.7875" fill="#96CDC8"/>
<path d="M44.1514 46.384V33.511C44.1514 31.5799 45.7313 30 47.6624 30H58.0886C60.0197 30 61.5996 31.5805 61.5996 33.511V46.384M44.1514 46.384C45.5381 46.384 46.6622 47.5081 46.6622 48.8948C46.6622 50.2814 45.5381 51.4055 44.1514 51.4055C42.7647 51.4055 41.6406 50.2814 41.6406 48.8948C41.6406 47.5081 42.7647 46.384 44.1514 46.384ZM61.5996 46.384C62.9863 46.384 64.1104 47.5081 64.1104 48.8948C64.1104 50.2814 62.9863 51.4055 61.5996 51.4055C60.2129 51.4055 59.0888 50.2814 59.0888 48.8948C59.0888 47.5135 60.2043 46.393 61.5835 46.3842L61.5996 46.384ZM67.9833 38.2975L72.0261 74.3652H33.7251L37.7679 38.2975H67.9833Z" stroke="white" stroke-width="2" stroke-linecap="round" stroke-linejoin="round"/>
</svg>
