<svg width="36" height="29" viewBox="0 0 36 29" fill="none" xmlns="http://www.w3.org/2000/svg">
<path d="M30.5353 20.7654C32.9123 20.7654 34.7408 22.5556 34.7408 24.8827C34.7408 27.2099 32.9123 29 30.5353 29C28.524 29 26.8784 27.7469 26.5127 25.9568H18.1018C17.7361 27.7469 16.0905 29 14.0792 29C11.885 29 9.8737 27.2099 9.8737 24.8827C9.8737 23.9877 10.2394 23.0926 10.7879 22.3765L6.21678 3.58025H0.914232C0.365693 3.58025 0 3.22222 0 2.68518V0.895062C0 0.358025 0.365693 0 0.914232 0H8.22809C8.41093 0 8.41093 0 8.59378 0C8.95947 0.358025 9.14232 0.716049 9.14232 0.895062L10.0566 4.65432H34.558C36.0207 4.65432 36.2036 5.37037 35.8379 6.62346C34.558 10.3827 33.278 14.321 31.9981 18.2593C31.6324 19.3333 30.901 19.8704 29.9868 19.8704H14.0792L14.262 20.9444C15.5419 20.9444 16.639 21.4815 17.3704 22.3765H27.427C28.1583 21.3025 29.2554 20.7654 30.5353 20.7654Z" fill="black"/>
</svg>
