<svg width="123" height="25" viewBox="0 0 123 25" fill="none" xmlns="http://www.w3.org/2000/svg">
<path d="M4.12169 20.03V13.9559V9.61729V7.44797V4.33862H10.3404C11.7866 4.33862 13.0159 5.49559 13.0159 7.01411C13.0159 8.388 11.9312 9.54498 10.6296 9.61729C10.5573 9.61729 10.485 9.61729 10.485 9.61729H10.4127H6.07407V13.9559H9.32804H9.47266C11.1358 13.9559 12.5097 15.3298 12.5097 16.9929C12.5097 18.6561 11.1358 20.03 9.47266 20.03H6.00176V24.224H10.1958C14.1728 24.224 17.4991 20.8977 17.4991 16.9206C17.4991 15.0406 16.776 13.3051 15.619 12.0758C15.5467 12.0035 15.4744 11.9312 15.4744 11.8589C16.7037 10.5573 17.4991 8.89418 17.4991 6.9418C17.4991 3.32628 14.7513 0.361552 11.2081 0C11.1358 0 11.1358 0 11.0635 0H10.485H9.32804H4.194H0V4.33862V9.61729V13.9559V20.03H4.12169ZM98.6314 5.49559C94.6543 5.49559 91.4004 8.74956 91.4004 12.7266C91.4004 16.7037 94.6543 19.9577 98.6314 19.9577C102.608 19.9577 105.862 16.7037 105.862 12.7266C105.935 8.74956 102.681 5.49559 98.6314 5.49559ZM95.6667 12.7266C95.6667 11.0635 96.9683 9.7619 98.6314 9.7619C100.295 9.7619 101.596 11.0635 101.596 12.7266C101.596 14.3898 100.295 15.6914 98.6314 15.6914C97.0406 15.6914 95.6667 14.3898 95.6667 12.7266ZM90.8219 15.6914C89.1587 15.6914 87.8571 14.3898 87.8571 12.7266C87.8571 11.0635 89.1587 9.7619 90.8219 9.7619V5.49559C88.7249 5.49559 86.9171 6.36331 85.5432 7.73721C84.2416 6.36331 82.3615 5.49559 80.2645 5.49559V9.7619C81.9277 9.7619 83.2293 11.0635 83.2293 12.7266C83.2293 14.3898 81.9277 15.6914 80.2645 15.6914H79.1076H78.0952H73.9735H71.4427C69.7795 15.6914 68.4056 14.3175 68.4056 12.6543C68.4056 10.9912 69.7795 9.61729 71.4427 9.61729H73.5397L70.8642 14.4621H74.2628H76.4321L76.7213 13.9559L79.1076 9.61729V9.0388V7.88183V6.65255V5.35097H73.9735H70.5026C66.4533 5.35097 63.1993 8.67725 63.1993 12.6543C63.1993 16.7037 66.5256 19.9577 70.5026 19.9577H73.9735H78.0952H79.1076H80.2645C82.3615 19.9577 84.1693 19.0899 85.5432 17.716C86.8448 19.0899 88.7249 19.9577 90.8219 19.9577V15.6914ZM116.347 19.9577H112.226V24.224H116.347C116.926 24.224 117.577 24.2963 118.228 24.224C120.903 23.9347 123 21.6208 123 18.9453V18.3668V5.35097H113.6C113.166 5.35097 112.732 5.35097 112.37 5.49559C109.406 6.07407 107.164 8.74956 107.164 11.8589C107.164 14.9683 109.406 17.6437 112.37 18.2222C112.804 18.2945 113.166 18.3668 113.6 18.3668H116.42V14.0282H114.467C113.021 14.0282 111.937 12.582 112.443 11.1358C112.732 10.2681 113.527 9.68959 114.467 9.68959H116.42H118.3V12.2928V13.9559V18.2945V18.6561C118.3 19.3792 117.721 19.9577 116.926 19.9577H116.347ZM55.679 19.9577H51.5573V24.224H55.679C56.2575 24.224 56.9083 24.2963 57.4868 24.224C60.1623 23.9347 62.2593 21.6208 62.2593 18.9453V18.3668V5.35097H52.7866C52.3527 5.35097 51.9189 5.35097 51.5573 5.49559C48.5926 6.07407 46.351 8.74956 46.351 11.8589C46.351 14.9683 48.5926 17.6437 51.5573 18.2222C51.9912 18.2945 52.3527 18.3668 52.7866 18.3668H55.6067V14.0282H53.6543C52.2081 14.0282 51.1235 12.582 51.6296 11.1358C51.9189 10.2681 52.7143 9.68959 53.6543 9.68959H55.6067H57.4145V12.2928V13.9559V18.2945V18.6561C57.4145 19.3792 56.836 19.9577 56.0406 19.9577H55.679ZM33.769 15.6914H28.6349H26.1041C24.4409 15.6914 23.067 14.3175 23.067 12.6543C23.067 10.9912 24.4409 9.61729 26.1041 9.61729H28.2011L25.5979 14.4621H28.9965H31.1658L31.455 13.9559L33.8413 9.61729V9.0388V7.88183V6.65255V5.35097H28.6349H25.164C21.1146 5.35097 17.8607 8.67725 17.8607 12.6543C17.8607 16.7037 21.187 19.9577 25.164 19.9577H28.6349H33.769V24.1517H35.5767H38.7584C42.8078 24.1517 46.0617 20.8254 46.0617 16.8483C46.0617 14.9683 45.3386 13.2328 44.1817 12.0035C45.3386 10.8466 46.0617 9.25573 46.0617 7.44797C46.0617 6.72487 45.9171 6.00176 45.7002 5.35097H39.9877C40.6384 5.78483 41.0723 6.50794 41.0723 7.30335C41.0723 8.53263 40.06 9.54497 38.8307 9.54497H35.5767V13.8836H38.0353C39.6984 13.8836 41.0723 15.2575 41.0723 16.9206C41.0723 18.5838 39.6984 19.9577 38.0353 19.9577H35.5767H33.769V15.6914Z" fill="black"/>
</svg>
