<svg width="104" height="104" viewBox="0 0 104 104" fill="none" xmlns="http://www.w3.org/2000/svg">
<path d="M43.2555 46.4026V35.0864C43.2555 33.3888 44.658 32 46.3723 32H55.6276C57.3418 32 58.7443 33.3894 58.7443 35.0864V46.4026M43.2555 46.4026C44.4865 46.4026 45.4843 47.3908 45.4843 48.6098C45.4843 49.8287 44.4865 50.8169 43.2555 50.8169C42.0245 50.8169 41.0267 49.8287 41.0267 48.6098C41.0267 47.3908 42.0245 46.4026 43.2555 46.4026ZM58.7443 46.4026C59.9753 46.4026 60.9732 47.3908 60.9732 48.6098C60.9732 49.8287 59.9753 50.8169 58.7443 50.8169C57.5134 50.8169 56.5155 49.8287 56.5155 48.6098C56.5155 47.3955 57.5057 46.4106 58.73 46.4028L58.7443 46.4026ZM64.4112 39.2941L68 71H34L37.5888 39.2941H64.4112Z" stroke="black" stroke-width="2" stroke-linecap="round" stroke-linejoin="round"/>
</svg>
