<svg width="61" height="36" viewBox="0 0 61 36" fill="none" xmlns="http://www.w3.org/2000/svg">
<path d="M19.7254 1.40625H41.6V19.8558M33.1979 22.0713H1M33.1979 14.6987H6.97789M33.1979 7.32637H12.7722M41.6 6.57891H51.0159C53.289 6.7738 54.8969 7.93039 56.0114 9.8002L59.9971 19.1431V28.4011C60.0467 29.9634 59.4537 30.6868 58.2956 30.6728H51.7229M51.7229 30.6728C51.7229 33.2851 49.6475 35.4028 47.0875 35.4028C44.5272 35.4028 42.4518 33.2851 42.4518 30.6728M51.7229 30.6728C51.7229 29.3479 51.189 28.1504 50.3287 27.2916C49.4929 26.457 48.3492 25.9425 47.0875 25.9425C44.5272 25.9425 42.4518 28.0604 42.4518 30.6728M42.4518 30.6728H23.7649M23.7649 30.6728C23.7649 33.2851 21.6893 35.4028 19.1292 35.4028C16.5692 35.4028 14.4936 33.2851 14.4936 30.6728M23.7649 30.6728C23.7649 28.0604 21.6893 25.9425 19.1292 25.9425C16.5692 25.9425 14.4936 28.0604 14.4936 30.6728M14.4936 30.6728H5.09466" stroke="black" stroke-linecap="round" stroke-linejoin="round"/>
</svg>
