<svg width="36" height="41" viewBox="0 0 36 41" fill="none" xmlns="http://www.w3.org/2000/svg">
<path d="M10.2555 15.8076V4.49241C10.2555 2.79496 11.658 1.40625 13.3723 1.40625H22.6276C24.3418 1.40625 25.7443 2.79549 25.7443 4.49241V15.8076M10.2555 15.8076C11.4865 15.8076 12.4843 16.7957 12.4843 18.0145C12.4843 19.2334 11.4865 20.2215 10.2555 20.2215C9.02454 20.2215 8.02667 19.2334 8.02667 18.0145C8.02667 16.7957 9.02454 15.8076 10.2555 15.8076ZM25.7443 15.8076C26.9753 15.8076 27.9732 16.7957 27.9732 18.0145C27.9732 19.2334 26.9753 20.2215 25.7443 20.2215C24.5134 20.2215 23.5155 19.2334 23.5155 18.0145C23.5155 16.8004 24.5057 15.8156 25.73 15.8078L25.7443 15.8076ZM31.4112 8.69971L35 40.4028H1L4.58883 8.69971H31.4112Z" stroke="black" stroke-linecap="round" stroke-linejoin="round"/>
</svg>
